<?xml version="1.0" encoding="UTF-8" standalone="no"?>
<!DOCTYPE svg PUBLIC "-//W3C//DTD SVG 1.1//EN"
 "http://www.w3.org/Graphics/SVG/1.1/DTD/svg11.dtd">
<!-- Generated by graphviz version 2.38.0 (20140413.2041)
 -->
<!-- Title: G Pages: 1 -->
<svg width="176pt" height="218pt"
 viewBox="0.00 0.00 176.00 218.00" xmlns="http://www.w3.org/2000/svg" xmlns:xlink="http://www.w3.org/1999/xlink">
<g id="graph0" class="graph" transform="scale(1 1) rotate(0) translate(4 214)">
<title>G</title>
<polygon fill="white" stroke="none" points="-4,4 -4,-214 172,-214 172,4 -4,4"/>
<!-- MOM -->
<g id="node1" class="node"><title>MOM</title>
<ellipse fill="none" stroke="black" cx="86" cy="-192" rx="33.5952" ry="18"/>
<text text-anchor="middle" x="86" y="-188.3" font-family="Times,serif" font-size="14.00">MOM</text>
</g>
<!-- OPP -->
<g id="node2" class="node"><title>OPP</title>
<ellipse fill="none" stroke="black" cx="27" cy="-105" rx="27" ry="18"/>
<text text-anchor="middle" x="27" y="-101.3" font-family="Times,serif" font-size="14.00">OPP</text>
</g>
<!-- MOM&#45;&gt;OPP -->
<g id="edge1" class="edge"><title>MOM&#45;&gt;OPP</title>
<path fill="none" stroke="black" d="M54.7459,-185.014C38.4362,-180.133 19.871,-171.413 10,-156 4.9889,-148.175 6.6095,-138.71 10.3965,-130.129"/>
<polygon fill="black" stroke="black" points="13.4983,-131.751 15.1448,-121.285 7.33087,-128.44 13.4983,-131.751"/>
<text text-anchor="middle" x="25.5" y="-144.8" font-family="Times,serif" font-size="14.00">0.291</text>
</g>
<!-- SEX -->
<g id="node3" class="node"><title>SEX</title>
<ellipse fill="none" stroke="black" cx="86" cy="-18" rx="27.0966" ry="18"/>
<text text-anchor="middle" x="86" y="-14.3" font-family="Times,serif" font-size="14.00">SEX</text>
</g>
<!-- MOM&#45;&gt;SEX -->
<g id="edge3" class="edge"><title>MOM&#45;&gt;SEX</title>
<path fill="none" stroke="black" d="M91.2664,-174.077C92.7894,-168.391 94.244,-161.975 95,-156 100.69,-111.025 100.69,-98.9748 95,-54 94.6574,-51.2924 94.1714,-48.4943 93.6006,-45.7148"/>
<polygon fill="black" stroke="black" points="96.99,-44.839 91.2664,-35.9233 90.1808,-46.4623 96.99,-44.839"/>
<text text-anchor="middle" x="114.5" y="-101.3" font-family="Times,serif" font-size="14.00">0.227</text>
</g>
<!-- OPP&#45;&gt;MOM -->
<g id="edge5" class="edge"><title>OPP&#45;&gt;MOM</title>
<path fill="none" stroke="black" d="M37.9419,-121.764C46.5874,-134.219 58.8135,-151.833 68.7703,-166.177"/>
<polygon fill="black" stroke="black" points="66.0468,-168.392 74.6242,-174.611 71.7973,-164.4 66.0468,-168.392"/>
<text text-anchor="middle" x="75.5" y="-144.8" font-family="Times,serif" font-size="14.00">0.085</text>
</g>
<!-- OPP&#45;&gt;SEX -->
<g id="edge6" class="edge"><title>OPP&#45;&gt;SEX</title>
<path fill="none" stroke="black" d="M18.1221,-87.6439C13.8236,-77.3342 10.7928,-64.1087 17,-54 24.5053,-41.7773 37.7544,-33.6617 50.6498,-28.3535"/>
<polygon fill="black" stroke="black" points="52.145,-31.5338 60.3411,-24.82 49.7471,-24.9573 52.145,-31.5338"/>
<text text-anchor="middle" x="32.5" y="-57.8" font-family="Times,serif" font-size="14.00">0.063</text>
</g>
<!-- SEX&#45;&gt;MOM -->
<g id="edge4" class="edge"><title>SEX&#45;&gt;MOM</title>
<path fill="none" stroke="black" d="M100.269,-33.4382C111.885,-46.2811 127.399,-66.2022 134,-87 138.84,-102.25 138.84,-107.75 134,-123 128.743,-139.562 117.834,-155.569 107.743,-167.887"/>
<polygon fill="black" stroke="black" points="104.82,-165.919 100.966,-175.788 110.133,-170.476 104.82,-165.919"/>
<text text-anchor="middle" x="152.5" y="-101.3" font-family="Times,serif" font-size="14.00">0.193</text>
</g>
<!-- SEX&#45;&gt;OPP -->
<g id="edge2" class="edge"><title>SEX&#45;&gt;OPP</title>
<path fill="none" stroke="black" d="M75.0473,-34.7793C66.2495,-47.4541 53.7489,-65.4634 43.7037,-79.9353"/>
<polygon fill="black" stroke="black" points="40.6485,-78.1989 37.8215,-88.4097 46.3989,-82.1905 40.6485,-78.1989"/>
<text text-anchor="middle" x="75.5" y="-57.8" font-family="Times,serif" font-size="14.00">0.251</text>
</g>
</g>
</svg>
