<?xml version="1.0" encoding="UTF-8" standalone="no"?>
<!DOCTYPE svg PUBLIC "-//W3C//DTD SVG 1.1//EN"
 "http://www.w3.org/Graphics/SVG/1.1/DTD/svg11.dtd">
<!-- Generated by graphviz version 2.38.0 (20140413.2041)
 -->
<!-- Title: G Pages: 1 -->
<svg width="343pt" height="218pt"
 viewBox="0.00 0.00 343.29 218.00" xmlns="http://www.w3.org/2000/svg" xmlns:xlink="http://www.w3.org/1999/xlink">
<g id="graph0" class="graph" transform="scale(1 1) rotate(0) translate(4 214)">
<title>G</title>
<polygon fill="white" stroke="none" points="-4,4 -4,-214 339.29,-214 339.29,4 -4,4"/>
<!-- Sexism -->
<g id="node1" class="node"><title>Sexism</title>
<ellipse fill="none" stroke="black" cx="241.29" cy="-192" rx="37.0935" ry="18"/>
<text text-anchor="middle" x="241.29" y="-188.3" font-family="Times,serif" font-size="14.00">Sexism</text>
</g>
<!-- Opposition to women’s career -->
<g id="node2" class="node"><title>Opposition to women’s career</title>
<ellipse fill="none" stroke="black" cx="118.29" cy="-105" rx="118.079" ry="18"/>
<text text-anchor="middle" x="118.29" y="-101.3" font-family="Times,serif" font-size="14.00">Opposition to women’s career</text>
</g>
<!-- Sexism&#45;&gt;Opposition to women’s career -->
<g id="edge1" class="edge"><title>Sexism&#45;&gt;Opposition to women’s career</title>
<path fill="none" stroke="black" d="M212.01,-180.908C196.966,-174.95 178.798,-166.509 164.29,-156 154.489,-148.902 145.156,-139.462 137.489,-130.699"/>
<polygon fill="black" stroke="black" points="140.067,-128.326 130.952,-122.927 134.711,-132.832 140.067,-128.326"/>
<text text-anchor="middle" x="176.79" y="-144.8" font-family="Times,serif" font-size="14.00">0.28</text>
</g>
<!-- Motherhood myths -->
<g id="node3" class="node"><title>Motherhood myths</title>
<ellipse fill="none" stroke="black" cx="241.29" cy="-18" rx="79.0865" ry="18"/>
<text text-anchor="middle" x="241.29" y="-14.3" font-family="Times,serif" font-size="14.00">Motherhood myths</text>
</g>
<!-- Sexism&#45;&gt;Motherhood myths -->
<g id="edge4" class="edge"><title>Sexism&#45;&gt;Motherhood myths</title>
<path fill="none" stroke="black" d="M242.57,-173.965C243.536,-160.219 244.779,-140.377 245.29,-123 245.759,-107.007 245.759,-102.993 245.29,-87 244.895,-73.5602 244.061,-58.6456 243.257,-46.2171"/>
<polygon fill="black" stroke="black" points="246.736,-45.7761 242.57,-36.0347 239.751,-46.2478 246.736,-45.7761"/>
<text text-anchor="middle" x="260.79" y="-101.3" font-family="Times,serif" font-size="14.00">0.207</text>
</g>
<!-- Opposition to women’s career&#45;&gt;Sexism -->
<g id="edge5" class="edge"><title>Opposition to women’s career&#45;&gt;Sexism</title>
<path fill="none" stroke="black" d="M156.363,-122.102C167.384,-127.46 179.165,-133.895 189.29,-141 200.342,-148.756 211.308,-158.847 220.3,-167.931"/>
<polygon fill="black" stroke="black" points="217.891,-170.475 227.348,-175.252 222.933,-165.62 217.891,-170.475"/>
<text text-anchor="middle" x="222.79" y="-144.8" font-family="Times,serif" font-size="14.00">0.087</text>
</g>
<!-- Opposition to women’s career&#45;&gt;Motherhood myths -->
<g id="edge6" class="edge"><title>Opposition to women’s career&#45;&gt;Motherhood myths</title>
<path fill="none" stroke="black" d="M123.28,-86.6329C127.163,-75.9199 133.556,-62.6249 143.29,-54 152.679,-45.6802 164.184,-39.2988 175.968,-34.4163"/>
<polygon fill="black" stroke="black" points="177.339,-37.6394 185.442,-30.8135 174.851,-31.0965 177.339,-37.6394"/>
<text text-anchor="middle" x="155.79" y="-57.8" font-family="Times,serif" font-size="14.00">0.07</text>
</g>
<!-- Motherhood myths&#45;&gt;Sexism -->
<g id="edge3" class="edge"><title>Motherhood myths&#45;&gt;Sexism</title>
<path fill="none" stroke="black" d="M266.384,-35.1298C282.259,-47.1448 300.942,-65.2018 307.29,-87 316.252,-117.777 307.862,-132.29 286.29,-156 281.546,-161.214 275.959,-166.235 270.365,-170.768"/>
<polygon fill="black" stroke="black" points="268.037,-168.143 262.261,-177.025 272.315,-173.684 268.037,-168.143"/>
<text text-anchor="middle" x="322.79" y="-101.3" font-family="Times,serif" font-size="14.00">0.22</text>
</g>
<!-- Motherhood myths&#45;&gt;Opposition to women’s career -->
<g id="edge2" class="edge"><title>Motherhood myths&#45;&gt;Opposition to women’s career</title>
<path fill="none" stroke="black" d="M217.458,-35.4692C198.509,-48.5638 171.801,-67.0206 150.875,-81.4816"/>
<polygon fill="black" stroke="black" points="148.827,-78.6422 142.59,-87.2067 152.807,-84.4009 148.827,-78.6422"/>
<text text-anchor="middle" x="201.79" y="-57.8" font-family="Times,serif" font-size="14.00">0.257</text>
</g>
</g>
</svg>
