<?xml version="1.0" encoding="UTF-8" standalone="no"?>
<!DOCTYPE svg PUBLIC "-//W3C//DTD SVG 1.1//EN"
 "http://www.w3.org/Graphics/SVG/1.1/DTD/svg11.dtd">
<!-- Generated by graphviz version 2.38.0 (20140413.2041)
 -->
<!-- Title: G Pages: 1 -->
<svg width="412pt" height="218pt"
 viewBox="0.00 0.00 412.49 218.00" xmlns="http://www.w3.org/2000/svg" xmlns:xlink="http://www.w3.org/1999/xlink">
<g id="graph0" class="graph" transform="scale(1 1) rotate(0) translate(4 214)">
<title>G</title>
<polygon fill="white" stroke="none" points="-4,4 -4,-214 408.487,-214 408.487,4 -4,4"/>
<!-- Motherhood myths -->
<g id="node1" class="node"><title>Motherhood myths</title>
<ellipse fill="none" stroke="black" cx="296.487" cy="-192" rx="99.3824" ry="18"/>
<text text-anchor="middle" x="296.487" y="-188.3" font-family="Times,serif" font-size="14.00">Motherhood myths</text>
</g>
<!-- Opposition to women&#39;s career -->
<g id="node2" class="node"><title>Opposition to women&#39;s career</title>
<ellipse fill="none" stroke="black" cx="149.487" cy="-105" rx="149.473" ry="18"/>
<text text-anchor="middle" x="149.487" y="-101.3" font-family="Times,serif" font-size="14.00">Opposition to women&#39;s career</text>
</g>
<!-- Motherhood myths&#45;&gt;Opposition to women&#39;s career -->
<g id="edge1" class="edge"><title>Motherhood myths&#45;&gt;Opposition to women&#39;s career</title>
<path fill="none" stroke="black" d="M240.468,-177.043C225.162,-171.809 209.066,-164.903 195.487,-156 185.367,-149.365 175.97,-140.018 168.342,-131.198"/>
<polygon fill="black" stroke="black" points="170.926,-128.829 161.865,-123.339 165.524,-133.282 170.926,-128.829"/>
<text text-anchor="middle" x="215.987" y="-144.8" font-family="Times,serif" font-size="14.00">0.218</text>
</g>
<!-- Sexism -->
<g id="node3" class="node"><title>Sexism</title>
<ellipse fill="none" stroke="black" cx="298.487" cy="-18" rx="44.393" ry="18"/>
<text text-anchor="middle" x="298.487" y="-14.3" font-family="Times,serif" font-size="14.00">Sexism</text>
</g>
<!-- Motherhood myths&#45;&gt;Sexism -->
<g id="edge3" class="edge"><title>Motherhood myths&#45;&gt;Sexism</title>
<path fill="none" stroke="black" d="M303.036,-173.801C304.854,-168.209 306.579,-161.918 307.487,-156 313.295,-118.145 308.267,-73.8417 303.718,-46.0956"/>
<polygon fill="black" stroke="black" points="307.119,-45.2276 301.957,-35.9753 300.223,-46.4272 307.119,-45.2276"/>
<text text-anchor="middle" x="329.987" y="-101.3" font-family="Times,serif" font-size="14.00">0.155</text>
</g>
<!-- Opposition to women&#39;s career&#45;&gt;Motherhood myths -->
<g id="edge6" class="edge"><title>Opposition to women&#39;s career&#45;&gt;Motherhood myths</title>
<path fill="none" stroke="black" d="M197.276,-122.122C210.385,-127.365 224.328,-133.735 236.487,-141 248.916,-148.427 261.415,-158.357 271.764,-167.411"/>
<polygon fill="black" stroke="black" points="269.442,-170.03 279.222,-174.107 274.119,-164.821 269.442,-170.03"/>
<text text-anchor="middle" x="280.487" y="-144.8" font-family="Times,serif" font-size="14.00">&#45;0.052</text>
</g>
<!-- Opposition to women&#39;s career&#45;&gt;Sexism -->
<g id="edge4" class="edge"><title>Opposition to women&#39;s career&#45;&gt;Sexism</title>
<path fill="none" stroke="black" d="M151.183,-86.9502C153.144,-76.0892 157.373,-62.5098 166.487,-54 187.369,-34.5023 217.84,-25.6053 244.245,-21.6493"/>
<polygon fill="black" stroke="black" points="245.045,-25.0751 254.514,-20.3219 244.148,-18.1329 245.045,-25.0751"/>
<text text-anchor="middle" x="186.987" y="-57.8" font-family="Times,serif" font-size="14.00">0.034</text>
</g>
<!-- Sexism&#45;&gt;Motherhood myths -->
<g id="edge5" class="edge"><title>Sexism&#45;&gt;Motherhood myths</title>
<path fill="none" stroke="black" d="M316.718,-34.4938C330.027,-47.0837 346.998,-66.127 354.487,-87 359.89,-102.06 360.02,-107.987 354.487,-123 348.266,-139.88 335.784,-155.417 323.987,-167.366"/>
<polygon fill="black" stroke="black" points="321.549,-164.855 316.793,-174.323 326.415,-169.887 321.549,-164.855"/>
<text text-anchor="middle" x="381.487" y="-101.3" font-family="Times,serif" font-size="14.00">&#45;0.019</text>
</g>
<!-- Sexism&#45;&gt;Opposition to women&#39;s career -->
<g id="edge2" class="edge"><title>Sexism&#45;&gt;Opposition to women&#39;s career</title>
<path fill="none" stroke="black" d="M274.14,-33.0592C256.712,-43.1068 232.679,-56.9287 211.487,-69 203.921,-73.3092 195.826,-77.8968 188.064,-82.2833"/>
<polygon fill="black" stroke="black" points="186.145,-79.3474 179.157,-87.3116 189.586,-85.4431 186.145,-79.3474"/>
<text text-anchor="middle" x="254.987" y="-57.8" font-family="Times,serif" font-size="14.00">0.182</text>
</g>
</g>
</svg>
