<?xml version="1.0" encoding="UTF-8" standalone="no"?>
<!DOCTYPE svg PUBLIC "-//W3C//DTD SVG 1.1//EN"
 "http://www.w3.org/Graphics/SVG/1.1/DTD/svg11.dtd">
<!-- Generated by graphviz version 2.38.0 (20140413.2041)
 -->
<!-- Title: G Pages: 1 -->
<svg width="171pt" height="218pt"
 viewBox="0.00 0.00 171.00 218.00" xmlns="http://www.w3.org/2000/svg" xmlns:xlink="http://www.w3.org/1999/xlink">
<g id="graph0" class="graph" transform="scale(1 1) rotate(0) translate(4 214)">
<title>G</title>
<polygon fill="white" stroke="none" points="-4,4 -4,-214 167,-214 167,4 -4,4"/>
<!-- MOM -->
<g id="node1" class="node"><title>MOM</title>
<ellipse fill="none" stroke="black" cx="86" cy="-192" rx="33.5952" ry="18"/>
<text text-anchor="middle" x="86" y="-188.3" font-family="Times,serif" font-size="14.00">MOM</text>
</g>
<!-- OPP -->
<g id="node2" class="node"><title>OPP</title>
<ellipse fill="none" stroke="black" cx="27" cy="-105" rx="27" ry="18"/>
<text text-anchor="middle" x="27" y="-101.3" font-family="Times,serif" font-size="14.00">OPP</text>
</g>
<!-- MOM&#45;&gt;OPP -->
<g id="edge1" class="edge"><title>MOM&#45;&gt;OPP</title>
<path fill="none" stroke="black" d="M55.1955,-184.444C39.7024,-179.421 22.2851,-170.749 13,-156 8.30552,-148.543 9.23727,-139.491 12.1831,-131.149"/>
<polygon fill="black" stroke="black" points="15.4671,-132.378 16.35,-121.82 9.07577,-129.523 15.4671,-132.378"/>
<text text-anchor="middle" x="28.5" y="-144.8" font-family="Times,serif" font-size="14.00">0.259</text>
</g>
<!-- SEX -->
<g id="node3" class="node"><title>SEX</title>
<ellipse fill="none" stroke="black" cx="83" cy="-18" rx="27.0966" ry="18"/>
<text text-anchor="middle" x="83" y="-14.3" font-family="Times,serif" font-size="14.00">SEX</text>
</g>
<!-- MOM&#45;&gt;SEX -->
<g id="edge2" class="edge"><title>MOM&#45;&gt;SEX</title>
<path fill="none" stroke="black" d="M88.5775,-174.052C92.1115,-148.096 97.4384,-96.987 92,-54 91.6574,-51.2924 91.1714,-48.4943 90.6006,-45.7148"/>
<polygon fill="black" stroke="black" points="93.99,-44.839 88.2664,-35.9233 87.1808,-46.4623 93.99,-44.839"/>
<text text-anchor="middle" x="109.5" y="-101.3" font-family="Times,serif" font-size="14.00">0.233</text>
</g>
<!-- OPP&#45;&gt;MOM -->
<g id="edge6" class="edge"><title>OPP&#45;&gt;MOM</title>
<path fill="none" stroke="black" d="M37.9419,-121.764C46.5874,-134.219 58.8135,-151.833 68.7703,-166.177"/>
<polygon fill="black" stroke="black" points="66.0468,-168.392 74.6242,-174.611 71.7973,-164.4 66.0468,-168.392"/>
<text text-anchor="middle" x="72.5" y="-144.8" font-family="Times,serif" font-size="14.00">0.15</text>
</g>
<!-- OPP&#45;&gt;SEX -->
<g id="edge5" class="edge"><title>OPP&#45;&gt;SEX</title>
<path fill="none" stroke="black" d="M17.6817,-87.697C13.1318,-77.4084 9.82864,-64.1865 16,-54 23.207,-42.104 35.9302,-34.0591 48.3669,-28.7154"/>
<polygon fill="black" stroke="black" points="49.6352,-31.9776 57.7254,-25.1366 47.1349,-25.4394 49.6352,-31.9776"/>
<text text-anchor="middle" x="31.5" y="-57.8" font-family="Times,serif" font-size="14.00">0.167</text>
</g>
<!-- SEX&#45;&gt;MOM -->
<g id="edge4" class="edge"><title>SEX&#45;&gt;MOM</title>
<path fill="none" stroke="black" d="M96.9066,-33.8069C108.019,-46.7262 122.735,-66.5588 129,-87 133.688,-102.298 133.451,-107.632 129,-123 124.359,-139.024 114.688,-154.898 105.692,-167.273"/>
<polygon fill="black" stroke="black" points="102.902,-165.16 99.6412,-175.241 108.476,-169.394 102.902,-165.16"/>
<text text-anchor="middle" x="147.5" y="-101.3" font-family="Times,serif" font-size="14.00">0.202</text>
</g>
<!-- SEX&#45;&gt;OPP -->
<g id="edge3" class="edge"><title>SEX&#45;&gt;OPP</title>
<path fill="none" stroke="black" d="M72.5141,-34.9162C64.2359,-47.4812 52.5449,-65.2264 43.0847,-79.5856"/>
<polygon fill="black" stroke="black" points="40.1121,-77.736 37.5332,-88.0122 45.9575,-81.5871 40.1121,-77.736"/>
<text text-anchor="middle" x="73.5" y="-57.8" font-family="Times,serif" font-size="14.00">0.224</text>
</g>
</g>
</svg>
