<?xml version="1.0" encoding="UTF-8" standalone="no"?>
<!DOCTYPE svg PUBLIC "-//W3C//DTD SVG 1.1//EN"
 "http://www.w3.org/Graphics/SVG/1.1/DTD/svg11.dtd">
<!-- Generated by graphviz version 2.38.0 (20140413.2041)
 -->
<!-- Title: G Pages: 1 -->
<svg width="683pt" height="479pt"
 viewBox="0.00 0.00 683.00 479.00" xmlns="http://www.w3.org/2000/svg" xmlns:xlink="http://www.w3.org/1999/xlink">
<g id="graph0" class="graph" transform="scale(1 1) rotate(0) translate(4 475)">
<title>G</title>
<polygon fill="white" stroke="none" points="-4,4 -4,-475 679,-475 679,4 -4,4"/>
<!-- Use -->
<g id="node1" class="node"><title>Use</title>
<ellipse fill="none" stroke="black" cx="347" cy="-366" rx="27" ry="18"/>
<text text-anchor="middle" x="347" y="-362.3" font-family="Times,serif" font-size="14.00">Use</text>
</g>
<!-- BI -->
<g id="node2" class="node"><title>BI</title>
<ellipse fill="none" stroke="black" cx="322" cy="-279" rx="27" ry="18"/>
<text text-anchor="middle" x="322" y="-275.3" font-family="Times,serif" font-size="14.00">BI</text>
</g>
<!-- Use&#45;&gt;BI -->
<g id="edge1" class="edge"><title>Use&#45;&gt;BI</title>
<path fill="none" stroke="black" d="M324.151,-356.147C312.912,-350.49 300.426,-341.944 294,-330 288.999,-320.705 292.952,-310.526 299.297,-301.793"/>
<polygon fill="black" stroke="black" points="302.143,-303.846 305.898,-293.939 296.785,-299.342 302.143,-303.846"/>
<text text-anchor="middle" x="309.5" y="-318.8" font-family="Times,serif" font-size="14.00">0.608</text>
</g>
<!-- PU -->
<g id="node3" class="node"><title>PU</title>
<ellipse fill="none" stroke="black" cx="287" cy="-192" rx="27" ry="18"/>
<text text-anchor="middle" x="287" y="-188.3" font-family="Times,serif" font-size="14.00">PU</text>
</g>
<!-- Use&#45;&gt;PU -->
<g id="edge4" class="edge"><title>Use&#45;&gt;PU</title>
<path fill="none" stroke="black" d="M323.785,-356.29C300.716,-346.13 267.084,-326.82 255,-297 244.185,-270.311 257.597,-238.53 270.218,-217.185"/>
<polygon fill="black" stroke="black" points="273.349,-218.778 275.687,-208.444 267.415,-215.064 273.349,-218.778"/>
<text text-anchor="middle" x="270.5" y="-275.3" font-family="Times,serif" font-size="14.00">0.421</text>
</g>
<!-- Qu -->
<g id="node4" class="node"><title>Qu</title>
<ellipse fill="none" stroke="black" cx="433" cy="-105" rx="27" ry="18"/>
<text text-anchor="middle" x="433" y="-101.3" font-family="Times,serif" font-size="14.00">Qu</text>
</g>
<!-- Use&#45;&gt;Qu -->
<g id="edge17" class="edge"><title>Use&#45;&gt;Qu</title>
<path fill="none" stroke="black" d="M369.103,-355.495C405.258,-338.663 476.285,-299.934 509,-243 531.798,-203.325 548.835,-178.767 523,-141 511.045,-123.524 488.98,-114.772 469.69,-110.391"/>
<polygon fill="black" stroke="black" points="470.119,-106.909 459.634,-108.427 468.777,-113.779 470.119,-106.909"/>
<text text-anchor="middle" x="532.5" y="-231.8" font-family="Times,serif" font-size="14.00">0.227</text>
</g>
<!-- Im -->
<g id="node5" class="node"><title>Im</title>
<ellipse fill="none" stroke="black" cx="491" cy="-18" rx="27" ry="18"/>
<text text-anchor="middle" x="491" y="-14.3" font-family="Times,serif" font-size="14.00">Im</text>
</g>
<!-- Use&#45;&gt;Im -->
<g id="edge12" class="edge"><title>Use&#45;&gt;Im</title>
<path fill="none" stroke="black" d="M373.881,-363.082C446.99,-357.132 644,-335.912 644,-280 644,-280 644,-280 644,-104 644,-51.0018 572.981,-30.7645 527.714,-23.2483"/>
<polygon fill="black" stroke="black" points="528.064,-19.7612 517.651,-21.7139 527.009,-26.6812 528.064,-19.7612"/>
<text text-anchor="middle" x="659.5" y="-188.3" font-family="Times,serif" font-size="14.00">0.272</text>
</g>
<!-- PEU -->
<g id="node7" class="node"><title>PEU</title>
<ellipse fill="none" stroke="black" cx="143" cy="-18" rx="27.0966" ry="18"/>
<text text-anchor="middle" x="143" y="-14.3" font-family="Times,serif" font-size="14.00">PEU</text>
</g>
<!-- Use&#45;&gt;PEU -->
<g id="edge19" class="edge"><title>Use&#45;&gt;PEU</title>
<path fill="none" stroke="black" d="M320.288,-363.195C246.622,-357.49 46,-336.744 46,-280 46,-280 46,-280 46,-104 46,-68.9964 82.1715,-45.0465 110.338,-31.7032"/>
<polygon fill="black" stroke="black" points="111.828,-34.8708 119.519,-27.5841 108.962,-28.4841 111.828,-34.8708"/>
<text text-anchor="middle" x="61.5" y="-188.3" font-family="Times,serif" font-size="14.00">0.221</text>
</g>
<!-- BI&#45;&gt;Use -->
<g id="edge2" class="edge"><title>BI&#45;&gt;Use</title>
<path fill="none" stroke="black" d="M326.929,-296.758C330.419,-308.625 335.173,-324.787 339.177,-338.403"/>
<polygon fill="black" stroke="black" points="335.881,-339.601 342.061,-348.207 342.597,-337.625 335.881,-339.601"/>
<text text-anchor="middle" x="350.5" y="-318.8" font-family="Times,serif" font-size="14.00">0.513</text>
</g>
<!-- BI&#45;&gt;PU -->
<g id="edge7" class="edge"><title>BI&#45;&gt;PU</title>
<path fill="none" stroke="black" d="M315.085,-261.207C310.116,-249.138 303.322,-232.638 297.661,-218.891"/>
<polygon fill="black" stroke="black" points="300.825,-217.383 293.781,-209.469 294.353,-220.049 300.825,-217.383"/>
<text text-anchor="middle" x="321.5" y="-231.8" font-family="Times,serif" font-size="14.00">0.353</text>
</g>
<!-- BI&#45;&gt;Im -->
<g id="edge21" class="edge"><title>BI&#45;&gt;Im</title>
<path fill="none" stroke="black" d="M341.513,-266.319C345.536,-264.291 349.822,-262.39 354,-261 378.753,-252.766 452.12,-261.995 470,-243 520.667,-189.172 507.897,-92.5064 497.794,-45.7612"/>
<polygon fill="black" stroke="black" points="501.155,-44.7578 495.513,-35.7902 494.331,-46.3189 501.155,-44.7578"/>
<text text-anchor="middle" x="521.5" y="-144.8" font-family="Times,serif" font-size="14.00">0.214</text>
</g>
<!-- BI&#45;&gt;PEU -->
<g id="edge25" class="edge"><title>BI&#45;&gt;PEU</title>
<path fill="none" stroke="black" d="M302.242,-266.496C256.264,-239.526 145.289,-173.203 136,-156 117.355,-121.472 125.61,-74.6388 133.862,-45.6426"/>
<polygon fill="black" stroke="black" points="137.288,-46.4085 136.852,-35.8226 130.591,-44.3694 137.288,-46.4085"/>
<text text-anchor="middle" x="151.5" y="-144.8" font-family="Times,serif" font-size="14.00">0.203</text>
</g>
<!-- PU&#45;&gt;Use -->
<g id="edge3" class="edge"><title>PU&#45;&gt;Use</title>
<path fill="none" stroke="black" d="M308.114,-203.276C318.952,-209.335 331.778,-217.813 341,-228 352.072,-240.231 352.386,-245.486 358,-261 362.52,-273.491 375.956,-310.09 370,-330 368.838,-333.886 367.09,-337.74 365.067,-341.392"/>
<polygon fill="black" stroke="black" points="362.038,-339.633 359.648,-349.955 367.953,-343.376 362.038,-339.633"/>
<text text-anchor="middle" x="383.5" y="-275.3" font-family="Times,serif" font-size="14.00">0.434</text>
</g>
<!-- PU&#45;&gt;BI -->
<g id="edge5" class="edge"><title>PU&#45;&gt;BI</title>
<path fill="none" stroke="black" d="M277.764,-208.96C273.172,-219.112 269.632,-232.31 275,-243 278.788,-250.543 285.057,-256.874 291.802,-261.985"/>
<polygon fill="black" stroke="black" points="290.198,-265.124 300.448,-267.806 294.108,-259.318 290.198,-265.124"/>
<text text-anchor="middle" x="287.5" y="-231.8" font-family="Times,serif" font-size="14.00">0.42</text>
</g>
<!-- PU&#45;&gt;Qu -->
<g id="edge22" class="edge"><title>PU&#45;&gt;Qu</title>
<path fill="none" stroke="black" d="M297.304,-175.032C305.102,-164.084 316.717,-149.972 330,-141 350.309,-127.283 376.494,-118.479 397.38,-113.132"/>
<polygon fill="black" stroke="black" points="398.255,-116.521 407.158,-110.778 396.617,-109.716 398.255,-116.521"/>
<text text-anchor="middle" x="345.5" y="-144.8" font-family="Times,serif" font-size="14.00">0.211</text>
</g>
<!-- PU&#45;&gt;Im -->
<g id="edge23" class="edge"><title>PU&#45;&gt;Im</title>
<path fill="none" stroke="black" d="M288.288,-173.793C291.433,-144.592 302.118,-85.449 338,-54 355.071,-39.038 414.728,-28.7262 454.309,-23.3492"/>
<polygon fill="black" stroke="black" points="454.934,-26.7972 464.394,-22.0261 454.023,-19.8567 454.934,-26.7972"/>
<text text-anchor="middle" x="326.5" y="-101.3" font-family="Times,serif" font-size="14.00">0.205</text>
</g>
<!-- ENJ -->
<g id="node6" class="node"><title>ENJ</title>
<ellipse fill="none" stroke="black" cx="176" cy="-105" rx="27" ry="18"/>
<text text-anchor="middle" x="176" y="-101.3" font-family="Times,serif" font-size="14.00">ENJ</text>
</g>
<!-- PU&#45;&gt;ENJ -->
<g id="edge26" class="edge"><title>PU&#45;&gt;ENJ</title>
<path fill="none" stroke="black" d="M266.851,-179.93C255.649,-173.458 241.659,-164.841 230,-156 218.754,-147.472 207.158,-136.993 197.609,-127.836"/>
<polygon fill="black" stroke="black" points="200.037,-125.315 190.435,-120.837 195.149,-130.326 200.037,-125.315"/>
<text text-anchor="middle" x="245.5" y="-144.8" font-family="Times,serif" font-size="14.00">0.202</text>
</g>
<!-- PU&#45;&gt;PEU -->
<g id="edge18" class="edge"><title>PU&#45;&gt;PEU</title>
<path fill="none" stroke="black" d="M279.359,-174.325C274.551,-164.377 267.955,-151.649 261,-141 233.863,-99.4474 226.916,-88.2495 191,-54 184.807,-48.0947 177.587,-42.3409 170.655,-37.2606"/>
<polygon fill="black" stroke="black" points="172.313,-34.146 162.129,-31.225 168.269,-39.8594 172.313,-34.146"/>
<text text-anchor="middle" x="264.5" y="-101.3" font-family="Times,serif" font-size="14.00">0.224</text>
</g>
<!-- Qu&#45;&gt;Use -->
<g id="edge6" class="edge"><title>Qu&#45;&gt;Use</title>
<path fill="none" stroke="black" d="M436.605,-123.115C440.38,-143.877 444.993,-179.844 439,-210 427.565,-267.543 420.33,-283.934 384,-330 380.141,-334.893 375.604,-339.744 371.053,-344.205"/>
<polygon fill="black" stroke="black" points="368.402,-341.893 363.499,-351.285 373.189,-347 368.402,-341.893"/>
<text text-anchor="middle" x="450.5" y="-231.8" font-family="Times,serif" font-size="14.00">0.364</text>
</g>
<!-- Qu&#45;&gt;BI -->
<g id="edge9" class="edge"><title>Qu&#45;&gt;BI</title>
<path fill="none" stroke="black" d="M429.937,-123.294C427.75,-133.225 424.25,-145.725 419,-156 408.252,-177.034 367.05,-226.12 341.931,-255.213"/>
<polygon fill="black" stroke="black" points="339.217,-253.001 335.311,-262.849 344.506,-257.586 339.217,-253.001"/>
<text text-anchor="middle" x="422.5" y="-188.3" font-family="Times,serif" font-size="14.00">0.327</text>
</g>
<!-- Qu&#45;&gt;PU -->
<g id="edge10" class="edge"><title>Qu&#45;&gt;PU</title>
<path fill="none" stroke="black" d="M416.067,-119.091C399.459,-131.814 375.19,-150.058 365,-156 350.519,-164.444 333.635,-172.249 319.285,-178.336"/>
<polygon fill="black" stroke="black" points="317.714,-175.199 309.817,-182.263 320.395,-181.665 317.714,-175.199"/>
<text text-anchor="middle" x="401.5" y="-144.8" font-family="Times,serif" font-size="14.00">0.293</text>
</g>
<!-- Qu&#45;&gt;Im -->
<g id="edge24" class="edge"><title>Qu&#45;&gt;Im</title>
<path fill="none" stroke="black" d="M434.689,-86.6643C436.338,-76.4814 439.59,-63.7399 446,-54 450.339,-47.4066 456.342,-41.5246 462.551,-36.5505"/>
<polygon fill="black" stroke="black" points="465.013,-39.0849 471.008,-30.3491 460.874,-33.4399 465.013,-39.0849"/>
<text text-anchor="middle" x="461.5" y="-57.8" font-family="Times,serif" font-size="14.00">0.203</text>
</g>
<!-- Qu&#45;&gt;PEU -->
<g id="edge15" class="edge"><title>Qu&#45;&gt;PEU</title>
<path fill="none" stroke="black" d="M409.192,-96.3868C377.672,-86.3681 320.317,-68.3492 271,-54 239.559,-44.8521 203.574,-35.0733 177.783,-28.1839"/>
<polygon fill="black" stroke="black" points="178.649,-24.7927 168.085,-25.6014 176.847,-31.557 178.649,-24.7927"/>
<text text-anchor="middle" x="335.5" y="-57.8" font-family="Times,serif" font-size="14.00">0.232</text>
</g>
<!-- Im&#45;&gt;Use -->
<g id="edge8" class="edge"><title>Im&#45;&gt;Use</title>
<path fill="none" stroke="black" d="M512.701,-28.7865C538.178,-41.9343 577,-67.8927 577,-104 577,-280 577,-280 577,-280 577,-320.728 448.503,-348.06 383.599,-359.267"/>
<polygon fill="black" stroke="black" points="382.663,-355.876 373.384,-360.989 383.827,-362.778 382.663,-355.876"/>
<text text-anchor="middle" x="592.5" y="-188.3" font-family="Times,serif" font-size="14.00">0.338</text>
</g>
<!-- ENJ&#45;&gt;Use -->
<g id="edge14" class="edge"><title>ENJ&#45;&gt;Use</title>
<path fill="none" stroke="black" d="M150.605,-111.558C125.704,-118.462 92.7265,-132.323 102,-156 140.424,-254.103 176.611,-269.687 263,-330 278.233,-340.635 297.196,-348.885 313.247,-354.697"/>
<polygon fill="black" stroke="black" points="312.212,-358.042 322.806,-358 314.498,-351.425 312.212,-358.042"/>
<text text-anchor="middle" x="166.5" y="-231.8" font-family="Times,serif" font-size="14.00">0.236</text>
</g>
<!-- ENJ&#45;&gt;PU -->
<g id="edge20" class="edge"><title>ENJ&#45;&gt;PU</title>
<path fill="none" stroke="black" d="M171.314,-122.852C169.444,-133.36 169.122,-146.619 176,-156 192.802,-178.915 224.639,-187.216 249.923,-190.044"/>
<polygon fill="black" stroke="black" points="249.676,-193.536 259.944,-190.925 250.289,-186.563 249.676,-193.536"/>
<text text-anchor="middle" x="191.5" y="-144.8" font-family="Times,serif" font-size="14.00">0.216</text>
</g>
<!-- ENJ&#45;&gt;PEU -->
<g id="edge11" class="edge"><title>ENJ&#45;&gt;PEU</title>
<path fill="none" stroke="black" d="M169.48,-87.2067C164.825,-75.2156 158.472,-58.8511 153.155,-45.1571"/>
<polygon fill="black" stroke="black" points="156.388,-43.8138 149.506,-35.7584 149.863,-46.3472 156.388,-43.8138"/>
<text text-anchor="middle" x="174.5" y="-57.8" font-family="Times,serif" font-size="14.00">0.29</text>
</g>
<!-- SA -->
<g id="node8" class="node"><title>SA</title>
<ellipse fill="none" stroke="black" cx="128" cy="-453" rx="27" ry="18"/>
<text text-anchor="middle" x="128" y="-449.3" font-family="Times,serif" font-size="14.00">SA</text>
</g>
<!-- SA&#45;&gt;Use -->
<g id="edge27" class="edge"><title>SA&#45;&gt;Use</title>
<path fill="none" stroke="black" d="M151.023,-443.064C190.228,-427.847 270.041,-396.87 314.771,-379.509"/>
<polygon fill="black" stroke="black" points="316.23,-382.697 324.286,-375.816 313.697,-376.172 316.23,-382.697"/>
<text text-anchor="middle" x="266.5" y="-405.8" font-family="Times,serif" font-size="14.00">0.201</text>
</g>
<!-- SA&#45;&gt;PEU -->
<g id="edge13" class="edge"><title>SA&#45;&gt;PEU</title>
<path fill="none" stroke="black" d="M102.405,-447.042C65.0513,-438.153 0,-415.683 0,-367 0,-367 0,-367 0,-104 0,-54.5065 64.0806,-33.1865 106.449,-24.4993"/>
<polygon fill="black" stroke="black" points="107.268,-27.9063 116.438,-22.5994 105.96,-21.0296 107.268,-27.9063"/>
<text text-anchor="middle" x="15.5" y="-231.8" font-family="Times,serif" font-size="14.00">0.237</text>
</g>
<!-- Pf -->
<g id="node9" class="node"><title>Pf</title>
<ellipse fill="none" stroke="black" cx="347" cy="-453" rx="27" ry="18"/>
<text text-anchor="middle" x="347" y="-449.3" font-family="Times,serif" font-size="14.00">Pf</text>
</g>
<!-- Pf&#45;&gt;Use -->
<g id="edge16" class="edge"><title>Pf&#45;&gt;Use</title>
<path fill="none" stroke="black" d="M347,-434.799C347,-423.163 347,-407.548 347,-394.237"/>
<polygon fill="black" stroke="black" points="350.5,-394.175 347,-384.175 343.5,-394.175 350.5,-394.175"/>
<text text-anchor="middle" x="359.5" y="-405.8" font-family="Times,serif" font-size="14.00">0.23</text>
</g>
</g>
</svg>
