<?xml version="1.0" encoding="UTF-8" standalone="no"?>
<!DOCTYPE svg PUBLIC "-//W3C//DTD SVG 1.1//EN"
 "http://www.w3.org/Graphics/SVG/1.1/DTD/svg11.dtd">
<!-- Generated by graphviz version 2.38.0 (20140413.2041)
 -->
<!-- Title: G Pages: 1 -->
<svg width="1985pt" height="827pt"
 viewBox="0.00 0.00 1985.00 827.00" xmlns="http://www.w3.org/2000/svg" xmlns:xlink="http://www.w3.org/1999/xlink">
<g id="graph0" class="graph" transform="scale(1 1) rotate(0) translate(4 823)">
<title>G</title>
<polygon fill="white" stroke="none" points="-4,4 -4,-823 1981,-823 1981,4 -4,4"/>
<!-- Use -->
<g id="node1" class="node"><title>Use</title>
<ellipse fill="none" stroke="black" cx="748" cy="-801" rx="27" ry="18"/>
<text text-anchor="middle" x="748" y="-797.3" font-family="Times,serif" font-size="14.00">Use</text>
</g>
<!-- BI -->
<g id="node2" class="node"><title>BI</title>
<ellipse fill="none" stroke="black" cx="1087" cy="-714" rx="27" ry="18"/>
<text text-anchor="middle" x="1087" y="-710.3" font-family="Times,serif" font-size="14.00">BI</text>
</g>
<!-- Use&#45;&gt;BI -->
<g id="edge1" class="edge"><title>Use&#45;&gt;BI</title>
<path fill="none" stroke="black" d="M774.968,-798.286C818.326,-794.998 905.877,-786.158 977,-765 1005.55,-756.507 1036.27,-742.054 1057.97,-730.865"/>
<polygon fill="black" stroke="black" points="1059.74,-733.886 1066.97,-726.142 1056.49,-727.687 1059.74,-733.886"/>
<text text-anchor="middle" x="1032.5" y="-753.8" font-family="Times,serif" font-size="14.00">0.591</text>
</g>
<!-- PU -->
<g id="node3" class="node"><title>PU</title>
<ellipse fill="none" stroke="black" cx="824" cy="-18" rx="27" ry="18"/>
<text text-anchor="middle" x="824" y="-14.3" font-family="Times,serif" font-size="14.00">PU</text>
</g>
<!-- Use&#45;&gt;PU -->
<g id="edge5" class="edge"><title>Use&#45;&gt;PU</title>
<path fill="none" stroke="black" d="M720.731,-799.458C602.216,-796.987 135.04,-785.985 73,-765 35.7482,-752.399 0,-754.325 0,-715 0,-715 0,-715 0,-104 0,-23.8669 624.576,-18.8365 786.19,-18.8762"/>
<polygon fill="black" stroke="black" points="786.581,-22.3765 796.584,-18.8862 786.587,-15.3765 786.581,-22.3765"/>
<text text-anchor="middle" x="15.5" y="-405.8" font-family="Times,serif" font-size="14.00">0.395</text>
</g>
<!-- Qu -->
<g id="node4" class="node"><title>Qu</title>
<ellipse fill="none" stroke="black" cx="824" cy="-105" rx="27" ry="18"/>
<text text-anchor="middle" x="824" y="-101.3" font-family="Times,serif" font-size="14.00">Qu</text>
</g>
<!-- Use&#45;&gt;Qu -->
<g id="edge16" class="edge"><title>Use&#45;&gt;Qu</title>
<path fill="none" stroke="black" d="M720.755,-799.896C623.01,-799.274 290.416,-794.954 189,-765 145.488,-752.148 100,-760.37 100,-715 100,-715 100,-715 100,-452 100,-390.024 89.2855,-364.93 126,-315 243.51,-155.191 343.833,-186.101 537,-141 625.215,-120.403 731.683,-111.453 786.829,-107.964"/>
<polygon fill="black" stroke="black" points="787.384,-111.436 797.154,-107.337 786.96,-104.449 787.384,-111.436"/>
<text text-anchor="middle" x="115.5" y="-449.3" font-family="Times,serif" font-size="14.00">0.236</text>
</g>
<!-- Im -->
<g id="node5" class="node"><title>Im</title>
<ellipse fill="none" stroke="black" cx="1233" cy="-192" rx="27" ry="18"/>
<text text-anchor="middle" x="1233" y="-188.3" font-family="Times,serif" font-size="14.00">Im</text>
</g>
<!-- Use&#45;&gt;Im -->
<g id="edge12" class="edge"><title>Use&#45;&gt;Im</title>
<path fill="none" stroke="black" d="M775.099,-799.229C938.085,-794.417 1781,-767.016 1781,-715 1781,-715 1781,-715 1781,-582.5 1781,-542.092 1776.63,-438.358 1759,-402 1708.89,-298.677 1676.89,-264.459 1568,-228 1462.37,-192.631 1428.39,-224.953 1318,-210 1301.52,-207.768 1283.43,-204.295 1268.19,-201.069"/>
<polygon fill="black" stroke="black" points="1268.67,-197.591 1258.15,-198.893 1267.18,-204.432 1268.67,-197.591"/>
<text text-anchor="middle" x="1792.5" y="-492.8" font-family="Times,serif" font-size="14.00">0.266</text>
</g>
<!-- ENJ -->
<g id="node6" class="node"><title>ENJ</title>
<ellipse fill="none" stroke="black" cx="641" cy="-279" rx="27" ry="18"/>
<text text-anchor="middle" x="641" y="-275.3" font-family="Times,serif" font-size="14.00">ENJ</text>
</g>
<!-- Use&#45;&gt;ENJ -->
<g id="edge48" class="edge"><title>Use&#45;&gt;ENJ</title>
<path fill="none" stroke="black" d="M720.977,-799.755C630.627,-798.679 339.762,-793.066 251,-765 209.938,-752.017 168,-758.065 168,-715 168,-715 168,-715 168,-408.5 168,-365.81 157.134,-342.245 190,-315 224.507,-286.394 549.006,-305.576 593,-297 598.288,-295.969 603.778,-294.466 609.074,-292.774"/>
<polygon fill="black" stroke="black" points="610.616,-295.944 618.917,-289.36 608.322,-289.33 610.616,-295.944"/>
<text text-anchor="middle" x="180.5" y="-536.3" font-family="Times,serif" font-size="14.00">0.11</text>
</g>
<!-- PEU -->
<g id="node7" class="node"><title>PEU</title>
<ellipse fill="none" stroke="black" cx="1131" cy="-366" rx="27.0966" ry="18"/>
<text text-anchor="middle" x="1131" y="-362.3" font-family="Times,serif" font-size="14.00">PEU</text>
</g>
<!-- Use&#45;&gt;PEU -->
<g id="edge22" class="edge"><title>Use&#45;&gt;PEU</title>
<path fill="none" stroke="black" d="M774.981,-799.791C889.526,-798.545 1335.41,-789.99 1461,-732 1497.96,-714.933 1516.55,-714.296 1535,-678 1577.39,-594.583 1297.41,-449.858 1217,-402 1200.71,-392.305 1181.24,-384.132 1164.95,-378.128"/>
<polygon fill="black" stroke="black" points="1165.87,-374.739 1155.27,-374.676 1163.51,-381.332 1165.87,-374.739"/>
<text text-anchor="middle" x="1515.5" y="-579.8" font-family="Times,serif" font-size="14.00">0.218</text>
</g>
<!-- SA -->
<g id="node8" class="node"><title>SA</title>
<ellipse fill="none" stroke="black" cx="723" cy="-453" rx="27" ry="18"/>
<text text-anchor="middle" x="723" y="-449.3" font-family="Times,serif" font-size="14.00">SA</text>
</g>
<!-- Use&#45;&gt;SA -->
<g id="edge58" class="edge"><title>Use&#45;&gt;SA</title>
<path fill="none" stroke="black" d="M720.836,-800.227C628.732,-800.277 334,-794.244 334,-715 334,-715 334,-715 334,-582.5 334,-545.4 592.402,-483.416 687.996,-461.755"/>
<polygon fill="black" stroke="black" points="688.79,-465.164 697.776,-459.551 687.252,-458.335 688.79,-465.164"/>
<text text-anchor="middle" x="349.5" y="-623.3" font-family="Times,serif" font-size="14.00">0.084</text>
</g>
<!-- Pf -->
<g id="node9" class="node"><title>Pf</title>
<ellipse fill="none" stroke="black" cx="1058" cy="-540" rx="27" ry="18"/>
<text text-anchor="middle" x="1058" y="-536.3" font-family="Times,serif" font-size="14.00">Pf</text>
</g>
<!-- Use&#45;&gt;Pf -->
<g id="edge45" class="edge"><title>Use&#45;&gt;Pf</title>
<path fill="none" stroke="black" d="M775.17,-800.134C899.019,-800.109 1408.12,-792.937 1503,-678 1507.24,-672.859 1507.04,-668.301 1503,-663 1477.52,-629.588 1194.86,-568.989 1093.72,-548.215"/>
<polygon fill="black" stroke="black" points="1094.19,-544.737 1083.69,-546.162 1092.78,-551.595 1094.19,-544.737"/>
<text text-anchor="middle" x="1518.5" y="-666.8" font-family="Times,serif" font-size="14.00">0.12</text>
</g>
<!-- JR -->
<g id="node10" class="node"><title>JR</title>
<ellipse fill="none" stroke="black" cx="707" cy="-627" rx="27" ry="18"/>
<text text-anchor="middle" x="707" y="-623.3" font-family="Times,serif" font-size="14.00">JR</text>
</g>
<!-- Use&#45;&gt;JR -->
<g id="edge76" class="edge"><title>Use&#45;&gt;JR</title>
<path fill="none" stroke="black" d="M743.994,-783.195C736.86,-753.267 721.903,-690.518 713.353,-654.652"/>
<polygon fill="black" stroke="black" points="716.746,-653.789 711.022,-644.873 709.936,-655.413 716.746,-653.789"/>
<text text-anchor="middle" x="746.5" y="-710.3" font-family="Times,serif" font-size="14.00">0.058</text>
</g>
<!-- BI&#45;&gt;Use -->
<g id="edge2" class="edge"><title>BI&#45;&gt;Use</title>
<path fill="none" stroke="black" d="M1061.82,-720.953C1032.88,-727.825 983.961,-739.529 942,-750 886.085,-763.953 821.28,-780.79 782.517,-790.933"/>
<polygon fill="black" stroke="black" points="781.561,-787.565 772.775,-793.485 783.335,-794.337 781.561,-787.565"/>
<text text-anchor="middle" x="957.5" y="-753.8" font-family="Times,serif" font-size="14.00">0.511</text>
</g>
<!-- BI&#45;&gt;PU -->
<g id="edge8" class="edge"><title>BI&#45;&gt;PU</title>
<path fill="none" stroke="black" d="M1114.01,-712.622C1198.42,-711.172 1456.29,-704.619 1535,-678 1560.57,-669.35 1565.05,-662.034 1586,-645 1660.07,-584.763 1871,-418.975 1871,-323.5 1871,-323.5 1871,-323.5 1871,-104 1871,-52.232 1047.11,-25.4214 861.038,-20.0265"/>
<polygon fill="black" stroke="black" points="861.03,-16.5249 850.933,-19.7365 860.829,-23.522 861.03,-16.5249"/>
<text text-anchor="middle" x="1881.5" y="-362.3" font-family="Times,serif" font-size="14.00">0.336</text>
</g>
<!-- BI&#45;&gt;Qu -->
<g id="edge30" class="edge"><title>BI&#45;&gt;Qu</title>
<path fill="none" stroke="black" d="M1113.65,-710.439C1167.85,-704.51 1293.97,-687.002 1391,-645 1454.46,-617.529 1609.54,-527.792 1649,-471 1681.28,-424.535 1763.99,-268.997 1725,-228 1697.48,-199.06 1402.72,-225.709 1366,-210 1344.61,-200.85 1348.81,-184.397 1328,-174 1285.25,-152.645 1267.21,-171.485 1222,-156 1208.64,-151.425 1207.52,-145.078 1194,-141 1132.37,-122.403 942.021,-111.533 861.059,-107.643"/>
<polygon fill="black" stroke="black" points="860.99,-104.136 850.836,-107.161 860.661,-111.128 860.99,-104.136"/>
<text text-anchor="middle" x="1703.5" y="-405.8" font-family="Times,serif" font-size="14.00">0.201</text>
</g>
<!-- BI&#45;&gt;Im -->
<g id="edge19" class="edge"><title>BI&#45;&gt;Im</title>
<path fill="none" stroke="black" d="M1112.63,-707.465C1137.55,-701.651 1176.19,-691.478 1208,-678 1351.35,-617.274 1397.81,-609.815 1512,-504 1546.27,-472.244 1557.28,-461.661 1571,-417 1591.46,-350.374 1600.05,-314.178 1555,-261 1485.35,-178.792 1424.22,-228.075 1318,-210 1301.61,-207.21 1283.53,-203.662 1268.27,-200.529"/>
<polygon fill="black" stroke="black" points="1268.72,-197.047 1258.22,-198.441 1267.3,-203.901 1268.72,-197.047"/>
<text text-anchor="middle" x="1579.5" y="-449.3" font-family="Times,serif" font-size="14.00">0.223</text>
</g>
<!-- BI&#45;&gt;ENJ -->
<g id="edge44" class="edge"><title>BI&#45;&gt;ENJ</title>
<path fill="none" stroke="black" d="M1059.83,-712.151C953.554,-708.156 568.918,-687.137 510,-591 494.214,-565.242 384.793,-796.057 586,-348 592.933,-332.561 594.611,-328.36 605,-315 608.771,-310.151 613.193,-305.319 617.623,-300.863"/>
<polygon fill="black" stroke="black" points="620.2,-303.241 624.972,-293.781 615.342,-298.2 620.2,-303.241"/>
<text text-anchor="middle" x="538.5" y="-492.8" font-family="Times,serif" font-size="14.00">0.123</text>
</g>
<!-- BI&#45;&gt;PEU -->
<g id="edge23" class="edge"><title>BI&#45;&gt;PEU</title>
<path fill="none" stroke="black" d="M1113.76,-711.201C1137.17,-708.138 1170.28,-699.926 1189,-678 1224.16,-636.825 1205.32,-611.941 1210,-558 1216.01,-488.755 1237.87,-459.622 1199,-402 1191.13,-390.334 1178.12,-382.328 1165.58,-376.952"/>
<polygon fill="black" stroke="black" points="1166.76,-373.657 1156.17,-373.336 1164.25,-380.191 1166.76,-373.657"/>
<text text-anchor="middle" x="1229.5" y="-536.3" font-family="Times,serif" font-size="14.00">0.217</text>
</g>
<!-- BI&#45;&gt;SA -->
<g id="edge66" class="edge"><title>BI&#45;&gt;SA</title>
<path fill="none" stroke="black" d="M1066.36,-702.077C1031.75,-683.029 961.194,-640.96 914,-591 889.187,-564.733 900.142,-543.364 871,-522 845.093,-503.007 830.45,-516.83 801,-504 790.545,-499.445 767.742,-484.596 749.477,-472.254"/>
<polygon fill="black" stroke="black" points="751.186,-469.184 740.949,-466.453 747.249,-474.972 751.186,-469.184"/>
<text text-anchor="middle" x="929.5" y="-579.8" font-family="Times,serif" font-size="14.00">0.073</text>
</g>
<!-- BI&#45;&gt;Pf -->
<g id="edge46" class="edge"><title>BI&#45;&gt;Pf</title>
<path fill="none" stroke="black" d="M1079.69,-696.612C1074.03,-683.069 1066.57,-663.182 1063,-645 1057.96,-619.321 1057.02,-589.427 1057.16,-568.297"/>
<polygon fill="black" stroke="black" points="1060.66,-568.167 1057.31,-558.115 1053.66,-568.062 1060.66,-568.167"/>
<text text-anchor="middle" x="1078.5" y="-623.3" font-family="Times,serif" font-size="14.00">0.113</text>
</g>
<!-- BI&#45;&gt;JR -->
<g id="edge56" class="edge"><title>BI&#45;&gt;JR</title>
<path fill="none" stroke="black" d="M1059.78,-713.259C987.5,-713.483 792.615,-710.935 739,-678 729.875,-672.395 722.886,-663.103 717.802,-654.04"/>
<polygon fill="black" stroke="black" points="720.799,-652.209 713.184,-644.843 714.543,-655.35 720.799,-652.209"/>
<text text-anchor="middle" x="754.5" y="-666.8" font-family="Times,serif" font-size="14.00">0.093</text>
</g>
<!-- PU&#45;&gt;Use -->
<g id="edge3" class="edge"><title>PU&#45;&gt;Use</title>
<path fill="none" stroke="black" d="M797.047,-19.0843C660.762,-19.8577 54,-27.5914 54,-104 54,-715 54,-715 54,-715 54,-751.447 84.8336,-752.309 119,-765 174.353,-785.56 583.928,-796.339 710.707,-799.208"/>
<polygon fill="black" stroke="black" points="710.98,-802.715 721.056,-799.439 711.136,-795.717 710.98,-802.715"/>
<text text-anchor="middle" x="69.5" y="-405.8" font-family="Times,serif" font-size="14.00">0.426</text>
</g>
<!-- PU&#45;&gt;BI -->
<g id="edge4" class="edge"><title>PU&#45;&gt;BI</title>
<path fill="none" stroke="black" d="M851.031,-18.8574C1006.73,-18.1727 1785.7,-16.6477 1885,-54 1917.81,-66.3423 1946,-68.9452 1946,-104 1946,-410.5 1946,-410.5 1946,-410.5 1946,-485.544 1768.38,-608.163 1703,-645 1662.96,-667.56 1650.08,-669.044 1605,-678 1427.41,-713.285 1209.59,-714.746 1124.01,-713.739"/>
<polygon fill="black" stroke="black" points="1124.05,-710.239 1114.01,-713.602 1123.96,-717.238 1124.05,-710.239"/>
<text text-anchor="middle" x="1961.5" y="-362.3" font-family="Times,serif" font-size="14.00">0.403</text>
</g>
<!-- PU&#45;&gt;Qu -->
<g id="edge20" class="edge"><title>PU&#45;&gt;Qu</title>
<path fill="none" stroke="black" d="M808.202,-32.7725C802.593,-38.6755 796.943,-46.0437 794,-54 790.327,-63.929 794.661,-74.0898 801.074,-82.6361"/>
<polygon fill="black" stroke="black" points="798.482,-84.9903 807.665,-90.275 803.782,-80.4173 798.482,-84.9903"/>
<text text-anchor="middle" x="809.5" y="-57.8" font-family="Times,serif" font-size="14.00">0.221</text>
</g>
<!-- PU&#45;&gt;Im -->
<g id="edge28" class="edge"><title>PU&#45;&gt;Im</title>
<path fill="none" stroke="black" d="M850.647,-21.8484C915.866,-29.9699 1086.33,-58.2553 1198,-141 1206.81,-147.529 1214.22,-156.952 1219.92,-165.861"/>
<polygon fill="black" stroke="black" points="1216.92,-167.664 1225.04,-174.472 1222.94,-164.088 1216.92,-167.664"/>
<text text-anchor="middle" x="1183.5" y="-101.3" font-family="Times,serif" font-size="14.00">0.211</text>
</g>
<!-- PU&#45;&gt;ENJ -->
<g id="edge27" class="edge"><title>PU&#45;&gt;ENJ</title>
<path fill="none" stroke="black" d="M797.515,-22.2151C743.855,-30.4188 624.626,-57.7425 592,-141 576.532,-180.473 602.407,-227.074 622.064,-254.49"/>
<polygon fill="black" stroke="black" points="619.387,-256.755 628.168,-262.684 625.001,-252.574 619.387,-256.755"/>
<text text-anchor="middle" x="607.5" y="-144.8" font-family="Times,serif" font-size="14.00">0.213</text>
</g>
<!-- PU&#45;&gt;PEU -->
<g id="edge14" class="edge"><title>PU&#45;&gt;PEU</title>
<path fill="none" stroke="black" d="M851.243,-18.6705C954.989,-17.6965 1321.28,-16.924 1356,-54 1398.19,-99.0516 1368.66,-286.379 1325,-330 1305.77,-349.213 1230.7,-342.913 1204,-348 1191.64,-350.354 1178.21,-353.355 1166.27,-356.178"/>
<polygon fill="black" stroke="black" points="1165.13,-352.851 1156.23,-358.592 1166.77,-359.657 1165.13,-352.851"/>
<text text-anchor="middle" x="1389.5" y="-188.3" font-family="Times,serif" font-size="14.00">0.254</text>
</g>
<!-- PU&#45;&gt;SA -->
<g id="edge59" class="edge"><title>PU&#45;&gt;SA</title>
<path fill="none" stroke="black" d="M797.497,-21.8243C763.583,-26.0339 703.43,-35.5212 655,-54 627.651,-64.4353 615.892,-63.8315 598,-87 548.968,-150.493 566.576,-182.509 550,-261 538.695,-314.531 518.431,-336.173 545,-384 557.395,-406.312 568.871,-406.207 592,-417 622.509,-431.237 659.814,-440.49 686.801,-445.885"/>
<polygon fill="black" stroke="black" points="686.482,-449.387 696.962,-447.832 687.799,-442.512 686.482,-449.387"/>
<text text-anchor="middle" x="571.5" y="-231.8" font-family="Times,serif" font-size="14.00">0.081</text>
</g>
<!-- PU&#45;&gt;Pf -->
<g id="edge70" class="edge"><title>PU&#45;&gt;Pf</title>
<path fill="none" stroke="black" d="M851.146,-19.4801C969.975,-21.7089 1439.35,-31.8907 1461,-54 1530.97,-125.459 1525.83,-433.396 1455,-504 1431.19,-527.732 1186.38,-518.033 1153,-522 1133.11,-524.364 1111.08,-528.227 1093.25,-531.674"/>
<polygon fill="black" stroke="black" points="1092.41,-528.271 1083.28,-533.64 1093.77,-535.138 1092.41,-528.271"/>
<text text-anchor="middle" x="1525.5" y="-275.3" font-family="Times,serif" font-size="14.00">0.066</text>
</g>
<!-- PU&#45;&gt;JR -->
<g id="edge74" class="edge"><title>PU&#45;&gt;JR</title>
<path fill="none" stroke="black" d="M796.781,-19.85C677.76,-23.9205 209,-43.7747 209,-104 209,-280 209,-280 209,-280 209,-356.715 260.666,-361.857 314,-417 324.593,-427.952 512.072,-584.822 526,-591 575.7,-613.044 593.846,-597.566 647,-609 655.597,-610.849 664.778,-613.236 673.307,-615.634"/>
<polygon fill="black" stroke="black" points="672.368,-619.005 682.947,-618.421 674.313,-612.281 672.368,-619.005"/>
<text text-anchor="middle" x="235.5" y="-318.8" font-family="Times,serif" font-size="14.00">0.059</text>
</g>
<!-- Qu&#45;&gt;Use -->
<g id="edge6" class="edge"><title>Qu&#45;&gt;Use</title>
<path fill="none" stroke="black" d="M850.86,-107.656C936.729,-113.006 1203.98,-130.115 1290,-141 1508.13,-168.603 1608.77,-86.4339 1777,-228 1805.13,-251.672 1890,-502.234 1890,-539 1890,-715 1890,-715 1890,-715 1890,-754.325 1854.37,-752.755 1817,-765 1717.46,-797.615 962.905,-799.927 785.338,-800.016"/>
<polygon fill="black" stroke="black" points="785.187,-796.516 775.188,-800.019 785.189,-803.516 785.187,-796.516"/>
<text text-anchor="middle" x="1889.5" y="-449.3" font-family="Times,serif" font-size="14.00">0.381</text>
</g>
<!-- Qu&#45;&gt;BI -->
<g id="edge9" class="edge"><title>Qu&#45;&gt;BI</title>
<path fill="none" stroke="black" d="M851.113,-107.568C915.594,-111.476 1083.09,-122.671 1222,-141 1305.67,-152.04 1327.44,-152.294 1409,-174 1454.65,-186.149 1462.79,-200.199 1509,-210 1536.03,-215.732 1736.44,-209.541 1757,-228 1790.73,-258.289 1769.21,-286.343 1757,-330 1738.92,-394.624 1734.27,-411.626 1703,-471 1681.11,-512.559 1674.43,-523.092 1643,-558 1615.58,-588.453 1540.8,-662.184 1503,-678 1468.52,-692.426 1219.53,-706.327 1124.1,-711.184"/>
<polygon fill="black" stroke="black" points="1123.84,-707.692 1114.03,-711.691 1124.19,-714.683 1123.84,-707.692"/>
<text text-anchor="middle" x="1750.5" y="-405.8" font-family="Times,serif" font-size="14.00">0.329</text>
</g>
<!-- Qu&#45;&gt;PU -->
<g id="edge10" class="edge"><title>Qu&#45;&gt;PU</title>
<path fill="none" stroke="black" d="M826.928,-86.9622C827.775,-81.269 828.582,-74.8777 829,-69 829.53,-61.5476 829.145,-53.4858 828.399,-46.0562"/>
<polygon fill="black" stroke="black" points="831.869,-45.5951 827.161,-36.1036 824.923,-46.4592 831.869,-45.5951"/>
<text text-anchor="middle" x="844.5" y="-57.8" font-family="Times,serif" font-size="14.00">0.305</text>
</g>
<!-- Qu&#45;&gt;Im -->
<g id="edge24" class="edge"><title>Qu&#45;&gt;Im</title>
<path fill="none" stroke="black" d="M850.77,-107.368C916.976,-111.005 1086.87,-121.96 1140,-141 1151.49,-145.117 1152.41,-149.928 1163,-156 1175.68,-163.273 1190.06,-170.614 1202.48,-176.681"/>
<polygon fill="black" stroke="black" points="1201,-179.855 1211.53,-181.051 1204.05,-173.551 1201,-179.855"/>
<text text-anchor="middle" x="1178.5" y="-144.8" font-family="Times,serif" font-size="14.00">0.216</text>
</g>
<!-- Qu&#45;&gt;ENJ -->
<g id="edge41" class="edge"><title>Qu&#45;&gt;ENJ</title>
<path fill="none" stroke="black" d="M801.078,-114.804C786.56,-120.966 767.8,-130.042 753,-141 710.71,-172.311 674.873,-223.052 655.785,-253.206"/>
<polygon fill="black" stroke="black" points="652.713,-251.518 650.41,-261.86 658.66,-255.212 652.713,-251.518"/>
<text text-anchor="middle" x="730.5" y="-188.3" font-family="Times,serif" font-size="14.00">0.129</text>
</g>
<!-- Qu&#45;&gt;PEU -->
<g id="edge13" class="edge"><title>Qu&#45;&gt;PEU</title>
<path fill="none" stroke="black" d="M850.868,-108.381C895.285,-112.768 981.553,-123.329 1006,-141 1074.76,-190.705 1110.41,-290.493 1124.15,-338.288"/>
<polygon fill="black" stroke="black" points="1120.77,-339.228 1126.82,-347.929 1127.52,-337.357 1120.77,-339.228"/>
<text text-anchor="middle" x="1098.5" y="-231.8" font-family="Times,serif" font-size="14.00">0.26</text>
</g>
<!-- Qu&#45;&gt;SA -->
<g id="edge61" class="edge"><title>Qu&#45;&gt;SA</title>
<path fill="none" stroke="black" d="M807.002,-119.163C800.722,-125.078 794.329,-132.617 791,-141 774.269,-183.133 783.002,-198.378 791,-243 795.515,-268.192 801.353,-273.294 811,-297 814.3,-305.109 817.183,-306.436 819,-315 820.384,-321.521 821.181,-323.7 819,-330 804.738,-371.187 770.185,-409.023 746.669,-431.305"/>
<polygon fill="black" stroke="black" points="744.127,-428.888 739.162,-438.248 748.88,-434.027 744.127,-428.888"/>
<text text-anchor="middle" x="823.5" y="-275.3" font-family="Times,serif" font-size="14.00">0.08</text>
</g>
<!-- Qu&#45;&gt;Pf -->
<g id="edge64" class="edge"><title>Qu&#45;&gt;Pf</title>
<path fill="none" stroke="black" d="M820.415,-123.145C815.647,-149.797 809.495,-202.328 825,-243 828.34,-251.761 831.626,-252.707 836,-261 851.686,-290.736 851.482,-300.176 867,-330 900.669,-394.709 906.199,-413.435 951,-471 963.739,-487.369 967.042,-492.057 984,-504 996.716,-512.956 1012.08,-520.65 1025.51,-526.526"/>
<polygon fill="black" stroke="black" points="1024.31,-529.816 1034.88,-530.475 1027.02,-523.366 1024.31,-529.816"/>
<text text-anchor="middle" x="882.5" y="-318.8" font-family="Times,serif" font-size="14.00">0.077</text>
</g>
<!-- Qu&#45;&gt;JR -->
<g id="edge71" class="edge"><title>Qu&#45;&gt;JR</title>
<path fill="none" stroke="black" d="M797.862,-109.915C759.399,-115.82 685.362,-127.735 623,-141 564.273,-153.492 546.19,-148.147 492,-174 467.932,-185.482 465.488,-194.209 444,-210 373.597,-261.738 336.574,-266.93 304,-348 298.035,-362.846 296.232,-370.012 304,-384 332.135,-434.662 373.562,-406.466 424,-435 454.093,-452.025 457.837,-462.462 480,-489 514.924,-530.819 502.466,-561.081 548,-591 585.375,-615.558 603.436,-598.893 647,-609 655.566,-610.987 664.736,-613.425 673.264,-615.827"/>
<polygon fill="black" stroke="black" points="672.329,-619.199 682.907,-618.601 674.264,-612.472 672.329,-619.199"/>
<text text-anchor="middle" x="319.5" y="-362.3" font-family="Times,serif" font-size="14.00">0.063</text>
</g>
<!-- Im&#45;&gt;Use -->
<g id="edge7" class="edge"><title>Im&#45;&gt;Use</title>
<path fill="none" stroke="black" d="M1258.13,-199.048C1274.97,-202.847 1297.69,-207.488 1318,-210 1358.74,-215.039 1651.98,-206.581 1687,-228 1751.05,-267.176 1819,-463.921 1819,-539 1819,-715 1819,-715 1819,-715 1819,-739.65 1815.64,-751.526 1795,-765 1751.91,-793.131 966.392,-798.879 785.109,-799.832"/>
<polygon fill="black" stroke="black" points="784.988,-796.333 775.006,-799.884 785.023,-803.333 784.988,-796.333"/>
<text text-anchor="middle" x="1830.5" y="-492.8" font-family="Times,serif" font-size="14.00">0.337</text>
</g>
<!-- Im&#45;&gt;BI -->
<g id="edge26" class="edge"><title>Im&#45;&gt;BI</title>
<path fill="none" stroke="black" d="M1258.16,-198.835C1275.01,-202.544 1297.73,-207.165 1318,-210 1367.24,-216.887 1495.04,-209.034 1541,-228 1643.64,-270.357 1648.8,-371.761 1599,-471 1568.07,-532.643 1404.69,-616.257 1342,-645 1298.3,-665.033 1285.35,-665.262 1239,-678 1199.35,-688.895 1153.27,-699.179 1122.32,-705.743"/>
<polygon fill="black" stroke="black" points="1121.51,-702.338 1112.44,-707.822 1122.95,-709.188 1121.51,-702.338"/>
<text text-anchor="middle" x="1629.5" y="-449.3" font-family="Times,serif" font-size="14.00">0.213</text>
</g>
<!-- Im&#45;&gt;PU -->
<g id="edge34" class="edge"><title>Im&#45;&gt;PU</title>
<path fill="none" stroke="black" d="M1233.17,-173.847C1232.42,-150.643 1227.44,-109.565 1203,-87 1153.44,-41.2331 946.446,-25.3643 861.068,-20.6979"/>
<polygon fill="black" stroke="black" points="861.21,-17.2006 851.04,-20.1711 860.842,-24.1909 861.21,-17.2006"/>
<text text-anchor="middle" x="1239.5" y="-101.3" font-family="Times,serif" font-size="14.00">0.175</text>
</g>
<!-- Im&#45;&gt;Qu -->
<g id="edge43" class="edge"><title>Im&#45;&gt;Qu</title>
<path fill="none" stroke="black" d="M1206.88,-187.025C1180.2,-182.252 1138.11,-172.719 1105,-156 1095.4,-151.15 1095.91,-145.195 1086,-141 1046.25,-124.17 923.446,-113.175 861.112,-108.528"/>
<polygon fill="black" stroke="black" points="861.157,-105.022 850.929,-107.785 860.648,-112.003 861.157,-105.022"/>
<text text-anchor="middle" x="1120.5" y="-144.8" font-family="Times,serif" font-size="14.00">0.124</text>
</g>
<!-- Im&#45;&gt;ENJ -->
<g id="edge75" class="edge"><title>Im&#45;&gt;ENJ</title>
<path fill="none" stroke="black" d="M1206.06,-195.095C1158.42,-199.137 1056.36,-209.304 972,-228 950.179,-232.836 945.873,-238.404 924,-243 853.537,-257.806 834.441,-252.031 763,-261 734.166,-264.62 701.567,-269.187 677.325,-272.676"/>
<polygon fill="black" stroke="black" points="676.547,-269.252 667.151,-274.147 677.549,-276.18 676.547,-269.252"/>
<text text-anchor="middle" x="987.5" y="-231.8" font-family="Times,serif" font-size="14.00">0.058</text>
</g>
<!-- Im&#45;&gt;PEU -->
<g id="edge21" class="edge"><title>Im&#45;&gt;PEU</title>
<path fill="none" stroke="black" d="M1223.36,-209.264C1205.47,-239.419 1167.06,-304.185 1145.85,-339.966"/>
<polygon fill="black" stroke="black" points="1142.69,-338.432 1140.6,-348.819 1148.71,-342.003 1142.69,-338.432"/>
<text text-anchor="middle" x="1204.5" y="-275.3" font-family="Times,serif" font-size="14.00">0.22</text>
</g>
<!-- Im&#45;&gt;SA -->
<g id="edge63" class="edge"><title>Im&#45;&gt;SA</title>
<path fill="none" stroke="black" d="M1205.81,-193.475C1169.88,-195.169 1105.56,-201.965 1058,-228 955.707,-283.993 978.466,-361.325 876,-417 839.008,-437.1 823.957,-425.253 783,-435 774.446,-437.036 765.28,-439.491 756.752,-441.895"/>
<polygon fill="black" stroke="black" points="755.754,-438.54 747.108,-444.664 757.686,-445.268 755.754,-438.54"/>
<text text-anchor="middle" x="985.5" y="-318.8" font-family="Times,serif" font-size="14.00">0.078</text>
</g>
<!-- Im&#45;&gt;Pf -->
<g id="edge78" class="edge"><title>Im&#45;&gt;Pf</title>
<path fill="none" stroke="black" d="M1233.31,-210.027C1233.29,-256.798 1227.29,-389.192 1164,-471 1144.72,-495.926 1113.54,-514.34 1089.98,-525.674"/>
<polygon fill="black" stroke="black" points="1088.34,-522.579 1080.73,-529.954 1091.27,-528.932 1088.34,-522.579"/>
<text text-anchor="middle" x="1232.5" y="-362.3" font-family="Times,serif" font-size="14.00">0.053</text>
</g>
<!-- Im&#45;&gt;JR -->
<g id="edge54" class="edge"><title>Im&#45;&gt;JR</title>
<path fill="none" stroke="black" d="M1258.32,-198.264C1330.2,-213.262 1530.59,-255.492 1535,-261 1569.23,-303.795 1530.37,-463.916 1493,-504 1468.31,-530.481 1214.67,-584.798 1179,-591 1018.82,-618.852 824.278,-624.558 744.185,-625.714"/>
<polygon fill="black" stroke="black" points="744.056,-622.215 734.102,-625.844 744.146,-629.215 744.056,-622.215"/>
<text text-anchor="middle" x="1551.5" y="-405.8" font-family="Times,serif" font-size="14.00">0.098</text>
</g>
<!-- ENJ&#45;&gt;Use -->
<g id="edge18" class="edge"><title>ENJ&#45;&gt;Use</title>
<path fill="none" stroke="black" d="M617.667,-288.613C609.862,-291.401 601.089,-294.433 593,-297 564.836,-305.937 556.634,-304.539 529,-315 463.003,-339.982 449.88,-354.016 386,-384 320.105,-414.93 237,-379.207 237,-452 237,-715 237,-715 237,-715 237,-773.599 302.071,-751.108 359,-765 485.256,-795.809 640.503,-800.104 710.563,-800.317"/>
<polygon fill="black" stroke="black" points="710.662,-803.817 720.663,-800.321 710.665,-796.817 710.662,-803.817"/>
<text text-anchor="middle" x="252.5" y="-536.3" font-family="Times,serif" font-size="14.00">0.226</text>
</g>
<!-- ENJ&#45;&gt;BI -->
<g id="edge37" class="edge"><title>ENJ&#45;&gt;BI</title>
<path fill="none" stroke="black" d="M617.545,-288.433C590.955,-298.053 550.893,-312.748 548,-315 518.522,-337.948 523.969,-355.346 500,-384 457.656,-434.621 420.256,-428.027 395,-489 367.651,-555.027 376.023,-603.212 434,-645 479.22,-677.593 500.024,-668.791 555,-678 603.419,-686.111 936.964,-704.816 1049.79,-710.986"/>
<polygon fill="black" stroke="black" points="1049.83,-714.493 1060.01,-711.543 1050.21,-707.503 1049.83,-714.493"/>
<text text-anchor="middle" x="410.5" y="-492.8" font-family="Times,serif" font-size="14.00">0.149</text>
</g>
<!-- ENJ&#45;&gt;PU -->
<g id="edge25" class="edge"><title>ENJ&#45;&gt;PU</title>
<path fill="none" stroke="black" d="M634.557,-261.123C625.308,-233.92 611.601,-179.533 633,-141 666.744,-80.2382 744.857,-45.2433 790.044,-29.3859"/>
<polygon fill="black" stroke="black" points="791.351,-32.6385 799.698,-26.1135 789.103,-26.009 791.351,-32.6385"/>
<text text-anchor="middle" x="648.5" y="-144.8" font-family="Times,serif" font-size="14.00">0.215</text>
</g>
<!-- ENJ&#45;&gt;Qu -->
<g id="edge47" class="edge"><title>ENJ&#45;&gt;Qu</title>
<path fill="none" stroke="black" d="M637.677,-261.001C634.333,-238.713 632.046,-199.463 651,-174 683.085,-130.897 746.618,-115.097 787.118,-109.318"/>
<polygon fill="black" stroke="black" points="787.665,-112.776 797.135,-108.025 786.769,-105.834 787.665,-112.776"/>
<text text-anchor="middle" x="666.5" y="-188.3" font-family="Times,serif" font-size="14.00">0.111</text>
</g>
<!-- ENJ&#45;&gt;Im -->
<g id="edge39" class="edge"><title>ENJ&#45;&gt;Im</title>
<path fill="none" stroke="black" d="M667.295,-274.285C725.447,-266.028 860.583,-246.596 870,-243 881.401,-238.646 881.496,-232.073 893,-228 948.095,-208.496 1119.71,-198.285 1195.91,-194.613"/>
<polygon fill="black" stroke="black" points="1196.18,-198.104 1206,-194.138 1195.85,-191.112 1196.18,-198.104"/>
<text text-anchor="middle" x="908.5" y="-231.8" font-family="Times,serif" font-size="14.00">0.141</text>
</g>
<!-- ENJ&#45;&gt;PEU -->
<g id="edge11" class="edge"><title>ENJ&#45;&gt;PEU</title>
<path fill="none" stroke="black" d="M665.762,-286.771C690.833,-293.678 730.694,-304.8 765,-315 786.424,-321.37 791.123,-325.423 813,-330 913.006,-350.924 1033.49,-359.849 1093.38,-363.216"/>
<polygon fill="black" stroke="black" points="1093.32,-366.718 1103.5,-363.763 1093.7,-359.728 1093.32,-366.718"/>
<text text-anchor="middle" x="828.5" y="-318.8" font-family="Times,serif" font-size="14.00">0.294</text>
</g>
<!-- ENJ&#45;&gt;SA -->
<g id="edge49" class="edge"><title>ENJ&#45;&gt;SA</title>
<path fill="none" stroke="black" d="M639.828,-297.081C639.49,-302.778 639.167,-309.16 639,-315 638.81,-321.664 637.771,-323.448 639,-330 643.748,-355.309 646.342,-362.17 660,-384 670.989,-401.564 686.857,-418.658 699.918,-431.315"/>
<polygon fill="black" stroke="black" points="697.555,-433.897 707.226,-438.223 702.364,-428.81 697.555,-433.897"/>
<text text-anchor="middle" x="675.5" y="-362.3" font-family="Times,serif" font-size="14.00">0.108</text>
</g>
<!-- ENJ&#45;&gt;Pf -->
<g id="edge85" class="edge"><title>ENJ&#45;&gt;Pf</title>
<path fill="none" stroke="black" d="M658.302,-293.157C675.962,-306.344 702.38,-325.34 714,-330 759.98,-348.438 787.608,-314.388 824,-348 847.201,-369.429 823.663,-390.6 841,-417 858.883,-444.232 930.043,-489.072 959,-504 979.56,-514.599 1004.06,-523.289 1023.54,-529.359"/>
<polygon fill="black" stroke="black" points="1022.64,-532.743 1033.23,-532.291 1024.67,-526.044 1022.64,-532.743"/>
<text text-anchor="middle" x="856.5" y="-405.8" font-family="Times,serif" font-size="14.00">0.038</text>
</g>
<!-- ENJ&#45;&gt;JR -->
<g id="edge73" class="edge"><title>ENJ&#45;&gt;JR</title>
<path fill="none" stroke="black" d="M628.476,-295.229C616.419,-311.47 600,-338.458 600,-365 600,-541 600,-541 600,-541 600,-578.891 641.648,-602.588 672.977,-615.053"/>
<polygon fill="black" stroke="black" points="672.128,-618.472 682.72,-618.709 674.587,-611.919 672.128,-618.472"/>
<text text-anchor="middle" x="615.5" y="-449.3" font-family="Times,serif" font-size="14.00">0.059</text>
</g>
<!-- PEU&#45;&gt;Use -->
<g id="edge33" class="edge"><title>PEU&#45;&gt;Use</title>
<path fill="none" stroke="black" d="M1155.72,-373.902C1178.59,-380.479 1213.41,-390.987 1243,-402 1415.27,-466.108 1613.57,-505.17 1551,-678 1522.24,-757.434 1465.43,-751.739 1382,-765 1157.47,-800.687 883.239,-801.59 785.106,-800.592"/>
<polygon fill="black" stroke="black" points="785.13,-797.092 775.091,-800.477 785.05,-804.092 785.13,-797.092"/>
<text text-anchor="middle" x="1574.5" y="-579.8" font-family="Times,serif" font-size="14.00">0.185</text>
</g>
<!-- PEU&#45;&gt;BI -->
<g id="edge77" class="edge"><title>PEU&#45;&gt;BI</title>
<path fill="none" stroke="black" d="M1143.38,-382.263C1147.62,-388.137 1152.03,-395.096 1155,-402 1171.78,-441.043 1175,-453.004 1175,-495.5 1175,-628 1175,-628 1175,-628 1175,-660.538 1143.49,-684.572 1118.18,-698.627"/>
<polygon fill="black" stroke="black" points="1116.42,-695.596 1109.21,-703.351 1119.69,-701.79 1116.42,-695.596"/>
<text text-anchor="middle" x="1190.5" y="-536.3" font-family="Times,serif" font-size="14.00">0.053</text>
</g>
<!-- PEU&#45;&gt;PU -->
<g id="edge53" class="edge"><title>PEU&#45;&gt;PU</title>
<path fill="none" stroke="black" d="M1152.95,-355.031C1187.5,-337.909 1253.1,-299.242 1277,-243 1295.39,-199.725 1408.4,-270.496 1259,-87 1209.23,-25.867 957.257,-19.1018 861.237,-18.7804"/>
<polygon fill="black" stroke="black" points="861.118,-15.2803 851.114,-18.7689 861.11,-22.2803 861.118,-15.2803"/>
<text text-anchor="middle" x="1344" y="-188.3" font-family="Times,serif" font-size="14.00">0.1</text>
</g>
<!-- PEU&#45;&gt;Qu -->
<g id="edge57" class="edge"><title>PEU&#45;&gt;Qu</title>
<path fill="none" stroke="black" d="M1104.32,-361.399C1073.54,-356.662 1021.79,-346.89 980,-330 978.911,-329.56 835.619,-243.998 835,-243 824.047,-225.344 822.906,-168.309 823.295,-133.643"/>
<polygon fill="black" stroke="black" points="826.801,-133.308 823.465,-123.252 819.802,-133.194 826.801,-133.308"/>
<text text-anchor="middle" x="850.5" y="-231.8" font-family="Times,serif" font-size="14.00">0.092</text>
</g>
<!-- PEU&#45;&gt;Im -->
<g id="edge40" class="edge"><title>PEU&#45;&gt;Im</title>
<path fill="none" stroke="black" d="M1128.82,-347.902C1126.91,-326.198 1126.47,-288.302 1142,-261 1155.62,-237.066 1181.45,-219.012 1202.12,-207.544"/>
<polygon fill="black" stroke="black" points="1203.99,-210.513 1211.19,-202.741 1200.72,-204.326 1203.99,-210.513"/>
<text text-anchor="middle" x="1154.5" y="-275.3" font-family="Times,serif" font-size="14.00">0.13</text>
</g>
<!-- PEU&#45;&gt;ENJ -->
<g id="edge36" class="edge"><title>PEU&#45;&gt;ENJ</title>
<path fill="none" stroke="black" d="M1103.79,-363.531C1019.22,-358.84 764.59,-343.723 730,-330 719.999,-326.033 720.081,-320.769 711,-315 698.754,-307.22 684.545,-299.841 672.141,-293.882"/>
<polygon fill="black" stroke="black" points="673.609,-290.705 663.07,-289.618 670.632,-297.04 673.609,-290.705"/>
<text text-anchor="middle" x="745.5" y="-318.8" font-family="Times,serif" font-size="14.00">0.162</text>
</g>
<!-- PEU&#45;&gt;SA -->
<g id="edge55" class="edge"><title>PEU&#45;&gt;SA</title>
<path fill="none" stroke="black" d="M1104.65,-371.086C1064.55,-377.554 990.324,-390.589 966,-402 956.26,-406.57 956.862,-412.7 947,-417 899.175,-437.85 882.547,-426.944 831,-435 807.096,-438.736 780.222,-442.966 759.261,-446.272"/>
<polygon fill="black" stroke="black" points="758.518,-442.846 749.186,-447.862 759.609,-449.76 758.518,-442.846"/>
<text text-anchor="middle" x="981.5" y="-405.8" font-family="Times,serif" font-size="14.00">0.095</text>
</g>
<!-- PEU&#45;&gt;Pf -->
<g id="edge80" class="edge"><title>PEU&#45;&gt;Pf</title>
<path fill="none" stroke="black" d="M1138.34,-383.421C1141.75,-393.28 1144.39,-406.001 1141,-417 1139.3,-422.534 1098.58,-481.129 1074.82,-515.058"/>
<polygon fill="black" stroke="black" points="1071.77,-513.31 1068.9,-523.507 1077.5,-517.328 1071.77,-513.31"/>
<text text-anchor="middle" x="1144.5" y="-449.3" font-family="Times,serif" font-size="14.00">0.051</text>
</g>
<!-- PEU&#45;&gt;JR -->
<g id="edge81" class="edge"><title>PEU&#45;&gt;JR</title>
<path fill="none" stroke="black" d="M1117.16,-381.587C1106.7,-392.143 1091.7,-406.364 1077,-417 958.866,-502.49 916.253,-503.032 790,-576 771.615,-586.625 751.182,-598.929 735.189,-608.672"/>
<polygon fill="black" stroke="black" points="733.044,-605.881 726.335,-614.081 736.694,-611.854 733.044,-605.881"/>
<text text-anchor="middle" x="974.5" y="-492.8" font-family="Times,serif" font-size="14.00">0.049</text>
</g>
<!-- SA&#45;&gt;Use -->
<g id="edge31" class="edge"><title>SA&#45;&gt;Use</title>
<path fill="none" stroke="black" d="M698.926,-461.161C685.045,-466.559 668.509,-475.406 659,-489 596.995,-577.646 620.788,-626.565 645,-732 648.648,-747.886 649.084,-753.879 661,-765 675.327,-778.372 695.417,-786.907 712.681,-792.197"/>
<polygon fill="black" stroke="black" points="711.881,-795.608 722.455,-794.949 713.778,-788.87 711.881,-795.608"/>
<text text-anchor="middle" x="634" y="-623.3" font-family="Times,serif" font-size="14.00">0.2</text>
</g>
<!-- SA&#45;&gt;BI -->
<g id="edge67" class="edge"><title>SA&#45;&gt;BI</title>
<path fill="none" stroke="black" d="M737.192,-468.387C776.345,-507.885 885.768,-616.927 928,-645 956.644,-664.041 966.423,-664.365 998,-678 1016.48,-685.978 1037.41,-694.247 1054.33,-700.744"/>
<polygon fill="black" stroke="black" points="1053.19,-704.055 1063.78,-704.348 1055.68,-697.514 1053.19,-704.055"/>
<text text-anchor="middle" x="877.5" y="-579.8" font-family="Times,serif" font-size="14.00">0.072</text>
</g>
<!-- SA&#45;&gt;PU -->
<g id="edge62" class="edge"><title>SA&#45;&gt;PU</title>
<path fill="none" stroke="black" d="M697.23,-446.864C679.702,-443.409 655.975,-438.808 635,-435 485.161,-407.794 311,-475.788 311,-323.5 311,-323.5 311,-323.5 311,-104 311,-55.7415 668.893,-28.7991 786.817,-21.2315"/>
<polygon fill="black" stroke="black" points="787.382,-24.7029 797.141,-20.5794 786.94,-17.7168 787.382,-24.7029"/>
<text text-anchor="middle" x="323.5" y="-231.8" font-family="Times,serif" font-size="14.00">0.08</text>
</g>
<!-- SA&#45;&gt;Qu -->
<g id="edge72" class="edge"><title>SA&#45;&gt;Qu</title>
<path fill="none" stroke="black" d="M698.217,-445.774C645.298,-430.97 527.655,-389.239 548,-315 572.565,-225.362 583.535,-187.517 664,-141 702.26,-118.881 753.038,-110.719 787.032,-107.72"/>
<polygon fill="black" stroke="black" points="787.311,-111.209 797.01,-106.945 786.769,-104.23 787.311,-111.209"/>
<text text-anchor="middle" x="576.5" y="-275.3" font-family="Times,serif" font-size="14.00">0.06</text>
</g>
<!-- SA&#45;&gt;Im -->
<g id="edge38" class="edge"><title>SA&#45;&gt;Im</title>
<path fill="none" stroke="black" d="M746.742,-444.402C757.689,-441.124 770.91,-437.482 783,-435 844.022,-422.475 863.332,-437.941 922,-417 935.067,-412.336 964.057,-392.529 975,-384 1002.27,-362.745 1011.21,-358.349 1031,-330 1059.37,-289.374 1037.7,-259.437 1076,-228 1094.12,-213.127 1156,-202.709 1196.44,-197.299"/>
<polygon fill="black" stroke="black" points="1197.01,-200.755 1206.48,-196 1196.11,-193.813 1197.01,-200.755"/>
<text text-anchor="middle" x="1054.5" y="-318.8" font-family="Times,serif" font-size="14.00">0.147</text>
</g>
<!-- SA&#45;&gt;ENJ -->
<g id="edge51" class="edge"><title>SA&#45;&gt;ENJ</title>
<path fill="none" stroke="black" d="M721.301,-434.936C718.37,-412.927 710.647,-374.352 691,-348 682.38,-336.438 673.368,-340.966 664,-330 658.176,-323.182 653.531,-314.644 649.983,-306.563"/>
<polygon fill="black" stroke="black" points="653.155,-305.067 646.195,-297.079 646.654,-307.664 653.155,-305.067"/>
<text text-anchor="middle" x="724.5" y="-362.3" font-family="Times,serif" font-size="14.00">0.103</text>
</g>
<!-- SA&#45;&gt;PEU -->
<g id="edge15" class="edge"><title>SA&#45;&gt;PEU</title>
<path fill="none" stroke="black" d="M749.135,-447.506C770.974,-443.843 802.96,-438.689 831,-435 906.329,-425.09 929.415,-442.459 1001,-417 1012.5,-412.911 1013,-407.276 1024,-402 1047.02,-390.964 1074.41,-382.077 1095.71,-376.021"/>
<polygon fill="black" stroke="black" points="1096.93,-379.315 1105.63,-373.277 1095.06,-372.568 1096.93,-379.315"/>
<text text-anchor="middle" x="1036.5" y="-405.8" font-family="Times,serif" font-size="14.00">0.25</text>
</g>
<!-- SA&#45;&gt;Pf -->
<g id="edge68" class="edge"><title>SA&#45;&gt;Pf</title>
<path fill="none" stroke="black" d="M745.398,-463.458C760.524,-470.086 780.793,-479.437 798,-489 808.667,-494.929 809.588,-499.675 821,-504 839.383,-510.967 959.878,-526.733 1021.63,-534.502"/>
<polygon fill="black" stroke="black" points="1021.37,-537.996 1031.73,-535.766 1022.24,-531.051 1021.37,-537.996"/>
<text text-anchor="middle" x="836.5" y="-492.8" font-family="Times,serif" font-size="14.00">0.067</text>
</g>
<!-- SA&#45;&gt;JR -->
<g id="edge60" class="edge"><title>SA&#45;&gt;JR</title>
<path fill="none" stroke="black" d="M700.983,-463.54C689.889,-469.391 677.107,-477.904 669,-489 660.031,-501.275 662.018,-506.932 660,-522 657.876,-537.858 655.235,-542.726 660,-558 665.243,-574.808 676.256,-591.124 686.304,-603.559"/>
<polygon fill="black" stroke="black" points="683.894,-606.129 693.023,-611.506 689.239,-601.61 683.894,-606.129"/>
<text text-anchor="middle" x="672.5" y="-536.3" font-family="Times,serif" font-size="14.00">0.08</text>
</g>
<!-- Pf&#45;&gt;Use -->
<g id="edge17" class="edge"><title>Pf&#45;&gt;Use</title>
<path fill="none" stroke="black" d="M1045.61,-556.464C1036.08,-567.456 1022.04,-581.838 1007,-591 919.865,-644.093 860.126,-589.839 789,-663 785.075,-667.037 766.118,-734.172 755.409,-772.934"/>
<polygon fill="black" stroke="black" points="751.907,-772.468 752.626,-783.039 758.656,-774.327 751.907,-772.468"/>
<text text-anchor="middle" x="804.5" y="-666.8" font-family="Times,serif" font-size="14.00">0.232</text>
</g>
<!-- Pf&#45;&gt;BI -->
<g id="edge50" class="edge"><title>Pf&#45;&gt;BI</title>
<path fill="none" stroke="black" d="M1069.1,-556.584C1077.79,-569.817 1089.2,-589.684 1094,-609 1100.38,-634.692 1097.18,-664.981 1093.27,-686.224"/>
<polygon fill="black" stroke="black" points="1089.82,-685.656 1091.27,-696.15 1096.68,-687.039 1089.82,-685.656"/>
<text text-anchor="middle" x="1112.5" y="-623.3" font-family="Times,serif" font-size="14.00">0.106</text>
</g>
<!-- Pf&#45;&gt;PU -->
<g id="edge82" class="edge"><title>Pf&#45;&gt;PU</title>
<path fill="none" stroke="black" d="M1083.84,-534.379C1136.19,-525.015 1249.99,-504.626 1252,-504 1286,-493.426 1294.01,-488.539 1325,-471 1361.69,-450.231 1382.89,-454.06 1403,-417 1480.18,-274.742 1504.82,-149.291 1374,-54 1332.75,-23.9547 978.285,-19.6794 861.293,-19.0888"/>
<polygon fill="black" stroke="black" points="861.062,-15.5879 851.047,-19.0436 861.031,-22.5878 861.062,-15.5879"/>
<text text-anchor="middle" x="1477.5" y="-275.3" font-family="Times,serif" font-size="14.00">0.045</text>
</g>
<!-- Pf&#45;&gt;Qu -->
<g id="edge83" class="edge"><title>Pf&#45;&gt;Qu</title>
<path fill="none" stroke="black" d="M1057.48,-521.837C1056.36,-485.349 1053.76,-403.268 1053,-402 1019.91,-347.088 960.084,-385.507 928,-330 902.734,-286.29 999.979,-273.452 978,-228 952.647,-175.57 892.608,-138.807 855.429,-120.136"/>
<polygon fill="black" stroke="black" points="856.574,-116.8 846.051,-115.565 853.507,-123.093 856.574,-116.8"/>
<text text-anchor="middle" x="943.5" y="-318.8" font-family="Times,serif" font-size="14.00">0.044</text>
</g>
<!-- Pf&#45;&gt;Im -->
<g id="edge52" class="edge"><title>Pf&#45;&gt;Im</title>
<path fill="none" stroke="black" d="M1083.41,-533.756C1143.33,-521.143 1289.44,-488.834 1303,-471 1362.94,-392.16 1287.4,-267.919 1250.79,-216.492"/>
<polygon fill="black" stroke="black" points="1253.56,-214.358 1244.86,-208.32 1247.9,-218.469 1253.56,-214.358"/>
<text text-anchor="middle" x="1339.5" y="-362.3" font-family="Times,serif" font-size="14.00">0.102</text>
</g>
<!-- Pf&#45;&gt;ENJ -->
<g id="edge89" class="edge"><title>Pf&#45;&gt;ENJ</title>
<path fill="none" stroke="black" d="M1032.77,-533.575C1007.33,-527.714 967.191,-517.39 934,-504 920.908,-498.718 918.95,-494.622 906,-489 883.181,-479.093 873.719,-484.769 853,-471 792.165,-430.572 805.059,-388.089 744,-348 722.5,-333.884 710.777,-343.685 689,-330 677.81,-322.968 667.387,-312.767 659.132,-303.411"/>
<polygon fill="black" stroke="black" points="661.592,-300.898 652.471,-295.506 656.239,-305.409 661.592,-300.898"/>
<text text-anchor="middle" x="811" y="-405.8" font-family="Times,serif" font-size="14.00">0.0</text>
</g>
<!-- Pf&#45;&gt;PEU -->
<g id="edge29" class="edge"><title>Pf&#45;&gt;PEU</title>
<path fill="none" stroke="black" d="M1059.02,-521.913C1059.35,-516.216 1059.71,-509.835 1060,-504 1060.19,-500.168 1060.64,-438.023 1063,-435 1080.41,-412.733 1105.54,-438.409 1124,-417 1129.33,-410.815 1131.71,-402.508 1132.58,-394.445"/>
<polygon fill="black" stroke="black" points="1136.09,-394.309 1132.97,-384.182 1129.09,-394.041 1136.09,-394.309"/>
<text text-anchor="middle" x="1078.5" y="-449.3" font-family="Times,serif" font-size="14.00">0.204</text>
</g>
<!-- Pf&#45;&gt;SA -->
<g id="edge69" class="edge"><title>Pf&#45;&gt;SA</title>
<path fill="none" stroke="black" d="M1031.33,-537.15C994.873,-533.903 927.946,-525.359 875,-504 863.682,-499.434 863.136,-493.992 852,-489 851.441,-488.749 795.463,-473.593 757.439,-463.31"/>
<polygon fill="black" stroke="black" points="758.295,-459.915 747.728,-460.684 756.468,-466.673 758.295,-459.915"/>
<text text-anchor="middle" x="890.5" y="-492.8" font-family="Times,serif" font-size="14.00">0.066</text>
</g>
<!-- Pf&#45;&gt;JR -->
<g id="edge65" class="edge"><title>Pf&#45;&gt;JR</title>
<path fill="none" stroke="black" d="M1034.46,-549.19C1016.86,-555.642 992.423,-565.31 972,-576 961.188,-581.659 960.418,-586.692 949,-591 879.804,-617.106 792.712,-623.889 744.128,-625.559"/>
<polygon fill="black" stroke="black" points="743.972,-622.062 734.078,-625.85 744.175,-629.059 743.972,-622.062"/>
<text text-anchor="middle" x="987.5" y="-579.8" font-family="Times,serif" font-size="14.00">0.074</text>
</g>
<!-- JR&#45;&gt;Use -->
<g id="edge35" class="edge"><title>JR&#45;&gt;Use</title>
<path fill="none" stroke="black" d="M690.891,-641.565C669.636,-661.202 636.617,-698.833 652,-732 664.256,-758.426 692.654,-776.513 715.402,-787.351"/>
<polygon fill="black" stroke="black" points="714.187,-790.642 724.743,-791.555 717.06,-784.259 714.187,-790.642"/>
<text text-anchor="middle" x="667.5" y="-710.3" font-family="Times,serif" font-size="14.00">0.164</text>
</g>
<!-- JR&#45;&gt;BI -->
<g id="edge86" class="edge"><title>JR&#45;&gt;BI</title>
<path fill="none" stroke="black" d="M732.411,-633.371C756.639,-639.003 793.803,-648.994 824,-663 835.071,-668.135 835.584,-673.685 847,-678 915.294,-703.812 1001.17,-710.715 1049.49,-712.482"/>
<polygon fill="black" stroke="black" points="1049.68,-715.989 1059.78,-712.801 1049.89,-708.993 1049.68,-715.989"/>
<text text-anchor="middle" x="862.5" y="-666.8" font-family="Times,serif" font-size="14.00">0.021</text>
</g>
<!-- JR&#45;&gt;PU -->
<g id="edge88" class="edge"><title>JR&#45;&gt;PU</title>
<path fill="none" stroke="black" d="M683.264,-618.372C672.318,-615.089 659.097,-611.45 647,-609 583.353,-596.111 564.161,-609.792 502,-591 343.822,-543.181 130,-371.271 130,-323.5 130,-323.5 130,-323.5 130,-104 130,-37.2391 642.512,-22.4491 786.677,-19.6094"/>
<polygon fill="black" stroke="black" points="786.862,-23.1066 796.794,-19.418 786.73,-16.1079 786.862,-23.1066"/>
<text text-anchor="middle" x="147.5" y="-318.8" font-family="Times,serif" font-size="14.00">0.007</text>
</g>
<!-- JR&#45;&gt;Qu -->
<g id="edge87" class="edge"><title>JR&#45;&gt;Qu</title>
<path fill="none" stroke="black" d="M682.248,-619.175C657.791,-612.036 622.55,-600.56 612,-591 526.423,-513.46 500.915,-461.893 520,-348 533.593,-266.885 530.495,-237.306 583,-174 600.956,-152.35 610.744,-151.087 637,-141 686.883,-121.836 748.405,-112.916 786.93,-108.945"/>
<polygon fill="black" stroke="black" points="787.543,-112.403 797.158,-107.952 786.866,-105.435 787.543,-112.403"/>
<text text-anchor="middle" x="532.5" y="-362.3" font-family="Times,serif" font-size="14.00">0.02</text>
</g>
<!-- JR&#45;&gt;Im -->
<g id="edge42" class="edge"><title>JR&#45;&gt;Im</title>
<path fill="none" stroke="black" d="M733.924,-625.161C830.439,-621.768 1158.15,-606.816 1249,-558 1341.81,-508.129 1389.13,-448.963 1359,-348 1341.7,-290.04 1289.49,-239.11 1257.97,-212.534"/>
<polygon fill="black" stroke="black" points="1259.99,-209.668 1250.05,-206.005 1255.54,-215.068 1259.99,-209.668"/>
<text text-anchor="middle" x="1383.5" y="-405.8" font-family="Times,serif" font-size="14.00">0.128</text>
</g>
<!-- JR&#45;&gt;PEU -->
<g id="edge32" class="edge"><title>JR&#45;&gt;PEU</title>
<path fill="none" stroke="black" d="M711.8,-609.168C721.49,-576.314 744.078,-505.419 763,-489 862.002,-403.094 928.122,-467.693 1049,-417 1068.67,-408.753 1089.15,-396.266 1104.72,-385.834"/>
<polygon fill="black" stroke="black" points="1107.01,-388.513 1113.28,-379.978 1103.05,-382.736 1107.01,-388.513"/>
<text text-anchor="middle" x="778.5" y="-492.8" font-family="Times,serif" font-size="14.00">0.198</text>
</g>
<!-- JR&#45;&gt;SA -->
<g id="edge79" class="edge"><title>JR&#45;&gt;SA</title>
<path fill="none" stroke="black" d="M701.681,-609.041C694.293,-582.637 683.294,-530.434 697,-489 698.391,-484.796 700.503,-480.685 702.936,-476.846"/>
<polygon fill="black" stroke="black" points="705.977,-478.613 709.001,-468.46 700.305,-474.511 705.977,-478.613"/>
<text text-anchor="middle" x="706.5" y="-536.3" font-family="Times,serif" font-size="14.00">0.052</text>
</g>
<!-- JR&#45;&gt;Pf -->
<g id="edge84" class="edge"><title>JR&#45;&gt;Pf</title>
<path fill="none" stroke="black" d="M729.888,-617.166C746.15,-610.607 768.325,-601.085 787,-591 797.738,-585.201 798.574,-580.288 810,-576 881.302,-549.239 971.125,-542.713 1020.75,-541.26"/>
<polygon fill="black" stroke="black" points="1021.09,-544.753 1031,-541.016 1020.92,-537.755 1021.09,-544.753"/>
<text text-anchor="middle" x="825.5" y="-579.8" font-family="Times,serif" font-size="14.00">0.041</text>
</g>
</g>
</svg>
