<?xml version="1.0" encoding="UTF-8" standalone="no"?>
<!DOCTYPE svg PUBLIC "-//W3C//DTD SVG 1.1//EN"
 "http://www.w3.org/Graphics/SVG/1.1/DTD/svg11.dtd">
<!-- Generated by graphviz version 2.38.0 (20140413.2041)
 -->
<!-- Title: G Pages: 1 -->
<svg width="662pt" height="479pt"
 viewBox="0.00 0.00 662.00 479.00" xmlns="http://www.w3.org/2000/svg" xmlns:xlink="http://www.w3.org/1999/xlink">
<g id="graph0" class="graph" transform="scale(1 1) rotate(0) translate(4 475)">
<title>G</title>
<polygon fill="white" stroke="none" points="-4,4 -4,-475 658,-475 658,4 -4,4"/>
<!-- BI -->
<g id="node1" class="node"><title>BI</title>
<ellipse fill="none" stroke="black" cx="262" cy="-366" rx="27" ry="18"/>
<text text-anchor="middle" x="262" y="-362.3" font-family="Times,serif" font-size="14.00">BI</text>
</g>
<!-- Use -->
<g id="node2" class="node"><title>Use</title>
<ellipse fill="none" stroke="black" cx="352" cy="-192" rx="28.6953" ry="18"/>
<text text-anchor="middle" x="352" y="-188.3" font-family="Times,serif" font-size="14.00">Use</text>
</g>
<!-- BI&#45;&gt;Use -->
<g id="edge1" class="edge"><title>BI&#45;&gt;Use</title>
<path fill="none" stroke="black" d="M259.664,-348.065C257.513,-326.534 256.539,-288.819 271,-261 282.353,-239.159 304.029,-221.545 322.103,-209.721"/>
<polygon fill="black" stroke="black" points="324.004,-212.66 330.625,-204.388 320.291,-206.726 324.004,-212.66"/>
<text text-anchor="middle" x="291.5" y="-275.3" font-family="Times,serif" font-size="14.00">0.429</text>
</g>
<!-- PU -->
<g id="node3" class="node"><title>PU</title>
<ellipse fill="none" stroke="black" cx="432" cy="-105" rx="27" ry="18"/>
<text text-anchor="middle" x="432" y="-101.3" font-family="Times,serif" font-size="14.00">PU</text>
</g>
<!-- BI&#45;&gt;PU -->
<g id="edge10" class="edge"><title>BI&#45;&gt;PU</title>
<path fill="none" stroke="black" d="M289.117,-365.207C332.552,-364.585 419.583,-359.37 486,-330 507.393,-320.54 511.681,-314.678 527,-297 549.138,-271.453 570.773,-259.688 559,-228 541.216,-180.134 492.583,-142.798 460.921,-122.624"/>
<polygon fill="black" stroke="black" points="462.432,-119.444 452.087,-117.159 458.749,-125.397 462.432,-119.444"/>
<text text-anchor="middle" x="583.5" y="-231.8" font-family="Times,serif" font-size="14.00">0.115</text>
</g>
<!-- Im -->
<g id="node4" class="node"><title>Im</title>
<ellipse fill="none" stroke="black" cx="335" cy="-18" rx="27" ry="18"/>
<text text-anchor="middle" x="335" y="-14.3" font-family="Times,serif" font-size="14.00">Im</text>
</g>
<!-- BI&#45;&gt;Im -->
<g id="edge13" class="edge"><title>BI&#45;&gt;Im</title>
<path fill="none" stroke="black" d="M234.891,-365.084C194.083,-364.203 115.335,-358.538 56,-330 25.9312,-315.538 0,-313.366 0,-280 0,-280 0,-280 0,-104 0,-43.0878 210.714,-25.329 297.91,-20.5878"/>
<polygon fill="black" stroke="black" points="298.345,-24.0701 308.152,-20.0603 297.985,-17.0794 298.345,-24.0701"/>
<text text-anchor="middle" x="20.5" y="-188.3" font-family="Times,serif" font-size="14.00">0.082</text>
</g>
<!-- Qu -->
<g id="node5" class="node"><title>Qu</title>
<ellipse fill="none" stroke="black" cx="55" cy="-279" rx="27" ry="18"/>
<text text-anchor="middle" x="55" y="-275.3" font-family="Times,serif" font-size="14.00">Qu</text>
</g>
<!-- BI&#45;&gt;Qu -->
<g id="edge14" class="edge"><title>BI&#45;&gt;Qu</title>
<path fill="none" stroke="black" d="M235.094,-363.651C187.661,-360.721 91.9084,-352.16 68,-330 61.6398,-324.105 58.2295,-315.53 56.4481,-307.142"/>
<polygon fill="black" stroke="black" points="59.9036,-306.582 54.9942,-297.193 52.9772,-307.594 59.9036,-306.582"/>
<text text-anchor="middle" x="88.5" y="-318.8" font-family="Times,serif" font-size="14.00">0.074</text>
</g>
<!-- Pf -->
<g id="node8" class="node"><title>Pf</title>
<ellipse fill="none" stroke="black" cx="127" cy="-279" rx="27" ry="18"/>
<text text-anchor="middle" x="127" y="-275.3" font-family="Times,serif" font-size="14.00">Pf</text>
</g>
<!-- BI&#45;&gt;Pf -->
<g id="edge18" class="edge"><title>BI&#45;&gt;Pf</title>
<path fill="none" stroke="black" d="M242.944,-353.002C219.929,-338.511 181.031,-314.02 154.701,-297.442"/>
<polygon fill="black" stroke="black" points="156.286,-294.303 145.959,-291.937 152.556,-300.227 156.286,-294.303"/>
<text text-anchor="middle" x="223.5" y="-318.8" font-family="Times,serif" font-size="14.00">0.009</text>
</g>
<!-- Use&#45;&gt;BI -->
<g id="edge3" class="edge"><title>Use&#45;&gt;BI</title>
<path fill="none" stroke="black" d="M378.978,-198.294C398.72,-203.268 425.227,-212.356 444,-228 468.529,-248.44 482.631,-271.07 464,-297 426.463,-349.243 346.749,-361.89 299.456,-364.626"/>
<polygon fill="black" stroke="black" points="299.144,-361.137 289.314,-365.09 299.463,-368.13 299.144,-361.137"/>
<text text-anchor="middle" x="489" y="-275.3" font-family="Times,serif" font-size="14.00">0.23</text>
</g>
<!-- Use&#45;&gt;PU -->
<g id="edge7" class="edge"><title>Use&#45;&gt;PU</title>
<path fill="none" stroke="black" d="M353.008,-173.693C354.404,-163.27 357.63,-150.266 365,-141 373.508,-130.302 386.184,-122.515 398.228,-117.042"/>
<polygon fill="black" stroke="black" points="399.759,-120.196 407.659,-113.137 397.081,-113.729 399.759,-120.196"/>
<text text-anchor="middle" x="385.5" y="-144.8" font-family="Times,serif" font-size="14.00">0.141</text>
</g>
<!-- PU&#45;&gt;BI -->
<g id="edge5" class="edge"><title>PU&#45;&gt;BI</title>
<path fill="none" stroke="black" d="M447.58,-119.876C453.643,-125.9 460.257,-133.328 465,-141 490.172,-181.716 534.166,-252.96 509,-297 488.044,-333.672 362.23,-353.358 298.68,-361.078"/>
<polygon fill="black" stroke="black" points="298.196,-357.61 288.675,-362.256 299.016,-364.562 298.196,-357.61"/>
<text text-anchor="middle" x="534.5" y="-231.8" font-family="Times,serif" font-size="14.00">0.177</text>
</g>
<!-- PU&#45;&gt;Use -->
<g id="edge2" class="edge"><title>PU&#45;&gt;Use</title>
<path fill="none" stroke="black" d="M427.333,-123.211C423.856,-133.599 418.266,-146.598 410,-156 402.837,-164.148 393.304,-170.969 384.041,-176.361"/>
<polygon fill="black" stroke="black" points="382.093,-173.435 374.964,-181.272 385.425,-179.591 382.093,-173.435"/>
<text text-anchor="middle" x="440.5" y="-144.8" font-family="Times,serif" font-size="14.00">0.323</text>
</g>
<!-- PU&#45;&gt;Im -->
<g id="edge17" class="edge"><title>PU&#45;&gt;Im</title>
<path fill="none" stroke="black" d="M415.982,-89.964C400.304,-76.2247 376.243,-55.1405 358.418,-39.5209"/>
<polygon fill="black" stroke="black" points="360.547,-36.7331 350.72,-32.7748 355.934,-41.9978 360.547,-36.7331"/>
<text text-anchor="middle" x="406" y="-57.8" font-family="Times,serif" font-size="14.00">0.01</text>
</g>
<!-- Im&#45;&gt;Use -->
<g id="edge4" class="edge"><title>Im&#45;&gt;Use</title>
<path fill="none" stroke="black" d="M336.685,-36.0516C339.634,-65.8802 345.75,-127.764 349.296,-163.643"/>
<polygon fill="black" stroke="black" points="345.841,-164.272 350.308,-173.879 352.807,-163.583 345.841,-164.272"/>
<text text-anchor="middle" x="366.5" y="-101.3" font-family="Times,serif" font-size="14.00">0.184</text>
</g>
<!-- Qu&#45;&gt;BI -->
<g id="edge9" class="edge"><title>Qu&#45;&gt;BI</title>
<path fill="none" stroke="black" d="M73.34,-292.266C90.5043,-303.32 117.158,-319.418 142,-330 169.602,-341.758 202.389,-351.024 226.71,-357.06"/>
<polygon fill="black" stroke="black" points="226.033,-360.497 236.576,-359.447 227.68,-353.694 226.033,-360.497"/>
<text text-anchor="middle" x="162.5" y="-318.8" font-family="Times,serif" font-size="14.00">0.124</text>
</g>
<!-- Qu&#45;&gt;Use -->
<g id="edge6" class="edge"><title>Qu&#45;&gt;Use</title>
<path fill="none" stroke="black" d="M64.1836,-261.712C71.5248,-250.311 82.9057,-235.778 97,-228 133.337,-207.947 251.198,-198.568 313.144,-194.93"/>
<polygon fill="black" stroke="black" points="313.521,-198.414 323.307,-194.355 313.126,-191.426 313.521,-198.414"/>
<text text-anchor="middle" x="117.5" y="-231.8" font-family="Times,serif" font-size="14.00">0.154</text>
</g>
<!-- ENJ -->
<g id="node6" class="node"><title>ENJ</title>
<ellipse fill="none" stroke="black" cx="535" cy="-453" rx="29.795" ry="18"/>
<text text-anchor="middle" x="535" y="-449.3" font-family="Times,serif" font-size="14.00">ENJ</text>
</g>
<!-- ENJ&#45;&gt;BI -->
<g id="edge19" class="edge"><title>ENJ&#45;&gt;BI</title>
<path fill="none" stroke="black" d="M508.824,-443.85C459.071,-428.359 350.915,-394.684 295.781,-377.518"/>
<polygon fill="black" stroke="black" points="296.718,-374.144 286.13,-374.513 294.637,-380.828 296.718,-374.144"/>
<text text-anchor="middle" x="435.5" y="-405.8" font-family="Times,serif" font-size="14.00">0.001</text>
</g>
<!-- ENJ&#45;&gt;Use -->
<g id="edge8" class="edge"><title>ENJ&#45;&gt;Use</title>
<path fill="none" stroke="black" d="M548.606,-436.969C582.37,-397.844 663.397,-291.487 608,-228 580.342,-196.303 455.796,-192.265 391.179,-192.371"/>
<polygon fill="black" stroke="black" points="390.953,-188.872 380.971,-192.423 390.989,-195.872 390.953,-188.872"/>
<text text-anchor="middle" x="638" y="-318.8" font-family="Times,serif" font-size="14.00">0.13</text>
</g>
<!-- SA -->
<g id="node7" class="node"><title>SA</title>
<ellipse fill="none" stroke="black" cx="199" cy="-279" rx="27" ry="18"/>
<text text-anchor="middle" x="199" y="-275.3" font-family="Times,serif" font-size="14.00">SA</text>
</g>
<!-- SA&#45;&gt;Use -->
<g id="edge11" class="edge"><title>SA&#45;&gt;Use</title>
<path fill="none" stroke="black" d="M197.27,-260.649C197.185,-249.943 199.002,-236.649 207,-228 221.263,-212.576 275.689,-202.644 313.64,-197.438"/>
<polygon fill="black" stroke="black" points="314.402,-200.868 323.861,-196.095 313.49,-193.928 314.402,-200.868"/>
<text text-anchor="middle" x="227.5" y="-231.8" font-family="Times,serif" font-size="14.00">0.098</text>
</g>
<!-- Pf&#45;&gt;Use -->
<g id="edge12" class="edge"><title>Pf&#45;&gt;Use</title>
<path fill="none" stroke="black" d="M132.231,-260.995C136.548,-249.864 143.81,-235.956 155,-228 179.911,-210.288 263.667,-200.388 313.593,-195.93"/>
<polygon fill="black" stroke="black" points="314.037,-199.404 323.7,-195.06 313.436,-192.43 314.037,-199.404"/>
<text text-anchor="middle" x="175.5" y="-231.8" font-family="Times,serif" font-size="14.00">0.092</text>
</g>
<!-- PEU -->
<g id="node9" class="node"><title>PEU</title>
<ellipse fill="none" stroke="black" cx="352" cy="-279" rx="31.3957" ry="18"/>
<text text-anchor="middle" x="352" y="-275.3" font-family="Times,serif" font-size="14.00">PEU</text>
</g>
<!-- PEU&#45;&gt;Use -->
<g id="edge15" class="edge"><title>PEU&#45;&gt;Use</title>
<path fill="none" stroke="black" d="M352,-260.799C352,-249.163 352,-233.548 352,-220.237"/>
<polygon fill="black" stroke="black" points="355.5,-220.175 352,-210.175 348.5,-220.175 355.5,-220.175"/>
<text text-anchor="middle" x="372.5" y="-231.8" font-family="Times,serif" font-size="14.00">0.054</text>
</g>
<!-- JR -->
<g id="node10" class="node"><title>JR</title>
<ellipse fill="none" stroke="black" cx="428" cy="-279" rx="27" ry="18"/>
<text text-anchor="middle" x="428" y="-275.3" font-family="Times,serif" font-size="14.00">JR</text>
</g>
<!-- JR&#45;&gt;Use -->
<g id="edge16" class="edge"><title>JR&#45;&gt;Use</title>
<path fill="none" stroke="black" d="M419.824,-261.69C414.216,-251.399 406.151,-238.177 397,-228 391.813,-222.232 385.585,-216.715 379.438,-211.836"/>
<polygon fill="black" stroke="black" points="381.3,-208.856 371.213,-205.615 377.077,-214.439 381.3,-208.856"/>
<text text-anchor="middle" x="424" y="-231.8" font-family="Times,serif" font-size="14.00">0.03</text>
</g>
</g>
</svg>
