<?xml version="1.0" encoding="UTF-8" standalone="no"?>
<!DOCTYPE svg PUBLIC "-//W3C//DTD SVG 1.1//EN"
 "http://www.w3.org/Graphics/SVG/1.1/DTD/svg11.dtd">
<!-- Generated by graphviz version 2.38.0 (20140413.2041)
 -->
<!-- Title: G Pages: 1 -->
<svg width="1846pt" height="827pt"
 viewBox="0.00 0.00 1846.00 827.00" xmlns="http://www.w3.org/2000/svg" xmlns:xlink="http://www.w3.org/1999/xlink">
<g id="graph0" class="graph" transform="scale(1 1) rotate(0) translate(4 823)">
<title>G</title>
<polygon fill="white" stroke="none" points="-4,4 -4,-823 1842,-823 1842,4 -4,4"/>
<!-- Use -->
<g id="node1" class="node"><title>Use</title>
<ellipse fill="none" stroke="black" cx="871" cy="-801" rx="27" ry="18"/>
<text text-anchor="middle" x="871" y="-797.3" font-family="Times,serif" font-size="14.00">Use</text>
</g>
<!-- BI -->
<g id="node2" class="node"><title>BI</title>
<ellipse fill="none" stroke="black" cx="871" cy="-714" rx="27" ry="18"/>
<text text-anchor="middle" x="871" y="-710.3" font-family="Times,serif" font-size="14.00">BI</text>
</g>
<!-- Use&#45;&gt;BI -->
<g id="edge1" class="edge"><title>Use&#45;&gt;BI</title>
<path fill="none" stroke="black" d="M873.928,-782.962C874.775,-777.269 875.582,-770.878 876,-765 876.53,-757.548 876.145,-749.486 875.399,-742.056"/>
<polygon fill="black" stroke="black" points="878.869,-741.595 874.161,-732.104 871.923,-742.459 878.869,-741.595"/>
<text text-anchor="middle" x="891.5" y="-753.8" font-family="Times,serif" font-size="14.00">0.498</text>
</g>
<!-- PU -->
<g id="node3" class="node"><title>PU</title>
<ellipse fill="none" stroke="black" cx="757" cy="-18" rx="27" ry="18"/>
<text text-anchor="middle" x="757" y="-14.3" font-family="Times,serif" font-size="14.00">PU</text>
</g>
<!-- Use&#45;&gt;PU -->
<g id="edge5" class="edge"><title>Use&#45;&gt;PU</title>
<path fill="none" stroke="black" d="M843.754,-799.693C712.346,-798.092 147.32,-789.809 73,-765 35.6983,-752.548 0,-754.325 0,-715 0,-715 0,-715 0,-104 0,-49.8927 58.4265,-66.7919 111,-54 227.662,-25.6143 600.029,-20.2296 719.631,-19.2257"/>
<polygon fill="black" stroke="black" points="719.783,-22.7247 729.756,-19.1462 719.728,-15.7249 719.783,-22.7247"/>
<text text-anchor="middle" x="15.5" y="-405.8" font-family="Times,serif" font-size="14.00">0.342</text>
</g>
<!-- Qu -->
<g id="node4" class="node"><title>Qu</title>
<ellipse fill="none" stroke="black" cx="811" cy="-105" rx="27" ry="18"/>
<text text-anchor="middle" x="811" y="-101.3" font-family="Times,serif" font-size="14.00">Qu</text>
</g>
<!-- Use&#45;&gt;Qu -->
<g id="edge23" class="edge"><title>Use&#45;&gt;Qu</title>
<path fill="none" stroke="black" d="M844.012,-799.919C707.55,-799.164 100,-791.507 100,-715 100,-715 100,-715 100,-495.5 100,-275.958 229.821,-189.229 444,-141 562.54,-114.307 707.094,-107.956 773.889,-106.456"/>
<polygon fill="black" stroke="black" points="773.998,-109.955 783.926,-106.255 773.858,-102.956 773.998,-109.955"/>
<text text-anchor="middle" x="119.5" y="-449.3" font-family="Times,serif" font-size="14.00">0.189</text>
</g>
<!-- ENJ -->
<g id="node5" class="node"><title>ENJ</title>
<ellipse fill="none" stroke="black" cx="1361" cy="-192" rx="27" ry="18"/>
<text text-anchor="middle" x="1361" y="-188.3" font-family="Times,serif" font-size="14.00">ENJ</text>
</g>
<!-- Use&#45;&gt;ENJ -->
<g id="edge75" class="edge"><title>Use&#45;&gt;ENJ</title>
<path fill="none" stroke="black" d="M898.364,-800.302C1047.24,-801.593 1753,-803.07 1753,-715 1753,-715 1753,-715 1753,-539 1753,-392.534 1772.63,-298.056 1644,-228 1606.56,-207.609 1495.23,-215.879 1453,-210 1434.35,-207.403 1413.72,-203.672 1396.73,-200.366"/>
<polygon fill="black" stroke="black" points="1397.17,-196.884 1386.68,-198.377 1395.81,-203.751 1397.17,-196.884"/>
<text text-anchor="middle" x="1768.5" y="-492.8" font-family="Times,serif" font-size="14.00">0.033</text>
</g>
<!-- PEU -->
<g id="node6" class="node"><title>PEU</title>
<ellipse fill="none" stroke="black" cx="720" cy="-279" rx="27.0966" ry="18"/>
<text text-anchor="middle" x="720" y="-275.3" font-family="Times,serif" font-size="14.00">PEU</text>
</g>
<!-- Use&#45;&gt;PEU -->
<g id="edge17" class="edge"><title>Use&#45;&gt;PEU</title>
<path fill="none" stroke="black" d="M843.764,-799.998C746.622,-799.728 421.165,-796.464 388,-765 320.724,-701.174 311.654,-418.414 372,-348 396.846,-319.009 419.018,-339.493 456,-330 478.472,-324.231 483.393,-320.217 506,-315 539.031,-307.378 631.496,-293.159 683.425,-285.396"/>
<polygon fill="black" stroke="black" points="684.173,-288.824 693.548,-283.888 683.142,-281.9 684.173,-288.824"/>
<text text-anchor="middle" x="348.5" y="-536.3" font-family="Times,serif" font-size="14.00">0.206</text>
</g>
<!-- Im -->
<g id="node7" class="node"><title>Im</title>
<ellipse fill="none" stroke="black" cx="1115" cy="-366" rx="27" ry="18"/>
<text text-anchor="middle" x="1115" y="-362.3" font-family="Times,serif" font-size="14.00">Im</text>
</g>
<!-- Use&#45;&gt;Im -->
<g id="edge20" class="edge"><title>Use&#45;&gt;Im</title>
<path fill="none" stroke="black" d="M897.975,-799.481C1001.66,-797.321 1371.08,-788.062 1418,-765 1432.78,-757.736 1500.79,-706.741 1593,-558 1615.23,-522.138 1622.37,-512.303 1631,-471 1634.27,-455.338 1640.55,-447.837 1631,-435 1600.53,-394.05 1571.14,-411.576 1521,-402 1387.15,-376.435 1224.88,-369.527 1152.73,-367.673"/>
<polygon fill="black" stroke="black" points="1152.43,-364.165 1142.35,-367.425 1152.26,-371.163 1152.43,-364.165"/>
<text text-anchor="middle" x="1590" y="-579.8" font-family="Times,serif" font-size="14.00">0.2</text>
</g>
<!-- SA -->
<g id="node8" class="node"><title>SA</title>
<ellipse fill="none" stroke="black" cx="1307" cy="-453" rx="27" ry="18"/>
<text text-anchor="middle" x="1307" y="-449.3" font-family="Times,serif" font-size="14.00">SA</text>
</g>
<!-- Use&#45;&gt;SA -->
<g id="edge58" class="edge"><title>Use&#45;&gt;SA</title>
<path fill="none" stroke="black" d="M898.338,-800.28C1025.14,-801.37 1552.43,-803.539 1614,-765 1685.77,-720.075 1686.08,-645.7 1638,-576 1570.69,-478.418 1415.93,-458.654 1344.45,-454.818"/>
<polygon fill="black" stroke="black" points="1344.27,-451.306 1334.12,-454.344 1343.95,-458.299 1344.27,-451.306"/>
<text text-anchor="middle" x="1683.5" y="-623.3" font-family="Times,serif" font-size="14.00">0.061</text>
</g>
<!-- Pf -->
<g id="node9" class="node"><title>Pf</title>
<ellipse fill="none" stroke="black" cx="1123" cy="-540" rx="27" ry="18"/>
<text text-anchor="middle" x="1123" y="-536.3" font-family="Times,serif" font-size="14.00">Pf</text>
</g>
<!-- Use&#45;&gt;Pf -->
<g id="edge60" class="edge"><title>Use&#45;&gt;Pf</title>
<path fill="none" stroke="black" d="M897.326,-796.228C984.473,-783.254 1261.69,-737.95 1326,-678 1360.56,-645.778 1387.89,-610.872 1356,-576 1325.74,-542.905 1197.99,-570.773 1155,-558 1153.78,-557.637 1152.55,-557.225 1151.32,-556.775"/>
<polygon fill="black" stroke="black" points="1152.66,-553.541 1142.1,-552.723 1149.85,-559.949 1152.66,-553.541"/>
<text text-anchor="middle" x="1355.5" y="-666.8" font-family="Times,serif" font-size="14.00">0.061</text>
</g>
<!-- JR -->
<g id="node10" class="node"><title>JR</title>
<ellipse fill="none" stroke="black" cx="807" cy="-627" rx="27" ry="18"/>
<text text-anchor="middle" x="807" y="-623.3" font-family="Times,serif" font-size="14.00">JR</text>
</g>
<!-- Use&#45;&gt;JR -->
<g id="edge67" class="edge"><title>Use&#45;&gt;JR</title>
<path fill="none" stroke="black" d="M846.255,-793.179C818.995,-784.18 776.564,-765.428 758,-732 742.551,-704.183 765.346,-670.679 784.744,-649.36"/>
<polygon fill="black" stroke="black" points="787.304,-651.747 791.66,-642.089 782.232,-646.923 787.304,-651.747"/>
<text text-anchor="middle" x="773.5" y="-710.3" font-family="Times,serif" font-size="14.00">0.047</text>
</g>
<!-- BI&#45;&gt;Use -->
<g id="edge2" class="edge"><title>BI&#45;&gt;Use</title>
<path fill="none" stroke="black" d="M855.202,-728.773C849.593,-734.676 843.943,-742.044 841,-750 837.327,-759.929 841.661,-770.09 848.074,-778.636"/>
<polygon fill="black" stroke="black" points="845.482,-780.99 854.665,-786.275 850.782,-776.417 845.482,-780.99"/>
<text text-anchor="middle" x="856.5" y="-753.8" font-family="Times,serif" font-size="14.00">0.488</text>
</g>
<!-- BI&#45;&gt;PU -->
<g id="edge7" class="edge"><title>BI&#45;&gt;PU</title>
<path fill="none" stroke="black" d="M851.946,-701.111C847.816,-699.045 843.372,-697.183 839,-696 646.645,-643.954 583.335,-730.122 391,-678 207.597,-628.299 152,-513.518 152,-323.5 152,-323.5 152,-323.5 152,-104 152,-80.7417 187.606,-70.1296 257,-54 345.014,-33.5423 619.295,-23.2426 719.695,-20.0835"/>
<polygon fill="black" stroke="black" points="720.073,-23.5736 729.96,-19.7664 719.857,-16.5769 720.073,-23.5736"/>
<text text-anchor="middle" x="170.5" y="-362.3" font-family="Times,serif" font-size="14.00">0.298</text>
</g>
<!-- BI&#45;&gt;Qu -->
<g id="edge28" class="edge"><title>BI&#45;&gt;Qu</title>
<path fill="none" stroke="black" d="M850.816,-701.95C846.925,-699.913 842.858,-697.848 839,-696 820.683,-687.228 813.116,-690.358 797,-678 717.671,-617.167 717.524,-570.604 709,-471 698.562,-349.03 766.321,-328.509 797,-210 803.61,-184.468 807.221,-154.555 809.111,-133.38"/>
<polygon fill="black" stroke="black" points="812.619,-133.427 809.95,-123.174 805.643,-132.854 812.619,-133.427"/>
<text text-anchor="middle" x="727.5" y="-405.8" font-family="Times,serif" font-size="14.00">0.174</text>
</g>
<!-- BI&#45;&gt;ENJ -->
<g id="edge40" class="edge"><title>BI&#45;&gt;ENJ</title>
<path fill="none" stroke="black" d="M898.1,-712.749C997.173,-711.61 1335.98,-705.705 1375,-678 1482.94,-601.363 1503.94,-533.294 1487,-402 1478.71,-337.744 1479.41,-318.729 1450,-261 1441.4,-244.115 1437.5,-240.201 1423,-228 1413.73,-220.201 1402.47,-213.244 1392.11,-207.627"/>
<polygon fill="black" stroke="black" points="1393.41,-204.36 1382.92,-202.86 1390.18,-210.573 1393.41,-204.36"/>
<text text-anchor="middle" x="1507.5" y="-449.3" font-family="Times,serif" font-size="14.00">0.101</text>
</g>
<!-- BI&#45;&gt;PEU -->
<g id="edge18" class="edge"><title>BI&#45;&gt;PEU</title>
<path fill="none" stroke="black" d="M851.925,-701.187C847.797,-699.116 843.359,-697.232 839,-696 808.253,-687.309 576.016,-699.074 552,-678 496.681,-629.459 480.067,-407.045 524,-348 533.948,-334.63 631.95,-305.052 685.491,-289.688"/>
<polygon fill="black" stroke="black" points="686.598,-293.012 695.254,-286.903 684.677,-286.281 686.598,-293.012"/>
<text text-anchor="middle" x="515.5" y="-492.8" font-family="Times,serif" font-size="14.00">0.204</text>
</g>
<!-- BI&#45;&gt;Im -->
<g id="edge19" class="edge"><title>BI&#45;&gt;Im</title>
<path fill="none" stroke="black" d="M873.958,-695.915C874.936,-690.219 876.024,-683.837 877,-678 887.25,-616.708 878.103,-445.987 922,-402 939.342,-384.623 1006.85,-388.436 1031,-384 1047.05,-381.051 1064.77,-377.509 1079.78,-374.422"/>
<polygon fill="black" stroke="black" points="1080.6,-377.826 1089.68,-372.371 1079.18,-370.972 1080.6,-377.826"/>
<text text-anchor="middle" x="902.5" y="-536.3" font-family="Times,serif" font-size="14.00">0.204</text>
</g>
<!-- BI&#45;&gt;SA -->
<g id="edge65" class="edge"><title>BI&#45;&gt;SA</title>
<path fill="none" stroke="black" d="M897.949,-711.741C993.165,-707.188 1308.97,-691.153 1326,-678 1392.81,-626.388 1383.69,-564.034 1345,-489 1342.03,-483.245 1337.72,-477.953 1333.05,-473.32"/>
<polygon fill="black" stroke="black" points="1335.35,-470.682 1325.57,-466.611 1330.68,-475.893 1335.35,-470.682"/>
<text text-anchor="middle" x="1387.5" y="-579.8" font-family="Times,serif" font-size="14.00">0.05</text>
</g>
<!-- BI&#45;&gt;Pf -->
<g id="edge47" class="edge"><title>BI&#45;&gt;Pf</title>
<path fill="none" stroke="black" d="M897.819,-711.871C952.828,-709.114 1076.18,-700.536 1111,-678 1145.73,-655.524 1138.95,-600.723 1130.93,-567.644"/>
<polygon fill="black" stroke="black" points="1134.26,-566.524 1128.34,-557.736 1127.49,-568.296 1134.26,-566.524"/>
<text text-anchor="middle" x="1152.5" y="-623.3" font-family="Times,serif" font-size="14.00">0.079</text>
</g>
<!-- BI&#45;&gt;JR -->
<g id="edge49" class="edge"><title>BI&#45;&gt;JR</title>
<path fill="none" stroke="black" d="M859.261,-697.41C849.608,-684.589 835.776,-666.219 824.767,-651.597"/>
<polygon fill="black" stroke="black" points="827.475,-649.375 818.664,-643.491 821.883,-653.585 827.475,-649.375"/>
<text text-anchor="middle" x="857.5" y="-666.8" font-family="Times,serif" font-size="14.00">0.076</text>
</g>
<!-- PU&#45;&gt;Use -->
<g id="edge3" class="edge"><title>PU&#45;&gt;Use</title>
<path fill="none" stroke="black" d="M729.872,-19.3737C600.677,-21.5039 54,-34.6171 54,-104 54,-715 54,-715 54,-715 54,-762.713 102.971,-752.436 149,-765 279.856,-800.717 704.541,-801.07 833.514,-800.316"/>
<polygon fill="black" stroke="black" points="833.7,-803.815 843.677,-800.25 833.655,-796.815 833.7,-803.815"/>
<text text-anchor="middle" x="69.5" y="-405.8" font-family="Times,serif" font-size="14.00">0.386</text>
</g>
<!-- PU&#45;&gt;BI -->
<g id="edge4" class="edge"><title>PU&#45;&gt;BI</title>
<path fill="none" stroke="black" d="M730.034,-20.1588C617.353,-25.3522 190,-48.6945 190,-104 190,-236.5 190,-236.5 190,-236.5 190,-312.605 273.813,-490.006 308,-558 328.766,-599.3 328.334,-616.849 365,-645 402.123,-673.501 418.983,-669.464 465,-678 628.623,-708.353 678.535,-651.899 839,-696 840.228,-696.338 841.463,-696.728 842.694,-697.161"/>
<polygon fill="black" stroke="black" points="841.369,-700.401 851.939,-701.138 844.136,-693.971 841.369,-700.401"/>
<text text-anchor="middle" x="242.5" y="-362.3" font-family="Times,serif" font-size="14.00">0.35</text>
</g>
<!-- PU&#45;&gt;Qu -->
<g id="edge29" class="edge"><title>PU&#45;&gt;Qu</title>
<path fill="none" stroke="black" d="M771.851,-33.0986C777.691,-39.1572 784.145,-46.5505 789,-54 793.733,-61.2625 797.891,-69.7132 801.281,-77.5777"/>
<polygon fill="black" stroke="black" points="798.141,-79.1473 805.15,-87.0924 804.625,-76.5105 798.141,-79.1473"/>
<text text-anchor="middle" x="812.5" y="-57.8" font-family="Times,serif" font-size="14.00">0.173</text>
</g>
<!-- PU&#45;&gt;ENJ -->
<g id="edge31" class="edge"><title>PU&#45;&gt;ENJ</title>
<path fill="none" stroke="black" d="M784.157,-19.0864C855.532,-19.7399 1054.07,-24.3121 1216,-54 1267.04,-63.3579 1290.93,-50.6879 1328,-87 1348.65,-107.23 1356.41,-140.305 1359.31,-163.717"/>
<polygon fill="black" stroke="black" points="1355.83,-164.119 1360.32,-173.714 1362.79,-163.41 1355.83,-164.119"/>
<text text-anchor="middle" x="1364.5" y="-101.3" font-family="Times,serif" font-size="14.00">0.159</text>
</g>
<!-- PU&#45;&gt;PEU -->
<g id="edge11" class="edge"><title>PU&#45;&gt;PEU</title>
<path fill="none" stroke="black" d="M734.308,-27.9294C696.925,-44.0406 623.59,-81.8935 594,-141 567.53,-193.875 643.276,-241.157 688.637,-263.827"/>
<polygon fill="black" stroke="black" points="687.284,-267.061 697.808,-268.284 690.344,-260.765 687.284,-267.061"/>
<text text-anchor="middle" x="609.5" y="-144.8" font-family="Times,serif" font-size="14.00">0.232</text>
</g>
<!-- PU&#45;&gt;Im -->
<g id="edge32" class="edge"><title>PU&#45;&gt;Im</title>
<path fill="none" stroke="black" d="M784.27,-19.3065C915.421,-21.1326 1475,-33.0794 1475,-104 1475,-280 1475,-280 1475,-280 1475,-315.055 1446.27,-316.298 1414,-330 1367.56,-349.722 1221.07,-359.605 1151.88,-363.271"/>
<polygon fill="black" stroke="black" points="1151.67,-359.777 1141.86,-363.787 1152.03,-366.768 1151.67,-359.777"/>
<text text-anchor="middle" x="1490.5" y="-188.3" font-family="Times,serif" font-size="14.00">0.154</text>
</g>
<!-- PU&#45;&gt;SA -->
<g id="edge54" class="edge"><title>PU&#45;&gt;SA</title>
<path fill="none" stroke="black" d="M784.24,-19.0081C903.126,-19.233 1377.05,-22.1496 1522,-54 1559.97,-62.3427 1578.99,-56.4314 1603,-87 1684.55,-190.803 1669.98,-271.455 1601,-384 1588.04,-405.145 1578.97,-407.658 1556,-417 1485.02,-445.86 1394.33,-451.599 1344.31,-452.355"/>
<polygon fill="black" stroke="black" points="1344.25,-448.855 1334.28,-452.447 1344.31,-455.855 1344.25,-448.855"/>
<text text-anchor="middle" x="1673.5" y="-231.8" font-family="Times,serif" font-size="14.00">0.066</text>
</g>
<!-- PU&#45;&gt;Pf -->
<g id="edge69" class="edge"><title>PU&#45;&gt;Pf</title>
<path fill="none" stroke="black" d="M784.035,-19.5179C906.471,-21.9635 1409.76,-33.1179 1566,-54 1665.82,-67.341 1787,-3.29532 1787,-104 1787,-236.5 1787,-236.5 1787,-236.5 1787,-361.677 1738.03,-406.078 1631,-471 1540.04,-526.174 1256.71,-490.812 1155,-522 1153.95,-522.323 1152.89,-522.681 1151.83,-523.068"/>
<polygon fill="black" stroke="black" points="1150.22,-519.95 1142.46,-527.163 1153.03,-526.364 1150.22,-519.95"/>
<text text-anchor="middle" x="1801.5" y="-275.3" font-family="Times,serif" font-size="14.00">0.046</text>
</g>
<!-- PU&#45;&gt;JR -->
<g id="edge73" class="edge"><title>PU&#45;&gt;JR</title>
<path fill="none" stroke="black" d="M730.072,-20.0442C650.34,-23.8608 421,-40.3692 421,-104 421,-280 421,-280 421,-280 421,-380.978 394.721,-426.123 459,-504 538.241,-600.004 697.863,-620.552 770.052,-624.883"/>
<polygon fill="black" stroke="black" points="769.878,-628.379 780.049,-625.412 770.247,-621.389 769.878,-628.379"/>
<text text-anchor="middle" x="436.5" y="-318.8" font-family="Times,serif" font-size="14.00">0.034</text>
</g>
<!-- Qu&#45;&gt;Use -->
<g id="edge6" class="edge"><title>Qu&#45;&gt;Use</title>
<path fill="none" stroke="black" d="M783.996,-107.396C731.34,-110.508 611.479,-119.504 513,-141 466.449,-151.161 451.712,-149.246 411,-174 265.995,-262.165 205,-325.795 205,-495.5 205,-715 205,-715 205,-715 205,-778.902 693.675,-795.697 833.837,-799.2"/>
<polygon fill="black" stroke="black" points="833.985,-802.704 844.067,-799.447 834.155,-795.706 833.985,-802.704"/>
<text text-anchor="middle" x="223.5" y="-449.3" font-family="Times,serif" font-size="14.00">0.299</text>
</g>
<!-- Qu&#45;&gt;BI -->
<g id="edge10" class="edge"><title>Qu&#45;&gt;BI</title>
<path fill="none" stroke="black" d="M783.867,-107.548C725.413,-111.214 589.526,-121.605 548,-141 400.98,-209.668 298.141,-255.098 309,-417 313.232,-480.091 294.032,-504.666 328,-558 381.049,-641.293 421.047,-647.592 515,-678 652.214,-722.41 700.077,-657.265 839,-696 840.227,-696.342 841.46,-696.737 842.691,-697.173"/>
<polygon fill="black" stroke="black" points="841.364,-700.412 851.932,-701.163 844.139,-693.985 841.364,-700.412"/>
<text text-anchor="middle" x="324.5" y="-405.8" font-family="Times,serif" font-size="14.00">0.274</text>
</g>
<!-- Qu&#45;&gt;PU -->
<g id="edge16" class="edge"><title>Qu&#45;&gt;PU</title>
<path fill="none" stroke="black" d="M788.248,-95.0941C777.036,-89.4229 764.545,-80.8792 758,-69 754.255,-62.2035 753.004,-54.0583 752.96,-46.3346"/>
<polygon fill="black" stroke="black" points="756.462,-46.4108 753.53,-36.2296 749.473,-46.0168 756.462,-46.4108"/>
<text text-anchor="middle" x="773.5" y="-57.8" font-family="Times,serif" font-size="14.00">0.211</text>
</g>
<!-- Qu&#45;&gt;ENJ -->
<g id="edge42" class="edge"><title>Qu&#45;&gt;ENJ</title>
<path fill="none" stroke="black" d="M838.254,-106.65C897.813,-108.518 1043.79,-115.537 1163,-141 1183.62,-145.404 1187.7,-150.309 1208,-156 1247.84,-167.168 1294.24,-177.4 1325.41,-183.879"/>
<polygon fill="black" stroke="black" points="1324.86,-187.339 1335.36,-185.928 1326.27,-180.483 1324.86,-187.339"/>
<text text-anchor="middle" x="1217" y="-144.8" font-family="Times,serif" font-size="14.00">0.1</text>
</g>
<!-- Qu&#45;&gt;PEU -->
<g id="edge12" class="edge"><title>Qu&#45;&gt;PEU</title>
<path fill="none" stroke="black" d="M799.676,-121.47C790.071,-134.957 776.258,-155.246 766,-174 751.932,-199.719 738.708,-230.591 730.082,-251.986"/>
<polygon fill="black" stroke="black" points="726.789,-250.794 726.344,-261.379 733.293,-253.382 726.789,-250.794"/>
<text text-anchor="middle" x="781.5" y="-188.3" font-family="Times,serif" font-size="14.00">0.229</text>
</g>
<!-- Qu&#45;&gt;Im -->
<g id="edge30" class="edge"><title>Qu&#45;&gt;Im</title>
<path fill="none" stroke="black" d="M837.331,-109.033C857.949,-112.869 885.628,-121.523 901,-141 929.349,-176.919 889.432,-205.051 915,-243 951.039,-296.49 986.125,-281.106 1041,-315 1057.02,-324.892 1074.48,-336.647 1088.42,-346.273"/>
<polygon fill="black" stroke="black" points="1086.82,-349.418 1097.03,-352.25 1090.81,-343.669 1086.82,-349.418"/>
<text text-anchor="middle" x="927.5" y="-231.8" font-family="Times,serif" font-size="14.00">0.16</text>
</g>
<!-- Qu&#45;&gt;SA -->
<g id="edge63" class="edge"><title>Qu&#45;&gt;SA</title>
<path fill="none" stroke="black" d="M837.917,-107.389C905.361,-111.111 1080.1,-122.314 1135,-141 1141.66,-143.266 1184.41,-168.673 1189,-174 1227.74,-218.967 1199.14,-254.929 1241,-297 1255.33,-311.396 1270.39,-299.077 1283,-315 1307.83,-346.362 1310.57,-394.502 1309.42,-424.574"/>
<polygon fill="black" stroke="black" points="1305.91,-424.591 1308.85,-434.771 1312.9,-424.981 1305.91,-424.591"/>
<text text-anchor="middle" x="1256.5" y="-275.3" font-family="Times,serif" font-size="14.00">0.053</text>
</g>
<!-- Qu&#45;&gt;Pf -->
<g id="edge59" class="edge"><title>Qu&#45;&gt;Pf</title>
<path fill="none" stroke="black" d="M832.237,-116.381C842.669,-122.368 854.737,-130.747 863,-141 909.816,-199.092 869.78,-246.829 925,-297 946.237,-316.295 963.531,-298.492 987,-315 1013.94,-333.95 1057.24,-406.645 1074,-435 1089.08,-460.513 1103.15,-491.418 1112.31,-512.877"/>
<polygon fill="black" stroke="black" points="1109.17,-514.443 1116.28,-522.302 1115.62,-511.728 1109.17,-514.443"/>
<text text-anchor="middle" x="1017.5" y="-318.8" font-family="Times,serif" font-size="14.00">0.061</text>
</g>
<!-- Qu&#45;&gt;JR -->
<g id="edge68" class="edge"><title>Qu&#45;&gt;JR</title>
<path fill="none" stroke="black" d="M785.486,-111.617C766.444,-116.792 740.61,-125.99 722,-141 621.889,-221.747 599.268,-293.447 635,-417 674.315,-552.94 716.452,-563.921 745,-591 753.878,-599.421 765.162,-606.564 775.663,-612.157"/>
<polygon fill="black" stroke="black" points="774.104,-615.29 784.609,-616.666 777.255,-609.04 774.104,-615.29"/>
<text text-anchor="middle" x="642.5" y="-362.3" font-family="Times,serif" font-size="14.00">0.047</text>
</g>
<!-- ENJ&#45;&gt;Use -->
<g id="edge14" class="edge"><title>ENJ&#45;&gt;Use</title>
<path fill="none" stroke="black" d="M1386.27,-198.431C1404.68,-202.203 1430.29,-207.062 1453,-210 1506.26,-216.889 1646.96,-202.083 1694,-228 1735.45,-250.837 1807,-361.177 1807,-408.5 1807,-715 1807,-715 1807,-715 1807,-743.458 1792.4,-752.174 1767,-765 1689.65,-804.051 1069.18,-801.651 908.752,-800.361"/>
<polygon fill="black" stroke="black" points="908.463,-796.859 898.434,-800.275 908.405,-803.859 908.463,-796.859"/>
<text text-anchor="middle" x="1822.5" y="-492.8" font-family="Times,serif" font-size="14.00">0.215</text>
</g>
<!-- ENJ&#45;&gt;BI -->
<g id="edge37" class="edge"><title>ENJ&#45;&gt;BI</title>
<path fill="none" stroke="black" d="M1386.69,-198.301C1405.09,-201.963 1430.5,-206.741 1453,-210 1490.82,-215.476 1598.32,-199.709 1624,-228 1737.06,-352.533 1610.98,-451.507 1517,-591 1488.64,-633.099 1488.41,-655.303 1443,-678 1395.38,-701.804 1027.53,-710.27 908.225,-712.406"/>
<polygon fill="black" stroke="black" points="908.055,-708.908 898.118,-712.582 908.177,-715.907 908.055,-708.908"/>
<text text-anchor="middle" x="1644.5" y="-449.3" font-family="Times,serif" font-size="14.00">0.115</text>
</g>
<!-- ENJ&#45;&gt;PU -->
<g id="edge26" class="edge"><title>ENJ&#45;&gt;PU</title>
<path fill="none" stroke="black" d="M1348.05,-176.037C1321.5,-146.543 1257.51,-81.3919 1188,-54 1116.7,-25.901 884.992,-20.3597 794.084,-19.2677"/>
<polygon fill="black" stroke="black" points="794.004,-15.7667 783.967,-19.1578 793.928,-22.7663 794.004,-15.7667"/>
<text text-anchor="middle" x="1308.5" y="-101.3" font-family="Times,serif" font-size="14.00">0.184</text>
</g>
<!-- ENJ&#45;&gt;Qu -->
<g id="edge43" class="edge"><title>ENJ&#45;&gt;Qu</title>
<path fill="none" stroke="black" d="M1335.79,-185.241C1312.6,-179.452 1277.56,-169.461 1249,-156 1237.96,-150.797 1237.54,-144.966 1226,-141 1156.6,-117.148 936.315,-109.116 848.076,-106.812"/>
<polygon fill="black" stroke="black" points="848.073,-103.311 837.989,-106.559 847.898,-110.309 848.073,-103.311"/>
<text text-anchor="middle" x="1264.5" y="-144.8" font-family="Times,serif" font-size="14.00">0.099</text>
</g>
<!-- ENJ&#45;&gt;PEU -->
<g id="edge8" class="edge"><title>ENJ&#45;&gt;PEU</title>
<path fill="none" stroke="black" d="M1334.32,-195.018C1259.35,-200.792 1050.3,-217.628 1021,-228 1009.5,-232.073 1009.46,-238.797 998,-243 916.009,-273.075 812.294,-278.181 757.648,-278.547"/>
<polygon fill="black" stroke="black" points="757.389,-275.048 747.395,-278.564 757.4,-282.048 757.389,-275.048"/>
<text text-anchor="middle" x="1036.5" y="-231.8" font-family="Times,serif" font-size="14.00">0.292</text>
</g>
<!-- ENJ&#45;&gt;Im -->
<g id="edge36" class="edge"><title>ENJ&#45;&gt;Im</title>
<path fill="none" stroke="black" d="M1334.61,-196.614C1278.03,-204.943 1147.97,-227.39 1121,-261 1118.63,-263.952 1116.79,-307.532 1115.81,-337.332"/>
<polygon fill="black" stroke="black" points="1112.3,-337.48 1115.48,-347.586 1119.3,-337.702 1112.3,-337.48"/>
<text text-anchor="middle" x="1136.5" y="-275.3" font-family="Times,serif" font-size="14.00">0.117</text>
</g>
<!-- ENJ&#45;&gt;SA -->
<g id="edge81" class="edge"><title>ENJ&#45;&gt;SA</title>
<path fill="none" stroke="black" d="M1366.5,-209.635C1374.28,-235.604 1386.57,-287.236 1377,-330 1367.66,-371.713 1358.93,-380.924 1336,-417 1333.34,-421.192 1330.23,-425.438 1327.06,-429.458"/>
<polygon fill="black" stroke="black" points="1324.25,-427.364 1320.58,-437.304 1329.65,-431.821 1324.25,-427.364"/>
<text text-anchor="middle" x="1394.5" y="-318.8" font-family="Times,serif" font-size="14.00">0.022</text>
</g>
<!-- ENJ&#45;&gt;Pf -->
<g id="edge78" class="edge"><title>ENJ&#45;&gt;Pf</title>
<path fill="none" stroke="black" d="M1373.84,-207.941C1378.48,-213.889 1383.44,-220.981 1387,-228 1405.33,-264.097 1407.93,-274.971 1414,-315 1425.42,-390.316 1397.84,-418.133 1343,-471 1280.67,-531.084 1237.15,-494.673 1155,-522 1153.96,-522.347 1152.9,-522.727 1151.85,-523.132"/>
<polygon fill="black" stroke="black" points="1150.21,-520.034 1142.51,-527.319 1153.07,-526.422 1150.21,-520.034"/>
<text text-anchor="middle" x="1431.5" y="-362.3" font-family="Times,serif" font-size="14.00">0.025</text>
</g>
<!-- ENJ&#45;&gt;JR -->
<g id="edge62" class="edge"><title>ENJ&#45;&gt;JR</title>
<path fill="none" stroke="black" d="M1379.7,-205.442C1387.88,-211.543 1397.16,-219.422 1404,-228 1439.72,-272.777 1447.55,-290.826 1451,-348 1458.16,-466.518 1439.83,-526.72 1340,-591 1340,-591 964.866,-615.634 844.026,-623.569"/>
<polygon fill="black" stroke="black" points="843.546,-620.093 833.797,-624.24 844.005,-627.077 843.546,-620.093"/>
<text text-anchor="middle" x="1467.5" y="-405.8" font-family="Times,serif" font-size="14.00">0.057</text>
</g>
<!-- PEU&#45;&gt;Use -->
<g id="edge25" class="edge"><title>PEU&#45;&gt;Use</title>
<path fill="none" stroke="black" d="M693.615,-283.618C648.909,-289.96 560.274,-303.501 531,-315 438.609,-351.293 389.979,-407.21 412,-504 427.655,-572.809 431.985,-598.426 485,-645 591.263,-738.353 760.881,-779.591 834.702,-793.814"/>
<polygon fill="black" stroke="black" points="834.406,-797.319 844.879,-795.719 835.694,-790.439 834.406,-797.319"/>
<text text-anchor="middle" x="441.5" y="-536.3" font-family="Times,serif" font-size="14.00">0.185</text>
</g>
<!-- PEU&#45;&gt;BI -->
<g id="edge84" class="edge"><title>PEU&#45;&gt;BI</title>
<path fill="none" stroke="black" d="M693.272,-282.684C660.06,-286.691 602.137,-295.912 556,-315 549.763,-317.58 509.012,-342.572 505,-348 463.839,-403.694 455.143,-444.458 465,-504 473.625,-556.099 487.561,-650.942 537,-678 595.975,-710.277 774.277,-677.813 839,-696 840.226,-696.345 841.459,-696.741 842.689,-697.179"/>
<polygon fill="black" stroke="black" points="841.36,-700.418 851.928,-701.177 844.14,-693.993 841.36,-700.418"/>
<text text-anchor="middle" x="480.5" y="-492.8" font-family="Times,serif" font-size="14.00">0.018</text>
</g>
<!-- PEU&#45;&gt;PU -->
<g id="edge61" class="edge"><title>PEU&#45;&gt;PU</title>
<path fill="none" stroke="black" d="M695.24,-270.97C643.139,-254.686 529.03,-210.393 555,-141 580.928,-71.7183 670.77,-39.4762 721.468,-26.49"/>
<polygon fill="black" stroke="black" points="722.472,-29.8478 731.356,-24.0744 720.811,-23.0478 722.472,-29.8478"/>
<text text-anchor="middle" x="570.5" y="-144.8" font-family="Times,serif" font-size="14.00">0.061</text>
</g>
<!-- PEU&#45;&gt;Qu -->
<g id="edge55" class="edge"><title>PEU&#45;&gt;Qu</title>
<path fill="none" stroke="black" d="M713.812,-261.412C706.881,-239.918 698.401,-201.899 713,-174 726.694,-147.831 755.548,-129.714 778.419,-118.8"/>
<polygon fill="black" stroke="black" points="780.123,-121.871 787.793,-114.561 777.239,-115.492 780.123,-121.871"/>
<text text-anchor="middle" x="728.5" y="-188.3" font-family="Times,serif" font-size="14.00">0.064</text>
</g>
<!-- PEU&#45;&gt;ENJ -->
<g id="edge46" class="edge"><title>PEU&#45;&gt;ENJ</title>
<path fill="none" stroke="black" d="M747.439,-278.128C790.946,-277.381 877.626,-271.978 944,-243 953.86,-238.695 953.001,-231.971 963,-228 971.35,-224.684 1226.99,-203.802 1324.08,-195.966"/>
<polygon fill="black" stroke="black" points="1324.62,-199.433 1334.31,-195.141 1324.06,-192.456 1324.62,-199.433"/>
<text text-anchor="middle" x="978.5" y="-231.8" font-family="Times,serif" font-size="14.00">0.082</text>
</g>
<!-- PEU&#45;&gt;Im -->
<g id="edge41" class="edge"><title>PEU&#45;&gt;Im</title>
<path fill="none" stroke="black" d="M745.425,-285.906C768.414,-291.735 802.869,-301.699 831,-315 842.033,-320.217 842.559,-325.751 854,-330 854.164,-330.061 1006.86,-350.517 1078.59,-360.124"/>
<polygon fill="black" stroke="black" points="1078.18,-363.6 1088.56,-361.459 1079.11,-356.662 1078.18,-363.6"/>
<text text-anchor="middle" x="869.5" y="-318.8" font-family="Times,serif" font-size="14.00">0.101</text>
</g>
<!-- PEU&#45;&gt;Pf -->
<g id="edge66" class="edge"><title>PEU&#45;&gt;Pf</title>
<path fill="none" stroke="black" d="M740.09,-291.449C752.001,-298.257 767.384,-307.082 781,-315 805.973,-329.522 812.528,-332.648 837,-348 873.652,-370.992 883.05,-376.495 918,-402 976.76,-444.88 983.975,-465.995 1046,-504 1060.04,-512.602 1076.55,-520.383 1090.68,-526.412"/>
<polygon fill="black" stroke="black" points="1089.44,-529.688 1100.02,-530.295 1092.13,-523.224 1089.44,-529.688"/>
<text text-anchor="middle" x="952.5" y="-405.8" font-family="Times,serif" font-size="14.00">0.047</text>
</g>
<!-- PEU&#45;&gt;JR -->
<g id="edge72" class="edge"><title>PEU&#45;&gt;JR</title>
<path fill="none" stroke="black" d="M724.192,-296.865C735.82,-343.608 769.499,-478.779 798,-591 798.672,-593.645 799.375,-596.402 800.08,-599.156"/>
<polygon fill="black" stroke="black" points="796.709,-600.1 802.585,-608.915 803.489,-598.359 796.709,-600.1"/>
<text text-anchor="middle" x="782.5" y="-449.3" font-family="Times,serif" font-size="14.00">0.034</text>
</g>
<!-- Im&#45;&gt;Use -->
<g id="edge9" class="edge"><title>Im&#45;&gt;Use</title>
<path fill="none" stroke="black" d="M1142.03,-368.557C1254,-375.022 1675.67,-399.525 1678,-402 1725.56,-452.608 1686.32,-490.746 1669,-558 1642.91,-659.298 1646.52,-710.884 1557,-765 1501.42,-798.601 1043.66,-800.36 908.46,-800.138"/>
<polygon fill="black" stroke="black" points="908.207,-796.638 898.2,-800.117 908.192,-803.638 908.207,-796.638"/>
<text text-anchor="middle" x="1679.5" y="-579.8" font-family="Times,serif" font-size="14.00">0.291</text>
</g>
<!-- Im&#45;&gt;BI -->
<g id="edge34" class="edge"><title>Im&#45;&gt;BI</title>
<path fill="none" stroke="black" d="M1109.51,-383.678C1096.16,-422.611 1059.26,-521.454 1007,-591 975.262,-633.235 927.253,-672.156 897.581,-694.196"/>
<polygon fill="black" stroke="black" points="895.361,-691.483 889.363,-700.217 899.498,-697.13 895.361,-691.483"/>
<text text-anchor="middle" x="1064.5" y="-536.3" font-family="Times,serif" font-size="14.00">0.121</text>
</g>
<!-- Im&#45;&gt;PU -->
<g id="edge38" class="edge"><title>Im&#45;&gt;PU</title>
<path fill="none" stroke="black" d="M1114.69,-347.971C1113.55,-321.023 1108.62,-267.553 1088,-228 1026.16,-109.387 863.757,-49.6209 791.974,-28.327"/>
<polygon fill="black" stroke="black" points="792.642,-24.8769 782.064,-25.462 790.698,-31.6015 792.642,-24.8769"/>
<text text-anchor="middle" x="1092.5" y="-188.3" font-family="Times,serif" font-size="14.00">0.114</text>
</g>
<!-- Im&#45;&gt;Qu -->
<g id="edge39" class="edge"><title>Im&#45;&gt;Qu</title>
<path fill="none" stroke="black" d="M1100.99,-350.419C1091.26,-340.37 1077.96,-326.759 1066,-315 1057.71,-306.845 1051.6,-307.686 1047,-297 1040.68,-282.302 1044.84,-276.853 1047,-261 1048.12,-252.773 1050.88,-251.227 1052,-243 1052.9,-236.394 1055.17,-233.864 1052,-228 1010.84,-151.887 903.812,-122.114 847.251,-111.421"/>
<polygon fill="black" stroke="black" points="847.765,-107.958 837.304,-109.64 846.531,-114.848 847.765,-107.958"/>
<text text-anchor="middle" x="1068.5" y="-231.8" font-family="Times,serif" font-size="14.00">0.107</text>
</g>
<!-- Im&#45;&gt;ENJ -->
<g id="edge82" class="edge"><title>Im&#45;&gt;ENJ</title>
<path fill="none" stroke="black" d="M1139.82,-358.605C1173.18,-349.143 1233.25,-329.003 1276,-297 1305.33,-275.04 1330.68,-240.854 1345.89,-217.725"/>
<polygon fill="black" stroke="black" points="1348.93,-219.459 1351.39,-209.153 1343.04,-215.677 1348.93,-219.459"/>
<text text-anchor="middle" x="1324.5" y="-275.3" font-family="Times,serif" font-size="14.00">0.02</text>
</g>
<!-- Im&#45;&gt;PEU -->
<g id="edge15" class="edge"><title>Im&#45;&gt;PEU</title>
<path fill="none" stroke="black" d="M1088.51,-362.135C1056.21,-357.98 1000.44,-348.646 956,-330 944.746,-325.278 944.376,-319.418 933,-315 874.263,-292.192 800.801,-284.246 757.292,-281.479"/>
<polygon fill="black" stroke="black" points="757.351,-277.976 747.166,-280.894 756.948,-284.965 757.351,-277.976"/>
<text text-anchor="middle" x="971.5" y="-318.8" font-family="Times,serif" font-size="14.00">0.215</text>
</g>
<!-- Im&#45;&gt;SA -->
<g id="edge56" class="edge"><title>Im&#45;&gt;SA</title>
<path fill="none" stroke="black" d="M1139.66,-373.927C1160.11,-380.086 1189.65,-389.969 1214,-402 1224.94,-407.406 1226.41,-410.928 1237,-417 1249.68,-424.273 1264.06,-431.614 1276.48,-437.681"/>
<polygon fill="black" stroke="black" points="1275,-440.855 1285.53,-442.051 1278.05,-434.551 1275,-440.855"/>
<text text-anchor="middle" x="1252.5" y="-405.8" font-family="Times,serif" font-size="14.00">0.063</text>
</g>
<!-- Im&#45;&gt;Pf -->
<g id="edge74" class="edge"><title>Im&#45;&gt;Pf</title>
<path fill="none" stroke="black" d="M1115.79,-384.052C1117.18,-413.88 1120.06,-475.764 1121.73,-511.643"/>
<polygon fill="black" stroke="black" points="1118.24,-512.053 1122.2,-521.879 1125.24,-511.727 1118.24,-512.053"/>
<text text-anchor="middle" x="1134.5" y="-449.3" font-family="Times,serif" font-size="14.00">0.033</text>
</g>
<!-- Im&#45;&gt;JR -->
<g id="edge52" class="edge"><title>Im&#45;&gt;JR</title>
<path fill="none" stroke="black" d="M1089.72,-372.571C1073.08,-376.124 1050.81,-380.669 1031,-384 1001.37,-388.983 920.714,-383.552 897,-402 864.515,-427.271 828.9,-545.615 814.08,-599.344"/>
<polygon fill="black" stroke="black" points="810.651,-598.613 811.4,-609.181 817.405,-600.453 810.651,-598.613"/>
<text text-anchor="middle" x="863.5" y="-492.8" font-family="Times,serif" font-size="14.00">0.069</text>
</g>
<!-- SA&#45;&gt;Use -->
<g id="edge27" class="edge"><title>SA&#45;&gt;Use</title>
<path fill="none" stroke="black" d="M1328.82,-463.636C1413.05,-502.023 1706.81,-647.659 1595,-765 1571.13,-790.054 1053.62,-797.895 908.52,-799.604"/>
<polygon fill="black" stroke="black" points="908.299,-796.107 898.34,-799.722 908.379,-803.106 908.299,-796.107"/>
<text text-anchor="middle" x="1608.5" y="-623.3" font-family="Times,serif" font-size="14.00">0.177</text>
</g>
<!-- SA&#45;&gt;BI -->
<g id="edge70" class="edge"><title>SA&#45;&gt;BI</title>
<path fill="none" stroke="black" d="M1313.81,-470.647C1321.49,-492.204 1331.05,-530.291 1316,-558 1269.21,-644.116 1222.91,-643.97 1131,-678 1055.28,-706.038 959.741,-712.028 908.15,-713.06"/>
<polygon fill="black" stroke="black" points="908.08,-709.561 898.133,-713.209 908.184,-716.56 908.08,-709.561"/>
<text text-anchor="middle" x="1320.5" y="-579.8" font-family="Times,serif" font-size="14.00">0.044</text>
</g>
<!-- SA&#45;&gt;PU -->
<g id="edge53" class="edge"><title>SA&#45;&gt;PU</title>
<path fill="none" stroke="black" d="M1334.13,-451.587C1375.88,-450.08 1457.67,-443.633 1521,-417 1555.58,-402.459 1589,-404.513 1589,-367 1589,-367 1589,-367 1589,-104 1589,-23.0083 956.977,-18.6276 794.642,-18.8382"/>
<polygon fill="black" stroke="black" points="794.202,-15.339 784.209,-18.8592 794.216,-22.339 794.202,-15.339"/>
<text text-anchor="middle" x="1604.5" y="-231.8" font-family="Times,serif" font-size="14.00">0.067</text>
</g>
<!-- SA&#45;&gt;Qu -->
<g id="edge76" class="edge"><title>SA&#45;&gt;Qu</title>
<path fill="none" stroke="black" d="M1295.12,-436.626C1287.43,-426.707 1277.18,-413.549 1268,-402 1230.65,-354.993 1217,-346.486 1183,-297 1147.25,-244.976 1162.56,-211.788 1112,-174 1032.25,-114.396 909.663,-105.495 848.461,-105.092"/>
<polygon fill="black" stroke="black" points="848.12,-101.593 838.123,-105.103 848.127,-108.593 848.12,-101.593"/>
<text text-anchor="middle" x="1198.5" y="-275.3" font-family="Times,serif" font-size="14.00">0.033</text>
</g>
<!-- SA&#45;&gt;ENJ -->
<g id="edge77" class="edge"><title>SA&#45;&gt;ENJ</title>
<path fill="none" stroke="black" d="M1314.4,-435.507C1316.77,-429.741 1319.24,-423.166 1321,-417 1340.89,-347.471 1352.79,-262.837 1357.95,-220.255"/>
<polygon fill="black" stroke="black" points="1361.45,-220.47 1359.15,-210.129 1354.5,-219.649 1361.45,-220.47"/>
<text text-anchor="middle" x="1358.5" y="-318.8" font-family="Times,serif" font-size="14.00">0.026</text>
</g>
<!-- SA&#45;&gt;PEU -->
<g id="edge13" class="edge"><title>SA&#45;&gt;PEU</title>
<path fill="none" stroke="black" d="M1281.16,-447.696C1208.75,-435.134 998.347,-395.232 834,-330 820.878,-324.792 818.778,-321.003 806,-315 788.722,-306.884 769.027,-298.787 752.847,-292.428"/>
<polygon fill="black" stroke="black" points="753.869,-289.071 743.281,-288.709 751.333,-295.595 753.869,-289.071"/>
<text text-anchor="middle" x="1011.5" y="-362.3" font-family="Times,serif" font-size="14.00">0.225</text>
</g>
<!-- SA&#45;&gt;Im -->
<g id="edge35" class="edge"><title>SA&#45;&gt;Im</title>
<path fill="none" stroke="black" d="M1282.25,-445.524C1248.72,-436.67 1191.97,-421.383 1183,-417 1174.06,-412.63 1155.46,-398.819 1139.97,-386.817"/>
<polygon fill="black" stroke="black" points="1141.8,-383.805 1131.76,-380.407 1137.49,-389.321 1141.8,-383.805"/>
<text text-anchor="middle" x="1198.5" y="-405.8" font-family="Times,serif" font-size="14.00">0.119</text>
</g>
<!-- SA&#45;&gt;Pf -->
<g id="edge48" class="edge"><title>SA&#45;&gt;Pf</title>
<path fill="none" stroke="black" d="M1285.21,-463.91C1270.98,-470.584 1252.12,-479.815 1236,-489 1225.4,-495.042 1223.86,-498.425 1213,-504 1194.92,-513.283 1173.79,-521.621 1156.54,-527.829"/>
<polygon fill="black" stroke="black" points="1155.16,-524.605 1146.89,-531.229 1157.49,-531.208 1155.16,-524.605"/>
<text text-anchor="middle" x="1251.5" y="-492.8" font-family="Times,serif" font-size="14.00">0.078</text>
</g>
<!-- SA&#45;&gt;JR -->
<g id="edge57" class="edge"><title>SA&#45;&gt;JR</title>
<path fill="none" stroke="black" d="M1303.82,-470.92C1301.48,-480.955 1297.7,-493.688 1292,-504 1267.17,-548.94 1261.8,-567.79 1216,-591 1199.52,-599.354 941.191,-617.151 843.785,-623.602"/>
<polygon fill="black" stroke="black" points="843.545,-620.11 833.798,-624.261 844.006,-627.094 843.545,-620.11"/>
<text text-anchor="middle" x="1296.5" y="-536.3" font-family="Times,serif" font-size="14.00">0.062</text>
</g>
<!-- Pf&#45;&gt;Use -->
<g id="edge21" class="edge"><title>Pf&#45;&gt;Use</title>
<path fill="none" stroke="black" d="M1142.09,-552.767C1146.22,-554.842 1150.65,-556.739 1155,-558 1205.52,-572.648 1349.53,-543.645 1391,-576 1457.26,-627.699 1461.27,-710.846 1397,-765 1359.84,-796.315 1022.26,-799.76 908.344,-800.025"/>
<polygon fill="black" stroke="black" points="908.03,-796.526 898.035,-800.042 908.041,-803.526 908.03,-796.526"/>
<text text-anchor="middle" x="1452" y="-666.8" font-family="Times,serif" font-size="14.00">0.2</text>
</g>
<!-- Pf&#45;&gt;BI -->
<g id="edge50" class="edge"><title>Pf&#45;&gt;BI</title>
<path fill="none" stroke="black" d="M1117.1,-557.995C1105.97,-587.42 1078.94,-647.61 1035,-678 997.35,-704.037 944.082,-711.294 908.584,-713.018"/>
<polygon fill="black" stroke="black" points="908.044,-709.535 898.175,-713.39 908.294,-716.53 908.044,-709.535"/>
<text text-anchor="middle" x="1107.5" y="-623.3" font-family="Times,serif" font-size="14.00">0.074</text>
</g>
<!-- Pf&#45;&gt;PU -->
<g id="edge80" class="edge"><title>Pf&#45;&gt;PU</title>
<path fill="none" stroke="black" d="M1101.9,-528.667C1096.2,-526.19 1089.95,-523.756 1084,-522 1082.64,-521.6 884.398,-489.212 883,-489 825.767,-480.31 806.629,-495.111 754,-471 731.954,-460.9 734.58,-446.062 713,-435 681.339,-418.771 662.819,-439.179 635,-417 539.392,-340.775 550.263,-278.254 548,-156 547.422,-124.799 542.634,-112.229 561,-87 597.578,-36.7524 673.898,-23.3483 719.764,-19.9486"/>
<polygon fill="black" stroke="black" points="720.129,-23.4328 729.894,-19.3236 719.698,-16.4461 720.129,-23.4328"/>
<text text-anchor="middle" x="571.5" y="-275.3" font-family="Times,serif" font-size="14.00">0.022</text>
</g>
<!-- Pf&#45;&gt;Qu -->
<g id="edge83" class="edge"><title>Pf&#45;&gt;Qu</title>
<path fill="none" stroke="black" d="M1109.97,-523.69C1085.54,-495.856 1030.06,-436.647 972,-402 951.359,-389.682 938.308,-400.68 921,-384 900.097,-363.855 835.724,-167.977 825,-141 823.852,-138.113 822.649,-135.094 821.45,-132.09"/>
<polygon fill="black" stroke="black" points="824.67,-130.715 817.708,-122.729 818.17,-133.314 824.67,-130.715"/>
<text text-anchor="middle" x="905.5" y="-318.8" font-family="Times,serif" font-size="14.00">0.02</text>
</g>
<!-- Pf&#45;&gt;PEU -->
<g id="edge24" class="edge"><title>Pf&#45;&gt;PEU</title>
<path fill="none" stroke="black" d="M1096.97,-534.603C1071.31,-529.589 1031.49,-519.95 1000,-504 971.299,-489.463 806.376,-352.344 743.943,-300.091"/>
<polygon fill="black" stroke="black" points="746.089,-297.323 736.175,-293.585 741.594,-302.689 746.089,-297.323"/>
<text text-anchor="middle" x="898.5" y="-405.8" font-family="Times,serif" font-size="14.00">0.187</text>
</g>
<!-- Pf&#45;&gt;Im -->
<g id="edge45" class="edge"><title>Pf&#45;&gt;Im</title>
<path fill="none" stroke="black" d="M1134.58,-523.381C1142.15,-513.366 1152.39,-500.191 1162,-489 1169.17,-480.652 1174.93,-481.225 1179,-471 1184.91,-456.132 1184.9,-449.873 1179,-435 1178.41,-433.52 1154.43,-408.235 1136,-388.928"/>
<polygon fill="black" stroke="black" points="1138.46,-386.436 1129.02,-381.624 1133.4,-391.272 1138.46,-386.436"/>
<text text-anchor="middle" x="1195.5" y="-449.3" font-family="Times,serif" font-size="14.00">0.09</text>
</g>
<!-- Pf&#45;&gt;SA -->
<g id="edge79" class="edge"><title>Pf&#45;&gt;SA</title>
<path fill="none" stroke="black" d="M1137.95,-524.743C1152.61,-510.867 1173.42,-491.512 1178,-489 1182.24,-486.674 1235.73,-472.518 1272.49,-462.937"/>
<polygon fill="black" stroke="black" points="1273.56,-466.275 1282.35,-460.369 1271.79,-459.5 1273.56,-466.275"/>
<text text-anchor="middle" x="1193.5" y="-492.8" font-family="Times,serif" font-size="14.00">0.025</text>
</g>
<!-- Pf&#45;&gt;JR -->
<g id="edge51" class="edge"><title>Pf&#45;&gt;JR</title>
<path fill="none" stroke="black" d="M1097.32,-546.05C1079.56,-549.507 1055.36,-554.146 1034,-558 986.973,-566.483 973.924,-562.793 928,-576 896.321,-585.11 861.704,-599.944 837.644,-611.093"/>
<polygon fill="black" stroke="black" points="835.897,-608.047 828.335,-615.467 838.874,-614.382 835.897,-608.047"/>
<text text-anchor="middle" x="940.5" y="-579.8" font-family="Times,serif" font-size="14.00">0.07</text>
</g>
<!-- JR&#45;&gt;Use -->
<g id="edge33" class="edge"><title>JR&#45;&gt;Use</title>
<path fill="none" stroke="black" d="M801.15,-644.885C799.458,-650.568 797.841,-656.992 797,-663 792.725,-693.526 790.828,-704.132 804,-732 813.262,-751.596 830.547,-768.917 845.24,-781.173"/>
<polygon fill="black" stroke="black" points="843.075,-783.924 853.068,-787.443 847.451,-778.46 843.075,-783.924"/>
<text text-anchor="middle" x="819.5" y="-710.3" font-family="Times,serif" font-size="14.00">0.152</text>
</g>
<!-- JR&#45;&gt;BI -->
<g id="edge86" class="edge"><title>JR&#45;&gt;BI</title>
<path fill="none" stroke="black" d="M802.387,-644.903C800.573,-655.175 800.123,-668.161 806,-678 812.845,-689.461 824.88,-697.389 836.749,-702.763"/>
<polygon fill="black" stroke="black" points="835.546,-706.051 846.129,-706.543 838.162,-699.559 835.546,-706.051"/>
<text text-anchor="middle" x="818.5" y="-666.8" font-family="Times,serif" font-size="14.00">0.01</text>
</g>
<!-- JR&#45;&gt;Qu -->
<g id="edge85" class="edge"><title>JR&#45;&gt;Qu</title>
<path fill="none" stroke="black" d="M782.799,-618.84C753.747,-609.18 705.066,-589.463 674,-558 573.01,-455.719 485.156,-391.224 546,-261 588.762,-169.477 713.464,-128.513 775.334,-113.411"/>
<polygon fill="black" stroke="black" points="776.478,-116.738 785.413,-111.045 774.878,-109.923 776.478,-116.738"/>
<text text-anchor="middle" x="548.5" y="-362.3" font-family="Times,serif" font-size="14.00">0.017</text>
</g>
<!-- JR&#45;&gt;PEU -->
<g id="edge22" class="edge"><title>JR&#45;&gt;PEU</title>
<path fill="none" stroke="black" d="M786.422,-615.042C776.902,-609.057 766.145,-600.851 759,-591 726.075,-545.604 730.924,-526.005 720,-471 707.756,-409.347 711.446,-392.809 709,-330 708.741,-323.338 707.989,-321.59 709,-315 709.42,-312.261 710.015,-309.443 710.714,-306.651"/>
<polygon fill="black" stroke="black" points="714.134,-307.423 713.567,-296.843 707.413,-305.467 714.134,-307.423"/>
<text text-anchor="middle" x="735.5" y="-449.3" font-family="Times,serif" font-size="14.00">0.193</text>
</g>
<!-- JR&#45;&gt;Im -->
<g id="edge44" class="edge"><title>JR&#45;&gt;Im</title>
<path fill="none" stroke="black" d="M804.644,-609.018C801.628,-582.585 798.294,-530.342 812,-489 826.78,-444.416 831.71,-426.145 872,-402 902.501,-383.721 995.874,-389.532 1031,-384 1047.12,-381.461 1064.85,-377.977 1079.85,-374.824"/>
<polygon fill="black" stroke="black" points="1080.69,-378.222 1089.74,-372.709 1079.23,-371.377 1080.69,-378.222"/>
<text text-anchor="middle" x="827.5" y="-492.8" font-family="Times,serif" font-size="14.00">0.097</text>
</g>
<!-- JR&#45;&gt;SA -->
<g id="edge64" class="edge"><title>JR&#45;&gt;SA</title>
<path fill="none" stroke="black" d="M834.045,-624.321C894.408,-619.823 1043.87,-604.502 1159,-558 1189.98,-545.487 1194.94,-536.597 1225,-522 1243.27,-513.128 1250.84,-516.298 1267,-504 1276.25,-496.96 1284.62,-487.328 1291.28,-478.396"/>
<polygon fill="black" stroke="black" points="1294.2,-480.338 1297.12,-470.155 1288.48,-476.292 1294.2,-480.338"/>
<text text-anchor="middle" x="1240.5" y="-536.3" font-family="Times,serif" font-size="14.00">0.052</text>
</g>
<!-- JR&#45;&gt;Pf -->
<g id="edge71" class="edge"><title>JR&#45;&gt;Pf</title>
<path fill="none" stroke="black" d="M832.157,-620.378C861.33,-613.764 910.815,-602.252 953,-591 1000.41,-578.354 1054.74,-562.057 1088.95,-551.567"/>
<polygon fill="black" stroke="black" points="1090.37,-554.794 1098.9,-548.508 1088.31,-548.103 1090.37,-554.794"/>
<text text-anchor="middle" x="1019.5" y="-579.8" font-family="Times,serif" font-size="14.00">0.039</text>
</g>
</g>
</svg>
