<?xml version="1.0" encoding="UTF-8" standalone="no"?>
<!DOCTYPE svg PUBLIC "-//W3C//DTD SVG 1.1//EN"
 "http://www.w3.org/Graphics/SVG/1.1/DTD/svg11.dtd">
<!-- Generated by graphviz version 2.38.0 (20140413.2041)
 -->
<!-- Title: G Pages: 1 -->
<svg width="2126pt" height="827pt"
 viewBox="0.00 0.00 2126.00 827.00" xmlns="http://www.w3.org/2000/svg" xmlns:xlink="http://www.w3.org/1999/xlink">
<g id="graph0" class="graph" transform="scale(1 1) rotate(0) translate(4 823)">
<title>G</title>
<polygon fill="white" stroke="none" points="-4,4 -4,-823 2122,-823 2122,4 -4,4"/>
<!-- Use -->
<g id="node1" class="node"><title>Use</title>
<ellipse fill="none" stroke="black" cx="1480" cy="-801" rx="28.6953" ry="18"/>
<text text-anchor="middle" x="1480" y="-797.3" font-family="Times,serif" font-size="14.00">Use</text>
</g>
<!-- BI -->
<g id="node2" class="node"><title>BI</title>
<ellipse fill="none" stroke="black" cx="1026" cy="-714" rx="27" ry="18"/>
<text text-anchor="middle" x="1026" y="-710.3" font-family="Times,serif" font-size="14.00">BI</text>
</g>
<!-- Use&#45;&gt;BI -->
<g id="edge1" class="edge"><title>Use&#45;&gt;BI</title>
<path fill="none" stroke="black" d="M1451.34,-799.587C1372.54,-798.116 1154.05,-791.676 1088,-765 1072.73,-758.833 1058.25,-747.583 1047.13,-737.313"/>
<polygon fill="black" stroke="black" points="1049.28,-734.529 1039.66,-730.096 1044.42,-739.562 1049.28,-734.529"/>
<text text-anchor="middle" x="1108.5" y="-753.8" font-family="Times,serif" font-size="14.00">0.568</text>
</g>
<!-- PU -->
<g id="node3" class="node"><title>PU</title>
<ellipse fill="none" stroke="black" cx="818" cy="-18" rx="27" ry="18"/>
<text text-anchor="middle" x="818" y="-14.3" font-family="Times,serif" font-size="14.00">PU</text>
</g>
<!-- Use&#45;&gt;PU -->
<g id="edge5" class="edge"><title>Use&#45;&gt;PU</title>
<path fill="none" stroke="black" d="M1508.79,-799.499C1595.56,-797.72 1853.43,-790.379 1933,-765 1972.95,-752.259 2013,-756.929 2013,-715 2013,-715 2013,-715 2013,-104 2013,-29.4975 1926.45,-66.4829 1853,-54 1655.48,-20.4301 1017.38,-18.7842 855.573,-18.9202"/>
<polygon fill="black" stroke="black" points="855.18,-15.4206 845.185,-18.9321 855.189,-22.4206 855.18,-15.4206"/>
<text text-anchor="middle" x="2033.5" y="-405.8" font-family="Times,serif" font-size="14.00">0.365</text>
</g>
<!-- Qu -->
<g id="node4" class="node"><title>Qu</title>
<ellipse fill="none" stroke="black" cx="754" cy="-105" rx="27" ry="18"/>
<text text-anchor="middle" x="754" y="-101.3" font-family="Times,serif" font-size="14.00">Qu</text>
</g>
<!-- Use&#45;&gt;Qu -->
<g id="edge20" class="edge"><title>Use&#45;&gt;Qu</title>
<path fill="none" stroke="black" d="M1451.36,-800.085C1285.84,-800.444 450.269,-800.447 196,-765 106.96,-752.587 0,-804.901 0,-715 0,-715 0,-715 0,-408.5 0,-181.158 217.557,-203.984 436,-141 534.676,-112.549 656.7,-106.938 716.87,-106.016"/>
<polygon fill="black" stroke="black" points="717.063,-109.514 727.021,-105.896 716.981,-102.514 717.063,-109.514"/>
<text text-anchor="middle" x="20.5" y="-449.3" font-family="Times,serif" font-size="14.00">0.214</text>
</g>
<!-- Im -->
<g id="node5" class="node"><title>Im</title>
<ellipse fill="none" stroke="black" cx="1125" cy="-192" rx="27" ry="18"/>
<text text-anchor="middle" x="1125" y="-188.3" font-family="Times,serif" font-size="14.00">Im</text>
</g>
<!-- Use&#45;&gt;Im -->
<g id="edge12" class="edge"><title>Use&#45;&gt;Im</title>
<path fill="none" stroke="black" d="M1451.24,-799.581C1309.25,-797.422 681.942,-786.797 488,-765 370.196,-751.76 226,-833.546 226,-715 226,-715 226,-715 226,-539 226,-481.584 350.907,-377.774 400,-348 578.452,-239.771 649.185,-268.118 854,-228 936.971,-211.748 1035.76,-201.162 1088.13,-196.229"/>
<polygon fill="black" stroke="black" points="1088.64,-199.697 1098.27,-195.29 1087.99,-192.727 1088.64,-199.697"/>
<text text-anchor="middle" x="266.5" y="-492.8" font-family="Times,serif" font-size="14.00">0.248</text>
</g>
<!-- ENJ -->
<g id="node6" class="node"><title>ENJ</title>
<ellipse fill="none" stroke="black" cx="1445" cy="-279" rx="29.795" ry="18"/>
<text text-anchor="middle" x="1445" y="-275.3" font-family="Times,serif" font-size="14.00">ENJ</text>
</g>
<!-- Use&#45;&gt;ENJ -->
<g id="edge52" class="edge"><title>Use&#45;&gt;ENJ</title>
<path fill="none" stroke="black" d="M1508.62,-800.776C1559.04,-801.179 1666.2,-797.672 1749,-765 1833.22,-731.768 1833.86,-666.102 1825,-576 1817.15,-496.163 1834.26,-458.19 1777,-402 1716.99,-343.105 1689.89,-337.96 1609,-315 1553.31,-299.193 1535.38,-313.853 1480,-297 1478.59,-296.57 1477.16,-296.089 1475.73,-295.569"/>
<polygon fill="black" stroke="black" points="1476.99,-292.305 1466.42,-291.702 1474.31,-298.769 1476.99,-292.305"/>
<text text-anchor="middle" x="1844.5" y="-536.3" font-family="Times,serif" font-size="14.00">0.086</text>
</g>
<!-- PEU -->
<g id="node7" class="node"><title>PEU</title>
<ellipse fill="none" stroke="black" cx="1644" cy="-366" rx="31.3957" ry="18"/>
<text text-anchor="middle" x="1644" y="-362.3" font-family="Times,serif" font-size="14.00">PEU</text>
</g>
<!-- Use&#45;&gt;PEU -->
<g id="edge19" class="edge"><title>Use&#45;&gt;PEU</title>
<path fill="none" stroke="black" d="M1500.73,-788.172C1551.39,-757.852 1680.5,-671.674 1724,-558 1749.07,-492.483 1740.22,-459.473 1700,-402 1694.29,-393.843 1686.01,-387.193 1677.56,-381.966"/>
<polygon fill="black" stroke="black" points="1679.23,-378.887 1668.8,-377.03 1675.79,-384.986 1679.23,-378.887"/>
<text text-anchor="middle" x="1737.5" y="-579.8" font-family="Times,serif" font-size="14.00">0.216</text>
</g>
<!-- SA -->
<g id="node8" class="node"><title>SA</title>
<ellipse fill="none" stroke="black" cx="1113" cy="-453" rx="27" ry="18"/>
<text text-anchor="middle" x="1113" y="-449.3" font-family="Times,serif" font-size="14.00">SA</text>
</g>
<!-- Use&#45;&gt;SA -->
<g id="edge78" class="edge"><title>Use&#45;&gt;SA</title>
<path fill="none" stroke="black" d="M1479.86,-782.931C1478.7,-746.879 1471.33,-661.946 1429,-609 1355.84,-517.483 1215,-476.104 1148.91,-461.097"/>
<polygon fill="black" stroke="black" points="1149.48,-457.639 1138.96,-458.911 1147.98,-464.476 1149.48,-457.639"/>
<text text-anchor="middle" x="1471.5" y="-623.3" font-family="Times,serif" font-size="14.00">0.045</text>
</g>
<!-- Pf -->
<g id="node9" class="node"><title>Pf</title>
<ellipse fill="none" stroke="black" cx="768" cy="-540" rx="27" ry="18"/>
<text text-anchor="middle" x="768" y="-536.3" font-family="Times,serif" font-size="14.00">Pf</text>
</g>
<!-- Use&#45;&gt;Pf -->
<g id="edge46" class="edge"><title>Use&#45;&gt;Pf</title>
<path fill="none" stroke="black" d="M1451.41,-800.321C1303,-801.663 619.713,-803.781 423,-732 382.355,-717.168 362.416,-716.147 342,-678 314.685,-626.961 368.754,-596.21 423,-576 478.699,-555.249 653.734,-545.686 730.87,-542.398"/>
<polygon fill="black" stroke="black" points="731.235,-545.886 741.082,-541.975 730.946,-538.892 731.235,-545.886"/>
<text text-anchor="middle" x="362.5" y="-666.8" font-family="Times,serif" font-size="14.00">0.101</text>
</g>
<!-- JR -->
<g id="node10" class="node"><title>JR</title>
<ellipse fill="none" stroke="black" cx="1189" cy="-627" rx="27" ry="18"/>
<text text-anchor="middle" x="1189" y="-623.3" font-family="Times,serif" font-size="14.00">JR</text>
</g>
<!-- Use&#45;&gt;JR -->
<g id="edge73" class="edge"><title>Use&#45;&gt;JR</title>
<path fill="none" stroke="black" d="M1453.25,-794.39C1415.01,-785.516 1343.54,-765.696 1291,-732 1272.77,-720.308 1233.27,-677.706 1209.13,-650.789"/>
<polygon fill="black" stroke="black" points="1211.44,-648.121 1202.17,-642.991 1206.22,-652.782 1211.44,-648.121"/>
<text text-anchor="middle" x="1307" y="-710.3" font-family="Times,serif" font-size="14.00">0.05</text>
</g>
<!-- BI&#45;&gt;Use -->
<g id="edge2" class="edge"><title>BI&#45;&gt;Use</title>
<path fill="none" stroke="black" d="M1049.49,-723.181C1082.16,-734.261 1143.39,-753.922 1197,-765 1283.36,-782.844 1386.55,-792.801 1441.34,-797.208"/>
<polygon fill="black" stroke="black" points="1441.39,-800.722 1451.64,-798.016 1441.94,-793.744 1441.39,-800.722"/>
<text text-anchor="middle" x="1217.5" y="-753.8" font-family="Times,serif" font-size="14.00">0.479</text>
</g>
<!-- BI&#45;&gt;PU -->
<g id="edge8" class="edge"><title>BI&#45;&gt;PU</title>
<path fill="none" stroke="black" d="M998.809,-712.96C905.636,-712.539 590.773,-708.773 333,-678 214.423,-663.844 69,-747.419 69,-628 69,-628 69,-628 69,-495.5 69,-418.375 46,-400.625 46,-323.5 46,-323.5 46,-323.5 46,-104 46,-55.8931 95.5844,-66.6438 142,-54 263.882,-20.7988 657.793,-18.678 780.888,-18.8506"/>
<polygon fill="black" stroke="black" points="780.94,-22.3506 790.948,-18.8709 780.955,-15.3507 780.94,-22.3506"/>
<text text-anchor="middle" x="72.5" y="-362.3" font-family="Times,serif" font-size="14.00">0.318</text>
</g>
<!-- BI&#45;&gt;Qu -->
<g id="edge33" class="edge"><title>BI&#45;&gt;Qu</title>
<path fill="none" stroke="black" d="M999.173,-711.58C885.737,-704.882 448.915,-671.842 397,-558 365.933,-489.875 419.002,-287.079 465,-228 527.939,-147.162 654.433,-119.251 717.091,-110.133"/>
<polygon fill="black" stroke="black" points="717.869,-113.56 727.3,-108.733 716.917,-106.625 717.869,-113.56"/>
<text text-anchor="middle" x="420.5" y="-405.8" font-family="Times,serif" font-size="14.00">0.177</text>
</g>
<!-- BI&#45;&gt;Im -->
<g id="edge16" class="edge"><title>BI&#45;&gt;Im</title>
<path fill="none" stroke="black" d="M1007.8,-700.377C959.715,-665.493 836.678,-565.315 892,-489 907.096,-468.176 926.921,-487.074 947,-471 1031.79,-403.119 1014.08,-352.884 1072,-261 1081.4,-246.088 1083.24,-241.964 1094,-228 1097.26,-223.768 1100.89,-219.399 1104.49,-215.243"/>
<polygon fill="black" stroke="black" points="1107.25,-217.41 1111.26,-207.605 1102.01,-212.767 1107.25,-217.41"/>
<text text-anchor="middle" x="1004.5" y="-449.3" font-family="Times,serif" font-size="14.00">0.224</text>
</g>
<!-- BI&#45;&gt;ENJ -->
<g id="edge48" class="edge"><title>BI&#45;&gt;ENJ</title>
<path fill="none" stroke="black" d="M1053.11,-712.193C1131.68,-709.255 1356.98,-696.423 1405,-645 1427.96,-620.415 1440.25,-388.243 1443.86,-307.508"/>
<polygon fill="black" stroke="black" points="1447.37,-307.302 1444.31,-297.159 1440.38,-306.997 1447.37,-307.302"/>
<text text-anchor="middle" x="1453.5" y="-492.8" font-family="Times,serif" font-size="14.00">0.096</text>
</g>
<!-- BI&#45;&gt;PEU -->
<g id="edge21" class="edge"><title>BI&#45;&gt;PEU</title>
<path fill="none" stroke="black" d="M1052.79,-710.955C1150.45,-703.503 1481.66,-678.218 1483,-678 1542.26,-668.339 1567.36,-682.811 1614,-645 1668.2,-601.063 1667.26,-571.969 1683,-504 1693.23,-459.835 1701.47,-443.399 1683,-402 1680.48,-396.358 1676.56,-391.247 1672.15,-386.782"/>
<polygon fill="black" stroke="black" points="1674.22,-383.943 1664.43,-379.897 1669.56,-389.166 1674.22,-383.943"/>
<text text-anchor="middle" x="1699.5" y="-536.3" font-family="Times,serif" font-size="14.00">0.207</text>
</g>
<!-- BI&#45;&gt;SA -->
<g id="edge68" class="edge"><title>BI&#45;&gt;SA</title>
<path fill="none" stroke="black" d="M1028.31,-695.783C1032.15,-669.476 1040.82,-617.914 1055,-576 1066.81,-541.09 1085.97,-503.07 1099.02,-478.911"/>
<polygon fill="black" stroke="black" points="1102.13,-480.516 1103.85,-470.063 1095.98,-477.158 1102.13,-480.516"/>
<text text-anchor="middle" x="1075.5" y="-579.8" font-family="Times,serif" font-size="14.00">0.056</text>
</g>
<!-- BI&#45;&gt;Pf -->
<g id="edge43" class="edge"><title>BI&#45;&gt;Pf</title>
<path fill="none" stroke="black" d="M998.757,-713.578C948.624,-713.765 839.098,-710.064 754,-678 729.43,-668.742 717.335,-668.178 705,-645 688.873,-614.696 718.655,-580.926 742.529,-560.322"/>
<polygon fill="black" stroke="black" points="744.857,-562.939 750.324,-553.864 740.391,-557.549 744.857,-562.939"/>
<text text-anchor="middle" x="725.5" y="-623.3" font-family="Times,serif" font-size="14.00">0.105</text>
</g>
<!-- BI&#45;&gt;JR -->
<g id="edge50" class="edge"><title>BI&#45;&gt;JR</title>
<path fill="none" stroke="black" d="M1046.73,-702.021C1065.95,-691.854 1095.37,-676.338 1121,-663 1133.45,-656.518 1147.22,-649.42 1159.09,-643.32"/>
<polygon fill="black" stroke="black" points="1160.84,-646.354 1168.14,-638.674 1157.65,-640.127 1160.84,-646.354"/>
<text text-anchor="middle" x="1141.5" y="-666.8" font-family="Times,serif" font-size="14.00">0.087</text>
</g>
<!-- PU&#45;&gt;Use -->
<g id="edge3" class="edge"><title>PU&#45;&gt;Use</title>
<path fill="none" stroke="black" d="M844.996,-19.2173C1018.47,-20.6841 1970.93,-29.8198 2027,-54 2055.86,-66.4455 2077,-72.573 2077,-104 2077,-715 2077,-715 2077,-715 2077,-746.427 2055.64,-752.052 2027,-765 1981.07,-785.768 1636.45,-796.134 1519.04,-799.09"/>
<polygon fill="black" stroke="black" points="1518.63,-795.599 1508.72,-799.346 1518.81,-802.597 1518.63,-795.599"/>
<text text-anchor="middle" x="2097.5" y="-405.8" font-family="Times,serif" font-size="14.00">0.408</text>
</g>
<!-- PU&#45;&gt;BI -->
<g id="edge4" class="edge"><title>PU&#45;&gt;BI</title>
<path fill="none" stroke="black" d="M790.819,-19.6176C677.881,-22.306 248.924,-33.7702 192,-54 156.315,-66.6819 123,-66.1282 123,-104 123,-323.5 123,-323.5 123,-323.5 123,-390.964 182.363,-383.55 226,-435 245.667,-458.188 252.542,-462.818 268,-489 297.55,-539.048 307.525,-650.735 365,-678 421.301,-704.708 856.712,-711.284 988.396,-712.669"/>
<polygon fill="black" stroke="black" points="988.731,-716.173 998.766,-712.774 988.802,-709.173 988.731,-716.173"/>
<text text-anchor="middle" x="176.5" y="-362.3" font-family="Times,serif" font-size="14.00">0.372</text>
</g>
<!-- PU&#45;&gt;Qu -->
<g id="edge28" class="edge"><title>PU&#45;&gt;Qu</title>
<path fill="none" stroke="black" d="M793.062,-25.0228C778.042,-30.075 760.112,-38.9595 751,-54 746.864,-60.8264 746.08,-69.1848 746.775,-77.0993"/>
<polygon fill="black" stroke="black" points="743.337,-77.7661 748.384,-87.0818 750.248,-76.6522 743.337,-77.7661"/>
<text text-anchor="middle" x="771.5" y="-57.8" font-family="Times,serif" font-size="14.00">0.195</text>
</g>
<!-- PU&#45;&gt;Im -->
<g id="edge29" class="edge"><title>PU&#45;&gt;Im</title>
<path fill="none" stroke="black" d="M845.021,-19.5604C912.671,-21.3385 1087.58,-28.3554 1139,-54 1169.09,-69.0042 1179.69,-90.8065 1170,-123 1165.03,-139.521 1154.59,-155.724 1145.02,-168.167"/>
<polygon fill="black" stroke="black" points="1142.15,-166.152 1138.61,-176.138 1147.6,-170.539 1142.15,-166.152"/>
<text text-anchor="middle" x="1194.5" y="-101.3" font-family="Times,serif" font-size="14.00">0.195</text>
</g>
<!-- PU&#45;&gt;ENJ -->
<g id="edge27" class="edge"><title>PU&#45;&gt;ENJ</title>
<path fill="none" stroke="black" d="M845.166,-20.0468C903.857,-22.6792 1046.67,-31.0843 1164,-54 1299,-80.3665 1334.78,-86.3327 1461,-141 1487.51,-152.482 1502.67,-148.917 1517,-174 1524.94,-187.892 1523.33,-195.307 1517,-210 1508.21,-230.383 1489.98,-247.501 1474.06,-259.463"/>
<polygon fill="black" stroke="black" points="1471.63,-256.901 1465.53,-265.566 1475.7,-262.594 1471.63,-256.901"/>
<text text-anchor="middle" x="1521.5" y="-144.8" font-family="Times,serif" font-size="14.00">0.199</text>
</g>
<!-- PU&#45;&gt;PEU -->
<g id="edge13" class="edge"><title>PU&#45;&gt;PEU</title>
<path fill="none" stroke="black" d="M845.414,-18.9394C996.541,-18.7406 1724.57,-19.5874 1818,-54 1851.54,-66.3555 1881,-68.2533 1881,-104 1881,-280 1881,-280 1881,-280 1881,-304.65 1876.73,-315.219 1857,-330 1830.57,-349.804 1739.57,-358.929 1685.44,-362.692"/>
<polygon fill="black" stroke="black" points="1684.88,-359.221 1675.13,-363.375 1685.34,-366.206 1684.88,-359.221"/>
<text text-anchor="middle" x="1901.5" y="-188.3" font-family="Times,serif" font-size="14.00">0.248</text>
</g>
<!-- PU&#45;&gt;SA -->
<g id="edge75" class="edge"><title>PU&#45;&gt;SA</title>
<path fill="none" stroke="black" d="M795.113,-27.65C779.774,-33.9266 759.452,-43.1903 743,-54 658.213,-109.709 575.361,-149.613 615,-243 636.681,-294.079 737.76,-391.976 807,-417 912.6,-455.165 948.696,-413.998 1059,-435 1065.94,-436.322 1073.24,-438.242 1080.15,-440.32"/>
<polygon fill="black" stroke="black" points="1079.32,-443.728 1089.91,-443.426 1081.45,-437.058 1079.32,-443.728"/>
<text text-anchor="middle" x="635.5" y="-231.8" font-family="Times,serif" font-size="14.00">0.047</text>
</g>
<!-- PU&#45;&gt;Pf -->
<g id="edge66" class="edge"><title>PU&#45;&gt;Pf</title>
<path fill="none" stroke="black" d="M791.064,-19.8245C713.28,-22.4483 489.449,-31.775 420,-54 378.256,-67.3587 335,-60.1709 335,-104 335,-236.5 335,-236.5 335,-236.5 335,-298.751 401.825,-276.829 451,-315 533.57,-379.094 542.004,-410.159 627,-471 661.15,-495.445 705.449,-515.156 735.201,-526.941"/>
<polygon fill="black" stroke="black" points="734.108,-530.271 744.697,-530.629 736.642,-523.746 734.108,-530.271"/>
<text text-anchor="middle" x="437.5" y="-275.3" font-family="Times,serif" font-size="14.00">0.058</text>
</g>
<!-- PU&#45;&gt;JR -->
<g id="edge65" class="edge"><title>PU&#45;&gt;JR</title>
<path fill="none" stroke="black" d="M791.06,-19.5963C682.986,-22.1256 284.176,-32.8234 232,-54 200.464,-66.7994 174,-69.9659 174,-104 174,-236.5 174,-236.5 174,-236.5 174,-261.505 467.063,-545.999 489,-558 546.603,-589.513 568.021,-581.573 633,-591 733.737,-605.615 1044.71,-619.858 1152.09,-624.461"/>
<polygon fill="black" stroke="black" points="1151.98,-627.959 1162.12,-624.888 1152.28,-620.966 1151.98,-627.959"/>
<text text-anchor="middle" x="269" y="-318.8" font-family="Times,serif" font-size="14.00">0.06</text>
</g>
<!-- Qu&#45;&gt;Use -->
<g id="edge6" class="edge"><title>Qu&#45;&gt;Use</title>
<path fill="none" stroke="black" d="M727.022,-107.132C664.45,-110.097 511.252,-119.404 465,-141 373.538,-183.705 181,-394.56 181,-495.5 181,-715 181,-715 181,-715 181,-746.427 202.137,-752.568 231,-765 287.822,-789.475 1235.53,-798.125 1440.93,-799.717"/>
<polygon fill="black" stroke="black" points="1441.21,-803.219 1451.24,-799.795 1441.27,-796.219 1441.21,-803.219"/>
<text text-anchor="middle" x="216.5" y="-449.3" font-family="Times,serif" font-size="14.00">0.356</text>
</g>
<!-- Qu&#45;&gt;BI -->
<g id="edge9" class="edge"><title>Qu&#45;&gt;BI</title>
<path fill="none" stroke="black" d="M726.902,-106.656C667.157,-108.559 526.298,-115.676 487,-141 418.371,-185.224 452.772,-244.795 390,-297 373.121,-311.038 360.177,-300.158 344,-315 312.218,-344.159 310.813,-359.999 301,-402 286.443,-464.305 332.469,-638.752 383,-678 430.824,-715.145 858.258,-714.486 988.5,-713.406"/>
<polygon fill="black" stroke="black" points="988.796,-716.904 998.765,-713.315 988.734,-709.904 988.796,-716.904"/>
<text text-anchor="middle" x="321.5" y="-405.8" font-family="Times,serif" font-size="14.00">0.304</text>
</g>
<!-- Qu&#45;&gt;PU -->
<g id="edge11" class="edge"><title>Qu&#45;&gt;PU</title>
<path fill="none" stroke="black" d="M772.425,-91.6198C780.452,-85.5309 789.492,-77.6448 796,-69 801.353,-61.8897 805.737,-53.2733 809.144,-45.2107"/>
<polygon fill="black" stroke="black" points="812.446,-46.3774 812.815,-35.789 805.923,-43.8364 812.446,-46.3774"/>
<text text-anchor="middle" x="825.5" y="-57.8" font-family="Times,serif" font-size="14.00">0.269</text>
</g>
<!-- Qu&#45;&gt;Im -->
<g id="edge26" class="edge"><title>Qu&#45;&gt;Im</title>
<path fill="none" stroke="black" d="M781.033,-106.458C824.853,-107.999 913.491,-114.456 983,-141 994.401,-145.354 994.917,-150.891 1006,-156 1033.04,-168.464 1065.58,-177.674 1089.79,-183.509"/>
<polygon fill="black" stroke="black" points="1089.09,-186.938 1099.62,-185.802 1090.68,-180.121 1089.09,-186.938"/>
<text text-anchor="middle" x="1026.5" y="-144.8" font-family="Times,serif" font-size="14.00">0.199</text>
</g>
<!-- Qu&#45;&gt;ENJ -->
<g id="edge41" class="edge"><title>Qu&#45;&gt;ENJ</title>
<path fill="none" stroke="black" d="M780.899,-107.716C831.711,-110.93 945.297,-117.985 1041,-123 1084.87,-125.299 1396.09,-122.642 1436,-141 1454.28,-149.409 1459.59,-155.291 1467,-174 1477.19,-199.742 1467.89,-231.029 1458.43,-252.522"/>
<polygon fill="black" stroke="black" points="1455.23,-251.113 1454.15,-261.653 1461.56,-254.087 1455.23,-251.113"/>
<text text-anchor="middle" x="1492.5" y="-188.3" font-family="Times,serif" font-size="14.00">0.111</text>
</g>
<!-- Qu&#45;&gt;PEU -->
<g id="edge14" class="edge"><title>Qu&#45;&gt;PEU</title>
<path fill="none" stroke="black" d="M780.895,-107.805C831.699,-111.167 945.273,-118.459 1041,-123 1153.17,-128.32 1436.6,-115.667 1546,-141 1617,-157.441 1654.04,-162.023 1685,-228 1704.26,-269.047 1701.95,-288.808 1683,-330 1680.42,-335.612 1676.46,-340.71 1672.04,-345.171"/>
<polygon fill="black" stroke="black" points="1669.46,-342.786 1664.33,-352.056 1674.12,-348.009 1669.46,-342.786"/>
<text text-anchor="middle" x="1712.5" y="-231.8" font-family="Times,serif" font-size="14.00">0.245</text>
</g>
<!-- Qu&#45;&gt;SA -->
<g id="edge57" class="edge"><title>Qu&#45;&gt;SA</title>
<path fill="none" stroke="black" d="M769.033,-120.488C825.248,-174.668 1023.31,-365.554 1090.5,-430.318"/>
<polygon fill="black" stroke="black" points="1088.4,-433.154 1098.03,-437.573 1093.26,-428.114 1088.4,-433.154"/>
<text text-anchor="middle" x="970.5" y="-275.3" font-family="Times,serif" font-size="14.00">0.075</text>
</g>
<!-- Qu&#45;&gt;Pf -->
<g id="edge69" class="edge"><title>Qu&#45;&gt;Pf</title>
<path fill="none" stroke="black" d="M747.563,-122.492C733.906,-159.454 704.063,-251.818 714,-330 722.523,-397.061 745.845,-473.382 758.88,-512.619"/>
<polygon fill="black" stroke="black" points="755.603,-513.855 762.109,-522.217 762.237,-511.623 755.603,-513.855"/>
<text text-anchor="middle" x="734.5" y="-318.8" font-family="Times,serif" font-size="14.00">0.053</text>
</g>
<!-- Qu&#45;&gt;JR -->
<g id="edge58" class="edge"><title>Qu&#45;&gt;JR</title>
<path fill="none" stroke="black" d="M727.59,-109.564C704.044,-113.816 669.595,-122.781 645,-141 531.569,-225.028 506.144,-267.274 464,-402 460.695,-412.566 454.908,-486.932 470,-504 561.253,-607.198 1016.88,-623.104 1151.49,-625.554"/>
<polygon fill="black" stroke="black" points="1151.65,-629.057 1161.71,-625.725 1151.77,-622.058 1151.65,-629.057"/>
<text text-anchor="middle" x="502.5" y="-362.3" font-family="Times,serif" font-size="14.00">0.074</text>
</g>
<!-- Im&#45;&gt;Use -->
<g id="edge7" class="edge"><title>Im&#45;&gt;Use</title>
<path fill="none" stroke="black" d="M1151.7,-195.486C1191.42,-199.112 1268.42,-205.87 1334,-210 1423.47,-215.635 1651.59,-200.777 1737,-228 1822.19,-255.153 1901.25,-320.567 1920,-348 1923.77,-353.524 1975,-575.809 1975,-582.5 1975,-715 1975,-715 1975,-715 1975,-761.147 1928.16,-751.609 1884,-765 1816.27,-785.539 1605.69,-795.406 1518.46,-798.694"/>
<polygon fill="black" stroke="black" points="1518.31,-795.197 1508.45,-799.063 1518.57,-802.193 1518.31,-795.197"/>
<text text-anchor="middle" x="1978.5" y="-492.8" font-family="Times,serif" font-size="14.00">0.325</text>
</g>
<!-- Im&#45;&gt;BI -->
<g id="edge32" class="edge"><title>Im&#45;&gt;BI</title>
<path fill="none" stroke="black" d="M1098.4,-195.171C1058.14,-199.91 982.014,-214.796 940,-261 922.376,-280.381 885.681,-463.427 880,-489 864.741,-557.69 862.554,-590.45 907,-645 929.355,-672.437 965.903,-690.946 992.605,-701.64"/>
<polygon fill="black" stroke="black" points="991.363,-704.912 1001.95,-705.228 993.872,-698.377 991.363,-704.912"/>
<text text-anchor="middle" x="912.5" y="-449.3" font-family="Times,serif" font-size="14.00">0.181</text>
</g>
<!-- Im&#45;&gt;PU -->
<g id="edge35" class="edge"><title>Im&#45;&gt;PU</title>
<path fill="none" stroke="black" d="M1123.95,-173.919C1122.47,-163.32 1119.01,-150.044 1111,-141 1042.29,-63.3884 916.348,-33.9625 854.386,-23.814"/>
<polygon fill="black" stroke="black" points="854.719,-20.3236 844.299,-22.2406 853.64,-27.24 854.719,-20.3236"/>
<text text-anchor="middle" x="1111.5" y="-101.3" font-family="Times,serif" font-size="14.00">0.145</text>
</g>
<!-- Im&#45;&gt;Qu -->
<g id="edge45" class="edge"><title>Im&#45;&gt;Qu</title>
<path fill="none" stroke="black" d="M1106.13,-179.065C1095.5,-172.323 1081.99,-163.723 1070,-156 1059.74,-149.391 1058.47,-145.166 1047,-141 959.467,-109.207 848.507,-104.918 791.528,-105.103"/>
<polygon fill="black" stroke="black" points="791.175,-101.606 781.204,-105.188 791.233,-108.606 791.175,-101.606"/>
<text text-anchor="middle" x="1090.5" y="-144.8" font-family="Times,serif" font-size="14.00">0.101</text>
</g>
<!-- Im&#45;&gt;ENJ -->
<g id="edge85" class="edge"><title>Im&#45;&gt;ENJ</title>
<path fill="none" stroke="black" d="M1152.14,-193.363C1196.6,-194.764 1287.08,-201.021 1358,-228 1369.41,-232.339 1370.53,-236.734 1381,-243 1391.67,-249.387 1403.58,-256.025 1414.2,-261.782"/>
<polygon fill="black" stroke="black" points="1412.67,-264.935 1423.14,-266.585 1415.99,-258.769 1412.67,-264.935"/>
<text text-anchor="middle" x="1401.5" y="-231.8" font-family="Times,serif" font-size="14.00">0.027</text>
</g>
<!-- Im&#45;&gt;PEU -->
<g id="edge18" class="edge"><title>Im&#45;&gt;PEU</title>
<path fill="none" stroke="black" d="M1152.35,-192.574C1206.16,-192.513 1329.01,-196.232 1426,-228 1454.18,-237.232 1458.82,-245.322 1484,-261 1508.17,-276.053 1511.09,-285.188 1537,-297 1565.45,-309.968 1578.91,-297.774 1605,-315 1614.75,-321.436 1623.11,-331.125 1629.57,-340.265"/>
<polygon fill="black" stroke="black" points="1626.73,-342.316 1635.16,-348.736 1632.57,-338.461 1626.73,-342.316"/>
<text text-anchor="middle" x="1557.5" y="-275.3" font-family="Times,serif" font-size="14.00">0.222</text>
</g>
<!-- Im&#45;&gt;SA -->
<g id="edge64" class="edge"><title>Im&#45;&gt;SA</title>
<path fill="none" stroke="black" d="M1124.21,-210.056C1122.17,-254.031 1116.73,-371.537 1114.25,-424.929"/>
<polygon fill="black" stroke="black" points="1110.75,-424.855 1113.79,-435.006 1117.75,-425.179 1110.75,-424.855"/>
<text text-anchor="middle" x="1136" y="-318.8" font-family="Times,serif" font-size="14.00">0.06</text>
</g>
<!-- Im&#45;&gt;Pf -->
<g id="edge82" class="edge"><title>Im&#45;&gt;Pf</title>
<path fill="none" stroke="black" d="M1097.88,-194.336C1047.23,-197.326 940.775,-206.096 912,-228 851.239,-274.251 872.085,-314.706 840,-384 818.851,-429.676 794.115,-482.88 779.832,-513.578"/>
<polygon fill="black" stroke="black" points="776.626,-512.172 775.58,-522.716 782.972,-515.126 776.626,-512.172"/>
<text text-anchor="middle" x="874.5" y="-362.3" font-family="Times,serif" font-size="14.00">0.034</text>
</g>
<!-- Im&#45;&gt;JR -->
<g id="edge53" class="edge"><title>Im&#45;&gt;JR</title>
<path fill="none" stroke="black" d="M1148.02,-201.875C1164.07,-208.383 1185.8,-217.827 1204,-228 1299.19,-281.205 1338.31,-300.041 1377,-402 1412.63,-495.913 1280.91,-578.456 1219.22,-611.112"/>
<polygon fill="black" stroke="black" points="1217.56,-608.026 1210.3,-615.741 1220.79,-614.239 1217.56,-608.026"/>
<text text-anchor="middle" x="1402.5" y="-405.8" font-family="Times,serif" font-size="14.00">0.084</text>
</g>
<!-- ENJ&#45;&gt;Use -->
<g id="edge22" class="edge"><title>ENJ&#45;&gt;Use</title>
<path fill="none" stroke="black" d="M1465.95,-291.845C1470.46,-293.915 1475.29,-295.789 1480,-297 1555.86,-316.501 1757.72,-290.165 1832,-315 1869.64,-327.586 1906,-325.307 1906,-365 1906,-715 1906,-715 1906,-715 1906,-747.384 1882.5,-751.65 1853,-765 1794.11,-791.646 1601.84,-798.014 1518.79,-799.529"/>
<polygon fill="black" stroke="black" points="1518.69,-796.03 1508.75,-799.698 1518.8,-803.03 1518.69,-796.03"/>
<text text-anchor="middle" x="1926.5" y="-536.3" font-family="Times,serif" font-size="14.00">0.203</text>
</g>
<!-- ENJ&#45;&gt;BI -->
<g id="edge36" class="edge"><title>ENJ&#45;&gt;BI</title>
<path fill="none" stroke="black" d="M1451.26,-296.796C1456.07,-310.407 1462.47,-330.184 1466,-348 1478.24,-409.731 1476.11,-426.134 1479,-489 1482.99,-575.685 1496.85,-622.672 1430,-678 1426.48,-680.917 1162.17,-702.184 1063.02,-710.069"/>
<polygon fill="black" stroke="black" points="1062.55,-706.595 1052.86,-710.876 1063.11,-713.573 1062.55,-706.595"/>
<text text-anchor="middle" x="1500.5" y="-492.8" font-family="Times,serif" font-size="14.00">0.142</text>
</g>
<!-- ENJ&#45;&gt;PU -->
<g id="edge31" class="edge"><title>ENJ&#45;&gt;PU</title>
<path fill="none" stroke="black" d="M1467.48,-266.966C1486.88,-257.388 1512.08,-244.781 1514,-243 1548.84,-210.695 1573.85,-179.493 1546,-141 1464,-27.6692 992.426,-18.9084 855.356,-18.7852"/>
<polygon fill="black" stroke="black" points="855.335,-15.2851 845.337,-18.7914 855.34,-22.2851 855.335,-15.2851"/>
<text text-anchor="middle" x="1575.5" y="-144.8" font-family="Times,serif" font-size="14.00">0.193</text>
</g>
<!-- ENJ&#45;&gt;Qu -->
<g id="edge49" class="edge"><title>ENJ&#45;&gt;Qu</title>
<path fill="none" stroke="black" d="M1441.08,-260.911C1437.75,-250.033 1431.87,-236.45 1422,-228 1314.26,-135.784 1254.36,-167.282 1115,-141 998.066,-118.948 857.05,-110.38 791.229,-107.406"/>
<polygon fill="black" stroke="black" points="791.095,-103.897 780.952,-106.96 790.791,-110.891 791.095,-103.897"/>
<text text-anchor="middle" x="1418.5" y="-188.3" font-family="Times,serif" font-size="14.00">0.091</text>
</g>
<!-- ENJ&#45;&gt;Im -->
<g id="edge37" class="edge"><title>ENJ&#45;&gt;Im</title>
<path fill="none" stroke="black" d="M1416.67,-272.895C1390.14,-267.507 1349.78,-257.734 1317,-243 1305.87,-237.997 1305.28,-232.652 1294,-228 1250.57,-210.094 1196.95,-200.993 1161.91,-196.628"/>
<polygon fill="black" stroke="black" points="1162,-193.115 1151.66,-195.421 1161.18,-200.067 1162,-193.115"/>
<text text-anchor="middle" x="1337.5" y="-231.8" font-family="Times,serif" font-size="14.00">0.129</text>
</g>
<!-- ENJ&#45;&gt;PEU -->
<g id="edge10" class="edge"><title>ENJ&#45;&gt;PEU</title>
<path fill="none" stroke="black" d="M1457.95,-295.333C1468.24,-306.554 1483.59,-321.285 1500,-330 1532.42,-347.215 1573.43,-356.113 1603.39,-360.617"/>
<polygon fill="black" stroke="black" points="1603.1,-364.111 1613.49,-362.033 1604.07,-357.179 1603.1,-364.111"/>
<text text-anchor="middle" x="1520.5" y="-318.8" font-family="Times,serif" font-size="14.00">0.285</text>
</g>
<!-- ENJ&#45;&gt;SA -->
<g id="edge47" class="edge"><title>ENJ&#45;&gt;SA</title>
<path fill="none" stroke="black" d="M1416.96,-286.1C1392.01,-291.996 1354.81,-301.949 1324,-315 1288.16,-330.181 1203.87,-379.659 1172,-402 1159.56,-410.721 1146.59,-421.502 1135.99,-430.817"/>
<polygon fill="black" stroke="black" points="1133.52,-428.327 1128.39,-437.596 1138.18,-433.549 1133.52,-428.327"/>
<text text-anchor="middle" x="1279.5" y="-362.3" font-family="Times,serif" font-size="14.00">0.098</text>
</g>
<!-- ENJ&#45;&gt;Pf -->
<g id="edge81" class="edge"><title>ENJ&#45;&gt;Pf</title>
<path fill="none" stroke="black" d="M1417.89,-287.157C1400.59,-292.702 1378.4,-301.708 1362,-315 1332.98,-338.52 1344.56,-362.516 1314,-384 1288.78,-401.732 1274.92,-388.924 1247,-402 1234.94,-407.648 1161.3,-465.907 1149,-471 1105.66,-488.939 1089.35,-473.729 1045,-489 1031.65,-493.596 1030.42,-499.616 1017,-504 944.513,-527.678 855.014,-535.339 805.469,-537.816"/>
<polygon fill="black" stroke="black" points="805.061,-534.331 795.231,-538.282 805.38,-541.324 805.061,-534.331"/>
<text text-anchor="middle" x="1267.5" y="-405.8" font-family="Times,serif" font-size="14.00">0.036</text>
</g>
<!-- ENJ&#45;&gt;JR -->
<g id="edge67" class="edge"><title>ENJ&#45;&gt;JR</title>
<path fill="none" stroke="black" d="M1431.24,-295.235C1411.97,-316.213 1375.43,-354.721 1341,-384 1330.57,-392.87 1322.68,-390.048 1316,-402 1301,-428.841 1322.11,-442.329 1311,-471 1289.63,-526.167 1241.54,-577.464 1212.53,-604.991"/>
<polygon fill="black" stroke="black" points="1209.82,-602.731 1204.89,-612.108 1214.59,-607.853 1209.82,-602.731"/>
<text text-anchor="middle" x="1335.5" y="-449.3" font-family="Times,serif" font-size="14.00">0.058</text>
</g>
<!-- PEU&#45;&gt;Use -->
<g id="edge30" class="edge"><title>PEU&#45;&gt;Use</title>
<path fill="none" stroke="black" d="M1673.82,-371.633C1714.66,-379.865 1783,-401.226 1783,-452 1783,-715 1783,-715 1783,-715 1783,-769.313 1600.23,-790.533 1518.59,-797.302"/>
<polygon fill="black" stroke="black" points="1517.92,-793.844 1508.23,-798.128 1518.48,-800.822 1517.92,-793.844"/>
<text text-anchor="middle" x="1803.5" y="-579.8" font-family="Times,serif" font-size="14.00">0.193</text>
</g>
<!-- PEU&#45;&gt;BI -->
<g id="edge80" class="edge"><title>PEU&#45;&gt;BI</title>
<path fill="none" stroke="black" d="M1648.78,-384.004C1655.38,-410.918 1664.52,-464.342 1646,-504 1622.31,-554.726 1484.17,-666.363 1455,-678 1450.46,-679.811 1166.47,-702.065 1063.11,-710.116"/>
<polygon fill="black" stroke="black" points="1062.53,-706.651 1052.83,-710.916 1063.07,-713.629 1062.53,-706.651"/>
<text text-anchor="middle" x="1651" y="-536.3" font-family="Times,serif" font-size="14.00">0.04</text>
</g>
<!-- PEU&#45;&gt;PU -->
<g id="edge59" class="edge"><title>PEU&#45;&gt;PU</title>
<path fill="none" stroke="black" d="M1668.08,-354.542C1679.3,-348.676 1692.11,-340.425 1701,-330 1732.2,-293.425 1760.15,-270.131 1737,-228 1679.62,-123.584 1618.84,-133.159 1509,-87 1456.42,-64.9058 1441.29,-63.1351 1385,-54 1187.18,-21.8979 946.158,-18.7067 855.159,-18.7558"/>
<polygon fill="black" stroke="black" points="855.061,-15.2558 845.067,-18.7752 855.074,-22.2558 855.061,-15.2558"/>
<text text-anchor="middle" x="1746.5" y="-188.3" font-family="Times,serif" font-size="14.00">0.073</text>
</g>
<!-- PEU&#45;&gt;Qu -->
<g id="edge54" class="edge"><title>PEU&#45;&gt;Qu</title>
<path fill="none" stroke="black" d="M1651.36,-348.339C1659.69,-326.766 1670.26,-288.661 1655,-261 1642.76,-238.807 1485.3,-148.191 1461,-141 1371.42,-114.495 1134.3,-127.762 1041,-123 951.272,-118.42 845.836,-111.876 791.141,-108.394"/>
<polygon fill="black" stroke="black" points="791.101,-104.885 780.898,-107.74 790.655,-111.871 791.101,-104.885"/>
<text text-anchor="middle" x="1656.5" y="-231.8" font-family="Times,serif" font-size="14.00">0.083</text>
</g>
<!-- PEU&#45;&gt;Im -->
<g id="edge40" class="edge"><title>PEU&#45;&gt;Im</title>
<path fill="none" stroke="black" d="M1640.53,-348.023C1638.01,-337.967 1633.97,-325.233 1628,-315 1623.88,-307.938 1585,-265.232 1578,-261 1507.9,-218.599 1257.23,-200.403 1162.03,-194.915"/>
<polygon fill="black" stroke="black" points="1162.18,-191.418 1152,-194.351 1161.79,-198.407 1162.18,-191.418"/>
<text text-anchor="middle" x="1633.5" y="-275.3" font-family="Times,serif" font-size="14.00">0.113</text>
</g>
<!-- PEU&#45;&gt;ENJ -->
<g id="edge38" class="edge"><title>PEU&#45;&gt;ENJ</title>
<path fill="none" stroke="black" d="M1618.63,-355.16C1602.64,-348.653 1581.74,-339.581 1564,-330 1553.26,-324.201 1551.92,-320.459 1541,-315 1530.01,-309.505 1502.81,-299.711 1480.16,-291.878"/>
<polygon fill="black" stroke="black" points="1481.07,-288.488 1470.47,-288.55 1478.79,-295.108 1481.07,-288.488"/>
<text text-anchor="middle" x="1584.5" y="-318.8" font-family="Times,serif" font-size="14.00">0.127</text>
</g>
<!-- PEU&#45;&gt;SA -->
<g id="edge60" class="edge"><title>PEU&#45;&gt;SA</title>
<path fill="none" stroke="black" d="M1616.19,-374.538C1569.49,-387.095 1477.19,-411.466 1444,-417 1351.6,-432.409 1327.08,-424.48 1234,-435 1205.54,-438.217 1173.44,-442.769 1149.46,-446.354"/>
<polygon fill="black" stroke="black" points="1148.75,-442.921 1139.38,-447.874 1149.79,-449.843 1148.75,-442.921"/>
<text text-anchor="middle" x="1528.5" y="-405.8" font-family="Times,serif" font-size="14.00">0.072</text>
</g>
<!-- PEU&#45;&gt;Pf -->
<g id="edge71" class="edge"><title>PEU&#45;&gt;Pf</title>
<path fill="none" stroke="black" d="M1628.66,-381.907C1616.4,-393.053 1598.3,-407.883 1580,-417 1538.41,-437.72 1423.66,-462.384 1378,-471 1163.02,-511.564 900.533,-530.8 805,-536.828"/>
<polygon fill="black" stroke="black" points="804.735,-533.338 794.971,-537.451 805.169,-540.324 804.735,-533.338"/>
<text text-anchor="middle" x="1550.5" y="-449.3" font-family="Times,serif" font-size="14.00">0.053</text>
</g>
<!-- PEU&#45;&gt;JR -->
<g id="edge70" class="edge"><title>PEU&#45;&gt;JR</title>
<path fill="none" stroke="black" d="M1641.56,-384.11C1636.62,-412.639 1622.91,-470.126 1589,-504 1520.42,-572.51 1483.21,-568.191 1389,-591 1332.55,-604.667 1265.91,-615.241 1225.58,-621.041"/>
<polygon fill="black" stroke="black" points="1224.84,-617.611 1215.43,-622.48 1225.82,-624.542 1224.84,-617.611"/>
<text text-anchor="middle" x="1621.5" y="-492.8" font-family="Times,serif" font-size="14.00">0.053</text>
</g>
<!-- SA&#45;&gt;Use -->
<g id="edge23" class="edge"><title>SA&#45;&gt;Use</title>
<path fill="none" stroke="black" d="M1134.8,-463.693C1149.28,-470.349 1168.58,-479.642 1185,-489 1307.09,-558.571 1339.65,-583.606 1424,-696 1442.47,-720.606 1458.52,-752.089 1468.65,-773.939"/>
<polygon fill="black" stroke="black" points="1465.55,-775.582 1472.87,-783.24 1471.92,-772.688 1465.55,-775.582"/>
<text text-anchor="middle" x="1404.5" y="-623.3" font-family="Times,serif" font-size="14.00">0.203</text>
</g>
<!-- SA&#45;&gt;BI -->
<g id="edge72" class="edge"><title>SA&#45;&gt;BI</title>
<path fill="none" stroke="black" d="M1095.45,-466.99C1070.01,-487.05 1023.96,-528.276 1006,-576 992.124,-612.865 1004.21,-658.672 1014.7,-686.866"/>
<polygon fill="black" stroke="black" points="1011.54,-688.377 1018.45,-696.408 1018.05,-685.82 1011.54,-688.377"/>
<text text-anchor="middle" x="1026.5" y="-579.8" font-family="Times,serif" font-size="14.00">0.053</text>
</g>
<!-- SA&#45;&gt;PU -->
<g id="edge55" class="edge"><title>SA&#45;&gt;PU</title>
<path fill="none" stroke="black" d="M1089.92,-443.384C1080.47,-440.211 1069.34,-436.926 1059,-435 957.456,-416.087 684.142,-439.453 597,-384 491.908,-317.124 472.039,-274.616 434,-156 420.156,-112.832 403.434,-87.4787 434,-54 457.093,-28.7069 688.658,-21.486 780.631,-19.6068"/>
<polygon fill="black" stroke="black" points="780.948,-23.1014 790.878,-19.4079 780.812,-16.1027 780.948,-23.1014"/>
<text text-anchor="middle" x="486.5" y="-231.8" font-family="Times,serif" font-size="14.00">0.077</text>
</g>
<!-- SA&#45;&gt;Qu -->
<g id="edge74" class="edge"><title>SA&#45;&gt;Qu</title>
<path fill="none" stroke="black" d="M1089.52,-443.914C1080.11,-440.855 1069.11,-437.509 1059,-435 998.04,-419.874 823.639,-430.118 781,-384 747.849,-348.145 750.149,-196.634 752.637,-133.644"/>
<polygon fill="black" stroke="black" points="756.149,-133.44 753.08,-123.299 749.155,-133.141 756.149,-133.44"/>
<text text-anchor="middle" x="776.5" y="-275.3" font-family="Times,serif" font-size="14.00">0.049</text>
</g>
<!-- SA&#45;&gt;Im -->
<g id="edge39" class="edge"><title>SA&#45;&gt;Im</title>
<path fill="none" stroke="black" d="M1102.66,-436.213C1087.37,-410.966 1061.53,-359.784 1071,-315 1078.53,-279.389 1097.16,-241.528 1110.43,-217.597"/>
<polygon fill="black" stroke="black" points="1113.51,-219.267 1115.39,-208.842 1107.42,-215.816 1113.51,-219.267"/>
<text text-anchor="middle" x="1087" y="-318.8" font-family="Times,serif" font-size="14.00">0.12</text>
</g>
<!-- SA&#45;&gt;ENJ -->
<g id="edge61" class="edge"><title>SA&#45;&gt;ENJ</title>
<path fill="none" stroke="black" d="M1117.75,-435.156C1125.51,-408.844 1141.37,-359.775 1155,-348 1192.31,-315.764 1334.97,-293.819 1405.31,-284.723"/>
<polygon fill="black" stroke="black" points="1406.07,-288.155 1415.55,-283.424 1405.19,-281.21 1406.07,-288.155"/>
<text text-anchor="middle" x="1175.5" y="-362.3" font-family="Times,serif" font-size="14.00">0.071</text>
</g>
<!-- SA&#45;&gt;PEU -->
<g id="edge15" class="edge"><title>SA&#45;&gt;PEU</title>
<path fill="none" stroke="black" d="M1139.18,-447.928C1174.1,-442.253 1237.71,-431.06 1291,-417 1311.38,-411.622 1315.41,-406.548 1336,-402 1430.19,-381.19 1543.47,-372.363 1602.94,-368.94"/>
<polygon fill="black" stroke="black" points="1603.26,-372.428 1613.05,-368.381 1602.87,-365.439 1603.26,-372.428"/>
<text text-anchor="middle" x="1356.5" y="-405.8" font-family="Times,serif" font-size="14.00">0.236</text>
</g>
<!-- SA&#45;&gt;Pf -->
<g id="edge56" class="edge"><title>SA&#45;&gt;Pf</title>
<path fill="none" stroke="black" d="M1089.86,-462.309C1080.4,-465.437 1069.28,-468.773 1059,-471 994.672,-484.941 976.118,-474.121 912,-489 872.567,-498.151 828.846,-514.217 800.04,-525.668"/>
<polygon fill="black" stroke="black" points="798.473,-522.526 790.504,-529.507 801.088,-529.019 798.473,-522.526"/>
<text text-anchor="middle" x="932.5" y="-492.8" font-family="Times,serif" font-size="14.00">0.076</text>
</g>
<!-- SA&#45;&gt;JR -->
<g id="edge63" class="edge"><title>SA&#45;&gt;JR</title>
<path fill="none" stroke="black" d="M1135.51,-463.202C1146.74,-468.957 1159.5,-477.487 1167,-489 1188.57,-522.109 1191.53,-569.04 1190.87,-598.484"/>
<polygon fill="black" stroke="black" points="1187.36,-598.721 1190.48,-608.848 1194.36,-598.989 1187.36,-598.721"/>
<text text-anchor="middle" x="1210.5" y="-536.3" font-family="Times,serif" font-size="14.00">0.062</text>
</g>
<!-- Pf&#45;&gt;Use -->
<g id="edge17" class="edge"><title>Pf&#45;&gt;Use</title>
<path fill="none" stroke="black" d="M740.776,-541.675C639.842,-545.067 297.832,-564.969 397,-678 467.462,-758.312 1256.63,-791.876 1441.44,-798.665"/>
<polygon fill="black" stroke="black" points="1441.39,-802.165 1451.51,-799.03 1441.65,-795.17 1441.39,-802.165"/>
<text text-anchor="middle" x="417.5" y="-666.8" font-family="Times,serif" font-size="14.00">0.223</text>
</g>
<!-- Pf&#45;&gt;BI -->
<g id="edge51" class="edge"><title>Pf&#45;&gt;BI</title>
<path fill="none" stroke="black" d="M767.177,-558.084C766.904,-579.772 769.066,-617.653 785,-645 796.776,-665.211 804.694,-668.345 826,-678 879.165,-702.092 947.229,-709.661 988.675,-712.002"/>
<polygon fill="black" stroke="black" points="988.706,-715.508 998.866,-712.502 989.049,-708.516 988.706,-715.508"/>
<text text-anchor="middle" x="805.5" y="-623.3" font-family="Times,serif" font-size="14.00">0.087</text>
</g>
<!-- Pf&#45;&gt;PU -->
<g id="edge84" class="edge"><title>Pf&#45;&gt;PU</title>
<path fill="none" stroke="black" d="M743.261,-532.513C719.569,-526.073 682.952,-515.518 652,-504 618.25,-491.44 608.416,-490.278 578,-471 507.193,-426.121 507.288,-390.452 435,-348 378.257,-314.677 353.367,-329.239 296,-297 258.363,-275.849 220,-279.673 220,-236.5 220,-236.5 220,-236.5 220,-104 220,-40.017 292.491,-67.6555 355,-54 510.321,-20.0689 701.124,-17.6459 780.55,-18.3218"/>
<polygon fill="black" stroke="black" points="780.966,-21.8264 791.003,-18.4348 781.042,-14.8269 780.966,-21.8264"/>
<text text-anchor="middle" x="316.5" y="-275.3" font-family="Times,serif" font-size="14.00">0.031</text>
</g>
<!-- Pf&#45;&gt;Qu -->
<g id="edge83" class="edge"><title>Pf&#45;&gt;Qu</title>
<path fill="none" stroke="black" d="M747.425,-528.137C709.195,-506.624 628.255,-454.515 597,-384 590.516,-369.372 594.786,-363.846 597,-348 600.31,-324.314 639.65,-158.455 656,-141 671.954,-123.968 696.76,-115.213 717.422,-110.718"/>
<polygon fill="black" stroke="black" points="718.317,-114.11 727.477,-108.786 716.996,-107.236 718.317,-114.11"/>
<text text-anchor="middle" x="624.5" y="-318.8" font-family="Times,serif" font-size="14.00">0.033</text>
</g>
<!-- Pf&#45;&gt;Im -->
<g id="edge44" class="edge"><title>Pf&#45;&gt;Im</title>
<path fill="none" stroke="black" d="M767.779,-521.928C768.112,-468.317 777.151,-302.476 873,-228 905.724,-202.573 1025.87,-195.617 1087.69,-193.715"/>
<polygon fill="black" stroke="black" points="1087.91,-197.21 1097.81,-193.433 1087.72,-190.213 1087.91,-197.21"/>
<text text-anchor="middle" x="815.5" y="-362.3" font-family="Times,serif" font-size="14.00">0.102</text>
</g>
<!-- Pf&#45;&gt;PEU -->
<g id="edge24" class="edge"><title>Pf&#45;&gt;PEU</title>
<path fill="none" stroke="black" d="M794.987,-537.084C844.811,-533.218 954.424,-523.17 1045,-504 1067.7,-499.196 1072.33,-493.951 1095,-489 1151.56,-476.647 1170.71,-493.615 1224,-471 1247.9,-460.858 1245.74,-444.237 1270,-435 1387.78,-390.156 1431.98,-452.189 1553,-417 1559.52,-415.103 1589.92,-398.104 1613.81,-384.445"/>
<polygon fill="black" stroke="black" points="1615.65,-387.424 1622.58,-379.413 1612.17,-381.352 1615.65,-387.424"/>
<text text-anchor="middle" x="1290.5" y="-449.3" font-family="Times,serif" font-size="14.00">0.203</text>
</g>
<!-- Pf&#45;&gt;SA -->
<g id="edge76" class="edge"><title>Pf&#45;&gt;SA</title>
<path fill="none" stroke="black" d="M794.957,-537.199C831.816,-534.01 899.474,-525.531 953,-504 964.322,-499.446 964.739,-493.704 976,-489 1010.83,-474.449 1022.52,-480.677 1059,-471 1065.77,-469.205 1072.95,-467.094 1079.79,-464.98"/>
<polygon fill="black" stroke="black" points="1081,-468.268 1089.48,-461.919 1078.89,-461.593 1081,-468.268"/>
<text text-anchor="middle" x="996.5" y="-492.8" font-family="Times,serif" font-size="14.00">0.047</text>
</g>
<!-- Pf&#45;&gt;JR -->
<g id="edge62" class="edge"><title>Pf&#45;&gt;JR</title>
<path fill="none" stroke="black" d="M794.86,-542.208C863.488,-545.553 1043.82,-556.033 1100,-576 1111.5,-580.087 1112.49,-584.802 1123,-591 1134.52,-597.793 1147.47,-604.793 1158.83,-610.731"/>
<polygon fill="black" stroke="black" points="1157.44,-613.952 1167.93,-615.44 1160.65,-607.735 1157.44,-613.952"/>
<text text-anchor="middle" x="1139" y="-579.8" font-family="Times,serif" font-size="14.00">0.07</text>
</g>
<!-- JR&#45;&gt;Use -->
<g id="edge34" class="edge"><title>JR&#45;&gt;Use</title>
<path fill="none" stroke="black" d="M1211.31,-637.14C1226.91,-643.769 1248.07,-653.25 1266,-663 1335.9,-701.008 1413.53,-753.462 1453.3,-781.141"/>
<polygon fill="black" stroke="black" points="1451.45,-784.12 1461.65,-786.979 1455.46,-778.382 1451.45,-784.12"/>
<text text-anchor="middle" x="1399.5" y="-710.3" font-family="Times,serif" font-size="14.00">0.151</text>
</g>
<!-- JR&#45;&gt;BI -->
<g id="edge87" class="edge"><title>JR&#45;&gt;BI</title>
<path fill="none" stroke="black" d="M1183.91,-644.73C1179.73,-655.738 1172.72,-669.612 1162,-678 1133.69,-700.14 1092.9,-708.388 1063.38,-711.401"/>
<polygon fill="black" stroke="black" points="1062.72,-707.945 1053.06,-712.291 1063.32,-714.919 1062.72,-707.945"/>
<text text-anchor="middle" x="1195.5" y="-666.8" font-family="Times,serif" font-size="14.00">0.015</text>
</g>
<!-- JR&#45;&gt;Qu -->
<g id="edge86" class="edge"><title>JR&#45;&gt;Qu</title>
<path fill="none" stroke="black" d="M1161.81,-625.081C1055.43,-620.821 670.206,-598.939 608,-504 586.798,-471.642 705.01,-210.067 719,-174 724.761,-159.146 725.773,-155.198 733,-141 734.742,-137.578 736.687,-134.036 738.672,-130.579"/>
<polygon fill="black" stroke="black" points="741.809,-132.151 743.904,-121.766 735.79,-128.578 741.809,-132.151"/>
<text text-anchor="middle" x="667.5" y="-362.3" font-family="Times,serif" font-size="14.00">0.018</text>
</g>
<!-- JR&#45;&gt;Im -->
<g id="edge42" class="edge"><title>JR&#45;&gt;Im</title>
<path fill="none" stroke="black" d="M1202.68,-611.451C1213.82,-598.538 1228.69,-578.577 1235,-558 1239.69,-542.702 1238.22,-537.673 1235,-522 1223.55,-466.203 1153.62,-445.831 1190,-402 1217.72,-368.595 1258.28,-417.405 1286,-384 1296.22,-371.688 1292.26,-362.723 1286,-348 1259,-284.537 1191.88,-234.477 1153.36,-209.804"/>
<polygon fill="black" stroke="black" points="1155.02,-206.711 1144.69,-204.365 1151.3,-212.642 1155.02,-206.711"/>
<text text-anchor="middle" x="1206" y="-405.8" font-family="Times,serif" font-size="14.00">0.11</text>
</g>
<!-- JR&#45;&gt;PEU -->
<g id="edge25" class="edge"><title>JR&#45;&gt;PEU</title>
<path fill="none" stroke="black" d="M1215.31,-622.057C1277.42,-611.729 1436.02,-579.306 1544,-504 1585.19,-475.272 1615.88,-424.02 1631.78,-393.003"/>
<polygon fill="black" stroke="black" points="1635.09,-394.209 1636.42,-383.698 1628.82,-391.087 1635.09,-394.209"/>
<text text-anchor="middle" x="1573.5" y="-492.8" font-family="Times,serif" font-size="14.00">0.2</text>
</g>
<!-- JR&#45;&gt;SA -->
<g id="edge77" class="edge"><title>JR&#45;&gt;SA</title>
<path fill="none" stroke="black" d="M1179.2,-610.227C1172.71,-600.15 1163.81,-586.964 1155,-576 1148.11,-567.423 1142.07,-568.225 1138,-558 1132.09,-543.132 1136.25,-537.904 1138,-522 1138.89,-513.854 1141.11,-512.146 1142,-504 1142.73,-497.373 1144.26,-495.272 1142,-489 1140.32,-484.328 1137.71,-479.837 1134.73,-475.722"/>
<polygon fill="black" stroke="black" points="1137.33,-473.372 1128.28,-467.862 1131.92,-477.813 1137.33,-473.372"/>
<text text-anchor="middle" x="1158.5" y="-536.3" font-family="Times,serif" font-size="14.00">0.047</text>
</g>
<!-- JR&#45;&gt;Pf -->
<g id="edge79" class="edge"><title>JR&#45;&gt;Pf</title>
<path fill="none" stroke="black" d="M1161.69,-626.187C1113.53,-625.678 1011.06,-620.805 931,-591 919.563,-586.742 919.186,-580.881 908,-576 874.255,-561.276 833.12,-551.923 804.198,-546.627"/>
<polygon fill="black" stroke="black" points="804.586,-543.141 794.131,-544.856 803.374,-550.036 804.586,-543.141"/>
<text text-anchor="middle" x="951.5" y="-579.8" font-family="Times,serif" font-size="14.00">0.044</text>
</g>
</g>
</svg>
