<?xml version="1.0" encoding="UTF-8" standalone="no"?>
<!DOCTYPE svg PUBLIC "-//W3C//DTD SVG 1.1//EN"
 "http://www.w3.org/Graphics/SVG/1.1/DTD/svg11.dtd">
<!-- Generated by graphviz version 2.38.0 (20140413.2041)
 -->
<!-- Title: G Pages: 1 -->
<svg width="2008pt" height="827pt"
 viewBox="0.00 0.00 2008.00 827.00" xmlns="http://www.w3.org/2000/svg" xmlns:xlink="http://www.w3.org/1999/xlink">
<g id="graph0" class="graph" transform="scale(1 1) rotate(0) translate(4 823)">
<title>G</title>
<polygon fill="white" stroke="none" points="-4,4 -4,-823 2004,-823 2004,4 -4,4"/>
<!-- Use -->
<g id="node1" class="node"><title>Use</title>
<ellipse fill="none" stroke="black" cx="739" cy="-801" rx="28.6953" ry="18"/>
<text text-anchor="middle" x="739" y="-797.3" font-family="Times,serif" font-size="14.00">Use</text>
</g>
<!-- BI -->
<g id="node2" class="node"><title>BI</title>
<ellipse fill="none" stroke="black" cx="876" cy="-714" rx="27" ry="18"/>
<text text-anchor="middle" x="876" y="-710.3" font-family="Times,serif" font-size="14.00">BI</text>
</g>
<!-- Use&#45;&gt;BI -->
<g id="edge1" class="edge"><title>Use&#45;&gt;BI</title>
<path fill="none" stroke="black" d="M756.967,-786.676C771.308,-776.251 792.063,-761.622 811,-750 822.179,-743.139 834.809,-736.17 845.942,-730.275"/>
<polygon fill="black" stroke="black" points="847.638,-733.338 854.877,-725.603 844.394,-727.135 847.638,-733.338"/>
<text text-anchor="middle" x="831.5" y="-753.8" font-family="Times,serif" font-size="14.00">0.493</text>
</g>
<!-- PU -->
<g id="node3" class="node"><title>PU</title>
<ellipse fill="none" stroke="black" cx="1068" cy="-18" rx="27" ry="18"/>
<text text-anchor="middle" x="1068" y="-14.3" font-family="Times,serif" font-size="14.00">PU</text>
</g>
<!-- Use&#45;&gt;PU -->
<g id="edge5" class="edge"><title>Use&#45;&gt;PU</title>
<path fill="none" stroke="black" d="M767.755,-799.696C925.441,-797.939 1681.78,-788.348 1783,-765 1836.12,-752.748 1895,-769.513 1895,-715 1895,-715 1895,-715 1895,-104 1895,-59.0166 1850.21,-66.5183 1807,-54 1739.44,-34.4263 1246.46,-22.7245 1105.53,-19.7539"/>
<polygon fill="black" stroke="black" points="1105.32,-16.2488 1095.25,-19.5395 1105.17,-23.2472 1105.32,-16.2488"/>
<text text-anchor="middle" x="1915.5" y="-405.8" font-family="Times,serif" font-size="14.00">0.343</text>
</g>
<!-- Qu -->
<g id="node4" class="node"><title>Qu</title>
<ellipse fill="none" stroke="black" cx="597" cy="-105" rx="27" ry="18"/>
<text text-anchor="middle" x="597" y="-101.3" font-family="Times,serif" font-size="14.00">Qu</text>
</g>
<!-- Use&#45;&gt;Qu -->
<g id="edge23" class="edge"><title>Use&#45;&gt;Qu</title>
<path fill="none" stroke="black" d="M710.213,-800.101C600.875,-800.228 211.544,-798.282 93,-765 47.8186,-752.315 0,-761.928 0,-715 0,-715 0,-715 0,-321.5 0,-198.091 94.3756,-181.356 211,-141 274.878,-118.896 476.232,-109.93 559.939,-107.094"/>
<polygon fill="black" stroke="black" points="560.134,-110.59 570.013,-106.763 559.904,-103.593 560.134,-110.59"/>
<text text-anchor="middle" x="20.5" y="-449.3" font-family="Times,serif" font-size="14.00">0.189</text>
</g>
<!-- Im -->
<g id="node5" class="node"><title>Im</title>
<ellipse fill="none" stroke="black" cx="1145" cy="-192" rx="27" ry="18"/>
<text text-anchor="middle" x="1145" y="-188.3" font-family="Times,serif" font-size="14.00">Im</text>
</g>
<!-- Use&#45;&gt;Im -->
<g id="edge17" class="edge"><title>Use&#45;&gt;Im</title>
<path fill="none" stroke="black" d="M767.758,-799.645C923.768,-796.984 1665.04,-774.697 1761,-591 1769.51,-574.704 1760.63,-548.642 1748,-522 1677.76,-373.799 1668.38,-307.613 1525,-228 1466.82,-195.693 1265.91,-192.538 1182.14,-192.677"/>
<polygon fill="black" stroke="black" points="1182.04,-189.177 1172.05,-192.71 1182.06,-196.177 1182.04,-189.177"/>
<text text-anchor="middle" x="1759.5" y="-492.8" font-family="Times,serif" font-size="14.00">0.207</text>
</g>
<!-- ENJ -->
<g id="node6" class="node"><title>ENJ</title>
<ellipse fill="none" stroke="black" cx="595" cy="-279" rx="29.795" ry="18"/>
<text text-anchor="middle" x="595" y="-275.3" font-family="Times,serif" font-size="14.00">ENJ</text>
</g>
<!-- Use&#45;&gt;ENJ -->
<g id="edge75" class="edge"><title>Use&#45;&gt;ENJ</title>
<path fill="none" stroke="black" d="M710.376,-800.073C641.942,-799.719 463.775,-795.656 319,-765 252.721,-750.965 175,-782.748 175,-715 175,-715 175,-715 175,-582.5 175,-395.063 453.831,-312.245 557.116,-287.997"/>
<polygon fill="black" stroke="black" points="558.152,-291.35 567.117,-285.704 556.588,-284.527 558.152,-291.35"/>
<text text-anchor="middle" x="206.5" y="-536.3" font-family="Times,serif" font-size="14.00">0.033</text>
</g>
<!-- PEU -->
<g id="node7" class="node"><title>PEU</title>
<ellipse fill="none" stroke="black" cx="1358" cy="-366" rx="31.3957" ry="18"/>
<text text-anchor="middle" x="1358" y="-362.3" font-family="Times,serif" font-size="14.00">PEU</text>
</g>
<!-- Use&#45;&gt;PEU -->
<g id="edge18" class="edge"><title>Use&#45;&gt;PEU</title>
<path fill="none" stroke="black" d="M767.683,-800.032C921.387,-800.065 1641.79,-798.434 1674,-765 1717.93,-719.397 1641.84,-519.383 1548,-435 1505.61,-396.884 1440.35,-379.75 1398.42,-372.324"/>
<polygon fill="black" stroke="black" points="1398.73,-368.827 1388.29,-370.638 1397.58,-375.732 1398.73,-368.827"/>
<text text-anchor="middle" x="1673.5" y="-579.8" font-family="Times,serif" font-size="14.00">0.206</text>
</g>
<!-- SA -->
<g id="node8" class="node"><title>SA</title>
<ellipse fill="none" stroke="black" cx="772" cy="-453" rx="27" ry="18"/>
<text text-anchor="middle" x="772" y="-449.3" font-family="Times,serif" font-size="14.00">SA</text>
</g>
<!-- Use&#45;&gt;SA -->
<g id="edge57" class="edge"><title>Use&#45;&gt;SA</title>
<path fill="none" stroke="black" d="M710.373,-800.95C673.826,-800.753 610.166,-795.529 567,-765 504.655,-720.907 475.63,-682.864 495,-609 512.255,-543.202 527.51,-515.874 590,-489 637.553,-468.55 697.213,-459.98 734.984,-456.435"/>
<polygon fill="black" stroke="black" points="735.37,-459.915 745.029,-455.563 734.764,-452.941 735.37,-459.915"/>
<text text-anchor="middle" x="515.5" y="-623.3" font-family="Times,serif" font-size="14.00">0.061</text>
</g>
<!-- Pf -->
<g id="node9" class="node"><title>Pf</title>
<ellipse fill="none" stroke="black" cx="749" cy="-540" rx="27" ry="18"/>
<text text-anchor="middle" x="749" y="-536.3" font-family="Times,serif" font-size="14.00">Pf</text>
</g>
<!-- Use&#45;&gt;Pf -->
<g id="edge59" class="edge"><title>Use&#45;&gt;Pf</title>
<path fill="none" stroke="black" d="M726.551,-784.652C697.249,-746.548 629.626,-645.676 674,-576 682.717,-562.312 698.34,-553.89 713.078,-548.751"/>
<polygon fill="black" stroke="black" points="714.511,-551.972 723.045,-545.693 712.458,-545.28 714.511,-551.972"/>
<text text-anchor="middle" x="688.5" y="-666.8" font-family="Times,serif" font-size="14.00">0.061</text>
</g>
<!-- JR -->
<g id="node10" class="node"><title>JR</title>
<ellipse fill="none" stroke="black" cx="1083" cy="-627" rx="27" ry="18"/>
<text text-anchor="middle" x="1083" y="-623.3" font-family="Times,serif" font-size="14.00">JR</text>
</g>
<!-- Use&#45;&gt;JR -->
<g id="edge67" class="edge"><title>Use&#45;&gt;JR</title>
<path fill="none" stroke="black" d="M744.035,-783.101C751.874,-759.805 769.267,-718.196 799,-696 873.581,-640.324 987.237,-629.531 1045.58,-627.88"/>
<polygon fill="black" stroke="black" points="1045.88,-631.374 1055.8,-627.669 1045.73,-624.376 1045.88,-631.374"/>
<text text-anchor="middle" x="819.5" y="-710.3" font-family="Times,serif" font-size="14.00">0.047</text>
</g>
<!-- BI&#45;&gt;Use -->
<g id="edge2" class="edge"><title>BI&#45;&gt;Use</title>
<path fill="none" stroke="black" d="M871.659,-732.021C868.069,-742.869 861.915,-756.446 852,-765 831.139,-782.997 801.112,-791.743 777.254,-795.992"/>
<polygon fill="black" stroke="black" points="776.446,-792.576 767.117,-797.598 777.541,-799.49 776.446,-792.576"/>
<text text-anchor="middle" x="884.5" y="-753.8" font-family="Times,serif" font-size="14.00">0.488</text>
</g>
<!-- BI&#45;&gt;PU -->
<g id="edge7" class="edge"><title>BI&#45;&gt;PU</title>
<path fill="none" stroke="black" d="M902.169,-709.556C933.116,-705.62 986.213,-699.298 1032,-696 1060.28,-693.963 1517.53,-692.318 1542,-678 1561.91,-666.353 1758,-346.562 1758,-323.5 1758,-323.5 1758,-323.5 1758,-104 1758,-47.0417 1695.45,-67.0381 1640,-54 1537.84,-29.9762 1215.58,-21.7783 1105.38,-19.6378"/>
<polygon fill="black" stroke="black" points="1105.15,-16.133 1095.09,-19.4437 1105.02,-23.1318 1105.15,-16.133"/>
<text text-anchor="middle" x="1768.5" y="-362.3" font-family="Times,serif" font-size="14.00">0.298</text>
</g>
<!-- BI&#45;&gt;Qu -->
<g id="edge28" class="edge"><title>BI&#45;&gt;Qu</title>
<path fill="none" stroke="black" d="M856.938,-701.14C852.809,-699.072 848.367,-697.201 844,-696 764.629,-674.164 550.586,-708.185 474,-678 439.154,-664.266 397.328,-597.001 322,-522 298.145,-498.248 279.605,-501.792 266,-471 212.304,-349.472 231.399,-287.782 300,-174 312.806,-152.76 322.018,-150.323 345,-141 417.03,-111.78 509.114,-106.194 559.642,-105.556"/>
<polygon fill="black" stroke="black" points="559.795,-109.056 569.772,-105.489 559.748,-102.056 559.795,-109.056"/>
<text text-anchor="middle" x="266.5" y="-405.8" font-family="Times,serif" font-size="14.00">0.174</text>
</g>
<!-- BI&#45;&gt;Im -->
<g id="edge19" class="edge"><title>BI&#45;&gt;Im</title>
<path fill="none" stroke="black" d="M902.169,-709.567C933.118,-705.642 986.215,-699.331 1032,-696 1059.17,-694.023 1501.69,-696.158 1522,-678 1582.14,-624.225 1556.36,-385.421 1517,-315 1500.74,-285.916 1493.32,-278.559 1465,-261 1442.42,-246.999 1432.48,-253.317 1408,-243 1394.99,-237.517 1393.4,-232.439 1380,-228 1312.47,-205.634 1229.28,-197.519 1182.17,-194.604"/>
<polygon fill="black" stroke="black" points="1182.31,-191.106 1172.12,-194.028 1181.91,-198.095 1182.31,-191.106"/>
<text text-anchor="middle" x="1575.5" y="-449.3" font-family="Times,serif" font-size="14.00">0.205</text>
</g>
<!-- BI&#45;&gt;ENJ -->
<g id="edge40" class="edge"><title>BI&#45;&gt;ENJ</title>
<path fill="none" stroke="black" d="M856.934,-701.155C852.805,-699.086 848.364,-697.211 844,-696 771.523,-675.881 576.557,-704.066 506,-678 483.402,-669.652 476.724,-664.799 463,-645 422.029,-585.892 398.991,-557.782 420,-489 445.673,-404.948 526.189,-332.86 568.47,-299.608"/>
<polygon fill="black" stroke="black" points="570.862,-302.183 576.633,-293.298 566.581,-296.645 570.862,-302.183"/>
<text text-anchor="middle" x="440.5" y="-492.8" font-family="Times,serif" font-size="14.00">0.101</text>
</g>
<!-- BI&#45;&gt;PEU -->
<g id="edge20" class="edge"><title>BI&#45;&gt;PEU</title>
<path fill="none" stroke="black" d="M902.829,-711.122C944.232,-707.677 1025.83,-698.705 1092,-678 1177.56,-651.225 1201.26,-643.415 1274,-591 1317.61,-559.577 1337.87,-553.836 1358,-504 1372.46,-468.214 1368.59,-422.751 1363.81,-394.256"/>
<polygon fill="black" stroke="black" points="1367.22,-393.428 1361.98,-384.222 1360.33,-394.689 1367.22,-393.428"/>
<text text-anchor="middle" x="1370.5" y="-536.3" font-family="Times,serif" font-size="14.00">0.204</text>
</g>
<!-- BI&#45;&gt;SA -->
<g id="edge65" class="edge"><title>BI&#45;&gt;SA</title>
<path fill="none" stroke="black" d="M885.233,-696.806C898.911,-670.561 921.187,-617.493 904,-576 903.959,-575.901 817.08,-489.071 817,-489 810.844,-483.565 803.951,-477.977 797.446,-472.906"/>
<polygon fill="black" stroke="black" points="799.563,-470.118 789.499,-466.809 795.303,-475.672 799.563,-470.118"/>
<text text-anchor="middle" x="925" y="-579.8" font-family="Times,serif" font-size="14.00">0.05</text>
</g>
<!-- BI&#45;&gt;Pf -->
<g id="edge47" class="edge"><title>BI&#45;&gt;Pf</title>
<path fill="none" stroke="black" d="M851.84,-705.835C825.119,-696.52 783.18,-677.478 763,-645 748.705,-621.994 746.292,-590.633 746.781,-568.381"/>
<polygon fill="black" stroke="black" points="750.283,-568.406 747.215,-558.265 743.29,-568.106 750.283,-568.406"/>
<text text-anchor="middle" x="783.5" y="-623.3" font-family="Times,serif" font-size="14.00">0.079</text>
</g>
<!-- BI&#45;&gt;JR -->
<g id="edge49" class="edge"><title>BI&#45;&gt;JR</title>
<path fill="none" stroke="black" d="M898.547,-703.742C935.487,-688.573 1009.01,-658.384 1051.22,-641.05"/>
<polygon fill="black" stroke="black" points="1052.56,-644.283 1060.48,-637.247 1049.9,-637.808 1052.56,-644.283"/>
<text text-anchor="middle" x="1012.5" y="-666.8" font-family="Times,serif" font-size="14.00">0.076</text>
</g>
<!-- PU&#45;&gt;Use -->
<g id="edge3" class="edge"><title>PU&#45;&gt;Use</title>
<path fill="none" stroke="black" d="M1095.01,-18.9628C1230.54,-18.9309 1833.06,-20.6774 1909,-54 1937.78,-66.6278 1959,-72.573 1959,-104 1959,-715 1959,-715 1959,-715 1959,-746.427 1937.85,-752.541 1909,-765 1855.99,-787.893 974.609,-797.726 777.774,-799.642"/>
<polygon fill="black" stroke="black" points="777.58,-796.144 767.614,-799.74 777.647,-803.144 777.58,-796.144"/>
<text text-anchor="middle" x="1979.5" y="-405.8" font-family="Times,serif" font-size="14.00">0.386</text>
</g>
<!-- PU&#45;&gt;BI -->
<g id="edge4" class="edge"><title>PU&#45;&gt;BI</title>
<path fill="none" stroke="black" d="M1095.24,-19.3715C1216.97,-21.1636 1707.87,-29.8419 1772,-54 1805.45,-66.6016 1835,-68.2533 1835,-104 1835,-323.5 1835,-323.5 1835,-323.5 1835,-464.481 1720.03,-457.926 1643,-576 1615.93,-617.498 1639.07,-650.287 1598,-678 1571.92,-695.596 1063.38,-693.794 1032,-696 990.858,-698.892 943.822,-704.308 912.25,-708.252"/>
<polygon fill="black" stroke="black" points="911.648,-704.8 902.167,-709.528 912.527,-711.745 911.648,-704.8"/>
<text text-anchor="middle" x="1850" y="-362.3" font-family="Times,serif" font-size="14.00">0.35</text>
</g>
<!-- PU&#45;&gt;Qu -->
<g id="edge29" class="edge"><title>PU&#45;&gt;Qu</title>
<path fill="none" stroke="black" d="M1041.06,-19.5071C949.411,-21.4485 653.436,-29.5696 619,-54 611.245,-59.5021 606.189,-68.3642 602.909,-77.1104"/>
<polygon fill="black" stroke="black" points="599.539,-76.1622 599.91,-86.7505 606.223,-78.2416 599.539,-76.1622"/>
<text text-anchor="middle" x="639.5" y="-57.8" font-family="Times,serif" font-size="14.00">0.173</text>
</g>
<!-- PU&#45;&gt;Im -->
<g id="edge32" class="edge"><title>PU&#45;&gt;Im</title>
<path fill="none" stroke="black" d="M1067.22,-36.0886C1066.91,-57.452 1068.64,-94.6561 1082,-123 1090.83,-141.74 1106.72,-158.828 1120.32,-171.187"/>
<polygon fill="black" stroke="black" points="1118.17,-173.951 1128,-177.894 1122.77,-168.679 1118.17,-173.951"/>
<text text-anchor="middle" x="1102.5" y="-101.3" font-family="Times,serif" font-size="14.00">0.154</text>
</g>
<!-- PU&#45;&gt;ENJ -->
<g id="edge31" class="edge"><title>PU&#45;&gt;ENJ</title>
<path fill="none" stroke="black" d="M1042.36,-24.5443C1018.34,-30.2425 981.785,-40.2264 952,-54 914.068,-71.5413 830.261,-135.223 794,-156 747.781,-182.483 735.713,-188.447 687,-210 666.544,-219.051 658.438,-215.335 640,-228 629.682,-235.087 620.115,-245.005 612.479,-254.141"/>
<polygon fill="black" stroke="black" points="609.545,-252.208 606.044,-262.207 615.016,-256.573 609.545,-252.208"/>
<text text-anchor="middle" x="838.5" y="-144.8" font-family="Times,serif" font-size="14.00">0.158</text>
</g>
<!-- PU&#45;&gt;PEU -->
<g id="edge11" class="edge"><title>PU&#45;&gt;PEU</title>
<path fill="none" stroke="black" d="M1094.99,-19.0896C1196.1,-19.6568 1548.73,-23.8015 1588,-54 1685.29,-128.816 1684.76,-267.72 1579,-330 1549.28,-347.5 1454.48,-357.562 1399.16,-362.085"/>
<polygon fill="black" stroke="black" points="1398.68,-358.612 1388.99,-362.891 1399.23,-365.59 1398.68,-358.612"/>
<text text-anchor="middle" x="1680.5" y="-188.3" font-family="Times,serif" font-size="14.00">0.232</text>
</g>
<!-- PU&#45;&gt;SA -->
<g id="edge62" class="edge"><title>PU&#45;&gt;SA</title>
<path fill="none" stroke="black" d="M1057.3,-34.6454C1012.82,-99.7176 842.269,-349.208 788.404,-428.004"/>
<polygon fill="black" stroke="black" points="785.464,-426.103 782.71,-436.333 791.243,-430.053 785.464,-426.103"/>
<text text-anchor="middle" x="945.5" y="-231.8" font-family="Times,serif" font-size="14.00">0.057</text>
</g>
<!-- PU&#45;&gt;Pf -->
<g id="edge69" class="edge"><title>PU&#45;&gt;Pf</title>
<path fill="none" stroke="black" d="M1040.93,-18.9448C887.799,-18.7611 135.809,-19.6154 102,-54 -61.8693,-220.662 68.5252,-236.735 98,-297 131.396,-365.282 173.833,-354.281 233,-402 260.507,-424.185 322.349,-490.484 355,-504 418.956,-530.474 626.507,-536.957 711.841,-538.517"/>
<polygon fill="black" stroke="black" points="711.803,-542.016 721.861,-538.687 711.922,-535.017 711.803,-542.016"/>
<text text-anchor="middle" x="118.5" y="-275.3" font-family="Times,serif" font-size="14.00">0.046</text>
</g>
<!-- PU&#45;&gt;JR -->
<g id="edge73" class="edge"><title>PU&#45;&gt;JR</title>
<path fill="none" stroke="black" d="M1095.06,-19.6913C1198.2,-22.4696 1563.32,-33.6625 1611,-54 1673.32,-80.5793 1685.37,-109.159 1705,-174 1722.57,-232.029 1686.93,-252.266 1646,-297 1580.54,-368.546 1527.77,-352.383 1477,-435 1447.7,-482.683 1490.18,-519.037 1450,-558 1403.21,-603.369 1203.37,-619.424 1119.88,-624.221"/>
<polygon fill="black" stroke="black" points="1119.62,-620.73 1109.83,-624.776 1120.01,-627.719 1119.62,-620.73"/>
<text text-anchor="middle" x="1648.5" y="-318.8" font-family="Times,serif" font-size="14.00">0.034</text>
</g>
<!-- Qu&#45;&gt;Use -->
<g id="edge6" class="edge"><title>Qu&#45;&gt;Use</title>
<path fill="none" stroke="black" d="M570.006,-106.289C496.801,-107.438 296.054,-113.115 237,-141 197.783,-159.518 203.232,-184.71 168,-210 126.502,-239.788 91.9399,-217.599 65,-261 9.96284,-349.666 77,-391.141 77,-495.5 77,-715 77,-715 77,-715 77,-768.298 134.315,-751.987 186,-765 283.617,-789.577 591.206,-797.361 700.223,-799.384"/>
<polygon fill="black" stroke="black" points="700.377,-802.887 710.438,-799.567 700.502,-795.888 700.377,-802.887"/>
<text text-anchor="middle" x="96.5" y="-449.3" font-family="Times,serif" font-size="14.00">0.299</text>
</g>
<!-- Qu&#45;&gt;BI -->
<g id="edge10" class="edge"><title>Qu&#45;&gt;BI</title>
<path fill="none" stroke="black" d="M570.051,-106.984C493.324,-110.029 277.692,-120.355 254,-141 200.199,-187.881 255.293,-237.432 216,-297 195.199,-328.535 171.31,-318.271 148,-348 143.86,-353.279 115.437,-392.231 125,-417 145.037,-468.9 164.83,-479.957 215,-504 248.648,-520.125 269.332,-496.966 297,-522 351.09,-570.94 289.734,-634.114 348,-678 392.05,-711.179 790.739,-681.7 844,-696 845.23,-696.33 846.466,-696.715 847.699,-697.143"/>
<polygon fill="black" stroke="black" points="846.379,-700.385 856.95,-701.098 849.131,-693.948 846.379,-700.385"/>
<text text-anchor="middle" x="145.5" y="-405.8" font-family="Times,serif" font-size="14.00">0.277</text>
</g>
<!-- Qu&#45;&gt;PU -->
<g id="edge16" class="edge"><title>Qu&#45;&gt;PU</title>
<path fill="none" stroke="black" d="M616.323,-92.254C636.802,-80.4268 670.475,-62.7206 702,-54 818.794,-21.6916 963.641,-18.0537 1030.71,-18.3312"/>
<polygon fill="black" stroke="black" points="1030.76,-21.8316 1040.78,-18.4055 1030.81,-14.8318 1030.76,-21.8316"/>
<text text-anchor="middle" x="722.5" y="-57.8" font-family="Times,serif" font-size="14.00">0.211</text>
</g>
<!-- Qu&#45;&gt;Im -->
<g id="edge30" class="edge"><title>Qu&#45;&gt;Im</title>
<path fill="none" stroke="black" d="M620.053,-114.441C636.998,-120.95 660.39,-130.579 680,-141 690.777,-146.727 691.448,-152.063 703,-156 722.044,-162.49 1004.86,-181.729 1107.85,-188.56"/>
<polygon fill="black" stroke="black" points="1107.88,-192.069 1118.09,-189.237 1108.34,-185.085 1107.88,-192.069"/>
<text text-anchor="middle" x="719" y="-144.8" font-family="Times,serif" font-size="14.00">0.16</text>
</g>
<!-- Qu&#45;&gt;ENJ -->
<g id="edge42" class="edge"><title>Qu&#45;&gt;ENJ</title>
<path fill="none" stroke="black" d="M594.763,-123.315C591.709,-149.32 586.944,-200.002 590,-243 590.183,-245.572 590.44,-248.241 590.743,-250.908"/>
<polygon fill="black" stroke="black" points="587.291,-251.507 592.072,-260.962 594.231,-250.59 587.291,-251.507"/>
<text text-anchor="middle" x="602.5" y="-188.3" font-family="Times,serif" font-size="14.00">0.1</text>
</g>
<!-- Qu&#45;&gt;PEU -->
<g id="edge12" class="edge"><title>Qu&#45;&gt;PEU</title>
<path fill="none" stroke="black" d="M624.294,-105.944C721.406,-106.29 1058.75,-112.158 1328,-174 1394.62,-189.301 1433.07,-171.82 1472,-228 1500.22,-268.726 1462.17,-295.102 1427,-330 1417.69,-339.239 1405.44,-346.522 1393.85,-351.997"/>
<polygon fill="black" stroke="black" points="1392.09,-348.946 1384.35,-356.175 1394.91,-355.354 1392.09,-348.946"/>
<text text-anchor="middle" x="1500.5" y="-231.8" font-family="Times,serif" font-size="14.00">0.229</text>
</g>
<!-- Qu&#45;&gt;SA -->
<g id="edge63" class="edge"><title>Qu&#45;&gt;SA</title>
<path fill="none" stroke="black" d="M606.225,-122.202C612.757,-132.705 622.245,-146.204 633,-156 668.051,-187.926 684.055,-186.096 725,-210 738.759,-218.032 748.051,-214.193 756,-228 763.53,-241.079 751.133,-246.237 748,-261 733.577,-328.962 742.038,-349.383 758,-417 758.714,-420.023 759.644,-423.129 760.686,-426.182"/>
<polygon fill="black" stroke="black" points="757.44,-427.492 764.268,-435.593 763.982,-425.002 757.44,-427.492"/>
<text text-anchor="middle" x="768.5" y="-275.3" font-family="Times,serif" font-size="14.00">0.053</text>
</g>
<!-- Qu&#45;&gt;Pf -->
<g id="edge58" class="edge"><title>Qu&#45;&gt;Pf</title>
<path fill="none" stroke="black" d="M570.079,-108.114C522.512,-112.271 425.977,-122.733 398,-141 324.953,-188.696 325.349,-245.002 345,-330 347.423,-340.482 421.199,-497.812 430,-504 474.525,-535.308 636.914,-539.213 711.311,-539.308"/>
<polygon fill="black" stroke="black" points="711.629,-542.808 721.625,-539.297 711.621,-535.808 711.629,-542.808"/>
<text text-anchor="middle" x="365.5" y="-318.8" font-family="Times,serif" font-size="14.00">0.061</text>
</g>
<!-- Qu&#45;&gt;JR -->
<g id="edge68" class="edge"><title>Qu&#45;&gt;JR</title>
<path fill="none" stroke="black" d="M611.533,-120.2C623.303,-131.108 640.712,-145.959 658,-156 677.343,-167.234 684.121,-165.975 705,-174 767.251,-197.926 790.48,-189.591 845,-228 850.217,-231.675 917.631,-309.075 920,-315 960.148,-415.402 871.078,-468.664 932,-558 958.022,-596.158 1010.84,-613.203 1046.59,-620.607"/>
<polygon fill="black" stroke="black" points="1046.15,-624.087 1056.63,-622.529 1047.47,-617.212 1046.15,-624.087"/>
<text text-anchor="middle" x="951.5" y="-362.3" font-family="Times,serif" font-size="14.00">0.047</text>
</g>
<!-- Im&#45;&gt;Use -->
<g id="edge8" class="edge"><title>Im&#45;&gt;Use</title>
<path fill="none" stroke="black" d="M1172.01,-193.919C1263.24,-197.187 1556.32,-209.067 1594,-228 1677.78,-270.09 1655.85,-335.361 1736,-384 1759.44,-398.223 1773.36,-385.169 1795,-402 1831.25,-430.196 1839,-449.573 1839,-495.5 1839,-715 1839,-715 1839,-715 1839,-774.423 1773.12,-752.638 1715,-765 1531.6,-804.006 936.617,-801.738 778.103,-800.399"/>
<polygon fill="black" stroke="black" points="777.909,-796.897 767.878,-800.308 777.847,-803.897 777.909,-796.897"/>
<text text-anchor="middle" x="1859.5" y="-492.8" font-family="Times,serif" font-size="14.00">0.293</text>
</g>
<!-- Im&#45;&gt;BI -->
<g id="edge34" class="edge"><title>Im&#45;&gt;BI</title>
<path fill="none" stroke="black" d="M1172.15,-192.883C1220.92,-194.179 1323.68,-204.002 1382,-261 1445,-322.573 1536.77,-541.278 1501,-591 1456.93,-652.268 1412.81,-625.11 1340,-645 1272.06,-663.562 1254.52,-666.69 1185,-678 1158.66,-682.285 988.716,-700.826 912.679,-709.048"/>
<polygon fill="black" stroke="black" points="912.163,-705.583 902.597,-710.137 912.915,-712.543 912.163,-705.583"/>
<text text-anchor="middle" x="1513.5" y="-449.3" font-family="Times,serif" font-size="14.00">0.121</text>
</g>
<!-- Im&#45;&gt;PU -->
<g id="edge38" class="edge"><title>Im&#45;&gt;PU</title>
<path fill="none" stroke="black" d="M1143.86,-174.014C1141.88,-152.756 1136.64,-115.661 1123,-87 1114.86,-69.9057 1101.6,-53.3318 1090.14,-40.8266"/>
<polygon fill="black" stroke="black" points="1092.36,-38.0814 1082.94,-33.2319 1087.28,-42.8972 1092.36,-38.0814"/>
<text text-anchor="middle" x="1156.5" y="-101.3" font-family="Times,serif" font-size="14.00">0.114</text>
</g>
<!-- Im&#45;&gt;Qu -->
<g id="edge39" class="edge"><title>Im&#45;&gt;Qu</title>
<path fill="none" stroke="black" d="M1117.96,-191.21C1069.79,-190.752 966.589,-185.977 886,-156 874.562,-151.745 874.446,-145.235 863,-141 785.145,-112.195 686.771,-106.534 634.182,-105.752"/>
<polygon fill="black" stroke="black" points="634.019,-102.251 623.986,-105.654 633.952,-109.25 634.019,-102.251"/>
<text text-anchor="middle" x="906.5" y="-144.8" font-family="Times,serif" font-size="14.00">0.107</text>
</g>
<!-- Im&#45;&gt;ENJ -->
<g id="edge82" class="edge"><title>Im&#45;&gt;ENJ</title>
<path fill="none" stroke="black" d="M1117.81,-193.299C1053.19,-194.463 885.608,-200.159 749,-228 743.011,-229.221 674.057,-251.868 630.473,-266.26"/>
<polygon fill="black" stroke="black" points="629.188,-262.998 620.791,-269.459 631.384,-269.645 629.188,-262.998"/>
<text text-anchor="middle" x="765" y="-231.8" font-family="Times,serif" font-size="14.00">0.02</text>
</g>
<!-- Im&#45;&gt;PEU -->
<g id="edge15" class="edge"><title>Im&#45;&gt;PEU</title>
<path fill="none" stroke="black" d="M1171.74,-195.423C1200.45,-199.002 1246.59,-207.64 1281,-228 1321.47,-251.945 1342.35,-305.743 1351.67,-338.345"/>
<polygon fill="black" stroke="black" points="1348.32,-339.374 1354.3,-348.121 1355.08,-337.555 1348.32,-339.374"/>
<text text-anchor="middle" x="1357.5" y="-275.3" font-family="Times,serif" font-size="14.00">0.215</text>
</g>
<!-- Im&#45;&gt;SA -->
<g id="edge55" class="edge"><title>Im&#45;&gt;SA</title>
<path fill="none" stroke="black" d="M1118.88,-196.616C1091.22,-201.175 1046.82,-210.609 1012,-228 956.238,-255.853 945.714,-270.567 902,-315 861.977,-355.682 865.554,-377.883 824,-417 816.901,-423.683 808.402,-429.975 800.352,-435.331"/>
<polygon fill="black" stroke="black" points="798.418,-432.413 791.881,-440.75 802.191,-438.31 798.418,-432.413"/>
<text text-anchor="middle" x="922.5" y="-318.8" font-family="Times,serif" font-size="14.00">0.063</text>
</g>
<!-- Im&#45;&gt;Pf -->
<g id="edge74" class="edge"><title>Im&#45;&gt;Pf</title>
<path fill="none" stroke="black" d="M1147.63,-209.921C1151.17,-230.797 1158.28,-267.183 1169,-297 1174.14,-311.305 1183.02,-315.649 1178,-330 1167.88,-358.962 1160.65,-367.163 1135,-384 1132.73,-385.492 948.487,-433.901 946,-435 893.899,-458.02 888.742,-478.122 838,-504 820.072,-513.143 799.169,-521.474 782.127,-527.713"/>
<polygon fill="black" stroke="black" points="780.821,-524.463 772.591,-531.135 783.185,-531.052 780.821,-524.463"/>
<text text-anchor="middle" x="1191.5" y="-362.3" font-family="Times,serif" font-size="14.00">0.033</text>
</g>
<!-- Im&#45;&gt;JR -->
<g id="edge52" class="edge"><title>Im&#45;&gt;JR</title>
<path fill="none" stroke="black" d="M1161.87,-206.06C1169.37,-212.286 1178.06,-220.091 1185,-228 1196.62,-241.252 1198.87,-245.36 1207,-261 1251.07,-345.773 1288.81,-382.42 1253,-471 1226.21,-537.267 1153.79,-586.633 1112.64,-610.342"/>
<polygon fill="black" stroke="black" points="1110.87,-607.322 1103.87,-615.278 1114.3,-613.422 1110.87,-607.322"/>
<text text-anchor="middle" x="1288.5" y="-405.8" font-family="Times,serif" font-size="14.00">0.069</text>
</g>
<!-- ENJ&#45;&gt;Use -->
<g id="edge14" class="edge"><title>ENJ&#45;&gt;Use</title>
<path fill="none" stroke="black" d="M572.495,-291.091C496.187,-329.431 252,-458.412 252,-539 252,-715 252,-715 252,-715 252,-760.464 585.619,-788.898 700.599,-797.348"/>
<polygon fill="black" stroke="black" points="700.485,-800.849 710.712,-798.081 700.991,-793.867 700.485,-800.849"/>
<text text-anchor="middle" x="272.5" y="-536.3" font-family="Times,serif" font-size="14.00">0.215</text>
</g>
<!-- ENJ&#45;&gt;BI -->
<g id="edge37" class="edge"><title>ENJ&#45;&gt;BI</title>
<path fill="none" stroke="black" d="M581.744,-295.31C536.862,-349.047 398.195,-531.906 486,-645 535.281,-708.474 766.846,-673.531 844,-696 845.223,-696.356 846.453,-696.762 847.681,-697.208"/>
<polygon fill="black" stroke="black" points="846.345,-700.444 856.91,-701.241 849.147,-694.03 846.345,-700.444"/>
<text text-anchor="middle" x="489.5" y="-492.8" font-family="Times,serif" font-size="14.00">0.115</text>
</g>
<!-- ENJ&#45;&gt;PU -->
<g id="edge26" class="edge"><title>ENJ&#45;&gt;PU</title>
<path fill="none" stroke="black" d="M598.899,-260.785C601.931,-250.395 606.998,-237.396 615,-228 655.327,-180.648 689.418,-198.317 735,-156 775.666,-118.246 759.541,-82.7535 807,-54 843.778,-31.7174 967.439,-23.2835 1030.44,-20.3775"/>
<polygon fill="black" stroke="black" points="1030.89,-23.8609 1040.73,-19.927 1030.59,-16.8676 1030.89,-23.8609"/>
<text text-anchor="middle" x="769.5" y="-144.8" font-family="Times,serif" font-size="14.00">0.184</text>
</g>
<!-- ENJ&#45;&gt;Qu -->
<g id="edge43" class="edge"><title>ENJ&#45;&gt;Qu</title>
<path fill="none" stroke="black" d="M579.906,-263.421C567.84,-250.641 551.852,-230.885 545,-210 540.012,-194.797 539.869,-189.155 545,-174 550.942,-156.448 563.432,-139.862 574.681,-127.465"/>
<polygon fill="black" stroke="black" points="577.465,-129.617 581.813,-119.956 572.389,-124.796 577.465,-129.617"/>
<text text-anchor="middle" x="565.5" y="-188.3" font-family="Times,serif" font-size="14.00">0.099</text>
</g>
<!-- ENJ&#45;&gt;Im -->
<g id="edge36" class="edge"><title>ENJ&#45;&gt;Im</title>
<path fill="none" stroke="black" d="M612.037,-264.074C629.403,-250.013 654.545,-230.077 660,-228 701.426,-212.224 1001.35,-198.775 1107.72,-194.454"/>
<polygon fill="black" stroke="black" points="1108.12,-197.941 1117.97,-194.041 1107.84,-190.946 1108.12,-197.941"/>
<text text-anchor="middle" x="680.5" y="-231.8" font-family="Times,serif" font-size="14.00">0.117</text>
</g>
<!-- ENJ&#45;&gt;PEU -->
<g id="edge9" class="edge"><title>ENJ&#45;&gt;PEU</title>
<path fill="none" stroke="black" d="M623.276,-284.914C646.913,-288.828 681.553,-294.114 712,-297 890.047,-313.879 936.515,-292.981 1114,-315 1187.76,-324.151 1272.47,-343.555 1320.18,-355.318"/>
<polygon fill="black" stroke="black" points="1319.51,-358.759 1330.06,-357.776 1321.2,-351.966 1319.51,-358.759"/>
<text text-anchor="middle" x="1222.5" y="-318.8" font-family="Times,serif" font-size="14.00">0.292</text>
</g>
<!-- ENJ&#45;&gt;SA -->
<g id="edge81" class="edge"><title>ENJ&#45;&gt;SA</title>
<path fill="none" stroke="black" d="M606.274,-296.028C621.557,-317.242 650.255,-355.304 679,-384 695.554,-400.526 701.169,-403.123 720,-417 727.849,-422.784 736.573,-428.806 744.599,-434.192"/>
<polygon fill="black" stroke="black" points="742.692,-437.127 752.958,-439.744 746.565,-431.296 742.692,-437.127"/>
<text text-anchor="middle" x="699.5" y="-362.3" font-family="Times,serif" font-size="14.00">0.022</text>
</g>
<!-- ENJ&#45;&gt;Pf -->
<g id="edge78" class="edge"><title>ENJ&#45;&gt;Pf</title>
<path fill="none" stroke="black" d="M586.102,-296.22C572.734,-322.96 551.14,-377.287 572,-417 602.287,-474.659 673.531,-510.4 715.82,-527.312"/>
<polygon fill="black" stroke="black" points="714.807,-530.673 725.396,-531.018 717.333,-524.144 714.807,-530.673"/>
<text text-anchor="middle" x="592.5" y="-405.8" font-family="Times,serif" font-size="14.00">0.025</text>
</g>
<!-- ENJ&#45;&gt;JR -->
<g id="edge61" class="edge"><title>ENJ&#45;&gt;JR</title>
<path fill="none" stroke="black" d="M624.027,-283.487C652.915,-286.948 698.516,-292.39 738,-297 772.88,-301.073 864.437,-297.704 895,-315 928.654,-334.045 923.891,-353.766 948,-384 979.292,-423.242 984.457,-435.563 1020,-471 1045.27,-496.192 1060.4,-493.603 1082,-522 1101.66,-547.841 1115.31,-559.893 1106,-591 1104.84,-594.886 1103.09,-598.74 1101.07,-602.392"/>
<polygon fill="black" stroke="black" points="1098.04,-600.633 1095.65,-610.955 1103.95,-604.376 1098.04,-600.633"/>
<text text-anchor="middle" x="1040.5" y="-449.3" font-family="Times,serif" font-size="14.00">0.057</text>
</g>
<!-- PEU&#45;&gt;Use -->
<g id="edge25" class="edge"><title>PEU&#45;&gt;Use</title>
<path fill="none" stroke="black" d="M1388.8,-368.862C1435.19,-373.188 1523.46,-387.532 1579,-435 1696.96,-535.816 1811.76,-665.128 1693,-765 1657.44,-794.907 951.872,-799.275 777.642,-799.899"/>
<polygon fill="black" stroke="black" points="777.628,-796.399 767.639,-799.932 777.651,-803.399 777.628,-796.399"/>
<text text-anchor="middle" x="1740.5" y="-579.8" font-family="Times,serif" font-size="14.00">0.185</text>
</g>
<!-- PEU&#45;&gt;BI -->
<g id="edge84" class="edge"><title>PEU&#45;&gt;BI</title>
<path fill="none" stroke="black" d="M1370.1,-382.97C1373.86,-388.694 1377.64,-395.376 1380,-402 1408.98,-483.202 1410.17,-532.78 1395,-558 1328.15,-669.139 1255.42,-649.041 1129,-678 1053.3,-695.341 962.754,-705.337 913.114,-709.921"/>
<polygon fill="black" stroke="black" points="912.515,-706.461 902.869,-710.843 913.143,-713.432 912.515,-706.461"/>
<text text-anchor="middle" x="1425.5" y="-536.3" font-family="Times,serif" font-size="14.00">0.018</text>
</g>
<!-- PEU&#45;&gt;PU -->
<g id="edge60" class="edge"><title>PEU&#45;&gt;PU</title>
<path fill="none" stroke="black" d="M1385.15,-356.988C1442.04,-338.748 1565.32,-290.796 1525,-228 1428.76,-78.1166 1195.35,-34.3711 1104.78,-22.801"/>
<polygon fill="black" stroke="black" points="1105.06,-19.3094 1094.71,-21.5734 1104.22,-26.2579 1105.06,-19.3094"/>
<text text-anchor="middle" x="1532.5" y="-188.3" font-family="Times,serif" font-size="14.00">0.061</text>
</g>
<!-- PEU&#45;&gt;Qu -->
<g id="edge54" class="edge"><title>PEU&#45;&gt;Qu</title>
<path fill="none" stroke="black" d="M1368.81,-348.865C1381.85,-327.193 1399.9,-288.259 1382,-261 1355.28,-220.319 1227.92,-186.928 1181,-174 979.882,-118.589 727.678,-108.312 634.135,-106.421"/>
<polygon fill="black" stroke="black" points="634.101,-102.919 624.039,-106.237 633.973,-109.918 634.101,-102.919"/>
<text text-anchor="middle" x="1384.5" y="-231.8" font-family="Times,serif" font-size="14.00">0.064</text>
</g>
<!-- PEU&#45;&gt;Im -->
<g id="edge41" class="edge"><title>PEU&#45;&gt;Im</title>
<path fill="none" stroke="black" d="M1337.25,-352.162C1318.47,-339.779 1290.94,-319.622 1272,-297 1249.66,-270.318 1261.05,-251.069 1235,-228 1219.72,-214.465 1198.61,-205.888 1180.67,-200.613"/>
<polygon fill="black" stroke="black" points="1181.39,-197.181 1170.82,-197.945 1179.56,-203.938 1181.39,-197.181"/>
<text text-anchor="middle" x="1292.5" y="-275.3" font-family="Times,serif" font-size="14.00">0.101</text>
</g>
<!-- PEU&#45;&gt;ENJ -->
<g id="edge46" class="edge"><title>PEU&#45;&gt;ENJ</title>
<path fill="none" stroke="black" d="M1328.19,-360.585C1303.72,-357.015 1268.15,-351.95 1237,-348 1166.45,-339.052 1147.22,-346.333 1078,-330 1059.12,-325.544 1056,-318.912 1037,-315 895.306,-285.83 855.946,-311.415 712,-297 685.788,-294.375 656.451,-290.109 633.71,-286.508"/>
<polygon fill="black" stroke="black" points="634.19,-283.04 623.761,-284.908 633.079,-289.951 634.19,-283.04"/>
<text text-anchor="middle" x="1094" y="-318.8" font-family="Times,serif" font-size="14.00">0.08</text>
</g>
<!-- PEU&#45;&gt;Pf -->
<g id="edge66" class="edge"><title>PEU&#45;&gt;Pf</title>
<path fill="none" stroke="black" d="M1328.46,-372.555C1305.4,-377.773 1273.15,-387.055 1248,-402 1209.9,-424.639 1215.69,-451.283 1176,-471 1107.29,-505.13 876.073,-528.11 785.667,-535.986"/>
<polygon fill="black" stroke="black" points="785.273,-532.507 775.61,-536.85 785.873,-539.481 785.273,-532.507"/>
<text text-anchor="middle" x="1235.5" y="-449.3" font-family="Times,serif" font-size="14.00">0.047</text>
</g>
<!-- PEU&#45;&gt;JR -->
<g id="edge72" class="edge"><title>PEU&#45;&gt;JR</title>
<path fill="none" stroke="black" d="M1352.44,-383.83C1336.44,-431.234 1289.11,-564.159 1253,-591 1232.28,-606.404 1163.12,-616.869 1119.66,-622.104"/>
<polygon fill="black" stroke="black" points="1119,-618.657 1109.47,-623.292 1119.81,-625.61 1119,-618.657"/>
<text text-anchor="middle" x="1333.5" y="-492.8" font-family="Times,serif" font-size="14.00">0.034</text>
</g>
<!-- SA&#45;&gt;Use -->
<g id="edge27" class="edge"><title>SA&#45;&gt;Use</title>
<path fill="none" stroke="black" d="M746.187,-458.602C689.269,-469.484 558,-498.924 558,-539 558,-715 558,-715 558,-715 558,-777.326 647.018,-794.039 700.199,-798.462"/>
<polygon fill="black" stroke="black" points="700.094,-801.963 710.32,-799.192 700.598,-794.981 700.094,-801.963"/>
<text text-anchor="middle" x="578.5" y="-623.3" font-family="Times,serif" font-size="14.00">0.177</text>
</g>
<!-- SA&#45;&gt;BI -->
<g id="edge70" class="edge"><title>SA&#45;&gt;BI</title>
<path fill="none" stroke="black" d="M750.563,-464.009C740.172,-469.898 728.375,-478.302 721,-489 694.826,-526.965 686.541,-547.555 702,-591 705.861,-601.85 763.035,-671.134 774,-678 801.226,-695.048 814.051,-684.383 844,-696 845.026,-696.398 846.062,-696.821 847.101,-697.264"/>
<polygon fill="black" stroke="black" points="845.834,-700.536 856.371,-701.64 848.822,-694.206 845.834,-700.536"/>
<text text-anchor="middle" x="722.5" y="-579.8" font-family="Times,serif" font-size="14.00">0.044</text>
</g>
<!-- SA&#45;&gt;PU -->
<g id="edge53" class="edge"><title>SA&#45;&gt;PU</title>
<path fill="none" stroke="black" d="M773.812,-434.716C776.932,-408.321 784.433,-356.647 799,-315 807.926,-289.481 812.138,-283.583 827,-261 863.108,-206.132 890.125,-207.415 931,-156 963.59,-115.005 951.118,-89.0838 990,-54 1002.36,-42.8513 1018.85,-34.7544 1033.49,-29.1747"/>
<polygon fill="black" stroke="black" points="1035,-32.3521 1043.25,-25.7074 1032.66,-25.7556 1035,-32.3521"/>
<text text-anchor="middle" x="873.5" y="-231.8" font-family="Times,serif" font-size="14.00">0.067</text>
</g>
<!-- SA&#45;&gt;Qu -->
<g id="edge76" class="edge"><title>SA&#45;&gt;Qu</title>
<path fill="none" stroke="black" d="M745.442,-448.918C658.813,-438.138 390,-398.632 390,-323.5 390,-323.5 390,-323.5 390,-191 390,-118.435 500.198,-106.511 559.787,-105.367"/>
<polygon fill="black" stroke="black" points="559.973,-108.866 569.938,-105.267 559.904,-101.866 559.973,-108.866"/>
<text text-anchor="middle" x="410.5" y="-275.3" font-family="Times,serif" font-size="14.00">0.033</text>
</g>
<!-- SA&#45;&gt;Im -->
<g id="edge35" class="edge"><title>SA&#45;&gt;Im</title>
<path fill="none" stroke="black" d="M796.754,-445.68C815.7,-440.09 841.904,-430.678 862,-417 922.059,-376.121 924.27,-350.885 973,-297 1000.45,-266.641 999.676,-250.3 1034,-228 1056.78,-213.203 1086.23,-204.296 1109.08,-199.172"/>
<polygon fill="black" stroke="black" points="1110,-202.557 1119.06,-197.077 1108.56,-195.706 1110,-202.557"/>
<text text-anchor="middle" x="977.5" y="-318.8" font-family="Times,serif" font-size="14.00">0.119</text>
</g>
<!-- SA&#45;&gt;ENJ -->
<g id="edge77" class="edge"><title>SA&#45;&gt;ENJ</title>
<path fill="none" stroke="black" d="M745.168,-450.833C705.025,-447.423 630.958,-434.267 602,-384 588.57,-360.688 588.378,-329.376 590.578,-307.22"/>
<polygon fill="black" stroke="black" points="594.069,-307.503 591.802,-297.153 587.12,-306.657 594.069,-307.503"/>
<text text-anchor="middle" x="622.5" y="-362.3" font-family="Times,serif" font-size="14.00">0.026</text>
</g>
<!-- SA&#45;&gt;PEU -->
<g id="edge13" class="edge"><title>SA&#45;&gt;PEU</title>
<path fill="none" stroke="black" d="M797.924,-447.617C852.086,-438.527 981.24,-417.205 1090,-402 1155.19,-392.887 1171.74,-392.579 1237,-384 1264.12,-380.435 1294.61,-376.15 1318.2,-372.773"/>
<polygon fill="black" stroke="black" points="1318.78,-376.225 1328.18,-371.339 1317.79,-369.296 1318.78,-376.225"/>
<text text-anchor="middle" x="1110.5" y="-405.8" font-family="Times,serif" font-size="14.00">0.225</text>
</g>
<!-- SA&#45;&gt;Pf -->
<g id="edge48" class="edge"><title>SA&#45;&gt;Pf</title>
<path fill="none" stroke="black" d="M750.871,-464.7C741.757,-470.533 732.044,-478.687 727,-489 722.839,-497.509 725.273,-506.989 729.79,-515.387"/>
<polygon fill="black" stroke="black" points="726.952,-517.447 735.295,-523.978 732.846,-513.67 726.952,-517.447"/>
<text text-anchor="middle" x="747.5" y="-492.8" font-family="Times,serif" font-size="14.00">0.078</text>
</g>
<!-- SA&#45;&gt;JR -->
<g id="edge56" class="edge"><title>SA&#45;&gt;JR</title>
<path fill="none" stroke="black" d="M798.682,-455.792C827.516,-458.832 873.788,-467.015 907,-489 939.245,-510.345 931.461,-531.907 960,-558 980.202,-576.47 988.134,-577.596 1012,-591 1024.89,-598.24 1039.48,-605.575 1052.07,-611.648"/>
<polygon fill="black" stroke="black" points="1050.72,-614.878 1061.25,-616.023 1053.73,-608.56 1050.72,-614.878"/>
<text text-anchor="middle" x="980.5" y="-536.3" font-family="Times,serif" font-size="14.00">0.062</text>
</g>
<!-- Pf&#45;&gt;Use -->
<g id="edge21" class="edge"><title>Pf&#45;&gt;Use</title>
<path fill="none" stroke="black" d="M722.133,-543.333C698.924,-546.754 666.049,-555.191 646,-576 617.999,-605.062 625.839,-623.068 620,-663 613.144,-709.882 618.109,-730.895 651,-765 664.548,-779.048 684.452,-787.594 701.906,-792.719"/>
<polygon fill="black" stroke="black" points="701.268,-796.171 711.832,-795.357 703.066,-789.406 701.268,-796.171"/>
<text text-anchor="middle" x="631.5" y="-666.8" font-family="Times,serif" font-size="14.00">0.2</text>
</g>
<!-- Pf&#45;&gt;BI -->
<g id="edge50" class="edge"><title>Pf&#45;&gt;BI</title>
<path fill="none" stroke="black" d="M760.697,-556.521C768.315,-566.497 778.558,-579.665 788,-591 794.851,-599.224 797.386,-600.584 804,-609 824.66,-635.288 846.212,-667.092 860.288,-688.553"/>
<polygon fill="black" stroke="black" points="857.447,-690.604 865.838,-697.072 863.312,-686.783 857.447,-690.604"/>
<text text-anchor="middle" x="851.5" y="-623.3" font-family="Times,serif" font-size="14.00">0.074</text>
</g>
<!-- Pf&#45;&gt;PU -->
<g id="edge80" class="edge"><title>Pf&#45;&gt;PU</title>
<path fill="none" stroke="black" d="M722.052,-538.291C650.414,-536.096 456.729,-528.041 398,-504 310.706,-468.265 118.364,-214.081 178,-141 299.899,8.38087 412.041,-80.6225 603,-54 761.138,-31.9533 951.604,-23.103 1030.73,-20.2013"/>
<polygon fill="black" stroke="black" points="1031.27,-23.6843 1041.14,-19.8305 1031.02,-16.6887 1031.27,-23.6843"/>
<text text-anchor="middle" x="228.5" y="-275.3" font-family="Times,serif" font-size="14.00">0.022</text>
</g>
<!-- Pf&#45;&gt;Qu -->
<g id="edge83" class="edge"><title>Pf&#45;&gt;Qu</title>
<path fill="none" stroke="black" d="M721.903,-538.874C652.286,-538.123 468.991,-533.338 417,-504 397.949,-493.25 322.778,-389.729 306,-330 281.817,-243.909 293.933,-178.743 375,-141 435.545,-112.812 514.373,-106.671 559.968,-105.697"/>
<polygon fill="black" stroke="black" points="560.044,-109.196 569.993,-105.555 559.945,-102.197 560.044,-109.196"/>
<text text-anchor="middle" x="322" y="-318.8" font-family="Times,serif" font-size="14.00">0.02</text>
</g>
<!-- Pf&#45;&gt;Im -->
<g id="edge45" class="edge"><title>Pf&#45;&gt;Im</title>
<path fill="none" stroke="black" d="M771.937,-530.225C785.887,-524.186 803.545,-515.231 817,-504 846.686,-479.22 837.461,-455.893 870,-435 891.297,-421.325 1076.23,-403.799 1092,-384 1101.97,-371.484 1099.88,-361.923 1092,-348 1084.34,-334.469 1069.66,-343.531 1062,-330 1058.72,-324.199 1060.04,-321.371 1062,-315 1074.07,-275.797 1103.51,-237.907 1123.87,-215.023"/>
<polygon fill="black" stroke="black" points="1126.51,-217.328 1130.65,-207.578 1121.33,-212.615 1126.51,-217.328"/>
<text text-anchor="middle" x="1115" y="-362.3" font-family="Times,serif" font-size="14.00">0.09</text>
</g>
<!-- Pf&#45;&gt;PEU -->
<g id="edge24" class="edge"><title>Pf&#45;&gt;PEU</title>
<path fill="none" stroke="black" d="M774.067,-532.552C801.355,-525.533 846.28,-513.974 885,-504 941.892,-489.346 956.385,-486.691 1013,-471 1015.54,-470.296 1192.56,-418.003 1195,-417 1208.06,-411.631 1209.85,-407.141 1223,-402 1254.29,-389.764 1291.33,-380.509 1318.69,-374.599"/>
<polygon fill="black" stroke="black" points="1319.6,-377.983 1328.66,-372.498 1318.16,-371.133 1319.6,-377.983"/>
<text text-anchor="middle" x="1154.5" y="-449.3" font-family="Times,serif" font-size="14.00">0.187</text>
</g>
<!-- Pf&#45;&gt;SA -->
<g id="edge79" class="edge"><title>Pf&#45;&gt;SA</title>
<path fill="none" stroke="black" d="M759.375,-523.233C762.703,-517.419 766.032,-510.628 768,-504 770.122,-496.851 771.273,-488.889 771.863,-481.459"/>
<polygon fill="black" stroke="black" points="775.36,-481.612 772.369,-471.448 768.369,-481.259 775.36,-481.612"/>
<text text-anchor="middle" x="792.5" y="-492.8" font-family="Times,serif" font-size="14.00">0.025</text>
</g>
<!-- Pf&#45;&gt;JR -->
<g id="edge51" class="edge"><title>Pf&#45;&gt;JR</title>
<path fill="none" stroke="black" d="M763.785,-555.243C777.837,-568.452 798.231,-586.698 808,-591 849.828,-609.419 980.956,-619.773 1045.86,-623.89"/>
<polygon fill="black" stroke="black" points="1045.86,-627.397 1056.05,-624.52 1046.29,-620.41 1045.86,-627.397"/>
<text text-anchor="middle" x="824" y="-579.8" font-family="Times,serif" font-size="14.00">0.07</text>
</g>
<!-- JR&#45;&gt;Use -->
<g id="edge33" class="edge"><title>JR&#45;&gt;Use</title>
<path fill="none" stroke="black" d="M1091.49,-644.436C1095.55,-654.777 1098.31,-668.008 1092,-678 1043.9,-754.133 994.388,-736.379 909,-765 864.854,-779.797 812.067,-789.482 777.153,-794.836"/>
<polygon fill="black" stroke="black" points="776.296,-791.425 766.921,-796.359 777.327,-798.349 776.296,-791.425"/>
<text text-anchor="middle" x="1100.5" y="-710.3" font-family="Times,serif" font-size="14.00">0.152</text>
</g>
<!-- JR&#45;&gt;BI -->
<g id="edge86" class="edge"><title>JR&#45;&gt;BI</title>
<path fill="none" stroke="black" d="M1072.4,-643.959C1064.09,-655.197 1051.53,-669.67 1037,-678 998.431,-700.111 947.351,-708.275 913.167,-711.277"/>
<polygon fill="black" stroke="black" points="912.834,-707.792 903.133,-712.052 913.373,-714.771 912.834,-707.792"/>
<text text-anchor="middle" x="1072" y="-666.8" font-family="Times,serif" font-size="14.00">0.01</text>
</g>
<!-- JR&#45;&gt;Qu -->
<g id="edge85" class="edge"><title>JR&#45;&gt;Qu</title>
<path fill="none" stroke="black" d="M1084.63,-609.016C1086.08,-588.078 1086.81,-551.628 1078,-522 1038.32,-388.608 1001.89,-360.902 905,-261 856.598,-211.093 840.017,-198.621 775,-174 736.036,-159.245 721.995,-170.674 683,-156 676.864,-153.691 647.751,-136.53 625.077,-122.949"/>
<polygon fill="black" stroke="black" points="626.831,-119.92 616.456,-117.772 623.228,-125.921 626.831,-119.92"/>
<text text-anchor="middle" x="1037.5" y="-362.3" font-family="Times,serif" font-size="14.00">0.015</text>
</g>
<!-- JR&#45;&gt;Im -->
<g id="edge44" class="edge"><title>JR&#45;&gt;Im</title>
<path fill="none" stroke="black" d="M1102.2,-614.068C1109.86,-608.167 1117.85,-600.305 1122,-591 1124.72,-584.912 1122.79,-582.62 1122,-576 1119.09,-551.486 1116.41,-545.546 1109,-522 1101.69,-498.776 1093.52,-494.923 1089,-471 1086.03,-455.279 1080.19,-448.357 1089,-435 1100.18,-418.045 1113.55,-427.382 1131,-417 1140.25,-411.5 1140.39,-406.846 1150,-402 1177.15,-388.304 1197.54,-408.163 1216,-384 1245.38,-345.54 1201.38,-294.957 1167,-228 1165.17,-224.439 1163.09,-220.768 1160.97,-217.204"/>
<polygon fill="black" stroke="black" points="1163.93,-215.336 1155.67,-208.689 1157.98,-219.03 1163.93,-215.336"/>
<text text-anchor="middle" x="1170.5" y="-405.8" font-family="Times,serif" font-size="14.00">0.097</text>
</g>
<!-- JR&#45;&gt;PEU -->
<g id="edge22" class="edge"><title>JR&#45;&gt;PEU</title>
<path fill="none" stroke="black" d="M1109.63,-623.109C1147.89,-618.421 1215.71,-607.937 1233,-591 1266.42,-558.258 1233.86,-528.454 1259,-489 1265.79,-478.346 1272.29,-480.147 1281,-471 1304.83,-445.982 1327.82,-413.485 1342.38,-391.526"/>
<polygon fill="black" stroke="black" points="1345.35,-393.382 1347.9,-383.098 1339.49,-389.548 1345.35,-393.382"/>
<text text-anchor="middle" x="1279.5" y="-492.8" font-family="Times,serif" font-size="14.00">0.193</text>
</g>
<!-- JR&#45;&gt;SA -->
<g id="edge64" class="edge"><title>JR&#45;&gt;SA</title>
<path fill="none" stroke="black" d="M1073.74,-609.989C1060.21,-587.75 1033.1,-547.387 1001,-522 944.024,-476.943 857.817,-461.709 809.048,-456.581"/>
<polygon fill="black" stroke="black" points="809.233,-453.083 798.944,-455.608 808.562,-460.051 809.233,-453.083"/>
<text text-anchor="middle" x="1057.5" y="-536.3" font-family="Times,serif" font-size="14.00">0.052</text>
</g>
<!-- JR&#45;&gt;Pf -->
<g id="edge71" class="edge"><title>JR&#45;&gt;Pf</title>
<path fill="none" stroke="black" d="M1055.99,-625.309C1013.54,-623.438 929.221,-616.52 863,-591 851.612,-586.611 850.867,-581.555 840,-576 821.605,-566.597 800.067,-558.205 782.563,-551.997"/>
<polygon fill="black" stroke="black" points="783.372,-548.573 772.777,-548.603 781.078,-555.186 783.372,-548.573"/>
<text text-anchor="middle" x="883.5" y="-579.8" font-family="Times,serif" font-size="14.00">0.039</text>
</g>
</g>
</svg>
