<?xml version="1.0" encoding="UTF-8" standalone="no"?>
<!DOCTYPE svg PUBLIC "-//W3C//DTD SVG 1.1//EN"
 "http://www.w3.org/Graphics/SVG/1.1/DTD/svg11.dtd">
<!-- Generated by graphviz version 2.38.0 (20140413.2041)
 -->
<!-- Title: G Pages: 1 -->
<svg width="2116pt" height="827pt"
 viewBox="0.00 0.00 2116.00 827.00" xmlns="http://www.w3.org/2000/svg" xmlns:xlink="http://www.w3.org/1999/xlink">
<g id="graph0" class="graph" transform="scale(1 1) rotate(0) translate(4 823)">
<title>G</title>
<polygon fill="white" stroke="none" points="-4,4 -4,-823 2112,-823 2112,4 -4,4"/>
<!-- Use -->
<g id="node1" class="node"><title>Use</title>
<ellipse fill="none" stroke="black" cx="802" cy="-801" rx="28.6953" ry="18"/>
<text text-anchor="middle" x="802" y="-797.3" font-family="Times,serif" font-size="14.00">Use</text>
</g>
<!-- BI -->
<g id="node2" class="node"><title>BI</title>
<ellipse fill="none" stroke="black" cx="1153" cy="-714" rx="27" ry="18"/>
<text text-anchor="middle" x="1153" y="-710.3" font-family="Times,serif" font-size="14.00">BI</text>
</g>
<!-- Use&#45;&gt;BI -->
<g id="edge1" class="edge"><title>Use&#45;&gt;BI</title>
<path fill="none" stroke="black" d="M830.182,-796.9C870.796,-792.073 947.945,-781.558 1012,-765 1050.24,-755.115 1092.8,-739.331 1121.06,-728.144"/>
<polygon fill="black" stroke="black" points="1122.44,-731.36 1130.43,-724.396 1119.84,-724.861 1122.44,-731.36"/>
<text text-anchor="middle" x="1080.5" y="-753.8" font-family="Times,serif" font-size="14.00">0.591</text>
</g>
<!-- PU -->
<g id="node3" class="node"><title>PU</title>
<ellipse fill="none" stroke="black" cx="863" cy="-18" rx="27" ry="18"/>
<text text-anchor="middle" x="863" y="-14.3" font-family="Times,serif" font-size="14.00">PU</text>
</g>
<!-- Use&#45;&gt;PU -->
<g id="edge5" class="edge"><title>Use&#45;&gt;PU</title>
<path fill="none" stroke="black" d="M773.45,-799.424C648.219,-796.788 150.764,-785.128 84,-765 42.4027,-752.459 0,-758.447 0,-715 0,-715 0,-715 0,-104 0,-19.7532 659.764,-17.8474 825.553,-18.6985"/>
<polygon fill="black" stroke="black" points="825.727,-22.1995 835.747,-18.7577 825.767,-15.1996 825.727,-22.1995"/>
<text text-anchor="middle" x="20.5" y="-405.8" font-family="Times,serif" font-size="14.00">0.395</text>
</g>
<!-- Qu -->
<g id="node4" class="node"><title>Qu</title>
<ellipse fill="none" stroke="black" cx="863" cy="-105" rx="27" ry="18"/>
<text text-anchor="middle" x="863" y="-101.3" font-family="Times,serif" font-size="14.00">Qu</text>
</g>
<!-- Use&#45;&gt;Qu -->
<g id="edge16" class="edge"><title>Use&#45;&gt;Qu</title>
<path fill="none" stroke="black" d="M773.1,-800.006C669.418,-799.762 316.618,-796.577 209,-765 165.465,-752.226 120,-760.37 120,-715 120,-715 120,-715 120,-452 120,-389.94 109.456,-364.416 147,-315 267.001,-157.053 364.968,-186.677 558,-141 652.97,-118.527 768.117,-110.296 825.994,-107.431"/>
<polygon fill="black" stroke="black" points="826.292,-110.921 836.117,-106.956 825.964,-103.929 826.292,-110.921"/>
<text text-anchor="middle" x="140.5" y="-449.3" font-family="Times,serif" font-size="14.00">0.236</text>
</g>
<!-- Im -->
<g id="node5" class="node"><title>Im</title>
<ellipse fill="none" stroke="black" cx="1318" cy="-192" rx="27" ry="18"/>
<text text-anchor="middle" x="1318" y="-188.3" font-family="Times,serif" font-size="14.00">Im</text>
</g>
<!-- Use&#45;&gt;Im -->
<g id="edge12" class="edge"><title>Use&#45;&gt;Im</title>
<path fill="none" stroke="black" d="M830.576,-799.33C1003.44,-795.091 1902,-770.397 1902,-715 1902,-715 1902,-715 1902,-582.5 1902,-547.136 1894.29,-538.966 1889,-504 1882.15,-458.757 1895.78,-442.769 1875,-402 1822.26,-298.511 1789.87,-265.685 1680,-228 1615.36,-205.828 1440.25,-222.179 1373,-210 1365.63,-208.665 1357.86,-206.655 1350.56,-204.48"/>
<polygon fill="black" stroke="black" points="1351.56,-201.126 1340.97,-201.458 1349.46,-207.802 1351.56,-201.126"/>
<text text-anchor="middle" x="1909.5" y="-492.8" font-family="Times,serif" font-size="14.00">0.266</text>
</g>
<!-- ENJ -->
<g id="node6" class="node"><title>ENJ</title>
<ellipse fill="none" stroke="black" cx="660" cy="-279" rx="29.795" ry="18"/>
<text text-anchor="middle" x="660" y="-275.3" font-family="Times,serif" font-size="14.00">ENJ</text>
</g>
<!-- Use&#45;&gt;ENJ -->
<g id="edge48" class="edge"><title>Use&#45;&gt;ENJ</title>
<path fill="none" stroke="black" d="M773.392,-799.684C678.46,-798.387 374.593,-792.161 281,-765 236.307,-752.03 189,-761.537 189,-715 189,-715 189,-715 189,-408.5 189,-364.578 185.844,-341.328 221,-315 256.966,-288.066 581.445,-308.044 625,-297 626.473,-296.626 627.958,-296.187 629.441,-295.697"/>
<polygon fill="black" stroke="black" points="631.059,-298.82 639.055,-291.869 628.47,-292.316 631.059,-298.82"/>
<text text-anchor="middle" x="205" y="-536.3" font-family="Times,serif" font-size="14.00">0.11</text>
</g>
<!-- PEU -->
<g id="node7" class="node"><title>PEU</title>
<ellipse fill="none" stroke="black" cx="1213" cy="-366" rx="31.3957" ry="18"/>
<text text-anchor="middle" x="1213" y="-362.3" font-family="Times,serif" font-size="14.00">PEU</text>
</g>
<!-- Use&#45;&gt;PEU -->
<g id="edge22" class="edge"><title>Use&#45;&gt;PEU</title>
<path fill="none" stroke="black" d="M830.585,-800.324C920.243,-800.933 1203.71,-799.772 1435,-765 1536.12,-749.797 1600.01,-768.297 1648,-678 1694.57,-590.381 1383.25,-451.052 1297,-402 1281.79,-393.351 1264.02,-385.635 1248.75,-379.664"/>
<polygon fill="black" stroke="black" points="1249.72,-376.288 1239.13,-375.999 1247.23,-382.83 1249.72,-376.288"/>
<text text-anchor="middle" x="1631.5" y="-579.8" font-family="Times,serif" font-size="14.00">0.218</text>
</g>
<!-- SA -->
<g id="node8" class="node"><title>SA</title>
<ellipse fill="none" stroke="black" cx="775" cy="-453" rx="27" ry="18"/>
<text text-anchor="middle" x="775" y="-449.3" font-family="Times,serif" font-size="14.00">SA</text>
</g>
<!-- Use&#45;&gt;SA -->
<g id="edge58" class="edge"><title>Use&#45;&gt;SA</title>
<path fill="none" stroke="black" d="M773.253,-800.42C677.29,-801.06 374,-796.628 374,-715 374,-715 374,-715 374,-582.5 374,-544.279 641.606,-482.75 739.597,-461.501"/>
<polygon fill="black" stroke="black" points="740.574,-464.871 749.611,-459.342 739.098,-458.028 740.574,-464.871"/>
<text text-anchor="middle" x="394.5" y="-623.3" font-family="Times,serif" font-size="14.00">0.084</text>
</g>
<!-- Pf -->
<g id="node9" class="node"><title>Pf</title>
<ellipse fill="none" stroke="black" cx="1146" cy="-540" rx="27" ry="18"/>
<text text-anchor="middle" x="1146" y="-536.3" font-family="Times,serif" font-size="14.00">Pf</text>
</g>
<!-- Use&#45;&gt;Pf -->
<g id="edge45" class="edge"><title>Use&#45;&gt;Pf</title>
<path fill="none" stroke="black" d="M830.959,-800.433C962.97,-801.731 1505.69,-799.528 1608,-678 1612.29,-672.9 1612.07,-668.282 1608,-663 1581.33,-628.37 1285.43,-568.069 1181.68,-547.839"/>
<polygon fill="black" stroke="black" points="1182.18,-544.369 1171.69,-545.899 1180.84,-551.241 1182.18,-544.369"/>
<text text-anchor="middle" x="1628" y="-666.8" font-family="Times,serif" font-size="14.00">0.12</text>
</g>
<!-- JR -->
<g id="node10" class="node"><title>JR</title>
<ellipse fill="none" stroke="black" cx="754" cy="-627" rx="27" ry="18"/>
<text text-anchor="middle" x="754" y="-623.3" font-family="Times,serif" font-size="14.00">JR</text>
</g>
<!-- Use&#45;&gt;JR -->
<g id="edge76" class="edge"><title>Use&#45;&gt;JR</title>
<path fill="none" stroke="black" d="M797.31,-783.195C788.958,-753.267 771.447,-690.518 761.438,-654.652"/>
<polygon fill="black" stroke="black" points="764.768,-653.565 758.709,-644.873 758.026,-655.446 764.768,-653.565"/>
<text text-anchor="middle" x="803.5" y="-710.3" font-family="Times,serif" font-size="14.00">0.058</text>
</g>
<!-- BI&#45;&gt;Use -->
<g id="edge2" class="edge"><title>BI&#45;&gt;Use</title>
<path fill="none" stroke="black" d="M1126.93,-718.991C1090.78,-724.732 1023.49,-736.169 967,-750 921.287,-761.192 869.483,-777.498 836.315,-788.414"/>
<polygon fill="black" stroke="black" points="835.039,-785.149 826.647,-791.617 837.241,-791.794 835.039,-785.149"/>
<text text-anchor="middle" x="987.5" y="-753.8" font-family="Times,serif" font-size="14.00">0.511</text>
</g>
<!-- BI&#45;&gt;PU -->
<g id="edge8" class="edge"><title>BI&#45;&gt;PU</title>
<path fill="none" stroke="black" d="M1180.02,-713.05C1270.33,-712.912 1560.95,-709.939 1648,-678 1748.47,-641.134 1974,-430.524 1974,-323.5 1974,-323.5 1974,-323.5 1974,-104 1974,-48.8823 1093.2,-24.5295 900.116,-19.8531"/>
<polygon fill="black" stroke="black" points="899.993,-16.3493 889.913,-19.6089 899.826,-23.3473 899.993,-16.3493"/>
<text text-anchor="middle" x="1991.5" y="-362.3" font-family="Times,serif" font-size="14.00">0.336</text>
</g>
<!-- BI&#45;&gt;Qu -->
<g id="edge30" class="edge"><title>BI&#45;&gt;Qu</title>
<path fill="none" stroke="black" d="M1179.93,-712.252C1241.41,-709.633 1395.7,-697.864 1511,-645 1541.85,-630.857 1742.83,-499.001 1762,-471 1777.81,-447.914 1847.3,-248.256 1828,-228 1799.45,-198.04 1494.36,-225.52 1456,-210 1433.52,-200.905 1436.9,-184.408 1415,-174 1371.44,-153.302 1353.63,-171.592 1308,-156 1294.64,-151.435 1293.54,-145.007 1280,-141 1209.29,-120.071 988.517,-110.326 900.13,-107.188"/>
<polygon fill="black" stroke="black" points="900.142,-103.687 890.026,-106.838 899.899,-110.682 900.142,-103.687"/>
<text text-anchor="middle" x="1811.5" y="-405.8" font-family="Times,serif" font-size="14.00">0.201</text>
</g>
<!-- BI&#45;&gt;Im -->
<g id="edge19" class="edge"><title>BI&#45;&gt;Im</title>
<path fill="none" stroke="black" d="M1179.37,-709.267C1273.74,-694.219 1592.78,-628.302 1663,-417 1689.99,-335.773 1702.35,-266.696 1626,-228 1575.72,-202.518 1428.4,-220.39 1373,-210 1365.87,-208.663 1358.37,-206.718 1351.27,-204.618"/>
<polygon fill="black" stroke="black" points="1351.84,-201.13 1341.26,-201.481 1349.75,-207.81 1351.84,-201.13"/>
<text text-anchor="middle" x="1676.5" y="-449.3" font-family="Times,serif" font-size="14.00">0.223</text>
</g>
<!-- BI&#45;&gt;ENJ -->
<g id="edge44" class="edge"><title>BI&#45;&gt;ENJ</title>
<path fill="none" stroke="black" d="M1125.99,-712.497C1016.66,-709.781 609.876,-692.862 550,-591 491.598,-491.645 592.982,-356.321 639.033,-302.968"/>
<polygon fill="black" stroke="black" points="641.949,-304.952 645.916,-295.127 636.688,-300.334 641.949,-304.952"/>
<text text-anchor="middle" x="556.5" y="-492.8" font-family="Times,serif" font-size="14.00">0.123</text>
</g>
<!-- BI&#45;&gt;PEU -->
<g id="edge23" class="edge"><title>BI&#45;&gt;PEU</title>
<path fill="none" stroke="black" d="M1179.94,-712.67C1207.6,-710.841 1250.02,-703.653 1275,-678 1313.43,-638.535 1299.06,-612.645 1306,-558 1314.89,-488.041 1319.89,-457.981 1277,-402 1269.73,-392.514 1259.13,-385.266 1248.63,-379.895"/>
<polygon fill="black" stroke="black" points="1250.07,-376.702 1239.53,-375.649 1247.11,-383.046 1250.07,-376.702"/>
<text text-anchor="middle" x="1331.5" y="-536.3" font-family="Times,serif" font-size="14.00">0.217</text>
</g>
<!-- BI&#45;&gt;SA -->
<g id="edge66" class="edge"><title>BI&#45;&gt;SA</title>
<path fill="none" stroke="black" d="M1134.11,-700.771C1102.97,-680.144 1039.63,-636.241 993,-591 964.652,-563.499 970.81,-542.415 937,-522 902.08,-500.915 884.537,-519.968 847,-504 829.653,-496.621 812.237,-484.677 798.879,-474.313"/>
<polygon fill="black" stroke="black" points="800.725,-471.307 790.729,-467.795 796.352,-476.774 800.725,-471.307"/>
<text text-anchor="middle" x="1013.5" y="-579.8" font-family="Times,serif" font-size="14.00">0.073</text>
</g>
<!-- BI&#45;&gt;Pf -->
<g id="edge46" class="edge"><title>BI&#45;&gt;Pf</title>
<path fill="none" stroke="black" d="M1145.46,-696.655C1139.66,-683.137 1132.13,-663.263 1129,-645 1126.3,-629.23 1121.99,-623.384 1129,-609 1134.69,-597.331 1146.31,-602.669 1152,-591 1155.51,-583.786 1155.74,-575.318 1154.58,-567.423"/>
<polygon fill="black" stroke="black" points="1157.97,-566.549 1152.42,-557.526 1151.13,-568.043 1157.97,-566.549"/>
<text text-anchor="middle" x="1149.5" y="-623.3" font-family="Times,serif" font-size="14.00">0.113</text>
</g>
<!-- BI&#45;&gt;JR -->
<g id="edge56" class="edge"><title>BI&#45;&gt;JR</title>
<path fill="none" stroke="black" d="M1125.86,-713.325C1051.31,-713.764 845.104,-711.813 788,-678 778.516,-672.384 771.092,-662.964 765.634,-653.804"/>
<polygon fill="black" stroke="black" points="768.651,-652.026 760.827,-644.882 762.489,-655.346 768.651,-652.026"/>
<text text-anchor="middle" x="808.5" y="-666.8" font-family="Times,serif" font-size="14.00">0.093</text>
</g>
<!-- PU&#45;&gt;Use -->
<g id="edge3" class="edge"><title>PU&#45;&gt;Use</title>
<path fill="none" stroke="black" d="M835.958,-18.9752C696.388,-19.195 64,-24.5733 64,-104 64,-715 64,-715 64,-715 64,-755.062 100.977,-752.384 139,-765 198.116,-784.615 630.045,-796.058 763.096,-799.145"/>
<polygon fill="black" stroke="black" points="763.157,-802.648 773.235,-799.378 763.318,-795.65 763.157,-802.648"/>
<text text-anchor="middle" x="84.5" y="-405.8" font-family="Times,serif" font-size="14.00">0.426</text>
</g>
<!-- PU&#45;&gt;BI -->
<g id="edge4" class="edge"><title>PU&#45;&gt;BI</title>
<path fill="none" stroke="black" d="M890.004,-18.9892C1050.93,-19.0375 1880.12,-20.901 1988,-54 2027.73,-66.1877 2067,-62.4474 2067,-104 2067,-410.5 2067,-410.5 2067,-410.5 2067,-486.671 1884.27,-609.272 1817,-645 1774.17,-667.746 1760.67,-669.087 1713,-678 1612.22,-696.842 1298.58,-708.361 1190.25,-711.861"/>
<polygon fill="black" stroke="black" points="1190.01,-708.367 1180.12,-712.184 1190.23,-715.364 1190.01,-708.367"/>
<text text-anchor="middle" x="2087.5" y="-362.3" font-family="Times,serif" font-size="14.00">0.403</text>
</g>
<!-- PU&#45;&gt;Qu -->
<g id="edge20" class="edge"><title>PU&#45;&gt;Qu</title>
<path fill="none" stroke="black" d="M844.934,-31.645C833.641,-41.2356 822.242,-55.0991 828,-69 830.317,-74.5946 834.011,-79.7613 838.148,-84.3116"/>
<polygon fill="black" stroke="black" points="835.762,-86.8738 845.363,-91.3544 840.651,-81.8647 835.762,-86.8738"/>
<text text-anchor="middle" x="848.5" y="-57.8" font-family="Times,serif" font-size="14.00">0.221</text>
</g>
<!-- PU&#45;&gt;Im -->
<g id="edge28" class="edge"><title>PU&#45;&gt;Im</title>
<path fill="none" stroke="black" d="M889.87,-20.5668C960.888,-25.9226 1156.83,-48.6957 1284,-141 1292.7,-147.315 1299.88,-156.581 1305.37,-165.425"/>
<polygon fill="black" stroke="black" points="1302.46,-167.398 1310.46,-174.347 1308.54,-163.928 1302.46,-167.398"/>
<text text-anchor="middle" x="1277.5" y="-101.3" font-family="Times,serif" font-size="14.00">0.211</text>
</g>
<!-- PU&#45;&gt;ENJ -->
<g id="edge27" class="edge"><title>PU&#45;&gt;ENJ</title>
<path fill="none" stroke="black" d="M836.06,-20.5349C776.608,-25.6237 636.11,-47.4836 594,-141 575.452,-182.191 611.185,-229.523 636.922,-256.385"/>
<polygon fill="black" stroke="black" points="634.664,-259.079 644.19,-263.716 639.635,-254.15 634.664,-259.079"/>
<text text-anchor="middle" x="614.5" y="-144.8" font-family="Times,serif" font-size="14.00">0.213</text>
</g>
<!-- PU&#45;&gt;PEU -->
<g id="edge14" class="edge"><title>PU&#45;&gt;PEU</title>
<path fill="none" stroke="black" d="M889.995,-19.5846C1002.92,-22.1592 1432.48,-33.2887 1452,-54 1494.59,-99.2006 1453.15,-287.348 1408,-330 1388.88,-348.065 1316.86,-343.197 1291,-348 1278.12,-350.392 1264.11,-353.336 1251.57,-356.097"/>
<polygon fill="black" stroke="black" points="1250.44,-352.765 1241.44,-358.358 1251.96,-359.597 1250.44,-352.765"/>
<text text-anchor="middle" x="1486.5" y="-188.3" font-family="Times,serif" font-size="14.00">0.254</text>
</g>
<!-- PU&#45;&gt;SA -->
<g id="edge59" class="edge"><title>PU&#45;&gt;SA</title>
<path fill="none" stroke="black" d="M836.298,-20.8938C797.134,-24.2811 722.231,-33.0898 662,-54 632.881,-64.1092 620.212,-62.8955 601,-87 585.475,-106.479 591.726,-116.758 586,-141 561.155,-246.18 526.1,-300.737 595,-384 633.253,-430.227 662.385,-418.244 720,-435 726.899,-437.006 734.261,-439.227 741.281,-441.382"/>
<polygon fill="black" stroke="black" points="740.641,-444.848 751.229,-444.462 742.711,-438.161 740.641,-444.848"/>
<text text-anchor="middle" x="583.5" y="-231.8" font-family="Times,serif" font-size="14.00">0.081</text>
</g>
<!-- PU&#45;&gt;Pf -->
<g id="edge70" class="edge"><title>PU&#45;&gt;Pf</title>
<path fill="none" stroke="black" d="M890.192,-19.3276C1016.12,-20.9748 1537.48,-29.2733 1561,-54 1629.99,-126.531 1613.07,-434.533 1541,-504 1516.8,-527.328 1272.37,-517.97 1239,-522 1219.97,-524.297 1198.96,-528.036 1181.72,-531.423"/>
<polygon fill="black" stroke="black" points="1180.65,-528.069 1171.53,-533.47 1182.02,-534.932 1180.65,-528.069"/>
<text text-anchor="middle" x="1625.5" y="-275.3" font-family="Times,serif" font-size="14.00">0.066</text>
</g>
<!-- PU&#45;&gt;JR -->
<g id="edge74" class="edge"><title>PU&#45;&gt;JR</title>
<path fill="none" stroke="black" d="M835.83,-19.7998C715.92,-23.6822 240,-42.9376 240,-104 240,-280 240,-280 240,-280 240,-354.35 283.517,-364.336 336,-417 375.169,-456.305 393.491,-455.863 438,-489 496.907,-532.856 500.675,-561.663 568,-591 615.024,-611.491 631.67,-599.099 682,-609 694.184,-611.397 707.434,-614.408 719.207,-617.227"/>
<polygon fill="black" stroke="black" points="718.566,-620.673 729.109,-619.636 720.22,-613.871 718.566,-620.673"/>
<text text-anchor="middle" x="270.5" y="-318.8" font-family="Times,serif" font-size="14.00">0.059</text>
</g>
<!-- Qu&#45;&gt;Use -->
<g id="edge6" class="edge"><title>Qu&#45;&gt;Use</title>
<path fill="none" stroke="black" d="M890.012,-107.446C982.483,-112.453 1285.97,-129.385 1383,-141 1468.54,-151.24 1489.14,-159.157 1574,-174 1709.61,-197.719 1770.15,-143.721 1879,-228 1882.75,-230.907 2021,-534.252 2021,-539 2021,-715 2021,-715 2021,-715 2021,-757.685 1979.91,-752.828 1939,-765 1832.06,-796.816 1027.89,-799.735 840.807,-799.982"/>
<polygon fill="black" stroke="black" points="840.615,-796.482 830.619,-799.993 840.623,-803.482 840.615,-796.482"/>
<text text-anchor="middle" x="2012.5" y="-449.3" font-family="Times,serif" font-size="14.00">0.381</text>
</g>
<!-- Qu&#45;&gt;BI -->
<g id="edge9" class="edge"><title>Qu&#45;&gt;BI</title>
<path fill="none" stroke="black" d="M889.913,-107.339C959.335,-110.963 1150.08,-121.987 1308,-141 1398.75,-151.926 1422.59,-150.802 1511,-174 1555.88,-185.776 1563.64,-200.238 1609,-210 1636.23,-215.859 1838,-209.703 1859,-228 1916.62,-278.218 1811.63,-499.872 1762,-558 1747.74,-574.697 1625.51,-670.164 1605,-678 1566.7,-692.633 1291.28,-706.634 1190.13,-711.336"/>
<polygon fill="black" stroke="black" points="1189.89,-707.843 1180.07,-711.8 1190.22,-714.836 1189.89,-707.843"/>
<text text-anchor="middle" x="1866.5" y="-405.8" font-family="Times,serif" font-size="14.00">0.329</text>
</g>
<!-- Qu&#45;&gt;PU -->
<g id="edge10" class="edge"><title>Qu&#45;&gt;PU</title>
<path fill="none" stroke="black" d="M869.179,-87.4162C872.072,-77.7216 874.572,-65.2216 873,-54 872.619,-51.2776 872.078,-48.4698 871.444,-45.6842"/>
<polygon fill="black" stroke="black" points="874.792,-44.6564 868.85,-35.885 868.025,-46.4477 874.792,-44.6564"/>
<text text-anchor="middle" x="894.5" y="-57.8" font-family="Times,serif" font-size="14.00">0.305</text>
</g>
<!-- Qu&#45;&gt;Im -->
<g id="edge24" class="edge"><title>Qu&#45;&gt;Im</title>
<path fill="none" stroke="black" d="M889.979,-107.02C961.715,-109.993 1155.8,-119.816 1216,-141 1227.51,-145.051 1228.28,-150.176 1239,-156 1254,-164.143 1271.26,-171.96 1285.82,-178.132"/>
<polygon fill="black" stroke="black" points="1284.83,-181.511 1295.41,-182.127 1287.52,-175.05 1284.83,-181.511"/>
<text text-anchor="middle" x="1259.5" y="-144.8" font-family="Times,serif" font-size="14.00">0.216</text>
</g>
<!-- Qu&#45;&gt;ENJ -->
<g id="edge41" class="edge"><title>Qu&#45;&gt;ENJ</title>
<path fill="none" stroke="black" d="M840.892,-115.378C826.53,-121.834 807.641,-131.022 792,-141 743.848,-171.718 700.517,-223.45 677.466,-253.789"/>
<polygon fill="black" stroke="black" points="674.432,-252.002 671.248,-262.107 680.039,-256.194 674.432,-252.002"/>
<text text-anchor="middle" x="769.5" y="-188.3" font-family="Times,serif" font-size="14.00">0.129</text>
</g>
<!-- Qu&#45;&gt;PEU -->
<g id="edge13" class="edge"><title>Qu&#45;&gt;PEU</title>
<path fill="none" stroke="black" d="M889.768,-107.671C939.793,-111.233 1045.11,-120.938 1075,-141 1147.43,-189.617 1188.6,-290.366 1204.83,-338.404"/>
<polygon fill="black" stroke="black" points="1201.57,-339.673 1208.01,-348.085 1208.22,-337.492 1201.57,-339.673"/>
<text text-anchor="middle" x="1178" y="-231.8" font-family="Times,serif" font-size="14.00">0.26</text>
</g>
<!-- Qu&#45;&gt;SA -->
<g id="edge61" class="edge"><title>Qu&#45;&gt;SA</title>
<path fill="none" stroke="black" d="M846.002,-119.163C839.722,-125.078 833.329,-132.617 830,-141 813.269,-183.133 819.26,-198.957 830,-243 836.405,-269.265 845.212,-273.181 858,-297 862.329,-305.063 865.704,-306.141 868,-315 869.672,-321.454 870.133,-323.684 868,-330 854.22,-370.806 820.737,-408.742 797.944,-431.15"/>
<polygon fill="black" stroke="black" points="795.457,-428.686 790.668,-438.136 800.305,-433.735 795.457,-428.686"/>
<text text-anchor="middle" x="874" y="-275.3" font-family="Times,serif" font-size="14.00">0.08</text>
</g>
<!-- Qu&#45;&gt;Pf -->
<g id="edge64" class="edge"><title>Qu&#45;&gt;Pf</title>
<path fill="none" stroke="black" d="M857.807,-122.787C850.364,-150.343 840.031,-205.815 864,-243 871.614,-254.813 881.352,-249.921 890,-261 910.165,-286.833 900.549,-301.1 916,-330 952.345,-397.979 967.135,-412.216 1017,-471 1030.42,-486.817 1032.51,-492.851 1050,-504 1068.77,-515.963 1092.19,-524.606 1111.21,-530.31"/>
<polygon fill="black" stroke="black" points="1110.4,-533.72 1120.98,-533.103 1112.33,-526.99 1110.4,-533.72"/>
<text text-anchor="middle" x="936.5" y="-318.8" font-family="Times,serif" font-size="14.00">0.077</text>
</g>
<!-- Qu&#45;&gt;JR -->
<g id="edge71" class="edge"><title>Qu&#45;&gt;JR</title>
<path fill="none" stroke="black" d="M836.464,-108.942C793.73,-113.933 707.153,-125.089 635,-141 583.491,-152.359 567.191,-148.532 521,-174 514.625,-177.515 327.985,-341.36 325,-348 318.441,-362.594 316.588,-370.39 325,-384 358.938,-438.914 403.095,-406.464 461,-435 495.93,-452.214 504.561,-459.516 530,-489 564.068,-528.484 545.601,-560.636 588,-591 622.583,-615.767 640.402,-600.111 682,-609 694.143,-611.595 707.383,-614.655 719.16,-617.458"/>
<polygon fill="black" stroke="black" points="718.527,-620.905 729.068,-619.837 720.162,-614.099 718.527,-620.905"/>
<text text-anchor="middle" x="345.5" y="-362.3" font-family="Times,serif" font-size="14.00">0.063</text>
</g>
<!-- Im&#45;&gt;Use -->
<g id="edge7" class="edge"><title>Im&#45;&gt;Use</title>
<path fill="none" stroke="black" d="M1340.96,-201.54C1350.7,-204.783 1362.27,-208.141 1373,-210 1418.7,-217.913 1749.87,-204.752 1790,-228 1856.39,-266.464 1940,-462.27 1940,-539 1940,-715 1940,-715 1940,-715 1940,-739.65 1936.65,-751.546 1916,-765 1870.08,-794.913 1032.7,-799.293 840.908,-799.905"/>
<polygon fill="black" stroke="black" points="840.722,-796.405 830.733,-799.936 840.743,-803.405 840.722,-796.405"/>
<text text-anchor="middle" x="1957.5" y="-492.8" font-family="Times,serif" font-size="14.00">0.337</text>
</g>
<!-- Im&#45;&gt;BI -->
<g id="edge26" class="edge"><title>Im&#45;&gt;BI</title>
<path fill="none" stroke="black" d="M1341.25,-201.516C1350.94,-204.714 1362.38,-208.045 1373,-210 1434.1,-221.251 1594.69,-204.014 1652,-228 1753.63,-270.535 1748.33,-371.512 1701,-471 1672.85,-530.162 1522.2,-616.934 1463,-645 1418.03,-666.319 1404.4,-666.415 1356,-678 1298.41,-691.785 1230.39,-702.381 1189.53,-708.145"/>
<polygon fill="black" stroke="black" points="1188.92,-704.696 1179.5,-709.54 1189.88,-711.629 1188.92,-704.696"/>
<text text-anchor="middle" x="1737.5" y="-449.3" font-family="Times,serif" font-size="14.00">0.213</text>
</g>
<!-- Im&#45;&gt;PU -->
<g id="edge34" class="edge"><title>Im&#45;&gt;PU</title>
<path fill="none" stroke="black" d="M1320.78,-174.049C1323.5,-151.078 1324.45,-110.27 1302,-87 1246.84,-29.8241 996.128,-20.6347 900.349,-19.2257"/>
<polygon fill="black" stroke="black" points="900.292,-15.7248 890.249,-19.098 900.204,-22.7243 900.292,-15.7248"/>
<text text-anchor="middle" x="1340.5" y="-101.3" font-family="Times,serif" font-size="14.00">0.175</text>
</g>
<!-- Im&#45;&gt;Qu -->
<g id="edge43" class="edge"><title>Im&#45;&gt;Qu</title>
<path fill="none" stroke="black" d="M1291.35,-188.175C1260.97,-184.172 1210.43,-175.096 1171,-156 1161.32,-151.31 1161.93,-145.134 1152,-141 1107.27,-122.381 967.417,-112.019 900.029,-107.989"/>
<polygon fill="black" stroke="black" points="900.048,-104.485 889.861,-107.397 899.641,-111.473 900.048,-104.485"/>
<text text-anchor="middle" x="1191.5" y="-144.8" font-family="Times,serif" font-size="14.00">0.124</text>
</g>
<!-- Im&#45;&gt;ENJ -->
<g id="edge75" class="edge"><title>Im&#45;&gt;ENJ</title>
<path fill="none" stroke="black" d="M1291.22,-194.637C1240.14,-198.118 1125.46,-207.657 1031,-228 1009.15,-232.706 1004.89,-238.488 983,-243 907.288,-258.606 886.851,-252.647 810,-261 772.359,-265.091 729.432,-269.979 699.173,-273.461"/>
<polygon fill="black" stroke="black" points="698.561,-270.008 689.027,-274.63 699.362,-276.962 698.561,-270.008"/>
<text text-anchor="middle" x="1051.5" y="-231.8" font-family="Times,serif" font-size="14.00">0.058</text>
</g>
<!-- Im&#45;&gt;PEU -->
<g id="edge21" class="edge"><title>Im&#45;&gt;PEU</title>
<path fill="none" stroke="black" d="M1306.86,-208.705C1297.31,-222.341 1283.35,-242.713 1272,-261 1255.67,-287.309 1238.34,-318.265 1226.72,-339.523"/>
<polygon fill="black" stroke="black" points="1223.51,-338.099 1221.81,-348.556 1229.66,-341.444 1223.51,-338.099"/>
<text text-anchor="middle" x="1288" y="-275.3" font-family="Times,serif" font-size="14.00">0.22</text>
</g>
<!-- Im&#45;&gt;SA -->
<g id="edge63" class="edge"><title>Im&#45;&gt;SA</title>
<path fill="none" stroke="black" d="M1290.89,-193.458C1253.59,-195.1 1185.25,-201.803 1134,-228 1025.1,-283.666 1043.86,-363.266 934,-417 886.738,-440.116 867.725,-421.036 817,-435 813.559,-435.947 810.018,-437.093 806.521,-438.337"/>
<polygon fill="black" stroke="black" points="804.988,-435.176 796.9,-442.019 807.491,-441.713 804.988,-435.176"/>
<text text-anchor="middle" x="1060.5" y="-318.8" font-family="Times,serif" font-size="14.00">0.078</text>
</g>
<!-- Im&#45;&gt;Pf -->
<g id="edge78" class="edge"><title>Im&#45;&gt;Pf</title>
<path fill="none" stroke="black" d="M1318.37,-210.296C1318.51,-257.187 1313.01,-388.735 1251,-471 1232.16,-495.999 1201.25,-514.404 1177.83,-525.716"/>
<polygon fill="black" stroke="black" points="1176.23,-522.601 1168.63,-529.986 1179.17,-528.951 1176.23,-522.601"/>
<text text-anchor="middle" x="1324.5" y="-362.3" font-family="Times,serif" font-size="14.00">0.053</text>
</g>
<!-- Im&#45;&gt;JR -->
<g id="edge54" class="edge"><title>Im&#45;&gt;JR</title>
<path fill="none" stroke="black" d="M1341.66,-200.937C1351.31,-204.011 1362.63,-207.407 1373,-210 1489.36,-239.086 1561.62,-168.523 1638,-261 1655.69,-282.423 1598.57,-484.277 1579,-504 1518.97,-564.499 1477.48,-536.533 1395,-558 1331.04,-574.647 1315.38,-581.312 1250,-591 1079.84,-616.214 874.064,-623.382 791.213,-625.32"/>
<polygon fill="black" stroke="black" points="790.96,-621.825 781.04,-625.546 791.116,-628.823 790.96,-621.825"/>
<text text-anchor="middle" x="1638.5" y="-405.8" font-family="Times,serif" font-size="14.00">0.098</text>
</g>
<!-- ENJ&#45;&gt;Use -->
<g id="edge18" class="edge"><title>ENJ&#45;&gt;Use</title>
<path fill="none" stroke="black" d="M638.001,-291.289C633.737,-293.304 629.268,-295.3 625,-297 600.319,-306.83 590.375,-300.677 568,-315 551.306,-325.687 550.761,-332.832 538,-348 524.951,-363.511 526.828,-372.701 510,-384 416.892,-446.517 267,-339.851 267,-452 267,-715 267,-715 267,-715 267,-778.15 338.417,-751.02 400,-765 530.882,-794.71 691.005,-799.554 763.305,-800.111"/>
<polygon fill="black" stroke="black" points="763.303,-803.611 773.322,-800.164 763.34,-796.611 763.303,-803.611"/>
<text text-anchor="middle" x="287.5" y="-536.3" font-family="Times,serif" font-size="14.00">0.226</text>
</g>
<!-- ENJ&#45;&gt;BI -->
<g id="edge37" class="edge"><title>ENJ&#45;&gt;BI</title>
<path fill="none" stroke="black" d="M637.438,-291.039C633.308,-293.038 629.029,-295.092 625,-297 607.746,-305.171 600.629,-302.735 586,-315 557.372,-339 562.49,-355.79 538,-384 493.056,-435.77 452.393,-426.153 425,-489 395.963,-555.62 415.32,-602.127 474,-645 519.009,-677.885 540.01,-668.875 595,-678 646.071,-686.475 999.545,-705.132 1115.93,-711.114"/>
<polygon fill="black" stroke="black" points="1115.96,-714.62 1126.12,-711.637 1116.32,-707.629 1115.96,-714.62"/>
<text text-anchor="middle" x="445.5" y="-492.8" font-family="Times,serif" font-size="14.00">0.149</text>
</g>
<!-- ENJ&#45;&gt;PU -->
<g id="edge25" class="edge"><title>ENJ&#45;&gt;PU</title>
<path fill="none" stroke="black" d="M652.2,-261.484C640.609,-234.317 622.49,-179.392 645,-141 684.608,-73.4447 776.792,-40.4937 827.683,-26.9398"/>
<polygon fill="black" stroke="black" points="828.761,-30.277 837.583,-24.4097 827.027,-23.495 828.761,-30.277"/>
<text text-anchor="middle" x="665.5" y="-144.8" font-family="Times,serif" font-size="14.00">0.215</text>
</g>
<!-- ENJ&#45;&gt;Qu -->
<g id="edge47" class="edge"><title>ENJ&#45;&gt;Qu</title>
<path fill="none" stroke="black" d="M656.495,-260.862C652.948,-238.419 650.439,-199 670,-174 707.495,-126.081 781.205,-111.843 825.89,-107.668"/>
<polygon fill="black" stroke="black" points="826.359,-111.142 836.044,-106.846 825.794,-104.165 826.359,-111.142"/>
<text text-anchor="middle" x="690.5" y="-188.3" font-family="Times,serif" font-size="14.00">0.111</text>
</g>
<!-- ENJ&#45;&gt;Im -->
<g id="edge39" class="edge"><title>ENJ&#45;&gt;Im</title>
<path fill="none" stroke="black" d="M689.179,-274.791C752.346,-267.738 897.79,-250.89 919,-243 930.438,-238.745 930.476,-232.016 942,-228 1003.9,-206.425 1198.55,-197.199 1280.76,-194.195"/>
<polygon fill="black" stroke="black" points="1281.04,-197.688 1290.91,-193.835 1280.79,-190.692 1281.04,-197.688"/>
<text text-anchor="middle" x="962.5" y="-231.8" font-family="Times,serif" font-size="14.00">0.141</text>
</g>
<!-- ENJ&#45;&gt;PEU -->
<g id="edge11" class="edge"><title>ENJ&#45;&gt;PEU</title>
<path fill="none" stroke="black" d="M687.474,-286.123C716.551,-292.732 763.714,-303.822 804,-315 825.537,-320.976 830.094,-325.565 852,-330 966.233,-353.129 1104,-361.109 1171.55,-363.755"/>
<polygon fill="black" stroke="black" points="1171.65,-367.261 1181.78,-364.136 1171.91,-360.266 1171.65,-367.261"/>
<text text-anchor="middle" x="872.5" y="-318.8" font-family="Times,serif" font-size="14.00">0.294</text>
</g>
<!-- ENJ&#45;&gt;SA -->
<g id="edge49" class="edge"><title>ENJ&#45;&gt;SA</title>
<path fill="none" stroke="black" d="M661.242,-297.024C662.323,-306.865 664.323,-319.365 668,-330 676.971,-355.948 680.795,-362.604 698,-384 712.942,-402.582 733.278,-420.301 749.299,-432.991"/>
<polygon fill="black" stroke="black" points="747.186,-435.782 757.232,-439.147 751.477,-430.251 747.186,-435.782"/>
<text text-anchor="middle" x="718.5" y="-362.3" font-family="Times,serif" font-size="14.00">0.108</text>
</g>
<!-- ENJ&#45;&gt;Pf -->
<g id="edge85" class="edge"><title>ENJ&#45;&gt;Pf</title>
<path fill="none" stroke="black" d="M679.917,-292.588C702.267,-306.619 736.289,-327.66 743,-330 772.41,-340.254 860.283,-325.673 882,-348 903.492,-370.095 872.852,-390.744 889,-417 898.398,-432.28 1008.66,-496.598 1025,-504 1052.54,-516.475 1085.62,-525.683 1110.23,-531.515"/>
<polygon fill="black" stroke="black" points="1109.69,-534.982 1120.22,-533.808 1111.25,-528.159 1109.69,-534.982"/>
<text text-anchor="middle" x="909.5" y="-405.8" font-family="Times,serif" font-size="14.00">0.038</text>
</g>
<!-- ENJ&#45;&gt;JR -->
<g id="edge73" class="edge"><title>ENJ&#45;&gt;JR</title>
<path fill="none" stroke="black" d="M659.82,-297.151C659.849,-306.814 660.105,-319.097 661,-330 669.373,-432.046 669.04,-458.7 694,-558 697.804,-573.135 696.62,-578.527 706,-591 711.143,-597.839 717.994,-603.921 724.906,-609.019"/>
<polygon fill="black" stroke="black" points="723.337,-612.186 733.57,-614.933 727.283,-606.404 723.337,-612.186"/>
<text text-anchor="middle" x="695.5" y="-449.3" font-family="Times,serif" font-size="14.00">0.059</text>
</g>
<!-- PEU&#45;&gt;Use -->
<g id="edge33" class="edge"><title>PEU&#45;&gt;Use</title>
<path fill="none" stroke="black" d="M1240.35,-374.917C1263.14,-381.666 1296.39,-391.859 1325,-402 1481.65,-457.528 1565.13,-436.84 1656,-576 1694.25,-634.577 1690.14,-688.947 1635,-732 1590.39,-766.832 1567.92,-756.224 1512,-765 1380.96,-785.568 969.393,-796.272 840.793,-799.176"/>
<polygon fill="black" stroke="black" points="840.55,-795.68 830.63,-799.402 840.706,-802.678 840.55,-795.68"/>
<text text-anchor="middle" x="1685.5" y="-579.8" font-family="Times,serif" font-size="14.00">0.185</text>
</g>
<!-- PEU&#45;&gt;BI -->
<g id="edge77" class="edge"><title>PEU&#45;&gt;BI</title>
<path fill="none" stroke="black" d="M1223.42,-383.313C1237.53,-407.032 1261,-452.872 1261,-495.5 1261,-628 1261,-628 1261,-628 1261,-666.382 1218.36,-690.09 1186.66,-702.41"/>
<polygon fill="black" stroke="black" points="1185.42,-699.139 1177.24,-705.871 1187.83,-705.709 1185.42,-699.139"/>
<text text-anchor="middle" x="1281.5" y="-536.3" font-family="Times,serif" font-size="14.00">0.053</text>
</g>
<!-- PEU&#45;&gt;PU -->
<g id="edge53" class="edge"><title>PEU&#45;&gt;PU</title>
<path fill="none" stroke="black" d="M1237.31,-354.383C1273.25,-337.116 1338.89,-299.136 1363,-243 1390.36,-179.287 1405.28,-143.44 1365,-87 1338.79,-50.2762 1313.14,-63.3409 1269,-54 1135.68,-25.7874 973.146,-20.2154 900.828,-19.1857"/>
<polygon fill="black" stroke="black" points="900.461,-15.6812 890.42,-19.0606 900.377,-22.6807 900.461,-15.6812"/>
<text text-anchor="middle" x="1399.5" y="-188.3" font-family="Times,serif" font-size="14.00">0.1</text>
</g>
<!-- PEU&#45;&gt;Qu -->
<g id="edge57" class="edge"><title>PEU&#45;&gt;Qu</title>
<path fill="none" stroke="black" d="M1182.66,-361.138C1149.2,-356.283 1094.11,-346.519 1049,-330 1035.74,-325.145 1033.47,-321.611 1021,-315 975.33,-290.796 964.861,-282.81 918,-261 898.844,-252.085 886.47,-260.056 874,-243 861.652,-226.111 861.059,-168.076 861.911,-133.19"/>
<polygon fill="black" stroke="black" points="865.41,-133.278 862.21,-123.178 858.413,-133.069 865.41,-133.278"/>
<text text-anchor="middle" x="894.5" y="-231.8" font-family="Times,serif" font-size="14.00">0.092</text>
</g>
<!-- PEU&#45;&gt;Im -->
<g id="edge40" class="edge"><title>PEU&#45;&gt;Im</title>
<path fill="none" stroke="black" d="M1208.97,-347.913C1204.81,-326.22 1200.86,-288.336 1216,-261 1230.86,-234.164 1261.33,-215.991 1285.11,-205.232"/>
<polygon fill="black" stroke="black" points="1286.69,-208.363 1294.5,-201.204 1283.93,-201.929 1286.69,-208.363"/>
<text text-anchor="middle" x="1232" y="-275.3" font-family="Times,serif" font-size="14.00">0.13</text>
</g>
<!-- PEU&#45;&gt;ENJ -->
<g id="edge36" class="edge"><title>PEU&#45;&gt;ENJ</title>
<path fill="none" stroke="black" d="M1181.94,-363.105C1082.71,-356.984 778.696,-337.699 759,-330 748.979,-326.083 749.226,-320.535 740,-315 725.741,-306.446 709.014,-298.796 694.552,-292.847"/>
<polygon fill="black" stroke="black" points="695.544,-289.474 684.96,-289.01 692.944,-295.974 695.544,-289.474"/>
<text text-anchor="middle" x="779.5" y="-318.8" font-family="Times,serif" font-size="14.00">0.162</text>
</g>
<!-- PEU&#45;&gt;SA -->
<g id="edge55" class="edge"><title>PEU&#45;&gt;SA</title>
<path fill="none" stroke="black" d="M1181.85,-368.198C1143.23,-370.69 1076.12,-378.366 1024,-402 1014.2,-406.443 1014.87,-412.715 1005,-417 1003.89,-417.481 875.943,-436.797 811.387,-446.523"/>
<polygon fill="black" stroke="black" points="810.595,-443.102 801.228,-448.053 811.638,-450.024 810.595,-443.102"/>
<text text-anchor="middle" x="1044.5" y="-405.8" font-family="Times,serif" font-size="14.00">0.095</text>
</g>
<!-- PEU&#45;&gt;Pf -->
<g id="edge80" class="edge"><title>PEU&#45;&gt;Pf</title>
<path fill="none" stroke="black" d="M1217.93,-383.984C1219.99,-393.813 1221.24,-406.313 1218,-417 1215.21,-426.202 1211.07,-426.832 1206,-435 1189.5,-461.568 1171.74,-492.713 1159.85,-513.947"/>
<polygon fill="black" stroke="black" points="1156.64,-512.515 1154.83,-522.954 1162.76,-515.923 1156.64,-512.515"/>
<text text-anchor="middle" x="1226.5" y="-449.3" font-family="Times,serif" font-size="14.00">0.051</text>
</g>
<!-- PEU&#45;&gt;JR -->
<g id="edge81" class="edge"><title>PEU&#45;&gt;JR</title>
<path fill="none" stroke="black" d="M1197.61,-382.14C1186.38,-392.696 1170.49,-406.683 1155,-417 1140.11,-426.916 1134.93,-426.859 1119,-435 993.866,-498.951 845.797,-577.252 783.717,-610.201"/>
<polygon fill="black" stroke="black" points="781.699,-607.31 774.509,-615.091 784.982,-613.492 781.699,-607.31"/>
<text text-anchor="middle" x="1031.5" y="-492.8" font-family="Times,serif" font-size="14.00">0.049</text>
</g>
<!-- SA&#45;&gt;Use -->
<g id="edge31" class="edge"><title>SA&#45;&gt;Use</title>
<path fill="none" stroke="black" d="M748.814,-458.335C730.824,-462.787 708.086,-471.642 696,-489 613.177,-607.949 665.442,-663.142 683,-732 687.128,-748.189 688.249,-754.205 701,-765 718.932,-780.182 743.832,-788.907 764.42,-793.85"/>
<polygon fill="black" stroke="black" points="763.915,-797.322 774.432,-796.044 765.413,-790.484 763.915,-797.322"/>
<text text-anchor="middle" x="666.5" y="-623.3" font-family="Times,serif" font-size="14.00">0.2</text>
</g>
<!-- SA&#45;&gt;BI -->
<g id="edge67" class="edge"><title>SA&#45;&gt;BI</title>
<path fill="none" stroke="black" d="M787.972,-469.056C797.09,-479.317 809.794,-492.986 822,-504 822.548,-504.494 977.972,-625.626 1010,-645 1038.4,-662.181 1047.03,-663.723 1077,-678 1091.81,-685.056 1108.34,-692.698 1122.2,-699.036"/>
<polygon fill="black" stroke="black" points="1120.76,-702.226 1131.31,-703.192 1123.66,-695.857 1120.76,-702.226"/>
<text text-anchor="middle" x="955.5" y="-579.8" font-family="Times,serif" font-size="14.00">0.072</text>
</g>
<!-- SA&#45;&gt;PU -->
<g id="edge62" class="edge"><title>SA&#45;&gt;PU</title>
<path fill="none" stroke="black" d="M751.666,-443.901C741.965,-440.767 730.53,-437.371 720,-435 636.735,-416.255 342,-452.348 342,-367 342,-367 342,-367 342,-104 342,-54.9039 707.033,-28.4445 826.003,-21.1247"/>
<polygon fill="black" stroke="black" points="826.316,-24.6122 836.086,-20.5141 825.893,-17.625 826.316,-24.6122"/>
<text text-anchor="middle" x="358" y="-231.8" font-family="Times,serif" font-size="14.00">0.08</text>
</g>
<!-- SA&#45;&gt;Qu -->
<g id="edge72" class="edge"><title>SA&#45;&gt;Qu</title>
<path fill="none" stroke="black" d="M750.641,-444.969C707.824,-431.116 620.357,-395.771 586,-330 580.582,-319.627 573.834,-303.722 589,-261 611.942,-196.373 625.262,-172.841 686,-141 730.315,-117.769 788.238,-109.902 825.535,-107.27"/>
<polygon fill="black" stroke="black" points="826.177,-110.738 835.945,-106.634 825.75,-103.751 826.177,-110.738"/>
<text text-anchor="middle" x="605" y="-275.3" font-family="Times,serif" font-size="14.00">0.06</text>
</g>
<!-- SA&#45;&gt;Im -->
<g id="edge38" class="edge"><title>SA&#45;&gt;Im</title>
<path fill="none" stroke="black" d="M796.418,-442.012C802.907,-439.349 810.136,-436.733 817,-435 887.668,-417.159 911.531,-441.984 980,-417 996.328,-411.042 1099.05,-343.497 1110,-330 1140.78,-292.058 1113.56,-259.386 1151,-228 1170.4,-211.739 1238.33,-201.59 1281.34,-196.64"/>
<polygon fill="black" stroke="black" points="1281.88,-200.102 1291.43,-195.521 1281.11,-193.145 1281.88,-200.102"/>
<text text-anchor="middle" x="1140.5" y="-318.8" font-family="Times,serif" font-size="14.00">0.147</text>
</g>
<!-- SA&#45;&gt;ENJ -->
<g id="edge51" class="edge"><title>SA&#45;&gt;ENJ</title>
<path fill="none" stroke="black" d="M773.477,-434.982C770.579,-412.31 762.301,-372.246 739,-348 723.788,-332.171 710.068,-343.808 693,-330 684.838,-323.397 677.982,-314.228 672.671,-305.543"/>
<polygon fill="black" stroke="black" points="675.686,-303.764 667.706,-296.795 669.599,-307.219 675.686,-303.764"/>
<text text-anchor="middle" x="781.5" y="-362.3" font-family="Times,serif" font-size="14.00">0.103</text>
</g>
<!-- SA&#45;&gt;PEU -->
<g id="edge15" class="edge"><title>SA&#45;&gt;PEU</title>
<path fill="none" stroke="black" d="M800.98,-447.713C823.851,-444.029 858.077,-438.736 888,-435 968.218,-424.984 992.746,-443.846 1069,-417 1080.51,-412.947 1080.91,-407.085 1092,-402 1118.27,-389.962 1149.65,-381.027 1173.87,-375.199"/>
<polygon fill="black" stroke="black" points="1174.84,-378.568 1183.78,-372.891 1173.25,-371.751 1174.84,-378.568"/>
<text text-anchor="middle" x="1108" y="-405.8" font-family="Times,serif" font-size="14.00">0.25</text>
</g>
<!-- SA&#45;&gt;Pf -->
<g id="edge68" class="edge"><title>SA&#45;&gt;Pf</title>
<path fill="none" stroke="black" d="M796.456,-464.138C810.238,-470.832 828.413,-479.999 844,-489 854.569,-495.103 855.542,-499.8 867,-504 878.249,-508.123 1036.36,-526.51 1109.44,-534.856"/>
<polygon fill="black" stroke="black" points="1109.25,-538.356 1119.58,-536.011 1110.04,-531.401 1109.25,-538.356"/>
<text text-anchor="middle" x="887.5" y="-492.8" font-family="Times,serif" font-size="14.00">0.067</text>
</g>
<!-- SA&#45;&gt;JR -->
<g id="edge60" class="edge"><title>SA&#45;&gt;JR</title>
<path fill="none" stroke="black" d="M750.099,-460.123C734.665,-465.243 715.788,-474.165 705,-489 696.275,-500.997 701.114,-507.208 700,-522 698.798,-537.955 694.731,-542.892 700,-558 706.249,-575.917 719.408,-592.655 731.171,-605.041"/>
<polygon fill="black" stroke="black" points="728.712,-607.532 738.241,-612.163 733.68,-602.6 728.712,-607.532"/>
<text text-anchor="middle" x="716" y="-536.3" font-family="Times,serif" font-size="14.00">0.08</text>
</g>
<!-- Pf&#45;&gt;Use -->
<g id="edge17" class="edge"><title>Pf&#45;&gt;Use</title>
<path fill="none" stroke="black" d="M1136.8,-557.208C1129.73,-568.269 1118.98,-582.418 1106,-591 1006.69,-656.649 932.599,-579.241 848,-663 825.31,-685.464 838.155,-701.729 828,-732 823.306,-745.994 817.484,-761.371 812.54,-773.957"/>
<polygon fill="black" stroke="black" points="809.239,-772.787 808.801,-783.373 815.745,-775.37 809.239,-772.787"/>
<text text-anchor="middle" x="868.5" y="-666.8" font-family="Times,serif" font-size="14.00">0.232</text>
</g>
<!-- Pf&#45;&gt;BI -->
<g id="edge50" class="edge"><title>Pf&#45;&gt;BI</title>
<path fill="none" stroke="black" d="M1157.87,-556.192C1161.81,-562.058 1165.76,-569.03 1168,-576 1179.88,-612.965 1170.67,-658.113 1162.34,-686.218"/>
<polygon fill="black" stroke="black" points="1158.89,-685.513 1159.23,-696.103 1165.57,-687.611 1158.89,-685.513"/>
<text text-anchor="middle" x="1194.5" y="-623.3" font-family="Times,serif" font-size="14.00">0.106</text>
</g>
<!-- Pf&#45;&gt;PU -->
<g id="edge82" class="edge"><title>Pf&#45;&gt;PU</title>
<path fill="none" stroke="black" d="M1171.65,-534.291C1190.33,-530.868 1216.23,-526.131 1239,-522 1366.91,-498.797 1445.41,-528.645 1512,-417 1553.59,-347.281 1536.13,-102.465 1471,-54 1425.31,-19.998 1025.81,-18.4387 900.458,-18.7973"/>
<polygon fill="black" stroke="black" points="900.199,-15.298 890.212,-18.8327 900.224,-22.298 900.199,-15.298"/>
<text text-anchor="middle" x="1555.5" y="-275.3" font-family="Times,serif" font-size="14.00">0.045</text>
</g>
<!-- Pf&#45;&gt;Qu -->
<g id="edge83" class="edge"><title>Pf&#45;&gt;Qu</title>
<path fill="none" stroke="black" d="M1137.52,-522.763C1131,-509.307 1122.53,-489.464 1119,-471 1115.99,-455.285 1115.32,-450.572 1119,-435 1122.49,-420.204 1135.96,-414.954 1128,-402 1090.97,-341.703 1023.03,-390.297 986,-330 958.356,-284.989 1071.98,-274.54 1047,-228 1015.13,-168.63 940.256,-133.267 896.474,-116.937"/>
<polygon fill="black" stroke="black" points="897.438,-113.564 886.843,-113.465 895.064,-120.149 897.438,-113.564"/>
<text text-anchor="middle" x="1006.5" y="-318.8" font-family="Times,serif" font-size="14.00">0.044</text>
</g>
<!-- Pf&#45;&gt;Im -->
<g id="edge52" class="edge"><title>Pf&#45;&gt;Im</title>
<path fill="none" stroke="black" d="M1171.65,-533.647C1231.35,-520.933 1375.6,-488.669 1389,-471 1448.91,-392.029 1372.78,-267.86 1335.91,-216.472"/>
<polygon fill="black" stroke="black" points="1338.67,-214.312 1329.94,-208.307 1333.02,-218.445 1338.67,-214.312"/>
<text text-anchor="middle" x="1431.5" y="-362.3" font-family="Times,serif" font-size="14.00">0.102</text>
</g>
<!-- Pf&#45;&gt;ENJ -->
<g id="edge89" class="edge"><title>Pf&#45;&gt;ENJ</title>
<path fill="none" stroke="black" d="M1120.08,-534.863C1090.42,-529.657 1040.68,-519.479 1000,-504 986.805,-498.98 985.095,-494.276 972,-489 944.593,-477.958 933.206,-486.419 908,-471 880.098,-453.932 878.981,-442.093 858,-417 833.368,-387.541 838.466,-368.507 806,-348 772.248,-326.681 753.831,-347.601 718,-330 704.307,-323.274 691.237,-312.531 680.981,-302.725"/>
<polygon fill="black" stroke="black" points="683.277,-300.071 673.724,-295.49 678.335,-305.029 683.277,-300.071"/>
<text text-anchor="middle" x="869.5" y="-405.8" font-family="Times,serif" font-size="14.00">0.0</text>
</g>
<!-- Pf&#45;&gt;PEU -->
<g id="edge29" class="edge"><title>Pf&#45;&gt;PEU</title>
<path fill="none" stroke="black" d="M1143.3,-521.697C1141.6,-511.987 1139.13,-499.707 1136,-489 1129.22,-465.77 1114.17,-454.125 1129,-435 1148.68,-409.614 1176.04,-439.471 1199,-417 1205.23,-410.903 1208.75,-402.279 1210.72,-393.907"/>
<polygon fill="black" stroke="black" points="1214.18,-394.456 1212.43,-384.006 1207.28,-393.264 1214.18,-394.456"/>
<text text-anchor="middle" x="1149.5" y="-449.3" font-family="Times,serif" font-size="14.00">0.204</text>
</g>
<!-- Pf&#45;&gt;SA -->
<g id="edge69" class="edge"><title>Pf&#45;&gt;SA</title>
<path fill="none" stroke="black" d="M1118.92,-538.168C1077.22,-536.105 995.356,-528.934 931,-504 919.62,-499.591 919.216,-493.811 908,-489 876.099,-475.315 865.535,-479.964 832,-471 824.439,-468.979 816.359,-466.665 808.73,-464.408"/>
<polygon fill="black" stroke="black" points="809.626,-461.022 799.043,-461.503 807.616,-467.728 809.626,-461.022"/>
<text text-anchor="middle" x="951.5" y="-492.8" font-family="Times,serif" font-size="14.00">0.066</text>
</g>
<!-- Pf&#45;&gt;JR -->
<g id="edge65" class="edge"><title>Pf&#45;&gt;JR</title>
<path fill="none" stroke="black" d="M1122.74,-549.228C1105.35,-555.7 1081.2,-565.376 1061,-576 1050.2,-581.682 1049.46,-586.812 1038,-591 953.614,-621.828 846.726,-626.567 791.24,-626.693"/>
<polygon fill="black" stroke="black" points="791.182,-623.192 781.173,-626.665 791.163,-630.192 791.182,-623.192"/>
<text text-anchor="middle" x="1081.5" y="-579.8" font-family="Times,serif" font-size="14.00">0.074</text>
</g>
<!-- JR&#45;&gt;Use -->
<g id="edge35" class="edge"><title>JR&#45;&gt;Use</title>
<path fill="none" stroke="black" d="M736.324,-640.864C711.976,-660.247 673.05,-698.27 691,-732 706.439,-761.012 740.156,-779.006 766.403,-789.138"/>
<polygon fill="black" stroke="black" points="765.449,-792.515 776.043,-792.642 767.841,-785.936 765.449,-792.515"/>
<text text-anchor="middle" x="711.5" y="-710.3" font-family="Times,serif" font-size="14.00">0.164</text>
</g>
<!-- JR&#45;&gt;BI -->
<g id="edge86" class="edge"><title>JR&#45;&gt;BI</title>
<path fill="none" stroke="black" d="M780.204,-631.931C808.795,-636.822 855.494,-646.597 893,-663 904.181,-667.89 904.588,-673.675 916,-678 983.254,-703.488 1067.79,-710.513 1115.57,-712.387"/>
<polygon fill="black" stroke="black" points="1115.64,-715.892 1125.76,-712.73 1115.88,-708.896 1115.64,-715.892"/>
<text text-anchor="middle" x="936.5" y="-666.8" font-family="Times,serif" font-size="14.00">0.021</text>
</g>
<!-- JR&#45;&gt;PU -->
<g id="edge88" class="edge"><title>JR&#45;&gt;PU</title>
<path fill="none" stroke="black" d="M729.149,-619.425C715.34,-615.951 697.803,-611.831 682,-609 617.644,-597.471 598.41,-610.483 536,-591 376.388,-541.173 151,-419.694 151,-323.5 151,-323.5 151,-323.5 151,-104 151,-35.381 679.139,-21.9093 825.687,-19.4919"/>
<polygon fill="black" stroke="black" points="826.014,-22.9873 835.958,-19.3305 825.904,-15.9882 826.014,-22.9873"/>
<text text-anchor="middle" x="172.5" y="-318.8" font-family="Times,serif" font-size="14.00">0.007</text>
</g>
<!-- JR&#45;&gt;Qu -->
<g id="edge87" class="edge"><title>JR&#45;&gt;Qu</title>
<path fill="none" stroke="black" d="M732.149,-616.165C720.242,-610.08 705.781,-601.439 695,-591 616.611,-515.099 593.556,-488.748 563,-384 553.848,-352.625 575.806,-265.761 577,-261 586.953,-221.328 581.931,-206.318 607,-174 623.319,-152.962 632.233,-150.773 657,-141 713.306,-118.782 783.728,-110.658 825.944,-107.694"/>
<polygon fill="black" stroke="black" points="826.288,-111.179 836.044,-107.046 825.84,-104.194 826.288,-111.179"/>
<text text-anchor="middle" x="579" y="-362.3" font-family="Times,serif" font-size="14.00">0.02</text>
</g>
<!-- JR&#45;&gt;Im -->
<g id="edge42" class="edge"><title>JR&#45;&gt;Im</title>
<path fill="none" stroke="black" d="M780.797,-624.348C891.121,-617.363 1306.72,-589.172 1356,-558 1443.36,-502.735 1489.31,-445.86 1456,-348 1435.61,-288.102 1378.25,-237.441 1344.24,-211.532"/>
<polygon fill="black" stroke="black" points="1346.24,-208.659 1336.14,-205.488 1342.06,-214.271 1346.24,-208.659"/>
<text text-anchor="middle" x="1487.5" y="-405.8" font-family="Times,serif" font-size="14.00">0.128</text>
</g>
<!-- JR&#45;&gt;PEU -->
<g id="edge32" class="edge"><title>JR&#45;&gt;PEU</title>
<path fill="none" stroke="black" d="M762.591,-609.929C769.508,-596.406 779.03,-576.387 785,-558 794.664,-528.238 777.072,-511.323 799,-489 902.677,-383.457 985.796,-469.801 1124,-417 1145.23,-408.888 1167.53,-396.355 1184.49,-385.867"/>
<polygon fill="black" stroke="black" points="1186.74,-388.588 1193.33,-380.291 1183,-382.668 1186.74,-388.588"/>
<text text-anchor="middle" x="819.5" y="-492.8" font-family="Times,serif" font-size="14.00">0.198</text>
</g>
<!-- JR&#45;&gt;SA -->
<g id="edge79" class="edge"><title>JR&#45;&gt;SA</title>
<path fill="none" stroke="black" d="M750.312,-608.973C743.042,-574.693 727.986,-499.705 733,-489 736.084,-482.416 741.082,-476.639 746.573,-471.775"/>
<polygon fill="black" stroke="black" points="749.099,-474.242 754.805,-465.315 744.777,-468.735 749.099,-474.242"/>
<text text-anchor="middle" x="760.5" y="-536.3" font-family="Times,serif" font-size="14.00">0.052</text>
</g>
<!-- JR&#45;&gt;Pf -->
<g id="edge84" class="edge"><title>JR&#45;&gt;Pf</title>
<path fill="none" stroke="black" d="M778.044,-618.435C796.967,-612.108 823.763,-602.315 846,-591 856.877,-585.465 857.543,-580.205 869,-576 950.694,-546.013 1054.04,-540.872 1108.49,-540.476"/>
<polygon fill="black" stroke="black" points="1108.71,-543.976 1118.7,-540.454 1108.7,-536.976 1108.71,-543.976"/>
<text text-anchor="middle" x="889.5" y="-579.8" font-family="Times,serif" font-size="14.00">0.041</text>
</g>
</g>
</svg>
