<?xml version="1.0" encoding="UTF-8" standalone="no"?>
<!DOCTYPE svg PUBLIC "-//W3C//DTD SVG 1.1//EN"
 "http://www.w3.org/Graphics/SVG/1.1/DTD/svg11.dtd">
<!-- Generated by graphviz version 2.38.0 (20140413.2041)
 -->
<!-- Title: G Pages: 1 -->
<svg width="2065pt" height="827pt"
 viewBox="0.00 0.00 2065.00 827.00" xmlns="http://www.w3.org/2000/svg" xmlns:xlink="http://www.w3.org/1999/xlink">
<g id="graph0" class="graph" transform="scale(1 1) rotate(0) translate(4 823)">
<title>G</title>
<polygon fill="white" stroke="none" points="-4,4 -4,-823 2061,-823 2061,4 -4,4"/>
<!-- Use -->
<g id="node1" class="node"><title>Use</title>
<ellipse fill="none" stroke="black" cx="901" cy="-801" rx="28.6953" ry="18"/>
<text text-anchor="middle" x="901" y="-797.3" font-family="Times,serif" font-size="14.00">Use</text>
</g>
<!-- BI -->
<g id="node2" class="node"><title>BI</title>
<ellipse fill="none" stroke="black" cx="656" cy="-714" rx="27" ry="18"/>
<text text-anchor="middle" x="656" y="-710.3" font-family="Times,serif" font-size="14.00">BI</text>
</g>
<!-- Use&#45;&gt;BI -->
<g id="edge1" class="edge"><title>Use&#45;&gt;BI</title>
<path fill="none" stroke="black" d="M872.725,-797.795C823.299,-793.523 723.623,-782.927 694,-765 684.104,-759.011 675.883,-749.399 669.65,-740.194"/>
<polygon fill="black" stroke="black" points="672.562,-738.25 664.292,-731.627 666.627,-741.961 672.562,-738.25"/>
<text text-anchor="middle" x="714.5" y="-753.8" font-family="Times,serif" font-size="14.00">0.558</text>
</g>
<!-- PU -->
<g id="node3" class="node"><title>PU</title>
<ellipse fill="none" stroke="black" cx="849" cy="-18" rx="27" ry="18"/>
<text text-anchor="middle" x="849" y="-14.3" font-family="Times,serif" font-size="14.00">PU</text>
</g>
<!-- Use&#45;&gt;PU -->
<g id="edge4" class="edge"><title>Use&#45;&gt;PU</title>
<path fill="none" stroke="black" d="M872.314,-799.712C735.308,-798.215 151.031,-790.378 74,-765 36.3006,-752.58 0,-754.693 0,-715 0,-715 0,-715 0,-104 0,-64.3074 36.3182,-66.4736 74,-54 144.323,-30.7214 666.11,-21.6048 811.494,-19.5008"/>
<polygon fill="black" stroke="black" points="811.739,-22.9978 821.689,-19.356 811.64,-15.9985 811.739,-22.9978"/>
<text text-anchor="middle" x="16" y="-405.8" font-family="Times,serif" font-size="14.00">0.37</text>
</g>
<!-- Qu -->
<g id="node4" class="node"><title>Qu</title>
<ellipse fill="none" stroke="black" cx="1040" cy="-105" rx="27" ry="18"/>
<text text-anchor="middle" x="1040" y="-101.3" font-family="Times,serif" font-size="14.00">Qu</text>
</g>
<!-- Use&#45;&gt;Qu -->
<g id="edge23" class="edge"><title>Use&#45;&gt;Qu</title>
<path fill="none" stroke="black" d="M929.657,-799.133C1094.35,-793.969 1913,-765.745 1913,-715 1913,-715 1913,-715 1913,-582.5 1913,-382.079 1897.59,-270.626 1722,-174 1609.69,-112.196 1203.29,-106.257 1077.43,-105.926"/>
<polygon fill="black" stroke="black" points="1077.15,-102.426 1067.15,-105.91 1077.14,-109.426 1077.15,-102.426"/>
<text text-anchor="middle" x="1929.5" y="-449.3" font-family="Times,serif" font-size="14.00">0.201</text>
</g>
<!-- Im -->
<g id="node5" class="node"><title>Im</title>
<ellipse fill="none" stroke="black" cx="1031" cy="-192" rx="27" ry="18"/>
<text text-anchor="middle" x="1031" y="-188.3" font-family="Times,serif" font-size="14.00">Im</text>
</g>
<!-- Use&#45;&gt;Im -->
<g id="edge15" class="edge"><title>Use&#45;&gt;Im</title>
<path fill="none" stroke="black" d="M887.246,-785.124C849.911,-742.86 752.5,-618.864 799,-522 815.146,-488.366 900.961,-440.423 930,-417 967.873,-386.451 972.407,-371.526 1015,-348 1036.78,-335.972 1053.51,-350.222 1068,-330 1080.73,-312.228 1058.03,-253.25 1042.9,-218.743"/>
<polygon fill="black" stroke="black" points="1045.96,-217.006 1038.68,-209.303 1039.57,-219.861 1045.96,-217.006"/>
<text text-anchor="middle" x="849.5" y="-492.8" font-family="Times,serif" font-size="14.00">0.236</text>
</g>
<!-- ENJ -->
<g id="node6" class="node"><title>ENJ</title>
<ellipse fill="none" stroke="black" cx="612" cy="-279" rx="29.795" ry="18"/>
<text text-anchor="middle" x="612" y="-275.3" font-family="Times,serif" font-size="14.00">ENJ</text>
</g>
<!-- Use&#45;&gt;ENJ -->
<g id="edge71" class="edge"><title>Use&#45;&gt;ENJ</title>
<path fill="none" stroke="black" d="M872.309,-798.474C807.372,-794.726 650.982,-783.965 602,-765 472.64,-714.913 408.725,-484.877 405,-471 382.462,-387.038 450.486,-362.95 523,-315 539.092,-304.359 558.912,-296.167 575.759,-290.393"/>
<polygon fill="black" stroke="black" points="576.872,-293.712 585.285,-287.273 574.693,-287.06 576.872,-293.712"/>
<text text-anchor="middle" x="452" y="-536.3" font-family="Times,serif" font-size="14.00">0.05</text>
</g>
<!-- PEU -->
<g id="node7" class="node"><title>PEU</title>
<ellipse fill="none" stroke="black" cx="1419" cy="-366" rx="31.3957" ry="18"/>
<text text-anchor="middle" x="1419" y="-362.3" font-family="Times,serif" font-size="14.00">PEU</text>
</g>
<!-- Use&#45;&gt;PEU -->
<g id="edge21" class="edge"><title>Use&#45;&gt;PEU</title>
<path fill="none" stroke="black" d="M929.432,-798.573C981.904,-795.501 1097.26,-786.698 1192,-765 1424.22,-711.814 1560.56,-784.88 1699,-591 1728.04,-550.328 1888.86,-618.002 1542,-402 1516.82,-386.321 1484.43,-377.475 1459.2,-372.6"/>
<polygon fill="black" stroke="black" points="1459.68,-369.13 1449.22,-370.803 1458.44,-376.02 1459.68,-369.13"/>
<text text-anchor="middle" x="1749.5" y="-579.8" font-family="Times,serif" font-size="14.00">0.206</text>
</g>
<!-- SA -->
<g id="node8" class="node"><title>SA</title>
<ellipse fill="none" stroke="black" cx="806" cy="-453" rx="27" ry="18"/>
<text text-anchor="middle" x="806" y="-449.3" font-family="Times,serif" font-size="14.00">SA</text>
</g>
<!-- Use&#45;&gt;SA -->
<g id="edge58" class="edge"><title>Use&#45;&gt;SA</title>
<path fill="none" stroke="black" d="M872.594,-798.348C812.847,-794.541 676.209,-783.987 634,-765 572.712,-737.43 560.427,-709.628 542,-645 518.526,-562.669 576.492,-523.144 655,-489 692.358,-472.753 738.337,-463.482 769.677,-458.618"/>
<polygon fill="black" stroke="black" points="770.33,-462.059 779.711,-457.133 769.306,-455.135 770.33,-462.059"/>
<text text-anchor="middle" x="562.5" y="-623.3" font-family="Times,serif" font-size="14.00">0.065</text>
</g>
<!-- Pf -->
<g id="node9" class="node"><title>Pf</title>
<ellipse fill="none" stroke="black" cx="1253" cy="-540" rx="27" ry="18"/>
<text text-anchor="middle" x="1253" y="-536.3" font-family="Times,serif" font-size="14.00">Pf</text>
</g>
<!-- Use&#45;&gt;Pf -->
<g id="edge47" class="edge"><title>Use&#45;&gt;Pf</title>
<path fill="none" stroke="black" d="M924.809,-791.009C940.242,-784.712 960.473,-775.557 977,-765 1086.2,-695.246 1095.08,-653.403 1199,-576 1207.25,-569.858 1216.54,-563.609 1225.07,-558.124"/>
<polygon fill="black" stroke="black" points="1227.02,-561.028 1233.6,-552.72 1223.28,-555.115 1227.02,-561.028"/>
<text text-anchor="middle" x="1120.5" y="-666.8" font-family="Times,serif" font-size="14.00">0.087</text>
</g>
<!-- JR -->
<g id="node10" class="node"><title>JR</title>
<ellipse fill="none" stroke="black" cx="1218" cy="-627" rx="27" ry="18"/>
<text text-anchor="middle" x="1218" y="-623.3" font-family="Times,serif" font-size="14.00">JR</text>
</g>
<!-- Use&#45;&gt;JR -->
<g id="edge78" class="edge"><title>Use&#45;&gt;JR</title>
<path fill="none" stroke="black" d="M929.463,-798.667C1000.84,-794.625 1184.05,-779.703 1216,-732 1231.18,-709.333 1229.14,-677.2 1224.92,-654.668"/>
<polygon fill="black" stroke="black" points="1228.32,-653.812 1222.81,-644.761 1221.47,-655.27 1228.32,-653.812"/>
<text text-anchor="middle" x="1248.5" y="-710.3" font-family="Times,serif" font-size="14.00">0.042</text>
</g>
<!-- BI&#45;&gt;Use -->
<g id="edge2" class="edge"><title>BI&#45;&gt;Use</title>
<path fill="none" stroke="black" d="M677.95,-724.753C702.346,-735.397 743.052,-752.577 779,-765 807.61,-774.887 840.646,-784.242 865.119,-790.788"/>
<polygon fill="black" stroke="black" points="864.483,-794.24 875.046,-793.415 866.274,-787.473 864.483,-794.24"/>
<text text-anchor="middle" x="799.5" y="-753.8" font-family="Times,serif" font-size="14.00">0.495</text>
</g>
<!-- BI&#45;&gt;PU -->
<g id="edge9" class="edge"><title>BI&#45;&gt;PU</title>
<path fill="none" stroke="black" d="M628.971,-712.576C562.191,-711.123 391.26,-704.815 342,-678 258.334,-632.457 101,-418.758 101,-323.5 101,-323.5 101,-323.5 101,-104 101,-55.4985 151.189,-66.6949 198,-54 314.907,-22.2953 691.407,-19.1399 811.688,-18.9573"/>
<polygon fill="black" stroke="black" points="811.867,-22.4573 821.864,-18.9482 811.861,-15.4573 811.867,-22.4573"/>
<text text-anchor="middle" x="135.5" y="-362.3" font-family="Times,serif" font-size="14.00">0.307</text>
</g>
<!-- BI&#45;&gt;Qu -->
<g id="edge31" class="edge"><title>BI&#45;&gt;Qu</title>
<path fill="none" stroke="black" d="M635.957,-701.638C632.052,-699.629 627.945,-697.654 624,-696 599.501,-685.725 590.874,-689.653 567,-678 543.735,-666.644 536.95,-663.655 519,-645 464.633,-588.496 376.65,-406.624 360,-330 355.038,-307.167 371.149,-262.713 372,-261 432.791,-138.652 520.845,-166.823 655,-141 807.517,-111.642 853.372,-160.877 1004,-123 1006.18,-122.452 1008.38,-121.769 1010.57,-120.995"/>
<polygon fill="black" stroke="black" points="1012.03,-124.18 1019.95,-117.145 1009.37,-117.705 1012.03,-124.18"/>
<text text-anchor="middle" x="406" y="-405.8" font-family="Times,serif" font-size="14.00">0.18</text>
</g>
<!-- BI&#45;&gt;Im -->
<g id="edge20" class="edge"><title>BI&#45;&gt;Im</title>
<path fill="none" stroke="black" d="M631.566,-706.1C618.205,-702.572 601.304,-698.506 586,-696 563.107,-692.252 394.439,-694.367 378,-678 306.857,-607.165 338.972,-289.915 418,-228 447.954,-204.532 722.011,-212.191 760,-210 843.656,-205.175 941.794,-198.854 993.971,-195.441"/>
<polygon fill="black" stroke="black" points="994.331,-198.925 1004.08,-194.779 993.873,-191.94 994.331,-198.925"/>
<text text-anchor="middle" x="360" y="-449.3" font-family="Times,serif" font-size="14.00">0.21</text>
</g>
<!-- BI&#45;&gt;ENJ -->
<g id="edge46" class="edge"><title>BI&#45;&gt;ENJ</title>
<path fill="none" stroke="black" d="M650.3,-696.388C648.447,-690.613 646.486,-684.063 645,-678 607.955,-526.889 610.128,-485.555 607,-330 606.866,-323.335 606.527,-321.65 607,-315 607.183,-312.428 607.44,-309.759 607.743,-307.092"/>
<polygon fill="black" stroke="black" points="611.231,-307.41 609.072,-297.038 604.291,-306.493 611.231,-307.41"/>
<text text-anchor="middle" x="634.5" y="-492.8" font-family="Times,serif" font-size="14.00">0.095</text>
</g>
<!-- BI&#45;&gt;PEU -->
<g id="edge19" class="edge"><title>BI&#45;&gt;PEU</title>
<path fill="none" stroke="black" d="M681.436,-707.683C705.682,-702.089 742.858,-692.125 773,-678 823.229,-654.462 828.674,-636.232 877,-609 906.965,-592.115 913.923,-585.429 947,-576 1014.12,-556.866 1035.63,-576.231 1103,-558 1141.42,-547.603 1147.75,-536.013 1185,-522 1209.87,-512.647 1218.46,-516.322 1242,-504 1302.93,-472.1 1364.22,-418.82 1396.24,-388.974"/>
<polygon fill="black" stroke="black" points="1398.86,-391.322 1403.74,-381.918 1394.06,-386.226 1398.86,-391.322"/>
<text text-anchor="middle" x="1201" y="-536.3" font-family="Times,serif" font-size="14.00">0.21</text>
</g>
<!-- BI&#45;&gt;SA -->
<g id="edge67" class="edge"><title>BI&#45;&gt;SA</title>
<path fill="none" stroke="black" d="M652.811,-696.003C645.959,-653.653 634.966,-542.966 695,-489 715.421,-470.644 745.438,-461.913 769.111,-457.762"/>
<polygon fill="black" stroke="black" points="769.807,-461.196 779.152,-456.203 768.733,-454.278 769.807,-461.196"/>
<text text-anchor="middle" x="672.5" y="-579.8" font-family="Times,serif" font-size="14.00">0.058</text>
</g>
<!-- BI&#45;&gt;Pf -->
<g id="edge48" class="edge"><title>BI&#45;&gt;Pf</title>
<path fill="none" stroke="black" d="M682.591,-710.372C716.271,-706.388 775.627,-697.156 823,-678 901.879,-646.105 904.25,-602.807 985,-576 1081.05,-544.114 1113.6,-581.673 1212,-558 1215.4,-557.182 1218.88,-556.12 1222.31,-554.926"/>
<polygon fill="black" stroke="black" points="1223.65,-558.163 1231.72,-551.305 1221.13,-551.63 1223.65,-558.163"/>
<text text-anchor="middle" x="942.5" y="-623.3" font-family="Times,serif" font-size="14.00">0.087</text>
</g>
<!-- BI&#45;&gt;JR -->
<g id="edge53" class="edge"><title>BI&#45;&gt;JR</title>
<path fill="none" stroke="black" d="M683.045,-711.349C732.963,-707.914 842.724,-698.54 933,-678 953.556,-673.323 957.489,-667.874 978,-663 1049.03,-646.122 1133.94,-636.052 1181.34,-631.309"/>
<polygon fill="black" stroke="black" points="1181.82,-634.78 1191.43,-630.324 1181.14,-627.813 1181.82,-634.78"/>
<text text-anchor="middle" x="998.5" y="-666.8" font-family="Times,serif" font-size="14.00">0.068</text>
</g>
<!-- PU&#45;&gt;Use -->
<g id="edge3" class="edge"><title>PU&#45;&gt;Use</title>
<path fill="none" stroke="black" d="M822.051,-19.3405C698.201,-21.0334 186.833,-29.465 120,-54 85.7855,-66.5604 55,-67.5528 55,-104 55,-715 55,-715 55,-715 55,-751.447 85.7655,-752.494 120,-765 189.953,-790.554 714.035,-798.017 862.128,-799.627"/>
<polygon fill="black" stroke="black" points="862.093,-803.126 872.13,-799.732 862.168,-796.127 862.093,-803.126"/>
<text text-anchor="middle" x="75.5" y="-405.8" font-family="Times,serif" font-size="14.00">0.405</text>
</g>
<!-- PU&#45;&gt;BI -->
<g id="edge5" class="edge"><title>PU&#45;&gt;BI</title>
<path fill="none" stroke="black" d="M821.818,-18.9444C721.099,-18.9973 369.513,-21.5541 263,-54 221.073,-66.7718 178,-60.1709 178,-104 178,-323.5 178,-323.5 178,-323.5 178,-350.481 176.655,-357.776 183,-384 192.841,-424.673 198.876,-434.31 219,-471 246.009,-520.242 315.27,-650.078 364,-678 406.945,-702.607 537.134,-688.135 586,-696 597.722,-697.887 610.377,-700.712 621.661,-703.52"/>
<polygon fill="black" stroke="black" points="621.015,-706.968 631.572,-706.067 622.757,-700.188 621.015,-706.968"/>
<text text-anchor="middle" x="203.5" y="-362.3" font-family="Times,serif" font-size="14.00">0.368</text>
</g>
<!-- PU&#45;&gt;Qu -->
<g id="edge25" class="edge"><title>PU&#45;&gt;Qu</title>
<path fill="none" stroke="black" d="M876.076,-19.839C908.206,-21.9874 962.291,-29.3338 1001,-54 1010.85,-60.2766 1019.23,-69.9384 1025.68,-79.1015"/>
<polygon fill="black" stroke="black" points="1022.84,-81.1553 1031.24,-87.6071 1028.69,-77.3228 1022.84,-81.1553"/>
<text text-anchor="middle" x="1038.5" y="-57.8" font-family="Times,serif" font-size="14.00">0.196</text>
</g>
<!-- PU&#45;&gt;Im -->
<g id="edge29" class="edge"><title>PU&#45;&gt;Im</title>
<path fill="none" stroke="black" d="M864.1,-33.27C896.146,-63.5557 971.098,-134.389 1008.68,-169.908"/>
<polygon fill="black" stroke="black" points="1006.43,-172.6 1016.11,-176.925 1011.24,-167.512 1006.43,-172.6"/>
<text text-anchor="middle" x="979.5" y="-101.3" font-family="Times,serif" font-size="14.00">0.181</text>
</g>
<!-- PU&#45;&gt;ENJ -->
<g id="edge33" class="edge"><title>PU&#45;&gt;ENJ</title>
<path fill="none" stroke="black" d="M821.916,-19.5726C764.374,-21.288 632.314,-28.024 597,-54 593.773,-56.3735 546.528,-112.657 556,-156 563.775,-191.577 582.922,-229.176 596.662,-253.074"/>
<polygon fill="black" stroke="black" points="593.724,-254.982 601.809,-261.829 599.759,-251.435 593.724,-254.982"/>
<text text-anchor="middle" x="576.5" y="-144.8" font-family="Times,serif" font-size="14.00">0.174</text>
</g>
<!-- PU&#45;&gt;PEU -->
<g id="edge13" class="edge"><title>PU&#45;&gt;PEU</title>
<path fill="none" stroke="black" d="M876,-18.9468C1002.46,-18.873 1532.76,-20.5733 1598,-54 1707.2,-109.948 1697.43,-250.471 1604,-330 1582.78,-348.061 1507.77,-357.589 1460.03,-361.939"/>
<polygon fill="black" stroke="black" points="1459.65,-358.459 1449.99,-362.814 1460.26,-365.432 1459.65,-358.459"/>
<text text-anchor="middle" x="1697.5" y="-188.3" font-family="Times,serif" font-size="14.00">0.238</text>
</g>
<!-- PU&#45;&gt;SA -->
<g id="edge50" class="edge"><title>PU&#45;&gt;SA</title>
<path fill="none" stroke="black" d="M837.747,-34.4927C814.309,-67.836 760.87,-149.735 742,-228 732.78,-266.243 774.528,-375.71 795.108,-426.073"/>
<polygon fill="black" stroke="black" points="791.872,-427.408 798.92,-435.319 798.344,-424.74 791.872,-427.408"/>
<text text-anchor="middle" x="762.5" y="-231.8" font-family="Times,serif" font-size="14.00">0.074</text>
</g>
<!-- PU&#45;&gt;Pf -->
<g id="edge73" class="edge"><title>PU&#45;&gt;Pf</title>
<path fill="none" stroke="black" d="M876.377,-18.9707C1027.06,-18.9407 1749.78,-20.5451 1782,-54 1857.53,-132.416 1794.09,-197.013 1751,-297 1740.93,-320.365 1733.85,-324.146 1725,-348 1700.18,-414.906 1741.3,-457.693 1687,-504 1657.14,-529.469 1390.09,-536.649 1290.35,-538.452"/>
<polygon fill="black" stroke="black" points="1290.07,-534.956 1280.14,-538.628 1290.2,-541.955 1290.07,-534.956"/>
<text text-anchor="middle" x="1788.5" y="-275.3" font-family="Times,serif" font-size="14.00">0.048</text>
</g>
<!-- PU&#45;&gt;JR -->
<g id="edge61" class="edge"><title>PU&#45;&gt;JR</title>
<path fill="none" stroke="black" d="M876.133,-19.2379C1043.34,-20.7787 1928.38,-30.0461 1980,-54 2007.12,-66.5842 2025,-74.1031 2025,-104 2025,-323.5 2025,-323.5 2025,-323.5 2025,-396.255 2002.7,-416.945 1954,-471 1892.01,-539.812 1856.9,-534.708 1774,-576 1761.36,-582.294 1759.57,-587.112 1746,-591 1653.57,-617.478 1359.31,-624.056 1255.06,-625.574"/>
<polygon fill="black" stroke="black" points="1254.95,-622.075 1245,-625.713 1255.05,-629.075 1254.95,-622.075"/>
<text text-anchor="middle" x="2041" y="-318.8" font-family="Times,serif" font-size="14.00">0.06</text>
</g>
<!-- Qu&#45;&gt;Use -->
<g id="edge6" class="edge"><title>Qu&#45;&gt;Use</title>
<path fill="none" stroke="black" d="M1067.17,-105.558C1156.84,-104.503 1451.3,-104.264 1691,-141 1749.5,-149.965 1768.84,-144.252 1820,-174 1866.46,-201.018 1872.75,-217.268 1904,-261 1908.25,-266.954 2024,-488.183 2024,-495.5 2024,-715 2024,-715 2024,-715 2024,-763.501 1973.93,-752.765 1927,-765 1830.24,-790.225 1114.68,-798.121 939.581,-799.685"/>
<polygon fill="black" stroke="black" points="939.505,-796.186 929.536,-799.773 939.567,-803.185 939.505,-796.186"/>
<text text-anchor="middle" x="2032.5" y="-449.3" font-family="Times,serif" font-size="14.00">0.354</text>
</g>
<!-- Qu&#45;&gt;BI -->
<g id="edge8" class="edge"><title>Qu&#45;&gt;BI</title>
<path fill="none" stroke="black" d="M1019.97,-117.214C1014.91,-119.553 1009.37,-121.7 1004,-123 887.513,-151.171 580.048,-107.433 465,-141 460.445,-142.329 321.297,-224.587 318,-228 256.786,-291.372 244.788,-316.628 223,-402 201.716,-485.398 313.211,-462.081 375,-522 436.836,-581.965 417.041,-632.213 490,-678 526.769,-701.075 543.56,-686.874 586,-696 597.514,-698.476 610.029,-701.43 621.251,-704.177"/>
<polygon fill="black" stroke="black" points="620.58,-707.616 631.128,-706.621 622.261,-700.821 620.58,-707.616"/>
<text text-anchor="middle" x="243.5" y="-405.8" font-family="Times,serif" font-size="14.00">0.307</text>
</g>
<!-- Qu&#45;&gt;PU -->
<g id="edge11" class="edge"><title>Qu&#45;&gt;PU</title>
<path fill="none" stroke="black" d="M1018.09,-94.2494C984.215,-79.1744 918.998,-50.1507 880.206,-32.8874"/>
<polygon fill="black" stroke="black" points="881.507,-29.6357 870.948,-28.7674 878.661,-36.031 881.507,-29.6357"/>
<text text-anchor="middle" x="976.5" y="-57.8" font-family="Times,serif" font-size="14.00">0.267</text>
</g>
<!-- Qu&#45;&gt;Im -->
<g id="edge30" class="edge"><title>Qu&#45;&gt;Im</title>
<path fill="none" stroke="black" d="M1049.86,-122.236C1054.57,-132.029 1058.49,-144.746 1055,-156 1053.78,-159.926 1051.96,-163.802 1049.85,-167.465"/>
<polygon fill="black" stroke="black" points="1046.78,-165.76 1044.19,-176.034 1052.62,-169.615 1046.78,-165.76"/>
<text text-anchor="middle" x="1073" y="-144.8" font-family="Times,serif" font-size="14.00">0.18</text>
</g>
<!-- Qu&#45;&gt;ENJ -->
<g id="edge39" class="edge"><title>Qu&#45;&gt;ENJ</title>
<path fill="none" stroke="black" d="M1019.93,-117.047C1014.86,-119.39 1009.34,-121.582 1004,-123 904.037,-149.518 868.136,-102.873 772,-141 711.462,-165.009 657.722,-221.912 630.618,-254.326"/>
<polygon fill="black" stroke="black" points="627.641,-252.436 624.004,-262.387 633.053,-256.876 627.641,-252.436"/>
<text text-anchor="middle" x="735.5" y="-188.3" font-family="Times,serif" font-size="14.00">0.116</text>
</g>
<!-- Qu&#45;&gt;PEU -->
<g id="edge12" class="edge"><title>Qu&#45;&gt;PEU</title>
<path fill="none" stroke="black" d="M1067.07,-106.748C1150.5,-109.284 1399.79,-118.675 1428,-141 1461.66,-167.642 1487.64,-291.828 1468,-330 1464.2,-337.386 1458.04,-343.558 1451.35,-348.559"/>
<polygon fill="black" stroke="black" points="1449.13,-345.829 1442.73,-354.27 1453,-351.665 1449.13,-345.829"/>
<text text-anchor="middle" x="1491.5" y="-231.8" font-family="Times,serif" font-size="14.00">0.247</text>
</g>
<!-- Qu&#45;&gt;SA -->
<g id="edge54" class="edge"><title>Qu&#45;&gt;SA</title>
<path fill="none" stroke="black" d="M1019.63,-117.121C976.401,-141.06 877.535,-197.748 854,-228 821.774,-269.423 815.31,-316.269 824,-330 833.993,-345.791 852.007,-332.209 862,-348 870.556,-361.52 867.403,-368.94 862,-384 855.456,-402.239 841.672,-419.081 829.418,-431.441"/>
<polygon fill="black" stroke="black" points="826.834,-429.07 822.064,-438.53 831.692,-434.11 826.834,-429.07"/>
<text text-anchor="middle" x="854.5" y="-275.3" font-family="Times,serif" font-size="14.00">0.068</text>
</g>
<!-- Qu&#45;&gt;Pf -->
<g id="edge69" class="edge"><title>Qu&#45;&gt;Pf</title>
<path fill="none" stroke="black" d="M1061.88,-115.873C1099.7,-133.79 1178.13,-174.783 1229,-228 1271.66,-272.634 1282.89,-288.396 1299,-348 1315.02,-407.241 1285.8,-477.556 1267.02,-514.117"/>
<polygon fill="black" stroke="black" points="1263.86,-512.602 1262.27,-523.077 1270.04,-515.878 1263.86,-512.602"/>
<text text-anchor="middle" x="1314.5" y="-318.8" font-family="Times,serif" font-size="14.00">0.054</text>
</g>
<!-- Qu&#45;&gt;JR -->
<g id="edge62" class="edge"><title>Qu&#45;&gt;JR</title>
<path fill="none" stroke="black" d="M1067.06,-106.653C1158.96,-109.057 1458.56,-118.474 1552,-141 1588.2,-149.726 1597.39,-154.325 1629,-174 1649.87,-186.992 1651.25,-195.356 1671,-210 1704.87,-235.116 1722.99,-229.481 1751,-261 1779.52,-293.095 1783.43,-306.144 1793,-348 1818.93,-461.359 1795.49,-530.795 1696,-591 1658.66,-613.595 1361.5,-622.662 1255.44,-625.199"/>
<polygon fill="black" stroke="black" points="1255.13,-621.706 1245.21,-625.438 1255.29,-628.704 1255.13,-621.706"/>
<text text-anchor="middle" x="1816" y="-362.3" font-family="Times,serif" font-size="14.00">0.06</text>
</g>
<!-- Im&#45;&gt;Use -->
<g id="edge7" class="edge"><title>Im&#45;&gt;Use</title>
<path fill="none" stroke="black" d="M1046.29,-207.118C1071.9,-232.541 1118.32,-287.346 1093,-330 1084.47,-344.366 1073.67,-338.402 1060,-348 1030.36,-368.801 1023.18,-375.049 999,-402 929.146,-479.861 902.679,-505.579 887,-609 878.2,-667.044 888.199,-735.882 895.252,-773.012"/>
<polygon fill="black" stroke="black" points="891.861,-773.907 897.233,-783.039 898.728,-772.55 891.861,-773.907"/>
<text text-anchor="middle" x="947.5" y="-492.8" font-family="Times,serif" font-size="14.00">0.316</text>
</g>
<!-- Im&#45;&gt;BI -->
<g id="edge32" class="edge"><title>Im&#45;&gt;BI</title>
<path fill="none" stroke="black" d="M1004.12,-194.492C917.661,-199.675 648.016,-218.92 573,-261 528.475,-285.976 526.552,-305.68 498,-348 464.805,-397.2 429.143,-414.093 446,-471 464.62,-533.86 526.562,-630.638 588,-678 602.168,-688.922 608.1,-687.803 624,-696 624.807,-696.416 625.625,-696.839 626.45,-697.268"/>
<polygon fill="black" stroke="black" points="624.901,-700.407 635.383,-701.951 628.151,-694.208 624.901,-700.407"/>
<text text-anchor="middle" x="466.5" y="-449.3" font-family="Times,serif" font-size="14.00">0.174</text>
</g>
<!-- Im&#45;&gt;PU -->
<g id="edge38" class="edge"><title>Im&#45;&gt;PU</title>
<path fill="none" stroke="black" d="M1005.09,-186.667C970.72,-179.543 910.49,-162.043 877,-123 858.608,-101.559 852.172,-69.2051 849.986,-46.2857"/>
<polygon fill="black" stroke="black" points="853.468,-45.9006 849.237,-36.1871 846.487,-46.4187 853.468,-45.9006"/>
<text text-anchor="middle" x="897.5" y="-101.3" font-family="Times,serif" font-size="14.00">0.116</text>
</g>
<!-- Im&#45;&gt;Qu -->
<g id="edge45" class="edge"><title>Im&#45;&gt;Qu</title>
<path fill="none" stroke="black" d="M1018.26,-175.818C1011.58,-165.977 1005.62,-152.833 1010,-141 1011.75,-136.276 1014.45,-131.759 1017.53,-127.633"/>
<polygon fill="black" stroke="black" points="1020.4,-129.661 1024.2,-119.773 1015.06,-125.131 1020.4,-129.661"/>
<text text-anchor="middle" x="1030.5" y="-144.8" font-family="Times,serif" font-size="14.00">0.096</text>
</g>
<!-- Im&#45;&gt;ENJ -->
<g id="edge81" class="edge"><title>Im&#45;&gt;ENJ</title>
<path fill="none" stroke="black" d="M1008.11,-201.548C971.72,-215.088 903.598,-240.225 892,-243 880.463,-245.76 726.048,-264.385 651.601,-273.284"/>
<polygon fill="black" stroke="black" points="650.738,-269.862 641.224,-274.523 651.569,-276.813 650.738,-269.862"/>
<text text-anchor="middle" x="953.5" y="-231.8" font-family="Times,serif" font-size="14.00">0.036</text>
</g>
<!-- Im&#45;&gt;PEU -->
<g id="edge18" class="edge"><title>Im&#45;&gt;PEU</title>
<path fill="none" stroke="black" d="M1057.94,-193.297C1122.77,-194.455 1285.5,-200.137 1331,-228 1372.33,-253.31 1397.77,-306.165 1410.07,-338.319"/>
<polygon fill="black" stroke="black" points="1406.88,-339.784 1413.6,-347.97 1413.45,-337.377 1406.88,-339.784"/>
<text text-anchor="middle" x="1411.5" y="-275.3" font-family="Times,serif" font-size="14.00">0.214</text>
</g>
<!-- Im&#45;&gt;SA -->
<g id="edge64" class="edge"><title>Im&#45;&gt;SA</title>
<path fill="none" stroke="black" d="M1021.34,-209.054C1004.42,-237.216 970.169,-294.478 959,-315 934.772,-359.518 946.143,-383.624 908,-417 902.636,-421.694 867.554,-433.19 840.012,-441.734"/>
<polygon fill="black" stroke="black" points="838.804,-438.444 830.275,-444.73 840.863,-445.134 838.804,-438.444"/>
<text text-anchor="middle" x="979.5" y="-318.8" font-family="Times,serif" font-size="14.00">0.059</text>
</g>
<!-- Im&#45;&gt;Pf -->
<g id="edge82" class="edge"><title>Im&#45;&gt;Pf</title>
<path fill="none" stroke="black" d="M1057.39,-196.002C1093.7,-200.708 1156.29,-211.078 1171,-228 1226.42,-291.747 1167.02,-336.005 1191,-417 1201.6,-452.799 1222.55,-490.617 1237.14,-514.487"/>
<polygon fill="black" stroke="black" points="1234.33,-516.581 1242.58,-523.218 1240.27,-512.879 1234.33,-516.581"/>
<text text-anchor="middle" x="1208.5" y="-362.3" font-family="Times,serif" font-size="14.00">0.033</text>
</g>
<!-- Im&#45;&gt;JR -->
<g id="edge49" class="edge"><title>Im&#45;&gt;JR</title>
<path fill="none" stroke="black" d="M1055.75,-199.264C1073.6,-204.692 1097.53,-213.921 1115,-228 1128.92,-239.22 1132.64,-243.944 1138,-261 1142.79,-276.265 1138.48,-281.007 1138,-297 1137.56,-311.687 1140.77,-316.102 1136,-330 1126.56,-357.518 1121.71,-365.813 1099,-384 1082.19,-397.466 1067.55,-385.258 1054,-402 976.446,-497.804 1022.23,-481.866 1039,-504 1056.84,-527.553 1077.14,-507.712 1103,-522 1105.67,-523.476 1162.33,-575.109 1195.1,-605.055"/>
<polygon fill="black" stroke="black" points="1192.74,-607.638 1202.49,-611.802 1197.47,-602.472 1192.74,-607.638"/>
<text text-anchor="middle" x="1074.5" y="-405.8" font-family="Times,serif" font-size="14.00">0.076</text>
</g>
<!-- ENJ&#45;&gt;Use -->
<g id="edge16" class="edge"><title>ENJ&#45;&gt;Use</title>
<path fill="none" stroke="black" d="M582.106,-280.229C543.318,-281.674 474.519,-288.218 423,-315 365.556,-344.862 374.587,-383.808 319,-417 295.826,-430.838 284.385,-421.522 261,-435 177.204,-483.296 101,-485.782 101,-582.5 101,-715 101,-715 101,-715 101,-758.065 142.801,-752.459 184,-765 248.926,-784.763 722.469,-796.234 862.255,-799.216"/>
<polygon fill="black" stroke="black" points="862.416,-802.72 872.487,-799.431 862.563,-795.721 862.416,-802.72"/>
<text text-anchor="middle" x="136.5" y="-536.3" font-family="Times,serif" font-size="14.00">0.217</text>
</g>
<!-- ENJ&#45;&gt;BI -->
<g id="edge37" class="edge"><title>ENJ&#45;&gt;BI</title>
<path fill="none" stroke="black" d="M584.652,-286.3C568.495,-291.408 548.927,-300.253 537,-315 476.541,-389.754 490.769,-490.452 497,-504 502.137,-515.168 510.242,-512.465 518,-522 567.967,-583.412 550.552,-619.593 604,-678 610.528,-685.134 618.789,-691.532 626.794,-696.846"/>
<polygon fill="black" stroke="black" points="624.954,-699.823 635.285,-702.17 628.672,-693.892 624.954,-699.823"/>
<text text-anchor="middle" x="513" y="-492.8" font-family="Times,serif" font-size="14.00">0.12</text>
</g>
<!-- ENJ&#45;&gt;PU -->
<g id="edge26" class="edge"><title>ENJ&#45;&gt;PU</title>
<path fill="none" stroke="black" d="M582.472,-275.973C530.86,-271.984 426.794,-261.82 396,-243 350.335,-215.091 318.424,-192.768 332,-141 343.257,-98.0738 343.549,-77.8075 381,-54 417.022,-31.1009 707.656,-22.2389 811.931,-19.7769"/>
<polygon fill="black" stroke="black" points="812.08,-23.2745 821.997,-19.5456 811.919,-16.2764 812.08,-23.2745"/>
<text text-anchor="middle" x="352.5" y="-144.8" font-family="Times,serif" font-size="14.00">0.192</text>
</g>
<!-- ENJ&#45;&gt;Qu -->
<g id="edge42" class="edge"><title>ENJ&#45;&gt;Qu</title>
<path fill="none" stroke="black" d="M609.709,-260.959C607.666,-238.261 607.722,-198.167 629,-174 678.756,-117.489 925.263,-143.493 1004,-123 1006.17,-122.434 1008.38,-121.738 1010.56,-120.954"/>
<polygon fill="black" stroke="black" points="1012.03,-124.135 1019.94,-117.082 1009.36,-117.665 1012.03,-124.135"/>
<text text-anchor="middle" x="649.5" y="-188.3" font-family="Times,serif" font-size="14.00">0.108</text>
</g>
<!-- ENJ&#45;&gt;Im -->
<g id="edge36" class="edge"><title>ENJ&#45;&gt;Im</title>
<path fill="none" stroke="black" d="M639.816,-272.357C713.459,-257.418 913.444,-216.848 995.321,-200.238"/>
<polygon fill="black" stroke="black" points="996.509,-203.568 1005.61,-198.15 995.117,-196.708 996.509,-203.568"/>
<text text-anchor="middle" x="867.5" y="-231.8" font-family="Times,serif" font-size="14.00">0.128</text>
</g>
<!-- ENJ&#45;&gt;PEU -->
<g id="edge10" class="edge"><title>ENJ&#45;&gt;PEU</title>
<path fill="none" stroke="black" d="M641.056,-283.886C669.727,-287.624 714.826,-293.247 754,-297 864.891,-307.624 893.074,-304.743 1004,-315 1134.05,-327.025 1166.41,-331.725 1296,-348 1323.58,-351.463 1354.57,-355.75 1378.55,-359.152"/>
<polygon fill="black" stroke="black" points="1378.31,-362.653 1388.7,-360.599 1379.29,-355.723 1378.31,-362.653"/>
<text text-anchor="middle" x="1171.5" y="-318.8" font-family="Times,serif" font-size="14.00">0.291</text>
</g>
<!-- ENJ&#45;&gt;SA -->
<g id="edge55" class="edge"><title>ENJ&#45;&gt;SA</title>
<path fill="none" stroke="black" d="M627.107,-294.825C641.107,-308.58 662.499,-329.634 681,-348 697.058,-363.942 700.162,-368.884 717,-384 734.406,-399.626 739.433,-402.772 758,-417 764.907,-422.293 772.475,-427.899 779.519,-433.037"/>
<polygon fill="black" stroke="black" points="777.919,-436.2 788.07,-439.235 782.028,-430.533 777.919,-436.2"/>
<text text-anchor="middle" x="737.5" y="-362.3" font-family="Times,serif" font-size="14.00">0.066</text>
</g>
<!-- ENJ&#45;&gt;Pf -->
<g id="edge83" class="edge"><title>ENJ&#45;&gt;Pf</title>
<path fill="none" stroke="black" d="M636.121,-289.996C692.155,-313.125 835.603,-371.808 957,-417 1048.29,-450.983 1075.19,-448.989 1164,-489 1170.17,-491.78 1200.65,-509.039 1224.25,-522.511"/>
<polygon fill="black" stroke="black" points="1222.79,-525.708 1233.2,-527.633 1226.26,-519.631 1222.79,-525.708"/>
<text text-anchor="middle" x="973" y="-405.8" font-family="Times,serif" font-size="14.00">0.03</text>
</g>
<!-- ENJ&#45;&gt;JR -->
<g id="edge63" class="edge"><title>ENJ&#45;&gt;JR</title>
<path fill="none" stroke="black" d="M610.898,-296.995C610.26,-318.59 611.748,-356.371 627,-384 681.084,-481.971 709.359,-507.057 809,-558 874.129,-591.298 1093.63,-614.584 1181.34,-622.768"/>
<polygon fill="black" stroke="black" points="1181.09,-626.26 1191.37,-623.691 1181.73,-619.289 1181.09,-626.26"/>
<text text-anchor="middle" x="701" y="-449.3" font-family="Times,serif" font-size="14.00">0.06</text>
</g>
<!-- PEU&#45;&gt;Use -->
<g id="edge28" class="edge"><title>PEU&#45;&gt;Use</title>
<path fill="none" stroke="black" d="M1448.81,-371.742C1546.85,-388.751 1848.86,-453.149 1774,-591 1656.49,-807.391 1492.87,-739.048 1248,-765 1135.92,-776.878 1003.38,-789.987 939.382,-796.257"/>
<polygon fill="black" stroke="black" points="938.959,-792.781 929.347,-797.239 939.64,-799.748 938.959,-792.781"/>
<text text-anchor="middle" x="1801.5" y="-579.8" font-family="Times,serif" font-size="14.00">0.185</text>
</g>
<!-- PEU&#45;&gt;BI -->
<g id="edge86" class="edge"><title>PEU&#45;&gt;BI</title>
<path fill="none" stroke="black" d="M1396.46,-378.928C1371.02,-392.421 1328.44,-415.107 1292,-435 1236.64,-465.219 1228.6,-486.536 1168,-504 1095.94,-524.767 897.823,-487.956 831,-522 795.808,-539.929 801.007,-561.276 775,-591 740.012,-630.989 730.538,-640.394 693,-678 688.409,-682.6 683.404,-687.443 678.601,-692.011"/>
<polygon fill="black" stroke="black" points="676.183,-689.481 671.31,-698.889 680.986,-694.574 676.183,-689.481"/>
<text text-anchor="middle" x="851.5" y="-536.3" font-family="Times,serif" font-size="14.00">0.019</text>
</g>
<!-- PEU&#45;&gt;PU -->
<g id="edge57" class="edge"><title>PEU&#45;&gt;PU</title>
<path fill="none" stroke="black" d="M1449.63,-362.409C1490.52,-358.269 1559.69,-348.659 1576,-330 1603.45,-298.6 1584,-278.207 1584,-236.5 1584,-236.5 1584,-236.5 1584,-104 1584,-32.9674 1035.29,-21.2268 886.071,-19.3473"/>
<polygon fill="black" stroke="black" points="886.072,-15.8472 876.031,-19.2284 885.989,-22.8467 886.072,-15.8472"/>
<text text-anchor="middle" x="1604.5" y="-188.3" font-family="Times,serif" font-size="14.00">0.065</text>
</g>
<!-- PEU&#45;&gt;Qu -->
<g id="edge52" class="edge"><title>PEU&#45;&gt;Qu</title>
<path fill="none" stroke="black" d="M1427.37,-348.649C1437.01,-327.412 1449.84,-289.669 1436,-261 1426.69,-241.7 1304.68,-149.478 1285,-141 1216.07,-111.31 1127.13,-105.842 1077.59,-105.364"/>
<polygon fill="black" stroke="black" points="1077.36,-101.863 1067.34,-105.331 1077.33,-108.863 1077.36,-101.863"/>
<text text-anchor="middle" x="1440.5" y="-231.8" font-family="Times,serif" font-size="14.00">0.069</text>
</g>
<!-- PEU&#45;&gt;Im -->
<g id="edge41" class="edge"><title>PEU&#45;&gt;Im</title>
<path fill="none" stroke="black" d="M1401.18,-350.972C1383.77,-337.248 1356.52,-315.737 1333,-297 1294.67,-266.469 1291.78,-247.91 1247,-228 1188.19,-201.85 1112.62,-194.983 1068.23,-193.329"/>
<polygon fill="black" stroke="black" points="1068.28,-189.829 1058.18,-193.025 1068.07,-196.826 1068.28,-189.829"/>
<text text-anchor="middle" x="1349" y="-275.3" font-family="Times,serif" font-size="14.00">0.11</text>
</g>
<!-- PEU&#45;&gt;ENJ -->
<g id="edge40" class="edge"><title>PEU&#45;&gt;ENJ</title>
<path fill="none" stroke="black" d="M1389.26,-360.108C1364.41,-356.208 1327.99,-350.929 1296,-348 1208.06,-339.946 983.06,-357.076 899,-330 887.384,-326.258 887.444,-319.24 876,-315 865.613,-311.151 722.803,-293.447 651.676,-284.792"/>
<polygon fill="black" stroke="black" points="651.665,-281.265 641.316,-283.533 650.821,-288.214 651.665,-281.265"/>
<text text-anchor="middle" x="919.5" y="-318.8" font-family="Times,serif" font-size="14.00">0.115</text>
</g>
<!-- PEU&#45;&gt;SA -->
<g id="edge59" class="edge"><title>PEU&#45;&gt;SA</title>
<path fill="none" stroke="black" d="M1389.21,-371.413C1364.33,-375.029 1327.89,-380.157 1296,-384 1218.37,-393.354 1194.44,-375.156 1121,-402 1109.89,-406.063 1110.08,-412.846 1099,-417 1053.01,-434.24 911.543,-445.289 843.421,-449.75"/>
<polygon fill="black" stroke="black" points="842.899,-446.276 833.144,-450.409 843.347,-453.262 842.899,-446.276"/>
<text text-anchor="middle" x="1141.5" y="-405.8" font-family="Times,serif" font-size="14.00">0.062</text>
</g>
<!-- PEU&#45;&gt;Pf -->
<g id="edge74" class="edge"><title>PEU&#45;&gt;Pf</title>
<path fill="none" stroke="black" d="M1426.78,-383.629C1435.76,-405.507 1447.23,-444.303 1430,-471 1399.89,-517.661 1332.59,-532.354 1290.2,-536.949"/>
<polygon fill="black" stroke="black" points="1289.63,-533.488 1280,-537.913 1290.29,-540.457 1289.63,-533.488"/>
<text text-anchor="middle" x="1459.5" y="-449.3" font-family="Times,serif" font-size="14.00">0.047</text>
</g>
<!-- PEU&#45;&gt;JR -->
<g id="edge70" class="edge"><title>PEU&#45;&gt;JR</title>
<path fill="none" stroke="black" d="M1438.21,-380.571C1463.54,-400.215 1502.81,-437.855 1484,-471 1434.24,-558.661 1313.44,-601.284 1253.27,-617.653"/>
<polygon fill="black" stroke="black" points="1252.24,-614.304 1243.46,-620.233 1254.02,-621.073 1252.24,-614.304"/>
<text text-anchor="middle" x="1493.5" y="-492.8" font-family="Times,serif" font-size="14.00">0.051</text>
</g>
<!-- SA&#45;&gt;Use -->
<g id="edge27" class="edge"><title>SA&#45;&gt;Use</title>
<path fill="none" stroke="black" d="M779.438,-456.434C752.26,-459.985 709.769,-468.567 679,-489 586.417,-550.482 556.551,-640.754 620,-732 636.058,-755.092 647.586,-755.335 674,-765 737.403,-788.199 816.233,-796.021 862.351,-798.658"/>
<polygon fill="black" stroke="black" points="862.341,-802.163 872.509,-799.185 862.704,-795.172 862.341,-802.163"/>
<text text-anchor="middle" x="609.5" y="-623.3" font-family="Times,serif" font-size="14.00">0.192</text>
</g>
<!-- SA&#45;&gt;BI -->
<g id="edge76" class="edge"><title>SA&#45;&gt;BI</title>
<path fill="none" stroke="black" d="M795.598,-469.989C780.652,-493.118 752.434,-537.374 730,-576 707.653,-614.475 683.452,-660.108 669.019,-687.79"/>
<polygon fill="black" stroke="black" points="665.846,-686.305 664.34,-696.792 672.057,-689.533 665.846,-686.305"/>
<text text-anchor="middle" x="750.5" y="-579.8" font-family="Times,serif" font-size="14.00">0.042</text>
</g>
<!-- SA&#45;&gt;PU -->
<g id="edge68" class="edge"><title>SA&#45;&gt;PU</title>
<path fill="none" stroke="black" d="M780.422,-447.077C751.358,-441.187 702.681,-430.418 662,-417 470.986,-354 247,-437.635 247,-236.5 247,-236.5 247,-236.5 247,-104 247,-49.4871 306.123,-67.2538 359,-54 444.705,-32.5177 712.669,-22.8818 811.715,-19.9887"/>
<polygon fill="black" stroke="black" points="811.956,-23.4834 821.852,-19.6991 811.756,-16.4862 811.956,-23.4834"/>
<text text-anchor="middle" x="268.5" y="-231.8" font-family="Times,serif" font-size="14.00">0.055</text>
</g>
<!-- SA&#45;&gt;Qu -->
<g id="edge75" class="edge"><title>SA&#45;&gt;Qu</title>
<path fill="none" stroke="black" d="M802.742,-434.949C795.624,-397.562 779.22,-310.618 778,-297 776.572,-281.064 771.671,-275.695 778,-261 814.869,-175.391 862.65,-173.53 950,-141 973.708,-132.171 980.52,-132.418 1004,-123 1005.83,-122.267 1007.7,-121.486 1009.57,-120.677"/>
<polygon fill="black" stroke="black" points="1011.18,-123.79 1018.87,-116.494 1008.31,-117.407 1011.18,-123.79"/>
<text text-anchor="middle" x="798.5" y="-275.3" font-family="Times,serif" font-size="14.00">0.045</text>
</g>
<!-- SA&#45;&gt;Im -->
<g id="edge35" class="edge"><title>SA&#45;&gt;Im</title>
<path fill="none" stroke="black" d="M831.745,-447.055C850.029,-442.284 873.916,-433.298 889,-417 899.501,-405.654 897.524,-399.26 900,-384 902.563,-368.207 909.782,-360.661 900,-348 880.623,-322.92 850.377,-355.08 831,-330 826.924,-324.724 826.943,-320.29 831,-315 849.762,-290.532 869.949,-309.801 898,-297 937.026,-279.191 944.51,-269.807 978,-243 988.802,-234.354 1000.05,-223.969 1009.39,-214.909"/>
<polygon fill="black" stroke="black" points="1012.06,-217.188 1016.73,-207.678 1007.15,-212.199 1012.06,-217.188"/>
<text text-anchor="middle" x="851.5" y="-318.8" font-family="Times,serif" font-size="14.00">0.133</text>
</g>
<!-- SA&#45;&gt;ENJ -->
<g id="edge51" class="edge"><title>SA&#45;&gt;ENJ</title>
<path fill="none" stroke="black" d="M779.609,-448.966C743.397,-443.258 679.35,-427.294 649,-384 632.571,-360.564 622.718,-329.077 617.36,-306.909"/>
<polygon fill="black" stroke="black" points="620.771,-306.124 615.145,-297.147 613.945,-307.673 620.771,-306.124"/>
<text text-anchor="middle" x="665" y="-362.3" font-family="Times,serif" font-size="14.00">0.07</text>
</g>
<!-- SA&#45;&gt;PEU -->
<g id="edge14" class="edge"><title>SA&#45;&gt;PEU</title>
<path fill="none" stroke="black" d="M832.96,-451.442C893.281,-449.747 1043.46,-443.033 1166,-417 1186.62,-412.619 1190.54,-407.098 1211,-402 1268.49,-387.674 1336.39,-377.476 1378.58,-371.911"/>
<polygon fill="black" stroke="black" points="1379.26,-375.352 1388.73,-370.596 1378.36,-368.41 1379.26,-375.352"/>
<text text-anchor="middle" x="1231.5" y="-405.8" font-family="Times,serif" font-size="14.00">0.238</text>
</g>
<!-- SA&#45;&gt;Pf -->
<g id="edge65" class="edge"><title>SA&#45;&gt;Pf</title>
<path fill="none" stroke="black" d="M832.469,-456.99C903.559,-465.04 1093.72,-486.72 1100,-489 1111.47,-493.164 1111.71,-499.375 1123,-504 1160.35,-519.296 1173.4,-510.216 1212,-522 1215.17,-522.967 1218.43,-524.09 1221.66,-525.287"/>
<polygon fill="black" stroke="black" points="1220.57,-528.618 1231.16,-529.026 1223.14,-522.105 1220.57,-528.618"/>
<text text-anchor="middle" x="1143.5" y="-492.8" font-family="Times,serif" font-size="14.00">0.058</text>
</g>
<!-- SA&#45;&gt;JR -->
<g id="edge56" class="edge"><title>SA&#45;&gt;JR</title>
<path fill="none" stroke="black" d="M828.513,-462.981C845.123,-469.759 868.186,-479.487 888,-489 900.727,-495.11 902.806,-498.978 916,-504 948.038,-516.194 959.039,-509.605 991,-522 1050.16,-544.945 1057.99,-565.272 1116,-591 1138.11,-600.805 1163.87,-609.627 1183.98,-615.961"/>
<polygon fill="black" stroke="black" points="1183.05,-619.337 1193.64,-618.951 1185.12,-612.65 1183.05,-619.337"/>
<text text-anchor="middle" x="1078.5" y="-536.3" font-family="Times,serif" font-size="14.00">0.066</text>
</g>
<!-- Pf&#45;&gt;Use -->
<g id="edge17" class="edge"><title>Pf&#45;&gt;Use</title>
<path fill="none" stroke="black" d="M1231.22,-551.192C1225.11,-553.731 1218.39,-556.23 1212,-558 1159.61,-572.521 1137.28,-547.46 1091,-576 1088.27,-577.685 960.34,-762.802 958,-765 950.255,-772.275 940.765,-778.82 931.767,-784.229"/>
<polygon fill="black" stroke="black" points="929.952,-781.235 923.015,-789.243 933.432,-787.309 929.952,-781.235"/>
<text text-anchor="middle" x="1049.5" y="-666.8" font-family="Times,serif" font-size="14.00">0.215</text>
</g>
<!-- Pf&#45;&gt;BI -->
<g id="edge66" class="edge"><title>Pf&#45;&gt;BI</title>
<path fill="none" stroke="black" d="M1231.71,-551.264C1225.49,-553.867 1218.59,-556.382 1212,-558 1168.24,-568.755 1048.39,-552.399 1010,-576 979.217,-594.923 995.843,-623.234 967,-645 945.778,-661.015 877.898,-671.989 852,-678 796.673,-690.842 731.621,-701.618 692.123,-707.689"/>
<polygon fill="black" stroke="black" points="691.531,-704.239 682.171,-709.202 692.584,-711.16 691.531,-704.239"/>
<text text-anchor="middle" x="1008.5" y="-623.3" font-family="Times,serif" font-size="14.00">0.058</text>
</g>
<!-- Pf&#45;&gt;PU -->
<g id="edge84" class="edge"><title>Pf&#45;&gt;PU</title>
<path fill="none" stroke="black" d="M1279.95,-538.001C1358.91,-534.851 1585.8,-524.122 1612,-504 1625.83,-493.377 1718.89,-227.16 1722,-210 1724.85,-194.256 1726.39,-189.387 1722,-174 1703.12,-107.78 1688.82,-77.2435 1624,-54 1554.27,-28.9957 1032.06,-21.1194 886.541,-19.3984"/>
<polygon fill="black" stroke="black" points="886.377,-15.8964 876.337,-19.2806 886.296,-22.8959 886.377,-15.8964"/>
<text text-anchor="middle" x="1726.5" y="-275.3" font-family="Times,serif" font-size="14.00">0.026</text>
</g>
<!-- Pf&#45;&gt;Qu -->
<g id="edge80" class="edge"><title>Pf&#45;&gt;Qu</title>
<path fill="none" stroke="black" d="M1280.18,-539.704C1341.43,-540.646 1487.26,-539.071 1518,-504 1525.18,-495.81 1640.25,-588.449 1516,-228 1500.1,-181.86 1491.83,-164.396 1449,-141 1385.52,-106.324 1165.54,-104.634 1077.17,-105.42"/>
<polygon fill="black" stroke="black" points="1077.03,-101.922 1067.07,-105.527 1077.1,-108.921 1077.03,-101.922"/>
<text text-anchor="middle" x="1568.5" y="-318.8" font-family="Times,serif" font-size="14.00">0.037</text>
</g>
<!-- Pf&#45;&gt;Im -->
<g id="edge43" class="edge"><title>Pf&#45;&gt;Im</title>
<path fill="none" stroke="black" d="M1253.56,-521.628C1254.3,-497.968 1255.54,-454.286 1256,-417 1256.08,-410.334 1256.88,-408.609 1256,-402 1250.73,-362.296 1238.29,-255.318 1209,-228 1188.97,-209.317 1113.97,-199.864 1067.96,-195.724"/>
<polygon fill="black" stroke="black" points="1068.04,-192.218 1057.78,-194.851 1067.44,-199.192 1068.04,-192.218"/>
<text text-anchor="middle" x="1274.5" y="-362.3" font-family="Times,serif" font-size="14.00">0.101</text>
</g>
<!-- Pf&#45;&gt;PEU -->
<g id="edge22" class="edge"><title>Pf&#45;&gt;PEU</title>
<path fill="none" stroke="black" d="M1278.1,-532.884C1295.83,-527.57 1319.32,-518.416 1336,-504 1371.35,-473.454 1396.05,-423.995 1408.85,-393.604"/>
<polygon fill="black" stroke="black" points="1412.2,-394.664 1412.74,-384.083 1405.72,-392.02 1412.2,-394.664"/>
<text text-anchor="middle" x="1409.5" y="-449.3" font-family="Times,serif" font-size="14.00">0.201</text>
</g>
<!-- Pf&#45;&gt;SA -->
<g id="edge77" class="edge"><title>Pf&#45;&gt;SA</title>
<path fill="none" stroke="black" d="M1231.68,-528.843C1225.46,-526.242 1218.56,-523.701 1212,-522 1144.01,-504.378 1124.38,-514.923 1055,-504 1053.67,-503.791 909.908,-474.893 841.46,-461.13"/>
<polygon fill="black" stroke="black" points="842.037,-457.676 831.543,-459.136 840.657,-464.539 842.037,-457.676"/>
<text text-anchor="middle" x="1075.5" y="-492.8" font-family="Times,serif" font-size="14.00">0.042</text>
</g>
<!-- Pf&#45;&gt;JR -->
<g id="edge60" class="edge"><title>Pf&#45;&gt;JR</title>
<path fill="none" stroke="black" d="M1250.4,-558.135C1248.54,-568.013 1245.54,-580.513 1241,-591 1239.39,-594.722 1237.39,-598.484 1235.24,-602.091"/>
<polygon fill="black" stroke="black" points="1232.22,-600.325 1229.76,-610.63 1238.11,-604.109 1232.22,-600.325"/>
<text text-anchor="middle" x="1263" y="-579.8" font-family="Times,serif" font-size="14.00">0.06</text>
</g>
<!-- JR&#45;&gt;Use -->
<g id="edge34" class="edge"><title>JR&#45;&gt;Use</title>
<path fill="none" stroke="black" d="M1207.65,-643.694C1184.89,-678.015 1131.49,-757.304 1119,-765 1089.7,-783.047 994.283,-792.995 939.891,-797.328"/>
<polygon fill="black" stroke="black" points="939.294,-793.863 929.592,-798.12 939.831,-800.843 939.294,-793.863"/>
<text text-anchor="middle" x="1192.5" y="-710.3" font-family="Times,serif" font-size="14.00">0.165</text>
</g>
<!-- JR&#45;&gt;PU -->
<g id="edge87" class="edge"><title>JR&#45;&gt;PU</title>
<path fill="none" stroke="black" d="M1245.06,-625.86C1336.21,-625.118 1631.39,-620.444 1721,-591 1727.5,-588.864 1768.22,-562.897 1773,-558 1855.57,-473.392 1849.18,-431.377 1910,-330 1934.92,-288.462 1966,-284.939 1966,-236.5 1966,-236.5 1966,-236.5 1966,-104 1966,-28.2239 1877.72,-66.6074 1803,-54 1622.06,-23.47 1040.36,-19.569 886.582,-19.0722"/>
<polygon fill="black" stroke="black" points="886.271,-15.5713 876.26,-19.042 886.25,-22.5713 886.271,-15.5713"/>
<text text-anchor="middle" x="1940.5" y="-318.8" font-family="Times,serif" font-size="14.00">0.009</text>
</g>
<!-- JR&#45;&gt;Qu -->
<g id="edge85" class="edge"><title>JR&#45;&gt;Qu</title>
<path fill="none" stroke="black" d="M1245.21,-626.071C1301.28,-625.561 1433.29,-620.963 1539,-591 1642.8,-561.578 1760.86,-536.761 1725,-435 1710.75,-394.557 1514.74,-157.106 1475,-141 1403.32,-111.95 1169.29,-106.975 1077.46,-106.151"/>
<polygon fill="black" stroke="black" points="1077.27,-102.649 1067.24,-106.071 1077.21,-109.649 1077.27,-102.649"/>
<text text-anchor="middle" x="1708" y="-362.3" font-family="Times,serif" font-size="14.00">0.02</text>
</g>
<!-- JR&#45;&gt;Im -->
<g id="edge44" class="edge"><title>JR&#45;&gt;Im</title>
<path fill="none" stroke="black" d="M1191.15,-624.065C1150.11,-619.634 1072.01,-605.143 1029,-558 981.993,-506.478 972.274,-459.324 1012,-402 1024.98,-383.273 1040.63,-395.991 1060,-384 1089.95,-365.464 1103.94,-362.294 1118,-330 1131,-300.128 1140.64,-286.27 1095,-228 1087.07,-217.874 1075.36,-210.274 1064.11,-204.789"/>
<polygon fill="black" stroke="black" points="1065.43,-201.544 1054.87,-200.67 1062.58,-207.938 1065.43,-201.544"/>
<text text-anchor="middle" x="1023.5" y="-405.8" font-family="Times,serif" font-size="14.00">0.1</text>
</g>
<!-- JR&#45;&gt;PEU -->
<g id="edge24" class="edge"><title>JR&#45;&gt;PEU</title>
<path fill="none" stroke="black" d="M1245.32,-626.368C1311,-626.704 1475.4,-624.128 1517,-591 1582.72,-538.665 1582.1,-458.578 1520,-402 1503.22,-386.711 1479.41,-378.042 1459.13,-373.157"/>
<polygon fill="black" stroke="black" points="1459.71,-369.703 1449.2,-370.991 1458.22,-376.542 1459.71,-369.703"/>
<text text-anchor="middle" x="1587.5" y="-492.8" font-family="Times,serif" font-size="14.00">0.199</text>
</g>
<!-- JR&#45;&gt;SA -->
<g id="edge72" class="edge"><title>JR&#45;&gt;SA</title>
<path fill="none" stroke="black" d="M1191.66,-622.988C1155.2,-618.381 1087.54,-608.255 1032,-591 959.601,-568.508 946.285,-550.419 876,-522 854.491,-513.303 843.775,-520.027 827,-504 820.515,-497.804 815.948,-489.295 812.77,-481.053"/>
<polygon fill="black" stroke="black" points="816.01,-479.701 809.547,-471.305 809.364,-481.899 816.01,-479.701"/>
<text text-anchor="middle" x="972.5" y="-536.3" font-family="Times,serif" font-size="14.00">0.048</text>
</g>
<!-- JR&#45;&gt;Pf -->
<g id="edge79" class="edge"><title>JR&#45;&gt;Pf</title>
<path fill="none" stroke="black" d="M1208.25,-610.056C1203.37,-599.911 1199.55,-586.713 1205,-576 1209,-568.137 1215.68,-561.621 1222.81,-556.43"/>
<polygon fill="black" stroke="black" points="1224.78,-559.328 1231.25,-550.943 1220.96,-553.459 1224.78,-559.328"/>
<text text-anchor="middle" x="1221" y="-579.8" font-family="Times,serif" font-size="14.00">0.04</text>
</g>
</g>
</svg>
