<?xml version="1.0" encoding="UTF-8" standalone="no"?>
<!DOCTYPE svg PUBLIC "-//W3C//DTD SVG 1.1//EN"
 "http://www.w3.org/Graphics/SVG/1.1/DTD/svg11.dtd">
<!-- Generated by graphviz version 2.38.0 (20140413.2041)
 -->
<!-- Title: G Pages: 1 -->
<svg width="326pt" height="218pt"
 viewBox="0.00 0.00 325.63 218.00" xmlns="http://www.w3.org/2000/svg" xmlns:xlink="http://www.w3.org/1999/xlink">
<g id="graph0" class="graph" transform="scale(1 1) rotate(0) translate(4 214)">
<title>G</title>
<polygon fill="white" stroke="none" points="-4,4 -4,-214 321.633,-214 321.633,4 -4,4"/>
<!-- Motherhood myths -->
<g id="node1" class="node"><title>Motherhood myths</title>
<ellipse fill="none" stroke="black" cx="238.34" cy="-192" rx="79.0865" ry="18"/>
<text text-anchor="middle" x="238.34" y="-188.3" font-family="Times,serif" font-size="14.00">Motherhood myths</text>
</g>
<!-- Opposition to women&#39;s career -->
<g id="node2" class="node"><title>Opposition to women&#39;s career</title>
<ellipse fill="none" stroke="black" cx="116.34" cy="-105" rx="116.18" ry="18"/>
<text text-anchor="middle" x="116.34" y="-101.3" font-family="Times,serif" font-size="14.00">Opposition to women&#39;s career</text>
</g>
<!-- Motherhood myths&#45;&gt;Opposition to women&#39;s career -->
<g id="edge1" class="edge"><title>Motherhood myths&#45;&gt;Opposition to women&#39;s career</title>
<path fill="none" stroke="black" d="M194.459,-176.919C181.458,-171.558 167.678,-164.615 156.34,-156 147.444,-149.241 139.368,-140.083 132.839,-131.451"/>
<polygon fill="black" stroke="black" points="135.525,-129.19 126.853,-123.103 129.836,-133.27 135.525,-129.19"/>
<text text-anchor="middle" x="171.84" y="-144.8" font-family="Times,serif" font-size="14.00">0.238</text>
</g>
<!-- Sexism -->
<g id="node3" class="node"><title>Sexism</title>
<ellipse fill="none" stroke="black" cx="241.34" cy="-18" rx="37.0935" ry="18"/>
<text text-anchor="middle" x="241.34" y="-14.3" font-family="Times,serif" font-size="14.00">Sexism</text>
</g>
<!-- Motherhood myths&#45;&gt;Sexism -->
<g id="edge3" class="edge"><title>Motherhood myths&#45;&gt;Sexism</title>
<path fill="none" stroke="black" d="M239.408,-173.915C239.739,-168.218 240.085,-161.837 240.34,-156 242,-118.03 241.977,-74.0852 241.725,-46.4173"/>
<polygon fill="black" stroke="black" points="245.224,-46.2733 241.617,-36.3116 238.225,-46.3488 245.224,-46.2733"/>
<text text-anchor="middle" x="256.84" y="-101.3" font-family="Times,serif" font-size="14.00">0.204</text>
</g>
<!-- Opposition to women&#39;s career&#45;&gt;Motherhood myths -->
<g id="edge6" class="edge"><title>Opposition to women&#39;s career&#45;&gt;Motherhood myths</title>
<path fill="none" stroke="black" d="M154.457,-122.04C165.479,-127.397 177.25,-133.846 187.34,-141 197.667,-148.322 207.868,-157.756 216.401,-166.453"/>
<polygon fill="black" stroke="black" points="214.001,-169.008 223.432,-173.835 219.07,-164.18 214.001,-169.008"/>
<text text-anchor="middle" x="220.84" y="-144.8" font-family="Times,serif" font-size="14.00">0.158</text>
</g>
<!-- Opposition to women&#39;s career&#45;&gt;Sexism -->
<g id="edge4" class="edge"><title>Opposition to women&#39;s career&#45;&gt;Sexism</title>
<path fill="none" stroke="black" d="M119.427,-86.6123C122.172,-75.8911 127.225,-62.5946 136.34,-54 152.485,-38.776 175.433,-30.1649 195.759,-25.2985"/>
<polygon fill="black" stroke="black" points="196.752,-28.665 205.791,-23.1388 195.279,-21.8218 196.752,-28.665"/>
<text text-anchor="middle" x="151.84" y="-57.8" font-family="Times,serif" font-size="14.00">0.189</text>
</g>
<!-- Sexism&#45;&gt;Motherhood myths -->
<g id="edge5" class="edge"><title>Sexism&#45;&gt;Motherhood myths</title>
<path fill="none" stroke="black" d="M252.473,-35.1685C260.886,-48.425 271.744,-68.0307 276.34,-87 280.107,-102.55 280.372,-107.517 276.34,-123 272.39,-138.165 264.23,-153.533 256.481,-165.814"/>
<polygon fill="black" stroke="black" points="253.559,-163.888 250.977,-174.163 259.403,-167.74 253.559,-163.888"/>
<text text-anchor="middle" x="293.84" y="-101.3" font-family="Times,serif" font-size="14.00">0.186</text>
</g>
<!-- Sexism&#45;&gt;Opposition to women&#39;s career -->
<g id="edge2" class="edge"><title>Sexism&#45;&gt;Opposition to women&#39;s career</title>
<path fill="none" stroke="black" d="M220.428,-33.2196C201.031,-46.4101 171.847,-66.2551 149.312,-81.5785"/>
<polygon fill="black" stroke="black" points="147.337,-78.6893 141.036,-87.2067 151.273,-84.4778 147.337,-78.6893"/>
<text text-anchor="middle" x="197.84" y="-57.8" font-family="Times,serif" font-size="14.00">0.21</text>
</g>
</g>
</svg>
