<?xml version="1.0" encoding="UTF-8" standalone="no"?>
<!DOCTYPE svg PUBLIC "-//W3C//DTD SVG 1.1//EN"
 "http://www.w3.org/Graphics/SVG/1.1/DTD/svg11.dtd">
<!-- Generated by graphviz version 2.38.0 (20140413.2041)
 -->
<!-- Title: G Pages: 1 -->
<svg width="426pt" height="218pt"
 viewBox="0.00 0.00 425.93 218.00" xmlns="http://www.w3.org/2000/svg" xmlns:xlink="http://www.w3.org/1999/xlink">
<g id="graph0" class="graph" transform="scale(1 1) rotate(0) translate(4 214)">
<title>G</title>
<polygon fill="white" stroke="none" points="-4,4 -4,-214 421.928,-214 421.928,4 -4,4"/>
<!-- Sexism -->
<g id="node1" class="node"><title>Sexism</title>
<ellipse fill="none" stroke="black" cx="334.487" cy="-192" rx="44.393" ry="18"/>
<text text-anchor="middle" x="334.487" y="-188.3" font-family="Times,serif" font-size="14.00">Sexism</text>
</g>
<!-- Opposition to women&#39;s career -->
<g id="node2" class="node"><title>Opposition to women&#39;s career</title>
<ellipse fill="none" stroke="black" cx="149.487" cy="-105" rx="149.473" ry="18"/>
<text text-anchor="middle" x="149.487" y="-101.3" font-family="Times,serif" font-size="14.00">Opposition to women&#39;s career</text>
</g>
<!-- Sexism&#45;&gt;Opposition to women&#39;s career -->
<g id="edge1" class="edge"><title>Sexism&#45;&gt;Opposition to women&#39;s career</title>
<path fill="none" stroke="black" d="M306.389,-178.09C276.823,-164.506 229.83,-142.915 194.971,-126.898"/>
<polygon fill="black" stroke="black" points="196.034,-123.535 185.486,-122.54 193.111,-129.896 196.034,-123.535"/>
<text text-anchor="middle" x="273.987" y="-144.8" font-family="Times,serif" font-size="14.00">0.217</text>
</g>
<!-- Motherhood myths -->
<g id="node3" class="node"><title>Motherhood myths</title>
<ellipse fill="none" stroke="black" cx="318.487" cy="-18" rx="99.3824" ry="18"/>
<text text-anchor="middle" x="318.487" y="-14.3" font-family="Times,serif" font-size="14.00">Motherhood myths</text>
</g>
<!-- Sexism&#45;&gt;Motherhood myths -->
<g id="edge3" class="edge"><title>Sexism&#45;&gt;Motherhood myths</title>
<path fill="none" stroke="black" d="M332.894,-173.879C330.115,-144.001 324.358,-82.1129 321.024,-46.2736"/>
<polygon fill="black" stroke="black" points="324.484,-45.6844 320.073,-36.0516 317.514,-46.3328 324.484,-45.6844"/>
<text text-anchor="middle" x="347.987" y="-101.3" font-family="Times,serif" font-size="14.00">0.196</text>
</g>
<!-- Opposition to women&#39;s career&#45;&gt;Motherhood myths -->
<g id="edge5" class="edge"><title>Opposition to women&#39;s career&#45;&gt;Motherhood myths</title>
<path fill="none" stroke="black" d="M155.795,-86.7497C160.656,-75.8041 168.432,-62.2056 179.487,-54 193.434,-43.6473 210.11,-36.338 226.989,-31.1823"/>
<polygon fill="black" stroke="black" points="228.251,-34.4634 236.931,-28.3888 226.357,-27.7243 228.251,-34.4634"/>
<text text-anchor="middle" x="199.987" y="-57.8" font-family="Times,serif" font-size="14.00">0.086</text>
</g>
<!-- Motherhood myths&#45;&gt;Sexism -->
<g id="edge2" class="edge"><title>Motherhood myths&#45;&gt;Sexism</title>
<path fill="none" stroke="black" d="M340.126,-35.7269C354.299,-48.134 371.606,-66.4121 379.487,-87 390.166,-114.898 372.345,-146.29 356.076,-167.216"/>
<polygon fill="black" stroke="black" points="353.364,-165.004 349.75,-174.964 358.786,-169.432 353.364,-165.004"/>
<text text-anchor="middle" x="398.487" y="-101.3" font-family="Times,serif" font-size="14.00">0.21</text>
</g>
<!-- Motherhood myths&#45;&gt;Opposition to women&#39;s career -->
<g id="edge4" class="edge"><title>Motherhood myths&#45;&gt;Opposition to women&#39;s career</title>
<path fill="none" stroke="black" d="M286.444,-35.1163C259.583,-48.6261 221.023,-68.0204 191.657,-82.7899"/>
<polygon fill="black" stroke="black" points="189.834,-79.7893 182.473,-87.4094 192.979,-86.0428 189.834,-79.7893"/>
<text text-anchor="middle" x="264.987" y="-57.8" font-family="Times,serif" font-size="14.00">0.191</text>
</g>
</g>
</svg>
