<?xml version="1.0" encoding="UTF-8" standalone="no"?>
<!DOCTYPE svg PUBLIC "-//W3C//DTD SVG 1.1//EN"
 "http://www.w3.org/Graphics/SVG/1.1/DTD/svg11.dtd">
<!-- Generated by graphviz version 2.38.0 (20140413.2041)
 -->
<!-- Title: G Pages: 1 -->
<svg width="339pt" height="218pt"
 viewBox="0.00 0.00 339.34 218.00" xmlns="http://www.w3.org/2000/svg" xmlns:xlink="http://www.w3.org/1999/xlink">
<g id="graph0" class="graph" transform="scale(1 1) rotate(0) translate(4 214)">
<title>G</title>
<polygon fill="white" stroke="none" points="-4,4 -4,-214 335.34,-214 335.34,4 -4,4"/>
<!-- Sexism -->
<g id="node1" class="node"><title>Sexism</title>
<ellipse fill="none" stroke="black" cx="236.34" cy="-192" rx="37.0935" ry="18"/>
<text text-anchor="middle" x="236.34" y="-188.3" font-family="Times,serif" font-size="14.00">Sexism</text>
</g>
<!-- Opposition to women&#39;s career -->
<g id="node2" class="node"><title>Opposition to women&#39;s career</title>
<ellipse fill="none" stroke="black" cx="116.34" cy="-105" rx="116.18" ry="18"/>
<text text-anchor="middle" x="116.34" y="-101.3" font-family="Times,serif" font-size="14.00">Opposition to women&#39;s career</text>
</g>
<!-- Sexism&#45;&gt;Opposition to women&#39;s career -->
<g id="edge1" class="edge"><title>Sexism&#45;&gt;Opposition to women&#39;s career</title>
<path fill="none" stroke="black" d="M204.611,-182.393C187.873,-176.77 167.685,-168.177 152.34,-156 144.007,-149.387 136.715,-140.367 130.913,-131.806"/>
<polygon fill="black" stroke="black" points="133.743,-129.735 125.425,-123.173 127.836,-133.49 133.743,-129.735"/>
<text text-anchor="middle" x="167.84" y="-144.8" font-family="Times,serif" font-size="14.00">0.217</text>
</g>
<!-- Motherhood myths -->
<g id="node3" class="node"><title>Motherhood myths</title>
<ellipse fill="none" stroke="black" cx="238.34" cy="-18" rx="79.0865" ry="18"/>
<text text-anchor="middle" x="238.34" y="-14.3" font-family="Times,serif" font-size="14.00">Motherhood myths</text>
</g>
<!-- Sexism&#45;&gt;Motherhood myths -->
<g id="edge3" class="edge"><title>Sexism&#45;&gt;Motherhood myths</title>
<path fill="none" stroke="black" d="M238.579,-173.937C239.249,-168.242 239.917,-161.856 240.34,-156 243.076,-118.089 241.617,-74.1298 240.134,-46.4425"/>
<polygon fill="black" stroke="black" points="243.621,-46.1113 239.552,-36.3289 236.633,-46.5135 243.621,-46.1113"/>
<text text-anchor="middle" x="256.84" y="-101.3" font-family="Times,serif" font-size="14.00">0.196</text>
</g>
<!-- Opposition to women&#39;s career&#45;&gt;Sexism -->
<g id="edge6" class="edge"><title>Opposition to women&#39;s career&#45;&gt;Sexism</title>
<path fill="none" stroke="black" d="M151.837,-122.243C162.334,-127.647 173.612,-134.072 183.34,-141 194.449,-148.911 205.601,-159.027 214.789,-168.087"/>
<polygon fill="black" stroke="black" points="212.481,-170.731 222.002,-175.378 217.457,-165.808 212.481,-170.731"/>
<text text-anchor="middle" x="218.34" y="-144.8" font-family="Times,serif" font-size="14.00">&#45;0.024</text>
</g>
<!-- Opposition to women&#39;s career&#45;&gt;Motherhood myths -->
<g id="edge5" class="edge"><title>Opposition to women&#39;s career&#45;&gt;Motherhood myths</title>
<path fill="none" stroke="black" d="M118.689,-86.65C120.989,-75.9437 125.507,-62.6498 134.34,-54 143.722,-44.8123 155.591,-38.0348 167.929,-33.0357"/>
<polygon fill="black" stroke="black" points="169.241,-36.2824 177.421,-29.549 166.827,-29.7116 169.241,-36.2824"/>
<text text-anchor="middle" x="149.84" y="-57.8" font-family="Times,serif" font-size="14.00">0.086</text>
</g>
<!-- Motherhood myths&#45;&gt;Sexism -->
<g id="edge2" class="edge"><title>Motherhood myths&#45;&gt;Sexism</title>
<path fill="none" stroke="black" d="M261.98,-35.4699C268.96,-40.9274 276.333,-47.325 282.34,-54 303.783,-77.8274 312.302,-92.2229 303.34,-123 297.553,-142.871 281.47,-159.536 266.512,-171.395"/>
<polygon fill="black" stroke="black" points="264.296,-168.682 258.39,-177.478 268.492,-174.284 264.296,-168.682"/>
<text text-anchor="middle" x="318.84" y="-101.3" font-family="Times,serif" font-size="14.00">0.21</text>
</g>
<!-- Motherhood myths&#45;&gt;Opposition to women&#39;s career -->
<g id="edge4" class="edge"><title>Motherhood myths&#45;&gt;Opposition to women&#39;s career</title>
<path fill="none" stroke="black" d="M214.702,-35.4692C195.907,-48.5638 169.416,-67.0206 148.66,-81.4816"/>
<polygon fill="black" stroke="black" points="146.647,-78.6184 140.443,-87.2067 150.649,-84.3619 146.647,-78.6184"/>
<text text-anchor="middle" x="199.84" y="-57.8" font-family="Times,serif" font-size="14.00">0.191</text>
</g>
</g>
</svg>
