<?xml version="1.0" encoding="UTF-8" standalone="no"?>
<!DOCTYPE svg PUBLIC "-//W3C//DTD SVG 1.1//EN"
 "http://www.w3.org/Graphics/SVG/1.1/DTD/svg11.dtd">
<!-- Generated by graphviz version 2.38.0 (20140413.2041)
 -->
<!-- Title: G Pages: 1 -->
<svg width="442pt" height="218pt"
 viewBox="0.00 0.00 441.93 218.00" xmlns="http://www.w3.org/2000/svg" xmlns:xlink="http://www.w3.org/1999/xlink">
<g id="graph0" class="graph" transform="scale(1 1) rotate(0) translate(4 214)">
<title>G</title>
<polygon fill="white" stroke="none" points="-4,4 -4,-214 437.928,-214 437.928,4 -4,4"/>
<!-- Motherhood myths -->
<g id="node1" class="node"><title>Motherhood myths</title>
<ellipse fill="none" stroke="black" cx="334.487" cy="-192" rx="99.3824" ry="18"/>
<text text-anchor="middle" x="334.487" y="-188.3" font-family="Times,serif" font-size="14.00">Motherhood myths</text>
</g>
<!-- Opposition to women&#39;s career -->
<g id="node2" class="node"><title>Opposition to women&#39;s career</title>
<ellipse fill="none" stroke="black" cx="149.487" cy="-105" rx="149.473" ry="18"/>
<text text-anchor="middle" x="149.487" y="-101.3" font-family="Times,serif" font-size="14.00">Opposition to women&#39;s career</text>
</g>
<!-- Motherhood myths&#45;&gt;Opposition to women&#39;s career -->
<g id="edge1" class="edge"><title>Motherhood myths&#45;&gt;Opposition to women&#39;s career</title>
<path fill="none" stroke="black" d="M299.69,-175.012C269.967,-161.356 227.01,-141.619 194.643,-126.747"/>
<polygon fill="black" stroke="black" points="195.938,-123.491 185.39,-122.496 193.015,-129.851 195.938,-123.491"/>
<text text-anchor="middle" x="273.987" y="-144.8" font-family="Times,serif" font-size="14.00">0.225</text>
</g>
<!-- Sexism -->
<g id="node3" class="node"><title>Sexism</title>
<ellipse fill="none" stroke="black" cx="318.487" cy="-18" rx="44.393" ry="18"/>
<text text-anchor="middle" x="318.487" y="-14.3" font-family="Times,serif" font-size="14.00">Sexism</text>
</g>
<!-- Motherhood myths&#45;&gt;Sexism -->
<g id="edge3" class="edge"><title>Motherhood myths&#45;&gt;Sexism</title>
<path fill="none" stroke="black" d="M332.894,-173.879C330.115,-144.001 324.358,-82.1129 321.024,-46.2736"/>
<polygon fill="black" stroke="black" points="324.484,-45.6844 320.073,-36.0516 317.514,-46.3328 324.484,-45.6844"/>
<text text-anchor="middle" x="347.987" y="-101.3" font-family="Times,serif" font-size="14.00">0.173</text>
</g>
<!-- Opposition to women&#39;s career&#45;&gt;Sexism -->
<g id="edge4" class="edge"><title>Opposition to women&#39;s career&#45;&gt;Sexism</title>
<path fill="none" stroke="black" d="M155.795,-86.7497C160.656,-75.8041 168.432,-62.2056 179.487,-54 204.135,-35.7047 237.302,-26.9143 265.056,-22.7167"/>
<polygon fill="black" stroke="black" points="265.57,-26.1791 275.01,-21.3689 264.631,-19.2423 265.57,-26.1791"/>
<text text-anchor="middle" x="199.987" y="-57.8" font-family="Times,serif" font-size="14.00">0.091</text>
</g>
<!-- Sexism&#45;&gt;Motherhood myths -->
<g id="edge5" class="edge"><title>Sexism&#45;&gt;Motherhood myths</title>
<path fill="none" stroke="black" d="M336.079,-34.6253C348.92,-47.2859 365.288,-66.3602 372.487,-87 381.903,-113.999 367.547,-144.735 353.865,-165.75"/>
<polygon fill="black" stroke="black" points="350.892,-163.898 348.114,-174.122 356.661,-167.861 350.892,-163.898"/>
<text text-anchor="middle" x="395.987" y="-101.3" font-family="Times,serif" font-size="14.00">0.049</text>
</g>
<!-- Sexism&#45;&gt;Opposition to women&#39;s career -->
<g id="edge2" class="edge"><title>Sexism&#45;&gt;Opposition to women&#39;s career</title>
<path fill="none" stroke="black" d="M291.699,-32.4729C264.747,-46.0289 222.793,-67.1299 191.427,-82.9056"/>
<polygon fill="black" stroke="black" points="189.834,-79.7892 182.473,-87.4094 192.979,-86.0428 189.834,-79.7892"/>
<text text-anchor="middle" x="264.987" y="-57.8" font-family="Times,serif" font-size="14.00">0.192</text>
</g>
</g>
</svg>
