<?xml version="1.0" encoding="UTF-8" standalone="no"?>
<!DOCTYPE svg PUBLIC "-//W3C//DTD SVG 1.1//EN"
 "http://www.w3.org/Graphics/SVG/1.1/DTD/svg11.dtd">
<!-- Generated by graphviz version 2.38.0 (20140413.2041)
 -->
<!-- Title: G Pages: 1 -->
<svg width="406pt" height="218pt"
 viewBox="0.00 0.00 405.93 218.00" xmlns="http://www.w3.org/2000/svg" xmlns:xlink="http://www.w3.org/1999/xlink">
<g id="graph0" class="graph" transform="scale(1 1) rotate(0) translate(4 214)">
<title>G</title>
<polygon fill="white" stroke="none" points="-4,4 -4,-214 401.928,-214 401.928,4 -4,4"/>
<!-- Motherhood myths -->
<g id="node1" class="node"><title>Motherhood myths</title>
<ellipse fill="none" stroke="black" cx="298.487" cy="-192" rx="99.3824" ry="18"/>
<text text-anchor="middle" x="298.487" y="-188.3" font-family="Times,serif" font-size="14.00">Motherhood myths</text>
</g>
<!-- Opposition to women&#39;s career -->
<g id="node2" class="node"><title>Opposition to women&#39;s career</title>
<ellipse fill="none" stroke="black" cx="149.487" cy="-105" rx="149.473" ry="18"/>
<text text-anchor="middle" x="149.487" y="-101.3" font-family="Times,serif" font-size="14.00">Opposition to women&#39;s career</text>
</g>
<!-- Motherhood myths&#45;&gt;Opposition to women&#39;s career -->
<g id="edge1" class="edge"><title>Motherhood myths&#45;&gt;Opposition to women&#39;s career</title>
<path fill="none" stroke="black" d="M244.584,-176.798C229.358,-171.521 213.211,-164.654 199.487,-156 188.725,-149.214 178.482,-139.727 170.101,-130.839"/>
<polygon fill="black" stroke="black" points="172.554,-128.333 163.25,-123.265 167.363,-133.029 172.554,-128.333"/>
<text text-anchor="middle" x="219.987" y="-144.8" font-family="Times,serif" font-size="14.00">0.256</text>
</g>
<!-- Sexism -->
<g id="node3" class="node"><title>Sexism</title>
<ellipse fill="none" stroke="black" cx="300.487" cy="-18" rx="44.393" ry="18"/>
<text text-anchor="middle" x="300.487" y="-14.3" font-family="Times,serif" font-size="14.00">Sexism</text>
</g>
<!-- Motherhood myths&#45;&gt;Sexism -->
<g id="edge3" class="edge"><title>Motherhood myths&#45;&gt;Sexism</title>
<path fill="none" stroke="black" d="M302.375,-173.988C303.546,-168.296 304.722,-161.899 305.487,-156 307.376,-141.428 307.042,-137.687 307.487,-123 307.971,-107.007 308.307,-102.979 307.487,-87 306.795,-73.5245 305.337,-58.6059 303.93,-46.184"/>
<polygon fill="black" stroke="black" points="307.377,-45.5293 302.727,-36.0095 300.425,-46.3513 307.377,-45.5293"/>
<text text-anchor="middle" x="327.987" y="-101.3" font-family="Times,serif" font-size="14.00">0.219</text>
</g>
<!-- Opposition to women&#39;s career&#45;&gt;Motherhood myths -->
<g id="edge6" class="edge"><title>Opposition to women&#39;s career&#45;&gt;Motherhood myths</title>
<path fill="none" stroke="black" d="M200.527,-122.096C213.961,-127.27 228.141,-133.611 240.487,-141 252.548,-148.219 264.541,-158.004 274.463,-167.004"/>
<polygon fill="black" stroke="black" points="272.243,-169.72 281.939,-173.99 277.022,-164.605 272.243,-169.72"/>
<text text-anchor="middle" x="280.987" y="-144.8" font-family="Times,serif" font-size="14.00">0.096</text>
</g>
<!-- Opposition to women&#39;s career&#45;&gt;Sexism -->
<g id="edge5" class="edge"><title>Opposition to women&#39;s career&#45;&gt;Sexism</title>
<path fill="none" stroke="black" d="M155.891,-86.876C160.792,-75.9837 168.577,-62.3972 179.487,-54 199.186,-38.8376 225.25,-30.2396 248.141,-25.3659"/>
<polygon fill="black" stroke="black" points="248.915,-28.781 258.064,-23.4377 247.58,-21.9095 248.915,-28.781"/>
<text text-anchor="middle" x="195.487" y="-57.8" font-family="Times,serif" font-size="14.00">0.13</text>
</g>
<!-- Sexism&#45;&gt;Motherhood myths -->
<g id="edge4" class="edge"><title>Sexism&#45;&gt;Motherhood myths</title>
<path fill="none" stroke="black" d="M317.44,-34.754C329.812,-47.4838 345.577,-66.5884 352.487,-87 357.617,-102.155 357.756,-107.892 352.487,-123 346.745,-139.464 335.168,-154.932 324.201,-166.943"/>
<polygon fill="black" stroke="black" points="321.534,-164.667 317.15,-174.312 326.592,-169.507 321.534,-164.667"/>
<text text-anchor="middle" x="375.987" y="-101.3" font-family="Times,serif" font-size="14.00">0.188</text>
</g>
<!-- Sexism&#45;&gt;Opposition to women&#39;s career -->
<g id="edge2" class="edge"><title>Sexism&#45;&gt;Opposition to women&#39;s career</title>
<path fill="none" stroke="black" d="M275.711,-32.9468C251.991,-46.2992 215.842,-66.6475 188.3,-82.1516"/>
<polygon fill="black" stroke="black" points="186.317,-79.2514 179.319,-87.2067 189.751,-85.3513 186.317,-79.2514"/>
<text text-anchor="middle" x="249.487" y="-57.8" font-family="Times,serif" font-size="14.00">0.25</text>
</g>
</g>
</svg>
