<?xml version="1.0" encoding="UTF-8" standalone="no"?>
<!DOCTYPE svg PUBLIC "-//W3C//DTD SVG 1.1//EN"
 "http://www.w3.org/Graphics/SVG/1.1/DTD/svg11.dtd">
<!-- Generated by graphviz version 2.38.0 (20140413.2041)
 -->
<!-- Title: G Pages: 1 -->
<svg width="406pt" height="218pt"
 viewBox="0.00 0.00 405.93 218.00" xmlns="http://www.w3.org/2000/svg" xmlns:xlink="http://www.w3.org/1999/xlink">
<g id="graph0" class="graph" transform="scale(1 1) rotate(0) translate(4 214)">
<title>G</title>
<polygon fill="white" stroke="none" points="-4,4 -4,-214 401.928,-214 401.928,4 -4,4"/>
<!-- Motherhood myths -->
<g id="node1" class="node"><title>Motherhood myths</title>
<ellipse fill="none" stroke="black" cx="298.487" cy="-192" rx="99.3824" ry="18"/>
<text text-anchor="middle" x="298.487" y="-188.3" font-family="Times,serif" font-size="14.00">Motherhood myths</text>
</g>
<!-- Opposition to women&#39;s career -->
<g id="node2" class="node"><title>Opposition to women&#39;s career</title>
<ellipse fill="none" stroke="black" cx="149.487" cy="-105" rx="149.473" ry="18"/>
<text text-anchor="middle" x="149.487" y="-101.3" font-family="Times,serif" font-size="14.00">Opposition to women&#39;s career</text>
</g>
<!-- Motherhood myths&#45;&gt;Opposition to women&#39;s career -->
<g id="edge1" class="edge"><title>Motherhood myths&#45;&gt;Opposition to women&#39;s career</title>
<path fill="none" stroke="black" d="M244.584,-176.798C229.358,-171.521 213.211,-164.654 199.487,-156 188.725,-149.214 178.482,-139.727 170.101,-130.839"/>
<polygon fill="black" stroke="black" points="172.554,-128.333 163.25,-123.265 167.363,-133.029 172.554,-128.333"/>
<text text-anchor="middle" x="219.987" y="-144.8" font-family="Times,serif" font-size="14.00">0.261</text>
</g>
<!-- Sexism -->
<g id="node3" class="node"><title>Sexism</title>
<ellipse fill="none" stroke="black" cx="298.487" cy="-18" rx="44.393" ry="18"/>
<text text-anchor="middle" x="298.487" y="-14.3" font-family="Times,serif" font-size="14.00">Sexism</text>
</g>
<!-- Motherhood myths&#45;&gt;Sexism -->
<g id="edge2" class="edge"><title>Motherhood myths&#45;&gt;Sexism</title>
<path fill="none" stroke="black" d="M302.375,-173.988C303.546,-168.296 304.722,-161.899 305.487,-156 309.432,-125.575 309.504,-117.613 307.487,-87 306.597,-73.4899 304.722,-58.5674 302.913,-46.1519"/>
<polygon fill="black" stroke="black" points="306.33,-45.3451 301.366,-35.9852 299.41,-46.3978 306.33,-45.3451"/>
<text text-anchor="middle" x="328.987" y="-101.3" font-family="Times,serif" font-size="14.00">0.241</text>
</g>
<!-- Opposition to women&#39;s career&#45;&gt;Motherhood myths -->
<g id="edge6" class="edge"><title>Opposition to women&#39;s career&#45;&gt;Motherhood myths</title>
<path fill="none" stroke="black" d="M200.527,-122.096C213.961,-127.27 228.141,-133.611 240.487,-141 252.548,-148.219 264.541,-158.004 274.463,-167.004"/>
<polygon fill="black" stroke="black" points="272.243,-169.72 281.939,-173.99 277.022,-164.605 272.243,-169.72"/>
<text text-anchor="middle" x="280.987" y="-144.8" font-family="Times,serif" font-size="14.00">0.154</text>
</g>
<!-- Opposition to women&#39;s career&#45;&gt;Sexism -->
<g id="edge5" class="edge"><title>Opposition to women&#39;s career&#45;&gt;Sexism</title>
<path fill="none" stroke="black" d="M151.183,-86.9502C153.144,-76.0892 157.373,-62.5098 166.487,-54 187.369,-34.5023 217.84,-25.6053 244.245,-21.6493"/>
<polygon fill="black" stroke="black" points="245.045,-25.0751 254.514,-20.3219 244.148,-18.1329 245.045,-25.0751"/>
<text text-anchor="middle" x="186.987" y="-57.8" font-family="Times,serif" font-size="14.00">0.167</text>
</g>
<!-- Sexism&#45;&gt;Motherhood myths -->
<g id="edge4" class="edge"><title>Sexism&#45;&gt;Motherhood myths</title>
<path fill="none" stroke="black" d="M316.399,-34.5599C329.474,-47.1854 346.144,-66.2442 353.487,-87 358.823,-102.084 358.823,-107.916 353.487,-123 347.671,-139.439 336.004,-154.814 324.907,-166.771"/>
<polygon fill="black" stroke="black" points="322.229,-164.503 317.764,-174.111 327.246,-169.385 322.229,-164.503"/>
<text text-anchor="middle" x="368.987" y="-101.3" font-family="Times,serif" font-size="14.00">0.2</text>
</g>
<!-- Sexism&#45;&gt;Opposition to women&#39;s career -->
<g id="edge3" class="edge"><title>Sexism&#45;&gt;Opposition to women&#39;s career</title>
<path fill="none" stroke="black" d="M274.14,-33.0592C256.712,-43.1068 232.679,-56.9287 211.487,-69 203.921,-73.3092 195.826,-77.8968 188.064,-82.2833"/>
<polygon fill="black" stroke="black" points="186.145,-79.3474 179.157,-87.3116 189.586,-85.4431 186.145,-79.3474"/>
<text text-anchor="middle" x="254.987" y="-57.8" font-family="Times,serif" font-size="14.00">0.226</text>
</g>
</g>
</svg>
