<?xml version="1.0" encoding="UTF-8" standalone="no"?>
<!DOCTYPE svg PUBLIC "-//W3C//DTD SVG 1.1//EN"
 "http://www.w3.org/Graphics/SVG/1.1/DTD/svg11.dtd">
<!-- Generated by graphviz version 2.38.0 (20140413.2041)
 -->
<!-- Title: G Pages: 1 -->
<svg width="307pt" height="218pt"
 viewBox="0.00 0.00 306.97 218.00" xmlns="http://www.w3.org/2000/svg" xmlns:xlink="http://www.w3.org/1999/xlink">
<g id="graph0" class="graph" transform="scale(1 1) rotate(0) translate(4 214)">
<title>G</title>
<polygon fill="white" stroke="none" points="-4,4 -4,-214 302.973,-214 302.973,4 -4,4"/>
<!-- Motherhood myths -->
<g id="node1" class="node"><title>Motherhood myths</title>
<ellipse fill="none" stroke="black" cx="149.487" cy="-192" rx="99.3824" ry="18"/>
<text text-anchor="middle" x="149.487" y="-188.3" font-family="Times,serif" font-size="14.00">Motherhood myths</text>
</g>
<!-- Sexism -->
<g id="node2" class="node"><title>Sexism</title>
<ellipse fill="none" stroke="black" cx="75.4867" cy="-105" rx="44.393" ry="18"/>
<text text-anchor="middle" x="75.4867" y="-101.3" font-family="Times,serif" font-size="14.00">Sexism</text>
</g>
<!-- Motherhood myths&#45;&gt;Sexism -->
<g id="edge1" class="edge"><title>Motherhood myths&#45;&gt;Sexism</title>
<path fill="none" stroke="black" d="M80.9985,-178.791C69.4,-173.638 58.7717,-166.337 51.4867,-156 45.9704,-148.172 48.3623,-138.88 53.3505,-130.443"/>
<polygon fill="black" stroke="black" points="56.3616,-132.247 59.2658,-122.058 50.6415,-128.212 56.3616,-132.247"/>
<text text-anchor="middle" x="74.4867" y="-144.8" font-family="Times,serif" font-size="14.00">&#45;0.149</text>
</g>
<!-- Opposition to women&#39;s career -->
<g id="node3" class="node"><title>Opposition to women&#39;s career</title>
<ellipse fill="none" stroke="black" cx="149.487" cy="-18" rx="149.473" ry="18"/>
<text text-anchor="middle" x="149.487" y="-14.3" font-family="Times,serif" font-size="14.00">Opposition to women&#39;s career</text>
</g>
<!-- Motherhood myths&#45;&gt;Opposition to women&#39;s career -->
<g id="edge6" class="edge"><title>Motherhood myths&#45;&gt;Opposition to women&#39;s career</title>
<path fill="none" stroke="black" d="M159.763,-173.769C162.506,-168.28 165.094,-162.057 166.487,-156 176.648,-111.82 176.648,-98.1797 166.487,-54 165.834,-51.1609 164.918,-48.2852 163.847,-45.4656"/>
<polygon fill="black" stroke="black" points="167.009,-43.9608 159.763,-36.2312 160.607,-46.7923 167.009,-43.9608"/>
<text text-anchor="middle" x="196.487" y="-101.3" font-family="Times,serif" font-size="14.00">&#45;1.063</text>
</g>
<!-- Sexism&#45;&gt;Motherhood myths -->
<g id="edge5" class="edge"><title>Sexism&#45;&gt;Motherhood myths</title>
<path fill="none" stroke="black" d="M89.6863,-122.31C100.434,-134.655 115.388,-151.832 127.653,-165.921"/>
<polygon fill="black" stroke="black" points="125.306,-168.555 134.512,-173.799 130.585,-163.959 125.306,-168.555"/>
<text text-anchor="middle" x="139.487" y="-144.8" font-family="Times,serif" font-size="14.00">&#45;0.941</text>
</g>
<!-- Sexism&#45;&gt;Opposition to women&#39;s career -->
<g id="edge4" class="edge"><title>Sexism&#45;&gt;Opposition to women&#39;s career</title>
<path fill="none" stroke="black" d="M62.3378,-87.6911C55.7299,-77.4002 50.4692,-64.178 57.4867,-54 61.4624,-48.2339 66.5231,-43.417 72.2195,-39.3931"/>
<polygon fill="black" stroke="black" points="74.2601,-42.2479 80.9679,-34.047 70.61,-36.2749 74.2601,-42.2479"/>
<text text-anchor="middle" x="80.4867" y="-57.8" font-family="Times,serif" font-size="14.00">&#45;0.732</text>
</g>
<!-- Opposition to women&#39;s career&#45;&gt;Motherhood myths -->
<g id="edge3" class="edge"><title>Opposition to women&#39;s career&#45;&gt;Motherhood myths</title>
<path fill="none" stroke="black" d="M181.22,-35.7918C199.497,-47.4294 220.728,-64.8152 230.487,-87 236.929,-101.646 236.929,-108.354 230.487,-123 222.05,-142.178 205.041,-157.77 188.778,-169.162"/>
<polygon fill="black" stroke="black" points="186.784,-166.285 180.391,-174.733 190.658,-172.115 186.784,-166.285"/>
<text text-anchor="middle" x="257.487" y="-101.3" font-family="Times,serif" font-size="14.00">&#45;0.651</text>
</g>
<!-- Opposition to women&#39;s career&#45;&gt;Sexism -->
<g id="edge2" class="edge"><title>Opposition to women&#39;s career&#45;&gt;Sexism</title>
<path fill="none" stroke="black" d="M134.756,-35.9203C123.824,-48.4774 108.762,-65.7787 96.5574,-79.7972"/>
<polygon fill="black" stroke="black" points="93.6811,-77.7707 89.7547,-87.6111 98.9607,-82.3671 93.6811,-77.7707"/>
<text text-anchor="middle" x="139.487" y="-57.8" font-family="Times,serif" font-size="14.00">&#45;0.354</text>
</g>
</g>
</svg>
