<?xml version="1.0" encoding="UTF-8" standalone="no"?>
<!DOCTYPE svg PUBLIC "-//W3C//DTD SVG 1.1//EN"
 "http://www.w3.org/Graphics/SVG/1.1/DTD/svg11.dtd">
<!-- Generated by graphviz version 2.38.0 (20140413.2041)
 -->
<!-- Title: G Pages: 1 -->
<svg width="409pt" height="218pt"
 viewBox="0.00 0.00 408.93 218.00" xmlns="http://www.w3.org/2000/svg" xmlns:xlink="http://www.w3.org/1999/xlink">
<g id="graph0" class="graph" transform="scale(1 1) rotate(0) translate(4 214)">
<title>G</title>
<polygon fill="white" stroke="none" points="-4,4 -4,-214 404.928,-214 404.928,4 -4,4"/>
<!-- Motherhood myths -->
<g id="node1" class="node"><title>Motherhood myths</title>
<ellipse fill="none" stroke="black" cx="301.487" cy="-192" rx="99.3824" ry="18"/>
<text text-anchor="middle" x="301.487" y="-188.3" font-family="Times,serif" font-size="14.00">Motherhood myths</text>
</g>
<!-- Opposition to women&#39;s career -->
<g id="node2" class="node"><title>Opposition to women&#39;s career</title>
<ellipse fill="none" stroke="black" cx="149.487" cy="-105" rx="149.473" ry="18"/>
<text text-anchor="middle" x="149.487" y="-101.3" font-family="Times,serif" font-size="14.00">Opposition to women&#39;s career</text>
</g>
<!-- Motherhood myths&#45;&gt;Opposition to women&#39;s career -->
<g id="edge1" class="edge"><title>Motherhood myths&#45;&gt;Opposition to women&#39;s career</title>
<path fill="none" stroke="black" d="M251.098,-176.313C236.212,-170.962 220.234,-164.176 206.487,-156 194.524,-148.886 182.72,-139.118 172.983,-130.104"/>
<polygon fill="black" stroke="black" points="175.303,-127.479 165.655,-123.1 170.466,-132.54 175.303,-127.479"/>
<text text-anchor="middle" x="226.987" y="-144.8" font-family="Times,serif" font-size="14.00">0.259</text>
</g>
<!-- Sexism -->
<g id="node3" class="node"><title>Sexism</title>
<ellipse fill="none" stroke="black" cx="298.487" cy="-18" rx="44.393" ry="18"/>
<text text-anchor="middle" x="298.487" y="-14.3" font-family="Times,serif" font-size="14.00">Sexism</text>
</g>
<!-- Motherhood myths&#45;&gt;Sexism -->
<g id="edge2" class="edge"><title>Motherhood myths&#45;&gt;Sexism</title>
<path fill="none" stroke="black" d="M303.791,-173.697C306.238,-153.053 309.496,-117.498 307.487,-87 306.597,-73.4899 304.722,-58.5674 302.913,-46.1519"/>
<polygon fill="black" stroke="black" points="306.33,-45.3451 301.366,-35.9852 299.41,-46.3978 306.33,-45.3451"/>
<text text-anchor="middle" x="327.987" y="-101.3" font-family="Times,serif" font-size="14.00">0.232</text>
</g>
<!-- Opposition to women&#39;s career&#45;&gt;Motherhood myths -->
<g id="edge6" class="edge"><title>Opposition to women&#39;s career&#45;&gt;Motherhood myths</title>
<path fill="none" stroke="black" d="M205.694,-121.698C219.854,-126.814 234.664,-133.226 247.487,-141 258.925,-147.934 270.038,-157.558 279.18,-166.513"/>
<polygon fill="black" stroke="black" points="276.849,-169.134 286.359,-173.804 281.836,-164.223 276.849,-169.134"/>
<text text-anchor="middle" x="282.487" y="-144.8" font-family="Times,serif" font-size="14.00">0.16</text>
</g>
<!-- Opposition to women&#39;s career&#45;&gt;Sexism -->
<g id="edge5" class="edge"><title>Opposition to women&#39;s career&#45;&gt;Sexism</title>
<path fill="none" stroke="black" d="M151.183,-86.9502C153.144,-76.0892 157.373,-62.5098 166.487,-54 187.369,-34.5023 217.84,-25.6053 244.245,-21.6493"/>
<polygon fill="black" stroke="black" points="245.045,-25.0751 254.514,-20.3219 244.148,-18.1329 245.045,-25.0751"/>
<text text-anchor="middle" x="186.987" y="-57.8" font-family="Times,serif" font-size="14.00">0.167</text>
</g>
<!-- Sexism&#45;&gt;Motherhood myths -->
<g id="edge4" class="edge"><title>Sexism&#45;&gt;Motherhood myths</title>
<path fill="none" stroke="black" d="M316.079,-34.6253C328.92,-47.2859 345.288,-66.3602 352.487,-87 357.756,-102.108 357.546,-107.821 352.487,-123 347.141,-139.038 336.366,-154.34 326.092,-166.353"/>
<polygon fill="black" stroke="black" points="323.204,-164.331 319.132,-174.112 328.415,-169.005 323.204,-164.331"/>
<text text-anchor="middle" x="375.987" y="-101.3" font-family="Times,serif" font-size="14.00">0.202</text>
</g>
<!-- Sexism&#45;&gt;Opposition to women&#39;s career -->
<g id="edge3" class="edge"><title>Sexism&#45;&gt;Opposition to women&#39;s career</title>
<path fill="none" stroke="black" d="M274.14,-33.0592C256.712,-43.1068 232.679,-56.9287 211.487,-69 203.921,-73.3092 195.826,-77.8968 188.064,-82.2833"/>
<polygon fill="black" stroke="black" points="186.145,-79.3474 179.157,-87.3116 189.586,-85.4431 186.145,-79.3474"/>
<text text-anchor="middle" x="254.987" y="-57.8" font-family="Times,serif" font-size="14.00">0.225</text>
</g>
</g>
</svg>
